<svg id="Calque_2" data-name="Calque 2" xmlns="http://www.w3.org/2000/svg" viewBox="0 0 1280.59 221.85"><defs><style>.cls-1{fill:none;}.cls-2{fill:#1d1d1b;}</style></defs><path class="cls-1" d="M0,191.56a64.78,64.78,0,0,0,9,9.41,66.56,66.56,0,0,0,10.73,7.19l7-13.23a51.68,51.68,0,0,1-8.09-5.42,50.18,50.18,0,0,1-6.67-7Z" transform="translate(0.02 -2.89)"/><path class="cls-2" d="M6,188.63c.66.79,1.28,1.61,2,2.36l2.13,2.23,1.4-1.42-2.05-2.14c-.67-.72-1.26-1.52-1.9-2.27Z" transform="translate(0.02 -2.89)"/><polygon class="cls-2" points="11.98 192.07 13.12 193.1 14.34 194.05 15.57 192.49 14.41 191.57 13.31 190.58 11.98 192.07"/><path class="cls-2" d="M16.35,198.5l2.55,1.72c.86.56,1.77,1,2.65,1.56l1-1.74c-.85-.5-1.73-1-2.56-1.51l-2.46-1.65Z" transform="translate(0.02 -2.89)"/><path class="cls-1" d="M19.66,208.16A70,70,0,0,0,31.5,213a74.56,74.56,0,0,0,12.38,2.55l1.74-14.86a61.32,61.32,0,0,1-9.82-2,55.33,55.33,0,0,1-9.15-3.72Z" transform="translate(0.02 -2.89)"/><path class="cls-2" d="M23.85,203c1.82.95,3.72,1.71,5.62,2.48l.7-1.87c-1.83-.75-3.68-1.47-5.43-2.39Z" transform="translate(0.02 -2.89)"/><path class="cls-2" d="M31.89,206.29c1,.36,2,.61,3,.88l.52-1.92c-1-.26-1.91-.51-2.84-.85Z" transform="translate(0.02 -2.89)"/><polygon class="cls-2" points="37.34 204.92 40.34 205.56 43.37 206.02 43.64 204.05 40.7 203.59 37.79 202.98 37.34 204.92"/><path class="cls-1" d="M43.88,215.53a81,81,0,0,0,12.54.44,86.1,86.1,0,0,0,12.4-1.54l-3-14.66A70.2,70.2,0,0,1,55.74,201a67,67,0,0,1-10.12-.35Z" transform="translate(0.02 -2.89)"/><path class="cls-2" d="M45.91,209.21c2,.24,4.08.28,6.12.35l0-2c-2-.07-4-.1-5.94-.34Z" transform="translate(0.02 -2.89)"/><path class="cls-2" d="M54.59,209.53c1,0,2-.08,3-.15l-.13-2c-1,.06-2,.15-3,.14Z" transform="translate(0.02 -2.89)"/><polygon class="cls-2" points="60.21 206.29 63.26 205.93 66.28 205.42 65.91 203.46 62.97 203.96 60.01 204.31 60.21 206.29"/><path class="cls-1" d="M68.82,214.43a85.45,85.45,0,0,0,12-3.43,84.53,84.53,0,0,0,11.37-5.32l-7.44-13A67,67,0,0,1,75.62,197a70.44,70.44,0,0,1-9.78,2.8Z" transform="translate(0.02 -2.89)"/><path class="cls-2" d="M68.78,207.79c2-.41,4-1,5.93-1.55l-.59-1.9c-1.92.53-3.82,1.11-5.77,1.5Z" transform="translate(0.02 -2.89)"/><path class="cls-2" d="M77.12,205.42c1-.3,1.93-.68,2.87-1.07l-.73-1.85c-.92.37-1.84.74-2.79,1Z" transform="translate(0.02 -2.89)"/><path class="cls-2" d="M82.36,203.38l2.78-1.29c.92-.44,1.8-1,2.71-1.42l-1-1.75c-.88.46-1.74,1-2.63,1.38l-2.71,1.26Z" transform="translate(0.02 -2.89)"/><path class="cls-1" d="M92.22,205.68a78.69,78.69,0,0,0,10.39-7.22,74.16,74.16,0,0,0,9-9.09L100,179.94a59.31,59.31,0,0,1-7,7,63.81,63.81,0,0,1-8.23,5.71Z" transform="translate(0.02 -2.89)"/><path class="cls-2" d="M90.09,199.38c.87-.55,1.77-1,2.6-1.63L95.22,196,94,194.4l-2.45,1.69c-.81.57-1.68,1-2.52,1.58Z" transform="translate(0.02 -2.89)"/><polygon class="cls-2" points="97.26 191.54 98.47 190.59 99.61 189.57 98.3 188.08 97.19 189.06 96.02 189.98 97.26 191.54"/><path class="cls-2" d="M101.49,190.75l2.16-2.18c.72-.73,1.36-1.54,2-2.3L104.17,185c-.66.73-1.27,1.51-2,2.22l-2.09,2.11Z" transform="translate(0.02 -2.89)"/><path class="cls-1" d="M111.59,189.37c1.28-1.71,2.64-3.38,3.76-5.21s2.26-3.6,3.18-5.22c1.85-3.26,3.52-5.94,5.25-7.56L113.39,160.6c-3.75,3.64-5.92,7.61-7.83,10.88-1,1.67-1.81,3.15-2.72,4.47s-1.9,2.67-2.87,4Z" transform="translate(0.02 -2.89)"/><path class="cls-2" d="M107.33,184.26c.6-.83,1.26-1.62,1.83-2.48l1.68-2.57-1.7-1.05-1.63,2.49c-.54.82-1.18,1.59-1.76,2.38Z" transform="translate(0.02 -2.89)"/><polygon class="cls-2" points="112.17 174.14 113.68 171.52 111.95 170.52 110.44 173.14 112.17 174.14"/><path class="cls-2" d="M114.94,172.28a30.74,30.74,0,0,1,3.48-4.7L117,166.23a34,34,0,0,0-3.71,5Z" transform="translate(0.02 -2.89)"/><path class="cls-1" d="M123.78,171.38a12.62,12.62,0,0,1,2.92-2.09,31,31,0,0,1,4.17-1.76c1.59-.56,3.35-1.1,5.24-1.72s4-1.39,5.9-2.19l-5.81-13.79c-1.56.64-3,1.22-4.74,1.76s-3.56,1.13-5.54,1.82a44,44,0,0,0-6.27,2.68,27.47,27.47,0,0,0-6.26,4.51Z" transform="translate(0.02 -2.89)"/><path class="cls-2" d="M120.16,165.9a21.36,21.36,0,0,1,4.9-3l-.84-1.82a23.56,23.56,0,0,0-5.34,3.32Z" transform="translate(0.02 -2.89)"/><path class="cls-2" d="M127.32,161.92c.92-.35,1.86-.68,2.81-1l-.63-1.9c-1,.33-1.93.66-2.89,1Z" transform="translate(0.02 -2.89)"/><path class="cls-2" d="M132.51,160.16c1.93-.61,3.87-1.27,5.77-2l-.74-1.85c-1.84.74-3.71,1.37-5.63,2Z" transform="translate(0.02 -2.89)"/><path class="cls-1" d="M142,163.62a102.32,102.32,0,0,0,21-12.44l-8.9-12a87.36,87.36,0,0,1-17.92,10.69Z" transform="translate(0.02 -2.89)"/><path class="cls-2" d="M140.66,157.13c1.88-.82,3.7-1.74,5.49-2.72l-1-1.75c-1.75,1-3.53,1.85-5.34,2.64Z" transform="translate(0.02 -2.89)"/><path class="cls-2" d="M148.37,153.16q1.32-.76,2.61-1.59l-1.06-1.69c-.84.54-1.69,1.06-2.56,1.55Z" transform="translate(0.02 -2.89)"/><path class="cls-2" d="M153.12,150.2c1.7-1.12,3.36-2.28,5-3.48l-1.18-1.61c-1.61,1.18-3.25,2.33-4.92,3.42Z" transform="translate(0.02 -2.89)"/><path class="cls-1" d="M163,151.18c6.33-4.69,12.19-9.62,18-14.21l-9.28-11.74c-6.05,4.79-11.79,9.61-17.62,13.91Z" transform="translate(0.02 -2.89)"/><path class="cls-2" d="M160.18,145.2c1.62-1.21,3.22-2.45,4.81-3.7l-1.24-1.57c-1.58,1.25-3.16,2.47-4.77,3.68Z" transform="translate(0.02 -2.89)"/><polygon class="cls-2" points="166.99 137.04 169.35 135.15 168.1 133.59 165.75 135.48 166.99 137.04"/><polygon class="cls-2" points="171.31 133.56 176.02 129.78 174.77 128.22 170.06 132.01 171.31 133.56"/><path class="cls-1" d="M181,137a125.51,125.51,0,0,1,17.6-12.15l-7.14-13.15a139.21,139.21,0,0,0-19.74,13.56Z" transform="translate(0.02 -2.89)"/><path class="cls-2" d="M178,131.1c1.58-1.24,3.17-2.47,4.78-3.66l-1.19-1.6c-1.63,1.2-3.23,2.44-4.82,3.69Z" transform="translate(0.02 -2.89)"/><path class="cls-2" d="M184.79,126c.8-.59,1.63-1.15,2.45-1.72l-1.12-1.65c-.84.58-1.68,1.15-2.5,1.75Z" transform="translate(0.02 -2.89)"/><path class="cls-2" d="M189.32,122.85c.83-.55,1.67-1.09,2.53-1.6s1.7-1,2.57-1.51l-1-1.74c-.89.5-1.77,1-2.63,1.55s-1.74,1.07-2.58,1.63Z" transform="translate(0.02 -2.89)"/><path class="cls-1" d="M198.62,124.82a46.55,46.55,0,0,1,18.53-5.92L215.92,104a55.62,55.62,0,0,0-12.8,2.6,69.91,69.91,0,0,0-11.64,5.08Z" transform="translate(0.02 -2.89)"/><path class="cls-2" d="M196.63,118.54c.88-.46,1.77-.91,2.67-1.32s1.81-.82,2.73-1.19l-.75-1.84c-1,.38-1.9.78-2.82,1.23s-1.84.87-2.75,1.35Z" transform="translate(0.02 -2.89)"/><polygon class="cls-2" points="204.36 112.26 205.76 111.76 207.18 111.34 206.62 109.43 205.14 109.87 203.69 110.38 204.36 112.26"/><path class="cls-2" d="M209.54,113.59c1-.23,1.92-.46,2.9-.6l1.46-.25,1.47-.17-.22-2-1.54.17-1.52.26c-1,.16-2,.39-3,.63Z" transform="translate(0.02 -2.89)"/><path class="cls-1" d="M217.15,118.9c3.15-.29,7.07-.09,11.75-.72a27.83,27.83,0,0,0,7.47-2.07,23.43,23.43,0,0,0,6.83-4.69l-10.48-10.68a8.46,8.46,0,0,1-2.47,1.71,12.61,12.61,0,0,1-3.44.91c-2.82.42-6.51.28-10.89.63Z" transform="translate(0.02 -2.89)"/><path class="cls-2" d="M217.85,112.34c2-.11,4-.13,6-.23l-.09-2c-2,.09-4,.11-6,.23Z" transform="translate(0.02 -2.89)"/><path class="cls-2" d="M226.44,111.93a29.84,29.84,0,0,0,3.09-.44l-.39-1.95c-.95.18-1.91.32-2.89.41Z" transform="translate(0.02 -2.89)"/><path class="cls-2" d="M232.08,110.82a16.38,16.38,0,0,0,5.57-3.12l-1.29-1.52a14.42,14.42,0,0,1-4.91,2.75Z" transform="translate(0.02 -2.89)"/><path class="cls-1" d="M243.2,111.42a38,38,0,0,0,7.66-11.79c1.7-3.81,3-7.41,4.36-10.57l-13.72-6c-1.64,3.79-2.9,7.32-4.29,10.41a24.08,24.08,0,0,1-4.49,7.23Z" transform="translate(0.02 -2.89)"/><path class="cls-2" d="M239.57,105.82a27.47,27.47,0,0,0,3.55-5.15l-1.75-1a26.18,26.18,0,0,1-3.28,4.79Z" transform="translate(0.02 -2.89)"/><path class="cls-2" d="M244.29,98.38c.44-.93.86-1.86,1.26-2.8l-1.84-.78c-.39.92-.79,1.83-1.22,2.72Z" transform="translate(0.02 -2.89)"/><path class="cls-2" d="M246.52,93.24c.76-1.88,1.48-3.75,2.25-5.59l-1.84-.77c-.78,1.87-1.51,3.75-2.26,5.61Z" transform="translate(0.02 -2.89)"/><path class="cls-1" d="M255.22,89.06c1.34-3.14,2.86-5.8,4.28-7.11a5.68,5.68,0,0,1,2.06-1.29,5.31,5.31,0,0,1,2.44-.27l1.45-14.9a20.42,20.42,0,0,0-16.26,5.62,28.16,28.16,0,0,0-4.74,6.08,51.58,51.58,0,0,0-2.95,5.91Z" transform="translate(0.02 -2.89)"/><path class="cls-2" d="M249.78,85.34a34.15,34.15,0,0,1,2.81-5.16l-1.65-1.12a37.11,37.11,0,0,0-3,5.45Z" transform="translate(0.02 -2.89)"/><path class="cls-2" d="M254,78.28a13.52,13.52,0,0,1,1-1l.52-.49.55-.43-1.22-1.58-.63.5-.59.55A13.48,13.48,0,0,0,252.54,77Z" transform="translate(0.02 -2.89)"/><path class="cls-2" d="M258.05,75.11a11.87,11.87,0,0,1,5.39-1.24v-2a13.81,13.81,0,0,0-6.28,1.45Z" transform="translate(0.02 -2.89)"/><path class="cls-1" d="M264,80.39c1.87.16,4.62,1.31,7.67,3,1.54.84,3.16,1.82,5,2.79s3.72,2,5.65,2.76l6-13.69c-1.57-.65-3.05-1.45-4.55-2.22s-3.13-1.77-4.9-2.74A53.47,53.47,0,0,0,273,67.44a27.44,27.44,0,0,0-7.55-2Z" transform="translate(0.02 -2.89)"/><path class="cls-2" d="M265.8,74.09a23.55,23.55,0,0,1,5.48,1.83l.84-1.81a25.6,25.6,0,0,0-6-2Z" transform="translate(0.02 -2.89)"/><path class="cls-2" d="M273.49,77c.87.47,1.75,1,2.62,1.45l1-1.74q-1.32-.75-2.67-1.47Z" transform="translate(0.02 -2.89)"/><path class="cls-2" d="M278.3,79.71c.88.51,1.79,1,2.7,1.44s1.8,1,2.75,1.35l.84-1.81c-.92-.37-1.78-.88-2.67-1.32s-1.77-.89-2.64-1.4Z" transform="translate(0.02 -2.89)"/><path class="cls-1" d="M282.32,89a80.8,80.8,0,0,0,24.09,6.39L308,80.47a65.91,65.91,0,0,1-19.6-5.19Z" transform="translate(0.02 -2.89)"/><path class="cls-2" d="M286.11,83.55c.93.44,1.91.74,2.86,1.11s1.9.73,2.89,1l.61-1.9c-1-.27-1.88-.62-2.81-1s-1.88-.65-2.78-1.08Z" transform="translate(0.02 -2.89)"/><path class="cls-2" d="M294.3,86.43c1,.29,2,.51,3,.76l.47-1.94c-1-.25-1.93-.46-2.89-.74Z" transform="translate(0.02 -2.89)"/><polygon class="cls-2" points="299.77 84.86 302.78 85.44 305.82 85.85 306.06 83.87 303.1 83.47 300.18 82.91 299.77 84.86"/><path class="cls-1" d="M306.41,95.36a82,82,0,0,0,24.86-1.23l-3-14.66a67.09,67.09,0,0,1-20.3,1Z" transform="translate(0.02 -2.89)"/><path class="cls-2" d="M308.36,89c1,.07,2,.18,3.06.22l3.06.07v-2l-3-.08c-1,0-2-.14-3-.21Z" transform="translate(0.02 -2.89)"/><path class="cls-2" d="M317,89.26c1-.05,2,0,3.06-.13l-.14-2c-1,.11-2,.08-3,.13Z" transform="translate(0.02 -2.89)"/><path class="cls-2" d="M322.63,88.91c1-.06,2-.26,3-.39s2-.27,3-.49l-.37-2c-1,.22-2,.33-2.94.48s-2,.31-2.95.37Z" transform="translate(0.02 -2.89)"/><path class="cls-1" d="M331.27,94.13c2.06-.37,4.07-1,6.09-1.48,1-.3,2-.64,3-1l1.49-.48,1.47-.57a89.24,89.24,0,0,0,11.16-5.16l-7.05-13.2A75.5,75.5,0,0,1,338,76.65l-1.17.46-1.21.39c-.81.25-1.6.53-2.41.77-1.65.41-3.27.91-4.94,1.2Z" transform="translate(0.02 -2.89)"/><path class="cls-2" d="M331.22,87.52c1-.2,2-.5,3-.75l1.49-.39,1.45-.47-.59-1.9-1.42.46-1.44.37c-1,.24-1.92.53-2.89.73Z" transform="translate(0.02 -2.89)"/><polygon class="cls-2" points="339.59 82.23 342.45 81.13 341.7 79.28 338.92 80.36 339.59 82.23"/><path class="cls-2" d="M344.78,83c1.86-.82,3.68-1.73,5.49-2.66l-.93-1.77c-1.77.91-3.56,1.81-5.38,2.61Z" transform="translate(0.02 -2.89)"/><path class="cls-1" d="M354.47,85.48c7-3.74,13.29-7.74,19.56-10.62l-6.28-13.58c-7.48,3.46-14,7.63-20.33,11Z" transform="translate(0.02 -2.89)"/><path class="cls-2" d="M352.53,79.16c1.78-1,3.54-2,5.29-3l-1-1.73c-1.75,1-3.49,2-5.25,2.94Z" transform="translate(0.02 -2.89)"/><polygon class="cls-2" points="360.03 72.06 362.66 70.57 361.68 68.83 359.05 70.32 360.03 72.06"/><path class="cls-2" d="M364.83,72.25c1.76-1,3.53-1.88,5.33-2.74l-.87-1.8c-1.83.88-3.63,1.82-5.42,2.79Z" transform="translate(0.02 -2.89)"/><path class="cls-1" d="M374,74.86c1.57-.73,3.12-1.39,4.68-2,.79-.32,1.51-.5,2.26-.77s1.52-.42,2.28-.6a34.86,34.86,0,0,1,9.2-.89l.72-15A49.61,49.61,0,0,0,379.85,57c-1.07.26-2.14.55-3.2.85s-2.15.68-3.12,1.06c-2,.73-3.92,1.55-5.78,2.42Z" transform="translate(0.02 -2.89)"/><path class="cls-2" d="M372.44,68.45A57.67,57.67,0,0,1,378,66.29l-.63-1.9c-2,.64-3.85,1.42-5.72,2.23Z" transform="translate(0.02 -2.89)"/><path class="cls-2" d="M380.34,65.58c.94-.28,1.91-.48,2.87-.68l-.39-2c-1,.21-2,.41-3,.7Z" transform="translate(0.02 -2.89)"/><path class="cls-2" d="M385.64,64.49c1-.14,1.95-.21,2.93-.3s2-.12,2.94-.06l0-2c-1-.06-2.06,0-3.1.07s-2.06.17-3.08.32Z" transform="translate(0.02 -2.89)"/><path class="cls-1" d="M392.45,70.64a22.33,22.33,0,0,1,8.22,1.87c.62.24,1.13.61,1.71.89l.77.54a4.19,4.19,0,0,1,.75.56,10,10,0,0,1,1.34,1.26,10.24,10.24,0,0,1,1.25,1.46l12-8.88a30.56,30.56,0,0,0-5.21-5.47,15.16,15.16,0,0,0-1.52-1.15l-1.57-1.06a34.86,34.86,0,0,0-17.06-5Z" transform="translate(0.02 -2.89)"/><path class="cls-2" d="M394,64.25a30.91,30.91,0,0,1,5.75,1l.55-1.92a33.8,33.8,0,0,0-6.13-1.08Z" transform="translate(0.02 -2.89)"/><path class="cls-2" d="M402,66a24.09,24.09,0,0,1,2.62,1.23l.95-1.76a26.39,26.39,0,0,0-2.85-1.33Z" transform="translate(0.02 -2.89)"/><path class="cls-2" d="M406.72,68.52A18.33,18.33,0,0,1,409,70.3a12.39,12.39,0,0,1,1,1,14,14,0,0,1,1,1.06l1.54-1.26c-.32-.42-.71-.78-1.06-1.17a13,13,0,0,0-1.11-1.12,21.22,21.22,0,0,0-2.48-2Z" transform="translate(0.02 -2.89)"/><path class="cls-1" d="M406.49,77.22c.84,1.13,1.7,2.55,2.7,4.2a56.45,56.45,0,0,0,3.63,5.46,23.89,23.89,0,0,0,6.1,5.6,21.45,21.45,0,0,0,8.27,2.9l2-14.83a6.77,6.77,0,0,1-2.37-.8,9.24,9.24,0,0,1-2.17-2.08,44.45,44.45,0,0,1-2.62-4c-1-1.58-2.05-3.42-3.46-5.33Z" transform="translate(0.02 -2.89)"/><path class="cls-2" d="M412.42,74.37c1.1,1.62,2.1,3.36,3.18,5.09l1.69-1c-1.05-1.69-2.06-3.45-3.22-5.16Z" transform="translate(0.02 -2.89)"/><path class="cls-2" d="M417,81.61A23,23,0,0,0,419,84.08l1.48-1.33a23.66,23.66,0,0,1-1.79-2.28Z" transform="translate(0.02 -2.89)"/><path class="cls-2" d="M420.89,85.92a14,14,0,0,0,5.8,2.78l.44-1.94a12.1,12.1,0,0,1-5-2.39Z" transform="translate(0.02 -2.89)"/><path class="cls-1" d="M427.19,95.38a26.17,26.17,0,0,0,7.82-.2,45.66,45.66,0,0,0,6.51-1.58c2-.61,3.87-1.27,5.63-1.88s3.44-1.18,5-1.61l-4.05-14.4c-2.1.58-4,1.24-5.81,1.86s-3.53,1.23-5.14,1.72a31.88,31.88,0,0,1-4.5,1.11,11.18,11.18,0,0,1-3.48.15Z" transform="translate(0.02 -2.89)"/><path class="cls-2" d="M429.38,89.09a25.55,25.55,0,0,0,6.26-.63l-.43-1.95a22.86,22.86,0,0,1-5.73.58Z" transform="translate(0.02 -2.89)"/><path class="cls-2" d="M438.14,87.83c1-.27,2-.57,2.93-.89l-.62-1.9q-1.43.46-2.85.87Z" transform="translate(0.02 -2.89)"/><path class="cls-2" d="M443.47,86.13c1.91-.66,3.8-1.33,5.7-1.91l-.59-1.91c-2,.6-3.86,1.28-5.76,1.93Z" transform="translate(0.02 -2.89)"/><path class="cls-1" d="M452.13,90.11a37.08,37.08,0,0,1,9.3-1.29,65.9,65.9,0,0,1,10.11.76l2.15-14.81a80.24,80.24,0,0,0-12.49-.91,51.86,51.86,0,0,0-13.12,1.85Z" transform="translate(0.02 -2.89)"/><path class="cls-2" d="M451.57,83.55l2.89-.61c1-.18,2-.25,2.92-.38l-.2-2c-1,.13-2.05.21-3.06.39l-3,.65Z" transform="translate(0.02 -2.89)"/><path class="cls-2" d="M459.84,82.39c1,0,2-.12,3-.06l0-2c-1-.07-2.06,0-3.08.06Z" transform="translate(0.02 -2.89)"/><path class="cls-2" d="M465.28,82.41c2,.14,4,.29,5.93.58l.26-2c-2-.3-4.05-.45-6.08-.59Z" transform="translate(0.02 -2.89)"/><path class="cls-1" d="M471.54,89.58c7,1,14.35,2.83,22.29,4l2.24-14.8c-7-1.06-14.4-2.88-22.38-4.06Z" transform="translate(0.02 -2.89)"/><path class="cls-2" d="M473.72,83.34c2,.32,3.94.66,5.91,1l.38-2c-2-.39-4-.74-6-1.06Z" transform="translate(0.02 -2.89)"/><rect class="cls-2" x="482.78" y="82.67" width="2" height="3.02" transform="translate(307.53 539.6) rotate(-78.83)"/><path class="cls-2" d="M487.54,85.94c2,.36,4,.76,6,1.06l.32-2c-2-.29-3.95-.69-5.92-1Z" transform="translate(0.02 -2.89)"/><path class="cls-1" d="M493.83,93.63c1,.17,2,.27,3,.41s2,.26,3.06.33l3.12.24,3.19.07a59.37,59.37,0,0,0,12.93-1.37l-3.27-14.6a44,44,0,0,1-9.6,1l-2.48,0-2.54-.21c-.84,0-1.71-.17-2.57-.28s-1.72-.19-2.61-.35Z" transform="translate(0.02 -2.89)"/><path class="cls-2" d="M496.06,87.4l3,.38c1,.11,2,.17,3.05.26l.14-2c-1-.09-2-.14-3-.26l-3-.37Z" transform="translate(0.02 -2.89)"/><path class="cls-2" d="M504.69,88.16c1,0,2.05.08,3.08,0l0-2c-1,.06-2,0-3,0Z" transform="translate(0.02 -2.89)"/><path class="cls-2" d="M510.33,88.06a48.08,48.08,0,0,0,6.1-.83l-.38-2a46.52,46.52,0,0,1-5.87.8Z" transform="translate(0.02 -2.89)"/><path class="cls-1" d="M519.14,93.31a76,76,0,0,0,23.06-9.88l-7.9-12.72a60.85,60.85,0,0,1-18.43,8Z" transform="translate(0.02 -2.89)"/><path class="cls-2" d="M519,86.67c1-.25,2-.5,3-.83s2-.6,2.91-1L524.16,83c-.92.38-1.88.65-2.82,1s-1.89.56-2.85.8Z" transform="translate(0.02 -2.89)"/><polygon class="cls-2" points="527.25 81.04 530.06 79.81 529.21 78 526.49 79.2 527.25 81.04"/><path class="cls-2" d="M532.33,81.57c1.81-.94,3.59-1.93,5.33-3l-1-1.7c-1.7,1-3.45,2-5.21,2.91Z" transform="translate(0.02 -2.89)"/><path class="cls-1" d="M542.2,83.43a205.64,205.64,0,0,0,19-13.88L551.9,57.84a190.12,190.12,0,0,1-17.6,12.87Z" transform="translate(0.02 -2.89)"/><path class="cls-2" d="M539.85,77.23c1.72-1.09,3.39-2.24,5-3.4l-1.15-1.63c-1.64,1.15-3.29,2.28-5,3.34Z" transform="translate(0.02 -2.89)"/><polygon class="cls-2" points="546.99 69.46 549.42 67.65 548.22 66.06 545.81 67.85 546.99 69.46"/><path class="cls-2" d="M551.41,69q2.4-1.85,4.77-3.74l-1.24-1.56c-1.57,1.25-3.15,2.5-4.75,3.72Z" transform="translate(0.02 -2.89)"/><path class="cls-1" d="M561.23,69.55c6-4.75,11.72-9.47,17.61-13.6l-8.61-12.24c-6.5,4.57-12.45,9.46-18.33,14.13Z" transform="translate(0.02 -2.89)"/><rect class="cls-2" x="556.89" y="60.02" width="6.04" height="2" transform="translate(84.52 360.12) rotate(-38.64)"/><polygon class="cls-2" points="564.89 55.46 567.27 53.6 566.04 52.02 563.66 53.89 564.89 55.46"/><path class="cls-2" d="M569.23,55c1.59-1.22,3.21-2.41,4.83-3.58l-1.16-1.63c-1.64,1.19-3.28,2.39-4.88,3.62Z" transform="translate(0.02 -2.89)"/><path class="cls-1" d="M578.84,56a81.18,81.18,0,0,1,18.14-10l-5.26-14a96.18,96.18,0,0,0-21.49,11.82Z" transform="translate(0.02 -2.89)"/><path class="cls-2" d="M576.13,49.92c1.65-1.13,3.31-2.24,5-3.29l-1.06-1.69c-1.73,1.06-3.42,2.19-5.09,3.34Z" transform="translate(0.02 -2.89)"/><path class="cls-2" d="M583.28,45.35c.86-.5,1.72-1,2.6-1.47l-.94-1.75c-.91.46-1.78,1-2.67,1.5Z" transform="translate(0.02 -2.89)"/><polygon class="cls-2" points="588.11 39.83 590.8 38.54 593.54 37.38 592.8 35.53 589.98 36.73 587.22 38.05 588.11 39.83"/><path class="cls-1" d="M597,45.91a48.61,48.61,0,0,1,9.5-2.57,66.68,66.68,0,0,1,10.12-.73v-15a79.67,79.67,0,0,0-12.49.92,63.31,63.31,0,0,0-12.38,3.32Z" transform="translate(0.02 -2.89)"/><path class="cls-2" d="M595.87,39.4c.92-.36,1.88-.61,2.83-.91s1.9-.54,2.86-.76l-.46-1.94c-1,.23-2,.47-3,.79s-2,.57-2.92.94Z" transform="translate(0.02 -2.89)"/><path class="cls-2" d="M604,37.2c1-.19,1.95-.34,2.93-.47l-.27-2c-1,.13-2,.29-3,.49Z" transform="translate(0.02 -2.89)"/><path class="cls-2" d="M609.37,36.45c2-.2,4-.29,6-.32l0-2c-2,0-4.08.12-6.12.32Z" transform="translate(0.02 -2.89)"/><path class="cls-1" d="M616.6,42.61c7,0,14.29.84,21.91,1.57L640,29.29c-7.44-.71-15.18-1.64-23.36-1.64Z" transform="translate(0.02 -2.89)"/><path class="cls-2" d="M617.85,36.13q3,0,6,.23l.12-2q-3-.19-6.09-.24Z" transform="translate(0.02 -2.89)"/><polygon class="cls-2" points="626.36 33.64 629.36 33.89 629.54 31.9 626.51 31.65 626.36 33.64"/><rect class="cls-2" x="633.94" y="33.29" width="2" height="6.04" transform="translate(536.68 661.76) rotate(-84.38)"/><path class="cls-1" d="M638.51,44.18c7.62.72,15.63,1.42,24.09.62l-1.44-14.9c-6.63.65-13.8.1-21.21-.61Z" transform="translate(0.02 -2.89)"/><path class="cls-2" d="M640.39,37.84c2,.2,4,.36,6.05.51l.14-2c-2-.15-4-.31-6-.5Z" transform="translate(0.02 -2.89)"/><path class="cls-2" d="M649,38.5c1,0,2,.1,3,.12l.06-2c-1,0-2-.08-3-.12Z" transform="translate(0.02 -2.89)"/><path class="cls-2" d="M654.56,38.66c2,0,4.08,0,6.11-.21l-.15-2c-2,.15-4,.21-6,.21Z" transform="translate(0.02 -2.89)"/><path class="cls-1" d="M662.6,44.8a57.29,57.29,0,0,0,12.74-2.62,50,50,0,0,0,11.9-5.87L679,23.83A34.68,34.68,0,0,1,670.6,28a42,42,0,0,1-9.44,1.92Z" transform="translate(0.02 -2.89)"/><path class="cls-2" d="M663.25,38.21a54.29,54.29,0,0,0,6.07-1.07l-.46-1.94a50.23,50.23,0,0,1-5.84,1Z" transform="translate(0.02 -2.89)"/><path class="cls-2" d="M671.8,36.48c1-.26,2-.62,2.94-1l-.7-1.87c-.93.33-1.85.67-2.8.93Z" transform="translate(0.02 -2.89)"/><path class="cls-2" d="M677.12,34.54c.94-.43,1.87-.88,2.78-1.37s1.81-1,2.67-1.56l-1.06-1.69c-.83.55-1.71,1-2.55,1.5s-1.76.89-2.65,1.3Z" transform="translate(0.02 -2.89)"/><path class="cls-1" d="M687.24,36.31A118,118,0,0,0,696.87,29c3-2.4,5.73-4.68,8.46-6.54l-8.41-12.37c-3.52,2.4-6.59,4.94-9.51,7.32S681.73,22,679,23.83Z" transform="translate(0.02 -2.89)"/><path class="cls-2" d="M684.73,30.19c1.68-1.18,3.3-2.4,4.89-3.67L688.38,25q-2.36,1.88-4.78,3.59Z" transform="translate(0.02 -2.89)"/><rect class="cls-2" x="690.62" y="22.21" width="3.02" height="2" transform="translate(141.23 439.92) rotate(-39.21)"/><path class="cls-2" d="M695.88,21.44c1.57-1.25,3.14-2.47,4.76-3.62l-1.15-1.63c-1.67,1.18-3.27,2.43-4.86,3.7Z" transform="translate(0.02 -2.89)"/><path class="cls-1" d="M705.33,22.46a28.07,28.07,0,0,1,7.95-4c.64-.16,1.27-.26,1.9-.43s1.27-.11,1.9-.18a16.38,16.38,0,0,1,3.87.38L724,3.59a30.58,30.58,0,0,0-7.4-.68c-1.26.08-2.51.21-3.75.35s-2.45.49-3.63.8a42.56,42.56,0,0,0-12.31,6Z" transform="translate(0.02 -2.89)"/><path class="cls-2" d="M702.71,16.4a38.06,38.06,0,0,1,5.16-2.82l-.81-1.83a40.21,40.21,0,0,0-5.43,3Z" transform="translate(0.02 -2.89)"/><path class="cls-2" d="M710.13,12.68l1.38-.45c.46-.15.94-.22,1.41-.33l-.42-2c-.51.12-1,.2-1.53.36l-1.49.48Z" transform="translate(0.02 -2.89)"/><path class="cls-2" d="M715.3,11.52a19.53,19.53,0,0,1,5.76.14l.31-2a21.66,21.66,0,0,0-6.28-.14Z" transform="translate(0.02 -2.89)"/><path class="cls-1" d="M721,18.24a33.07,33.07,0,0,1,8.56,3.35c3,1.59,6.1,3.56,9.36,5.56l7.84-12.75c-3.2-2-6.47-4-10.16-6A47.9,47.9,0,0,0,724,3.59Z" transform="translate(0.02 -2.89)"/><path class="cls-2" d="M723.46,12.16a34.77,34.77,0,0,1,5.54,2l.81-1.82A36.91,36.91,0,0,0,724,10.23Z" transform="translate(0.02 -2.89)"/><path class="cls-2" d="M731.23,15.17c.89.46,1.76.92,2.63,1.4l1-1.74q-1.33-.74-2.7-1.44Z" transform="translate(0.02 -2.89)"/><path class="cls-2" d="M736,17.82c1.72,1,3.43,2.07,5.14,3.13l1.05-1.7c-1.72-1.06-3.43-2.12-5.18-3.15Z" transform="translate(0.02 -2.89)"/><rect class="cls-1" x="744.97" y="15.37" width="14.97" height="22.7" transform="translate(335.67 650.86) rotate(-58.42)"/><rect class="cls-2" x="745.45" y="19.99" width="2" height="6.04" transform="translate(335.96 643.97) rotate(-58.42)"/><rect class="cls-2" x="751.45" y="25.2" width="2" height="3.02" transform="translate(335.68 650.86) rotate(-58.42)"/><rect class="cls-2" x="757.46" y="27.38" width="2" height="6.04" transform="translate(335.39 657.73) rotate(-58.42)"/><rect class="cls-1" x="764.31" y="27.25" width="14.97" height="22.7" transform="translate(334.75 673) rotate(-58.42)"/><rect class="cls-2" x="764.78" y="31.88" width="2" height="6.04" transform="translate(335.04 666.11) rotate(-58.42)"/><rect class="cls-2" x="770.79" y="37.08" width="2" height="3.02" transform="translate(334.76 672.99) rotate(-58.42)"/><rect class="cls-2" x="776.8" y="39.27" width="2" height="6.04" transform="translate(334.47 679.86) rotate(-58.42)"/><rect class="cls-1" x="783.65" y="39.14" width="14.97" height="22.7" transform="translate(333.84 695.13) rotate(-58.42)"/><rect class="cls-2" x="784.12" y="43.77" width="2" height="6.04" transform="translate(334.13 688.24) rotate(-58.42)"/><rect class="cls-2" x="790.12" y="48.97" width="2" height="3.02" transform="translate(333.84 695.12) rotate(-58.42)"/><rect class="cls-2" x="796.13" y="51.15" width="2" height="6.04" transform="translate(333.56 702) rotate(-58.42)"/><path class="cls-1" d="M809.71,64.42a22.81,22.81,0,0,1,8.36-.65,22.13,22.13,0,0,1,8,2.45L833.11,53A37.42,37.42,0,0,0,805.77,50Z" transform="translate(0.02 -2.89)"/><path class="cls-2" d="M809.18,57.86a29.15,29.15,0,0,1,5.74-.7l0-2a30.12,30.12,0,0,0-6.13.74Z" transform="translate(0.02 -2.89)"/><polygon class="cls-2" points="817.35 54.31 818.8 54.43 820.23 54.63 820.55 52.66 819.01 52.45 817.47 52.32 817.35 54.31"/><path class="cls-2" d="M822.57,58A28.19,28.19,0,0,1,828,59.94l.86-1.8a29.44,29.44,0,0,0-5.82-2.07Z" transform="translate(0.02 -2.89)"/><path class="cls-1" d="M826,66.22c2.43,1.26,5.21,3.53,8.8,5.91a35.2,35.2,0,0,0,6.32,3.35A24.28,24.28,0,0,0,849,77.14l.67-15a8.88,8.88,0,0,1-3.08-.65A20.25,20.25,0,0,1,843,59.6c-2.69-1.72-5.71-4.29-9.91-6.57Z" transform="translate(0.02 -2.89)"/><path class="cls-2" d="M830.16,61.09c1.67,1,3.27,2.14,4.9,3.3l1.16-1.62c-1.63-1.16-3.27-2.35-5.05-3.39Z" transform="translate(0.02 -2.89)"/><path class="cls-2" d="M837.11,65.84c.83.57,1.68,1.13,2.56,1.66l1-1.7c-.83-.51-1.65-1-2.46-1.6Z" transform="translate(0.02 -2.89)"/><path class="cls-2" d="M841.94,68.74a18.24,18.24,0,0,0,6,1.81l.22-2A16.4,16.4,0,0,1,842.81,67Z" transform="translate(0.02 -2.89)"/><path class="cls-1" d="M849,77.14a36.52,36.52,0,0,0,7.07-.46c2.14-.33,4-.73,5.84-1.08l11-2.16-2.87-14.68-11,2.16c-3.77.75-7,1.4-9.36,1.27Z" transform="translate(0.02 -2.89)"/><path class="cls-2" d="M850.62,70.67a37.1,37.1,0,0,0,6.1-.68l-.35-2a35.9,35.9,0,0,1-5.78.65Z" transform="translate(0.02 -2.89)"/><rect class="cls-2" x="858.97" y="67.26" width="2.99" height="2" transform="translate(2.94 163.71) rotate(-11.08)"/><rect class="cls-2" x="864.33" y="65.92" width="5.99" height="2" transform="translate(3.33 165.01) rotate(-11.08)"/><rect class="cls-1" x="871.31" y="56.46" width="22.49" height="14.97" transform="translate(4.18 167.88) rotate(-11.08)"/><rect class="cls-2" x="872.69" y="64.28" width="5.99" height="2" transform="translate(3.8 166.59) rotate(-11.08)"/><rect class="cls-2" x="881.04" y="62.94" width="2.99" height="2" transform="translate(4.19 167.89) rotate(-11.08)"/><rect class="cls-2" x="886.4" y="61.6" width="5.99" height="2" transform="translate(4.57 169.18) rotate(-11.08)"/><rect class="cls-1" x="893.38" y="52.13" width="22.49" height="14.97" transform="translate(5.43 172.04) rotate(-11.08)"/><rect class="cls-2" x="894.76" y="59.96" width="5.99" height="2" transform="matrix(0.98, -0.19, 0.19, 0.98, 5.04, 170.74)"/><rect class="cls-2" x="903.12" y="58.62" width="2.99" height="2" transform="translate(5.43 172.04) rotate(-11.08)"/><rect class="cls-2" x="908.48" y="57.27" width="5.99" height="2" transform="translate(5.81 173.33) rotate(-11.08)"/><polygon class="cls-1" points="917.12 61.91 939.19 57.59 936.33 42.9 914.25 47.22 917.12 61.91"/><rect class="cls-2" x="916.84" y="55.64" width="5.99" height="2" transform="translate(6.28 174.91) rotate(-11.08)"/><rect class="cls-2" x="925.19" y="54.3" width="2.99" height="2" transform="translate(6.67 176.22) rotate(-11.08)"/><rect class="cls-2" x="930.55" y="52.95" width="5.99" height="2" transform="translate(7.05 177.5) rotate(-11.08)"/><path class="cls-1" d="M939.16,60.48c7.29-1.42,14.29-2.68,20.9-2.72l-.1-15c-8.41.06-16.25,1.56-23.66,3Z" transform="translate(0.02 -2.89)"/><path class="cls-2" d="M939.15,53.87c2-.37,3.92-.75,5.87-1.08l-.33-2c-2,.33-4,.71-5.91,1.08Z" transform="translate(0.02 -2.89)"/><path class="cls-2" d="M947.47,52.4c1-.16,2-.29,2.94-.42l-.25-2c-1,.13-2,.27-3,.42Z" transform="translate(0.02 -2.89)"/><path class="cls-2" d="M952.87,51.69c2-.21,3.93-.34,5.89-.4l0-2c-2,.07-4,.2-6.05.42Z" transform="translate(0.02 -2.89)"/><path class="cls-1" d="M960.06,57.76a40.84,40.84,0,0,1,18.64,4.09l6.18-13.63a60.82,60.82,0,0,0-12.09-4.15A56.52,56.52,0,0,0,960,42.8Z" transform="translate(0.02 -2.89)"/><path class="cls-2" d="M961.25,51.27a52.12,52.12,0,0,1,5.86.41l.25-2a56.29,56.29,0,0,0-6.08-.43Z" transform="translate(0.02 -2.89)"/><path class="cls-2" d="M969.52,52.05c1,.19,1.91.39,2.86.63l.49-1.93c-1-.26-2-.47-3-.66Z" transform="translate(0.02 -2.89)"/><path class="cls-2" d="M974.72,53.36a57.07,57.07,0,0,1,5.51,2.07L981,53.6a59,59,0,0,0-5.7-2.14Z" transform="translate(0.02 -2.89)"/><path class="cls-1" d="M978.7,61.85c6.17,2.8,12.32,6.68,18.85,10.6l7.7-12.84c-6.33-3.78-12.88-8-20.37-11.39Z" transform="translate(0.02 -2.89)"/><path class="cls-2" d="M982.5,56.46c1.79.84,3.54,1.75,5.28,2.7l1-1.75q-2.65-1.45-5.38-2.75Z" transform="translate(0.02 -2.89)"/><polygon class="cls-2" points="989.97 57.48 992.55 58.97 993.56 57.25 990.96 55.74 989.97 57.48"/><rect class="cls-2" x="996.74" y="60.83" width="2" height="5.99" transform="translate(427.66 882.24) rotate(-58.89)"/><path class="cls-1" d="M997.55,72.45c6.54,3.87,13.45,8,22,10.53l4-14.4c-5.9-1.68-12.08-5.18-18.37-9Z" transform="translate(0.02 -2.89)"/><path class="cls-2" d="M1002,67.53c1.72,1,3.46,2,5.22,3l1-1.75c-1.73-1-3.45-2-5.16-3Z" transform="translate(0.02 -2.89)"/><path class="cls-2" d="M1009.39,71.74c.89.47,1.79.93,2.7,1.37l.87-1.8c-.89-.42-1.77-.87-2.64-1.34Z" transform="translate(0.02 -2.89)"/><path class="cls-2" d="M1014.38,74.18a50.76,50.76,0,0,0,5.7,2.18l.59-1.91a46.12,46.12,0,0,1-5.48-2.1Z" transform="translate(0.02 -2.89)"/><path class="cls-1" d="M1019.57,83a37,37,0,0,0,13.93,1.34,33.48,33.48,0,0,0,13.56-4.58l-7.57-12.91a18.53,18.53,0,0,1-7.56,2.61,22.3,22.3,0,0,1-8.31-.86Z" transform="translate(0.02 -2.89)"/><path class="cls-2" d="M1022.57,77.05a30.37,30.37,0,0,0,6.1.92l.1-2a29.5,29.5,0,0,1-5.73-.86Z" transform="translate(0.02 -2.89)"/><path class="cls-2" d="M1031.26,78a27,27,0,0,0,3.09-.31l-.33-2a22.73,22.73,0,0,1-2.85.28Z" transform="translate(0.02 -2.89)"/><path class="cls-2" d="M1036.89,77.11a28.33,28.33,0,0,0,2.94-1,25.65,25.65,0,0,0,2.81-1.31l-1-1.76a21.33,21.33,0,0,1-2.61,1.22c-.88.4-1.81.63-2.72.94Z" transform="translate(0.02 -2.89)"/><path class="cls-1" d="M1047.06,79.74c1.91-1.12,3.53-2.23,5-3.17a29,29,0,0,1,3.89-2.2,10.06,10.06,0,0,1,1.56-.57,13.14,13.14,0,0,1,1.42-.24,9.61,9.61,0,0,1,3,.31l4-14.43a24.73,24.73,0,0,0-8.15-.8,23.74,23.74,0,0,0-7.84,2A44.58,44.58,0,0,0,1044,64c-1.69,1.09-3.17,2.09-4.49,2.86Z" transform="translate(0.02 -2.89)"/><path class="cls-2" d="M1044.87,73.48c1.73-1.07,3.37-2.2,5-3.22l-1-1.71c-1.73,1.07-3.38,2.2-5,3.24Z" transform="translate(0.02 -2.89)"/><path class="cls-2" d="M1052,69.06a20.71,20.71,0,0,1,2.61-1.15L1054,66a23.61,23.61,0,0,0-2.86,1.26Z" transform="translate(0.02 -2.89)"/><path class="cls-2" d="M1056.89,67.29a15.34,15.34,0,0,1,5.57,0l.39-2a17.27,17.27,0,0,0-6.33-.06Z" transform="translate(0.02 -2.89)"/><path class="cls-1" d="M1061.92,73.87a22.42,22.42,0,0,1,7.22,4c2.55,2,5.13,4.41,7.87,7L1087.26,74c-2.73-2.56-5.58-5.3-9-7.92a36.49,36.49,0,0,0-12.41-6.63Z" transform="translate(0.02 -2.89)"/><path class="cls-2" d="M1064.77,68a23,23,0,0,1,5.14,2.55l1.07-1.69a25.71,25.71,0,0,0-5.56-2.75Z" transform="translate(0.02 -2.89)"/><path class="cls-2" d="M1071.93,71.89c.78.58,1.56,1.17,2.32,1.8l1.26-1.55c-.78-.64-1.59-1.26-2.41-1.86Z" transform="translate(0.02 -2.89)"/><path class="cls-2" d="M1076.13,75.28c1.49,1.29,2.94,2.65,4.4,4l1.36-1.45c-1.46-1.37-2.92-2.74-4.45-4.07Z" transform="translate(0.02 -2.89)"/><path class="cls-1" d="M1077,84.89c1.35,1.29,2.87,2.64,4.38,4s3.08,2.57,4.64,3.83c3.17,2.42,6.4,4.76,9.74,6.87l8.1-12.58c-3-1.9-5.85-4-8.63-6.09-1.36-1.1-2.74-2.18-4-3.33s-2.58-2.28-3.94-3.58Z" transform="translate(0.02 -2.89)"/><path class="cls-2" d="M1082.37,81c1.47,1.36,3,2.71,4.52,4l1.28-1.53c-1.51-1.28-3-2.59-4.44-3.94Z" transform="translate(0.02 -2.89)"/><path class="cls-2" d="M1088.84,86.63c.77.65,1.58,1.25,2.38,1.86l1.21-1.59c-.79-.6-1.59-1.19-2.34-1.83Z" transform="translate(0.02 -2.89)"/><path class="cls-2" d="M1093.23,90c1.66,1.14,3.27,2.34,5,3.42l1.09-1.67c-1.68-1.06-3.27-2.24-4.9-3.36Z" transform="translate(0.02 -2.89)"/><path class="cls-1" d="M1095.77,99.57a190.44,190.44,0,0,0,20.47,11.31l6.51-13.47A176,176,0,0,1,1103.87,87Z" transform="translate(0.02 -2.89)"/><path class="cls-2" d="M1100.34,94.81c1.72,1,3.41,2.12,5.17,3.1l1-1.73c-1.74-1-3.41-2-5.11-3.06Z" transform="translate(0.02 -2.89)"/><polygon class="cls-2" points="1107.71 96.27 1110.35 97.7 1111.3 95.94 1108.68 94.52 1107.71 96.27"/><path class="cls-2" d="M1112.54,101.77c1.79.92,3.57,1.84,5.37,2.71l.88-1.79c-1.79-.87-3.56-1.78-5.32-2.69Z" transform="translate(0.02 -2.89)"/><path class="cls-1" d="M1116.24,110.88c6.93,3.36,13.9,6.38,20.8,9.37l5.93-13.74c-6.86-3-13.65-5.92-20.22-9.1Z" transform="translate(0.02 -2.89)"/><path class="cls-2" d="M1120.2,105.59c1.81.85,3.62,1.71,5.44,2.54l.83-1.82c-1.82-.82-3.61-1.67-5.41-2.52Z" transform="translate(0.02 -2.89)"/><polygon class="cls-2" points="1127.94 106.27 1130.68 107.49 1131.49 105.67 1128.76 104.45 1127.94 106.27"/><polygon class="cls-2" points="1132.97 108.5 1138.47 110.89 1139.26 109.06 1133.77 106.67 1132.97 108.5"/><path class="cls-1" d="M1137,120.25c6.89,3,13.72,5.9,20.36,9l6.35-13.56c-7-3.25-13.91-6.22-20.78-9.19Z" transform="translate(0.02 -2.89)"/><rect class="cls-2" x="1142.91" y="112.06" width="2" height="5.99" transform="translate(584.45 1116.53) rotate(-66.62)"/><polygon class="cls-2" points="1148.57 115.27 1151.31 116.47 1152.11 114.64 1149.37 113.44 1148.57 115.27"/><polygon class="cls-2" points="1153.58 117.48 1159.02 119.95 1159.86 118.14 1154.4 115.66 1153.58 117.48"/><path class="cls-1" d="M1157.4,129.26a197.79,197.79,0,0,1,19.16,10.11l7.78-12.78a215.26,215.26,0,0,0-20.59-10.89Z" transform="translate(0.02 -2.89)"/><path class="cls-2" d="M1161.28,123.92c1.8.84,3.59,1.72,5.37,2.6l.89-1.78c-1.79-.89-3.59-1.78-5.41-2.63Z" transform="translate(0.02 -2.89)"/><polygon class="cls-2" points="1168.88 124.76 1171.53 126.13 1172.47 124.37 1169.8 122.98 1168.88 124.76"/><path class="cls-2" d="M1173.68,130.22c1.76.93,3.45,2,5.18,2.94l1-1.71c-1.74-1-3.46-2-5.23-3Z" transform="translate(0.02 -2.89)"/><path class="cls-1" d="M1176.56,139.37a108.24,108.24,0,0,1,16.92,12.48l10.07-11.07a114.19,114.19,0,0,0-9.32-7.61c-3.23-2.33-6.52-4.56-9.89-6.58Z" transform="translate(0.02 -2.89)"/><path class="cls-2" d="M1181,134.48c1.71,1,3.33,2.15,5,3.23l1.13-1.65c-1.68-1.09-3.34-2.24-5.06-3.28Z" transform="translate(0.02 -2.89)"/><path class="cls-2" d="M1188,139.14c.81.57,1.63,1.14,2.4,1.75l1.2-1.59c-.79-.62-1.62-1.2-2.44-1.78Z" transform="translate(0.02 -2.89)"/><path class="cls-2" d="M1192.36,142.4c.8.59,1.53,1.25,2.3,1.88s1.53,1.25,2.25,1.93l1.33-1.5c-.74-.69-1.53-1.32-2.3-2s-1.53-1.31-2.34-1.92Z" transform="translate(0.02 -2.89)"/><path class="cls-1" d="M1193.48,151.85a102.8,102.8,0,0,1,13.89,15.73l12-8.89a117.51,117.51,0,0,0-15.86-17.91Z" transform="translate(0.02 -2.89)"/><path class="cls-2" d="M1198.77,147.89c.74.64,1.41,1.37,2.12,2.06s1.42,1.37,2.08,2.11l1.45-1.37c-.67-.75-1.41-1.44-2.12-2.16s-1.41-1.44-2.17-2.1Z" transform="translate(0.02 -2.89)"/><polygon class="cls-2" points="1204.68 150.98 1206.63 153.22 1208.15 151.93 1206.16 149.65 1204.68 150.98"/><path class="cls-2" d="M1208.18,158q1.88,2.29,3.66,4.69l1.59-1.2q-1.79-2.41-3.71-4.75Z" transform="translate(0.02 -2.89)"/><path class="cls-1" d="M1207.37,167.58c4.29,5.81,8.36,12,12.77,18.3l12.25-8.6c-4.22-6-8.36-12.33-13-18.59Z" transform="translate(0.02 -2.89)"/><path class="cls-2" d="M1213.33,164.73c1.17,1.6,2.32,3.23,3.46,4.86l1.64-1.14c-1.15-1.64-2.3-3.28-3.49-4.9Z" transform="translate(0.02 -2.89)"/><polygon class="cls-2" points="1218.23 168.75 1219.93 171.21 1221.57 170.09 1219.88 167.62 1218.23 168.75"/><polygon class="cls-2" points="1221.34 173.27 1224.74 178.21 1226.38 177.07 1222.98 172.15 1221.34 173.27"/><path class="cls-1" d="M1220.14,185.88c2.2,3.13,4.49,6.28,6.92,9.38a108.67,108.67,0,0,0,8,9.07l10.64-10.52a94.92,94.92,0,0,1-6.86-7.82c-2.19-2.79-4.32-5.71-6.42-8.71Z" transform="translate(0.02 -2.89)"/><path class="cls-2" d="M1226.17,183.18c1.16,1.63,2.33,3.26,3.54,4.86l1.6-1.19q-1.79-2.39-3.51-4.82Z" transform="translate(0.02 -2.89)"/><path class="cls-2" d="M1231.23,190c.61.8,1.23,1.59,1.87,2.37l1.55-1.26c-.63-.76-1.24-1.54-1.84-2.33Z" transform="translate(0.02 -2.89)"/><path class="cls-2" d="M1234.7,194.35c.66.76,1.3,1.54,2,2.29l2.06,2.22,1.44-1.38-2-2.18c-.66-.73-1.29-1.49-1.94-2.23Z" transform="translate(0.02 -2.89)"/><path class="cls-1" d="M1235,204.33a76.94,76.94,0,0,0,19.9,14.84l6.71-13.38a62.07,62.07,0,0,1-16-12Z" transform="translate(0.02 -2.89)"/><path class="cls-2" d="M1240.54,200.67c.7.73,1.47,1.39,2.2,2.08s1.5,1.36,2.28,2l1.29-1.53c-.76-.63-1.51-1.27-2.22-1.95s-1.47-1.32-2.15-2Z" transform="translate(0.02 -2.89)"/><path class="cls-2" d="M1247,206.36c.81.61,1.59,1.26,2.42,1.84l1.17-1.62c-.81-.56-1.57-1.19-2.35-1.78Z" transform="translate(0.02 -2.89)"/><path class="cls-2" d="M1251.47,209.65c1.7,1.1,3.42,2.18,5.22,3.12l.94-1.77c-1.74-.9-3.41-1.94-5.06-3Z" transform="translate(0.02 -2.89)"/><path class="cls-1" d="M1254.93,219.17a53,53,0,0,0,12.26,4.42,46.37,46.37,0,0,0,13.38,1l-1.13-14.93a34.45,34.45,0,0,1-17.8-3.92Z" transform="translate(0.02 -2.89)"/><path class="cls-2" d="M1259,213.92a30.29,30.29,0,0,0,2.8,1.21c1,.36,1.88.78,2.87,1.05l.62-1.9c-1-.26-1.84-.65-2.76-1a29,29,0,0,1-2.68-1.17Z" transform="translate(0.02 -2.89)"/><polygon class="cls-2" points="1267.13 214.03 1270.13 214.71 1270.49 212.75 1267.64 212.1 1267.13 214.03"/><path class="cls-2" d="M1272.64,218l.76.11.76,0,1.54.09a26.2,26.2,0,0,0,3.07,0l-.08-2a25.68,25.68,0,0,1-2.91,0l-1.46-.09-.72,0-.73-.1Z" transform="translate(0.02 -2.89)"/><polygon class="cls-2" points="806.87 53.54 807.44 55.45 806.58 55.73 806.15 55.87 806.04 55.9 805.93 55.94 805.73 56.03 804.88 56.35 804.46 56.52 804.03 56.7 800.86 54.75 801.9 53.04 804.22 54.47 804.88 54.22 805.2 54.09 805.37 54.02 805.53 53.97 806.87 53.54"/></svg>