<svg id="Calque_2" data-name="Calque 2" xmlns="http://www.w3.org/2000/svg" viewBox="0 0 1281.47 204.88"><defs><style>.cls-1{fill:none;}.cls-2{fill:#1d1d1b;}</style></defs><path class="cls-1" d="M-3.73,251.85a79.92,79.92,0,0,0,12,3.65,79.08,79.08,0,0,0,12.31,1.63l.81-15a66,66,0,0,1-9.94-1.32,65.15,65.15,0,0,1-9.53-2.91Z" transform="translate(3.73 -55.43)"/><path class="cls-2" d="M-.11,246.26c1,.33,1.89.73,2.86,1l2.91.89.53-1.92-2.81-.87c-.95-.28-1.85-.67-2.78-1Z" transform="translate(3.73 -55.43)"/><path class="cls-2" d="M8.11,248.79c1,.27,2,.45,3,.64l.38-2c-1-.19-1.93-.36-2.88-.62Z" transform="translate(3.73 -55.43)"/><path class="cls-2" d="M13.57,249.87c1,.14,2,.3,3,.42l3,.28.14-2-2.94-.27-2.92-.4Z" transform="translate(3.73 -55.43)"/><path class="cls-1" d="M20.53,257.13a79.51,79.51,0,0,0,12.35-.27,82.65,82.65,0,0,0,12.12-2l-3.52-14.59a66.07,66.07,0,0,1-10,1.69,65.7,65.7,0,0,1-10.11.23Z" transform="translate(3.73 -55.43)"/><path class="cls-2" d="M22.15,250.69l1.52.06h1.52c1,0,2,0,3-.07l-.09-2c-1,.07-2,0-2.95.06H23.7l-1.47-.06Z" transform="translate(3.73 -55.43)"/><polygon class="cls-2" points="34.47 195.11 37.48 194.81 37.25 192.82 34.31 193.12 34.47 195.11"/><path class="cls-2" d="M36.26,249.9c2-.26,4-.68,6-1.09l-.44-2c-1.93.41-3.86.82-5.81,1.07Z" transform="translate(3.73 -55.43)"/><path class="cls-1" d="M45,254.83a85.27,85.27,0,0,0,11.69-3.69,87.42,87.42,0,0,0,11.07-5.24l-7.33-13.09a71.21,71.21,0,0,1-9.22,4.36,68.62,68.62,0,0,1-9.73,3.07Z" transform="translate(3.73 -55.43)"/><path class="cls-2" d="M44.7,248.2c1.95-.52,3.9-1.06,5.81-1.73l-.64-1.9c-1.86.66-3.77,1.18-5.67,1.7Z" transform="translate(3.73 -55.43)"/><polygon class="cls-2" points="56.62 190.21 59.44 189.11 58.67 187.26 55.92 188.33 56.62 190.21"/><path class="cls-2" d="M58,243.52c.94-.38,1.84-.84,2.74-1.29s1.82-.89,2.69-1.39l-.94-1.76c-.86.49-1.75.93-2.63,1.36s-1.77.88-2.68,1.26Z" transform="translate(3.73 -55.43)"/><path class="cls-1" d="M67.76,245.9A85.91,85.91,0,0,0,87.28,231L76.55,220.54a71.22,71.22,0,0,1-16.12,12.27Z" transform="translate(3.73 -55.43)"/><path class="cls-2" d="M65.69,239.61,68.28,238c.86-.53,1.69-1.12,2.53-1.67l-1.13-1.66c-.82.55-1.62,1.12-2.46,1.63l-2.53,1.54Z" transform="translate(3.73 -55.43)"/><path class="cls-2" d="M72.87,234.91c.8-.62,1.64-1.18,2.42-1.83L74,231.51c-.75.64-1.57,1.18-2.35,1.78Z" transform="translate(3.73 -55.43)"/><path class="cls-2" d="M77.25,231.48c1.52-1.33,3-2.66,4.46-4.1L80.31,226c-1.39,1.41-2.87,2.7-4.35,4Z" transform="translate(3.73 -55.43)"/><path class="cls-1" d="M87.28,231a84.4,84.4,0,0,0,8-9.51,77.65,77.65,0,0,0,6.34-10.74l-13.5-6.53A63.55,63.55,0,0,1,83,212.83a69.51,69.51,0,0,1-6.45,7.71Z" transform="translate(3.73 -55.43)"/><path class="cls-2" d="M83.5,225.55c.68-.74,1.39-1.47,2-2.24L87.49,221l-1.56-1.24L84,222c-.64.75-1.33,1.45-2,2.18Z" transform="translate(3.73 -55.43)"/><path class="cls-2" d="M89,219c.63-.8,1.2-1.63,1.76-2.48l-1.66-1.12c-.54.82-1.09,1.63-1.7,2.41Z" transform="translate(3.73 -55.43)"/><polygon class="cls-2" points="95.89 158.95 97.46 156.35 98.88 153.67 97.1 152.76 95.72 155.37 94.2 157.89 95.89 158.95"/><path class="cls-1" d="M101.58,210.77c1.89-3.86,3.16-7.47,4.54-10.67a31.4,31.4,0,0,1,4.38-7.83L99,182.59a45.67,45.67,0,0,0-6.72,11.63c-1.57,3.68-2.81,7.15-4.24,10Z" transform="translate(3.73 -55.43)"/><path class="cls-2" d="M96.26,206.78c.89-1.83,1.61-3.7,2.36-5.55l-1.85-.75c-.75,1.85-1.47,3.7-2.32,5.47Z" transform="translate(3.73 -55.43)"/><path class="cls-2" d="M99.56,198.93q.57-1.38,1.17-2.73l-1.83-.81c-.41.92-.81,1.85-1.19,2.77Z" transform="translate(3.73 -55.43)"/><path class="cls-2" d="M101.77,194a33.13,33.13,0,0,1,3-5l-1.6-1.2a34.65,34.65,0,0,0-3.18,5.27Z" transform="translate(3.73 -55.43)"/><path class="cls-1" d="M110.5,192.27a11.24,11.24,0,0,1,2.47-2.19,9.87,9.87,0,0,1,3-1.25,35.56,35.56,0,0,1,9.16-.55l.39-15a49.34,49.34,0,0,0-13.2,1,25,25,0,0,0-7.33,3.11,26.22,26.22,0,0,0-5.93,5.2Z" transform="translate(3.73 -55.43)"/><path class="cls-2" d="M106.33,187.19a16.86,16.86,0,0,1,4.49-3.36l-.89-1.79a18.53,18.53,0,0,0-5,3.77Z" transform="translate(3.73 -55.43)"/><path class="cls-2" d="M113,182.93a18.29,18.29,0,0,1,2.76-.7l-.36-2a21.84,21.84,0,0,0-3,.77Z" transform="translate(3.73 -55.43)"/><path class="cls-2" d="M118.14,181.9a54.45,54.45,0,0,1,5.87-.15l0-2a56.49,56.49,0,0,0-6.09.16Z" transform="translate(3.73 -55.43)"/><path class="cls-1" d="M125.11,188.28c1.81.05,3.8.11,5.83.09s4-.09,6-.17a120.41,120.41,0,0,0,12-1.39L146.42,172c-3.42.56-6.87,1-10.33,1.2-1.73.06-3.46.17-5.19.14s-3.47,0-5.4-.09Z" transform="translate(3.73 -55.43)"/><path class="cls-2" d="M126.53,181.81c2,.08,4,.06,6,.06l0-2c-2,0-3.94,0-5.94-.06Z" transform="translate(3.73 -55.43)"/><path class="cls-2" d="M135.08,181.77c1,0,2-.09,3-.18l-.14-2c-1,.08-2,.15-3,.17Z" transform="translate(3.73 -55.43)"/><path class="cls-2" d="M140.6,181.38l3-.34c1-.12,2-.3,3-.44l-.32-2c-1,.14-1.95.32-2.93.43l-2.94.34Z" transform="translate(3.73 -55.43)"/><path class="cls-1" d="M149,186.81q5.94-1.06,11.75-2.71a119.79,119.79,0,0,0,11.38-4l-5.73-13.86q-4.81,2-9.82,3.44c-3.34.94-6.73,1.73-10.14,2.34Z" transform="translate(3.73 -55.43)"/><path class="cls-2" d="M149.11,180.16c2-.35,3.95-.81,5.91-1.27l-.48-1.94c-1.92.45-3.85.9-5.8,1.25Z" transform="translate(3.73 -55.43)"/><path class="cls-2" d="M157.45,178.25q1.47-.37,2.91-.84l-.59-1.92c-.94.31-1.89.58-2.84.83Z" transform="translate(3.73 -55.43)"/><path class="cls-2" d="M162.76,176.65c1.9-.66,3.81-1.32,5.67-2.08l-.74-1.86c-1.83.75-3.7,1.4-5.56,2Z" transform="translate(3.73 -55.43)"/><path class="cls-1" d="M172.11,180.11A119.57,119.57,0,0,0,183,174.88c1.74-1,3.51-2,5.2-3.09.83-.53,1.74-1.09,2.51-1.6s1.44-.95,2-1.29l-7.59-13c-1,.61-1.92,1.2-2.71,1.72s-1.48.94-2.23,1.42c-1.44.95-3,1.78-4.46,2.65-3,1.66-6.18,3.16-9.37,4.51Z" transform="translate(3.73 -55.43)"/><path class="cls-2" d="M170.79,173.59c.92-.4,1.85-.79,2.76-1.22l2.73-1.31-.9-1.79-2.67,1.29c-.89.42-1.81.8-2.71,1.2Z" transform="translate(3.73 -55.43)"/><path class="cls-2" d="M178.51,169.89c.89-.46,1.78-.94,2.65-1.46l-1-1.73c-.84.51-1.72,1-2.59,1.43Z" transform="translate(3.73 -55.43)"/><path class="cls-2" d="M183.33,167.17c1.7-1.07,3.44-2.16,5.06-3.24l-1.07-1.69c-1.7,1.12-3.34,2.16-5,3.22Z" transform="translate(3.73 -55.43)"/><path class="cls-1" d="M192.74,168.9a5.9,5.9,0,0,1,2.15-.93,1.36,1.36,0,0,1,.4,0,4.63,4.63,0,0,1,1,.37,17.84,17.84,0,0,1,3.21,2.24l1.95,1.66,1.9,1.73,10.27-10.93L211.32,161l-2.32-2A31.74,31.74,0,0,0,203,155a19.21,19.21,0,0,0-4.3-1.57,16.47,16.47,0,0,0-5.18-.35,20.34,20.34,0,0,0-8.32,2.91Z" transform="translate(3.73 -55.43)"/><path class="cls-2" d="M190.5,162.71a9.22,9.22,0,0,1,5.2-1.21l.19-2a11.23,11.23,0,0,0-6.31,1.42Z" transform="translate(3.73 -55.43)"/><path class="cls-2" d="M197.88,162a14,14,0,0,1,2.49,1.23l1-1.7a15.52,15.52,0,0,0-2.86-1.41Z" transform="translate(3.73 -55.43)"/><path class="cls-2" d="M202.34,164.61c.77.58,1.52,1.21,2.27,1.86s1.5,1.29,2.22,2l1.35-1.48c-.74-.69-1.49-1.36-2.27-2s-1.53-1.32-2.36-1.94Z" transform="translate(3.73 -55.43)"/><path class="cls-1" d="M203.31,174a82.09,82.09,0,0,1,13.06,15.84l12.68-8a96.35,96.35,0,0,0-15.47-18.76Z" transform="translate(3.73 -55.43)"/><path class="cls-2" d="M208.65,170.13c.72.68,1.41,1.38,2.09,2.1s1.36,1.43,2,2.16l1.48-1.34c-.68-.75-1.36-1.5-2.07-2.21s-1.4-1.45-2.14-2.14Z" transform="translate(3.73 -55.43)"/><path class="cls-2" d="M214.39,176.24c.65.74,1.27,1.51,1.89,2.29l1.56-1.25c-.63-.79-1.26-1.58-1.93-2.34Z" transform="translate(3.73 -55.43)"/><path class="cls-2" d="M217.79,180.48c1.19,1.57,2.31,3.19,3.4,4.84l1.67-1.09c-1.11-1.69-2.25-3.35-3.48-5Z" transform="translate(3.73 -55.43)"/><path class="cls-1" d="M216.37,189.85a82.11,82.11,0,0,1,4.93,9c.35.78.73,1.55,1,2.35s.66,1.53,1,2.43a63.31,63.31,0,0,0,2.58,5.81l13.3-6.93c-.64-1.24-1.27-2.75-2-4.47-.33-.84-.75-1.83-1.14-2.75s-.83-1.86-1.25-2.79a96,96,0,0,0-5.84-10.68Z" transform="translate(3.73 -55.43)"/><path class="cls-2" d="M222.52,187.43c1,1.68,2,3.4,2.92,5.15l1.77-.93c-.94-1.79-1.92-3.55-3-5.27Z" transform="translate(3.73 -55.43)"/><path class="cls-2" d="M226.55,194.78c.46.87.84,1.78,1.26,2.68l1.82-.82c-.42-.91-.82-1.84-1.28-2.74Z" transform="translate(3.73 -55.43)"/><path class="cls-2" d="M228.78,199.72c.76,1.82,1.47,3.71,2.35,5.56l1.81-.85c-.84-1.76-1.53-3.61-2.31-5.47Z" transform="translate(3.73 -55.43)"/><path class="cls-1" d="M225.94,209.46a24.6,24.6,0,0,0,4.75,6.53,17,17,0,0,0,4,2.86,18.28,18.28,0,0,0,2.37,1c.41.13.83.24,1.24.35s.8.18,1.18.25a49.36,49.36,0,0,0,6.51.38c1.36.08,1.31.18,1.55.3l8.3-12.49a16.65,16.65,0,0,0-2.3-1.28,19.58,19.58,0,0,0-2.44-.87,20.65,20.65,0,0,0-4.36-.65c-2.45-.08-4.06,0-4.71-.17a.65.65,0,0,0-.19,0l-.11,0c-.06-.05-.14,0-.21-.09a1.88,1.88,0,0,1-.53-.4,9.88,9.88,0,0,1-1.77-2.57Z" transform="translate(3.73 -55.43)"/><path class="cls-2" d="M232.34,207.6a14.6,14.6,0,0,0,4.2,4.78l1.13-1.64a12.64,12.64,0,0,1-3.6-4.15Z" transform="translate(3.73 -55.43)"/><path class="cls-2" d="M239,213.63a12,12,0,0,0,3.19.59l.13-2a9.71,9.71,0,0,1-2.68-.49Z" transform="translate(3.73 -55.43)"/><path class="cls-2" d="M244.74,214.29a12.59,12.59,0,0,1,5.44.87l.85-1.81a14.56,14.56,0,0,0-6.27-1.06Z" transform="translate(3.73 -55.43)"/><path class="cls-1" d="M247.56,221.13a1.43,1.43,0,0,1,.37.36,7.14,7.14,0,0,1,.64,1,25.34,25.34,0,0,1,1.46,4c.49,1.64,1,3.49,1.62,5.54a34,34,0,0,0,2.8,6.64l13-7.48a19.14,19.14,0,0,1-1.51-3.71c-.49-1.53-1-3.3-1.53-5.25a40.85,40.85,0,0,0-2.45-6.51,21,21,0,0,0-2.37-3.7,16.08,16.08,0,0,0-3.74-3.43Z" transform="translate(3.73 -55.43)"/><path class="cls-2" d="M252,216.39a12.48,12.48,0,0,1,3,4.61l1.85-.76a14.29,14.29,0,0,0-3.49-5.34Z" transform="translate(3.73 -55.43)"/><path class="cls-2" d="M255.83,223.28c.31.92.58,1.87.85,2.83l1.92-.55c-.27-1-.55-1.93-.86-2.9Z" transform="translate(3.73 -55.43)"/><path class="cls-2" d="M257.36,228.52a38.87,38.87,0,0,0,2.1,5.77l1.8-.87a36.82,36.82,0,0,1-2-5.46Z" transform="translate(3.73 -55.43)"/><path class="cls-1" d="M254.45,238.72a18.93,18.93,0,0,0,6.18,6.65c.69.41,1.37.84,2.1,1.19s1.51.62,2.28.89,1.55.39,2.33.56,1.52.18,2.28.24a26.34,26.34,0,0,0,7.84-.94,54.64,54.64,0,0,0,6.12-2.06l-5.41-14a40.59,40.59,0,0,1-4.53,1.54,11.37,11.37,0,0,1-3.26.47,2.68,2.68,0,0,1-1.59-.48,3.83,3.83,0,0,1-1.33-1.55Z" transform="translate(3.73 -55.43)"/><path class="cls-2" d="M260.8,236.61A13,13,0,0,0,263,239a12.39,12.39,0,0,0,2.77,1.73l.81-1.82a10.17,10.17,0,0,1-2.28-1.43,10.71,10.71,0,0,1-1.81-2Z" transform="translate(3.73 -55.43)"/><path class="cls-2" d="M268.33,241.57c.53.11,1.07.12,1.61.18s1.07,0,1.6,0l-.11-2c-.46,0-.93,0-1.39,0s-.91-.07-1.35-.16Z" transform="translate(3.73 -55.43)"/><path class="cls-2" d="M274.15,241.4a38,38,0,0,0,5.88-1.75l-.69-1.88a35.94,35.94,0,0,1-5.58,1.67Z" transform="translate(3.73 -55.43)"/><path class="cls-1" d="M283.58,245.25a68,68,0,0,1,9.48-3.35,29.3,29.3,0,0,1,8.91-.37l1.38-14.94a44.07,44.07,0,0,0-13.46.65,77.94,77.94,0,0,0-11.72,4Z" transform="translate(3.73 -55.43)"/><path class="cls-2" d="M282.41,238.73c1.86-.74,3.7-1.5,5.55-2.13l-.66-1.89c-1.92.66-3.78,1.43-5.63,2.16Z" transform="translate(3.73 -55.43)"/><path class="cls-2" d="M290.28,235.89a26.68,26.68,0,0,1,2.82-.61l-.32-2a28.14,28.14,0,0,0-3,.65Z" transform="translate(3.73 -55.43)"/><path class="cls-2" d="M295.5,235a37.68,37.68,0,0,1,5.82,0l.14-2a39.21,39.21,0,0,0-6.13,0Z" transform="translate(3.73 -55.43)"/><path class="cls-1" d="M302,241.53a79.35,79.35,0,0,1,10.11,1.76c3.54.79,7.22,1.73,11.15,2.5l2.92-14.71c-3.42-.67-7-1.58-10.78-2.43a95.4,95.4,0,0,0-12-2.06Z" transform="translate(3.73 -55.43)"/><path class="cls-2" d="M303.79,235.18c1.95.21,3.89.56,5.83.93l.39-2c-2-.38-4-.73-6-1Z" transform="translate(3.73 -55.43)"/><polygon class="cls-2" points="315.77 181.19 318.68 181.84 319.13 179.9 316.2 179.24 315.77 181.19"/><path class="cls-2" d="M317.38,237.84c1.94.45,3.89.91,5.86,1.32l.41-2c-1.94-.41-3.87-.86-5.82-1.31Z" transform="translate(3.73 -55.43)"/><path class="cls-1" d="M323.23,245.79l1.48.29c.5.1,1.06.17,1.59.26,1.07.19,2.14.3,3.22.41A58.75,58.75,0,0,0,336,247a44.79,44.79,0,0,0,13.33-2.3l-4.93-14.16a29.58,29.58,0,0,1-8.75,1.46,41.31,41.31,0,0,1-4.71-.19c-.79-.08-1.58-.16-2.35-.3-.4-.07-.76-.11-1.19-.19l-1.28-.25Z" transform="translate(3.73 -55.43)"/><path class="cls-2" d="M325.74,239.65a51.19,51.19,0,0,0,6.06.76l.12-2a49.56,49.56,0,0,1-5.81-.72Z" transform="translate(3.73 -55.43)"/><polygon class="cls-2" points="338.07 185.07 339.6 185.08 341.13 185 341.01 183 339.55 183.08 338.09 183.07 338.07 185.07"/><path class="cls-2" d="M339.94,240.2c1-.08,2-.31,3-.47s2-.45,3-.75l-.57-1.91c-.93.27-1.87.49-2.82.7s-1.9.37-2.87.45Z" transform="translate(3.73 -55.43)"/><path class="cls-1" d="M366.68,246.27l1.19.42c.4.12.83.21,1.25.31a14,14,0,0,0,2.59.34,16.43,16.43,0,0,0,5.14-.55,19.51,19.51,0,0,0,7.8-4.4,53.49,53.49,0,0,0,4.55-4.71l.88-1,.85-.86c.56-.57,1.1-1.16,1.68-1.71l-10.28-10.93c-.78.74-1.51,1.53-2.26,2.29L379,226.64l-1,1.1a41.76,41.76,0,0,1-3.23,3.4,5.05,5.05,0,0,1-1.84,1.18,1.25,1.25,0,0,1-.42,0c-.06,0-.13,0-.19,0s-.07,0-.11,0a.42.42,0,0,0-.14-.06Z" transform="translate(3.73 -55.43)"/><path class="cls-2" d="M370.33,240.6a9.84,9.84,0,0,0,6.48-.7l-.84-1.81a7.94,7.94,0,0,1-5.18.57Z" transform="translate(3.73 -55.43)"/><path class="cls-2" d="M379.12,238.51a21.23,21.23,0,0,0,2.36-2.06L380.07,235a18.83,18.83,0,0,1-2.14,1.88Z" transform="translate(3.73 -55.43)"/><polygon class="cls-2" points="386.96 179.18 388.95 176.94 391 174.84 389.59 173.41 387.46 175.6 385.47 177.84 386.96 179.18"/><path class="cls-1" d="M392.61,234.12a51.3,51.3,0,0,1,7.7-5.84c.68-.44,1.42-.79,2.12-1.2s1.42-.79,2.17-1.11l2.22-1,2.29-.87L404,210l-3,1.14-2.88,1.33c-1,.42-1.9.94-2.83,1.45s-1.88,1-2.77,1.57a66,66,0,0,0-10.18,7.72Z" transform="translate(3.73 -55.43)"/><path class="cls-2" d="M389.08,228.57c.74-.63,1.44-1.32,2.23-1.91l2.34-1.77-1.16-1.63-2.43,1.84c-.81.61-1.54,1.32-2.32,2Z" transform="translate(3.73 -55.43)"/><path class="cls-2" d="M395.69,223.53c.82-.52,1.63-1.09,2.5-1.54l-1-1.73c-.91.46-1.74,1.05-2.6,1.59Z" transform="translate(3.73 -55.43)"/><path class="cls-2" d="M400.34,220.81c.86-.47,1.77-.84,2.65-1.26l1.34-.62,1.37-.52-.72-1.87-1.43.55-1.38.64c-.91.44-1.86.81-2.75,1.31Z" transform="translate(3.73 -55.43)"/><path class="cls-1" d="M409.11,224.07c.38-.14.76-.3,1.15-.43l1.17-.35c.78-.23,1.56-.5,2.35-.7,1.59-.35,3.17-.78,4.8-1s3.23-.41,4.85-.56c.82-.08,1.63,0,2.44-.07a19.69,19.69,0,0,1,2.43,0l.57-15a30.89,30.89,0,0,0-3.19,0c-1.06,0-2.12,0-3.18.09-2.1.19-4.22.34-6.3.73a62.73,62.73,0,0,0-6.21,1.28c-1,.25-2,.59-3,.89l-1.51.46c-.5.17-1,.37-1.49.55Z" transform="translate(3.73 -55.43)"/><path class="cls-2" d="M408,217.52c1.89-.55,3.74-1.2,5.67-1.58l-.45-1.95c-2,.4-3.92,1.06-5.86,1.64Z" transform="translate(3.73 -55.43)"/><polygon class="cls-2" points="419.81 159.99 422.72 159.53 422.45 157.55 419.44 158.03 419.81 159.99"/><path class="cls-2" d="M421.43,214.7c1.95-.24,3.91-.21,5.87-.26l0-2c-2,.05-4.06,0-6.08.27Z" transform="translate(3.73 -55.43)"/><path class="cls-1" d="M428.3,221l2.43.12,2.4.31a18.76,18.76,0,0,1,2.38.4c.79.18,1.59.29,2.36.51,3,.75,6.39,2,9.95,3.3l5.09-14.11c-3.48-1.25-7.09-2.63-11.39-3.74-1-.28-2.09-.45-3.13-.68a28.54,28.54,0,0,0-3.16-.53l-3.18-.4-3.18-.17Z" transform="translate(3.73 -55.43)"/><path class="cls-2" d="M429.78,214.57l1.47.07,1.45.18c1,.14,1.95.21,2.91.4l.34-2c-1-.19-2-.28-3-.42l-1.51-.18-1.52-.08Z" transform="translate(3.73 -55.43)"/><path class="cls-2" d="M438,215.7a28.35,28.35,0,0,1,2.85.73l.54-1.93a29.82,29.82,0,0,0-3-.75Z" transform="translate(3.73 -55.43)"/><path class="cls-2" d="M443.21,217.11c1.87.63,3.74,1.3,5.62,2l.68-1.88c-1.88-.68-3.76-1.36-5.68-2Z" transform="translate(3.73 -55.43)"/><path class="cls-1" d="M447.82,225.64a104,104,0,0,0,11.54,3.62l1.58.37,1.66.29a33.17,33.17,0,0,0,3.45.43l.88.08h2.81c.63,0,1.3-.11,1.95-.18a14.12,14.12,0,0,0,2-.29l-2.92-14.72c-2,.45-4.88.13-7.95-.59a93.33,93.33,0,0,1-9.89-3.13Z" transform="translate(3.73 -55.43)"/><path class="cls-2" d="M451.21,220q2.82,1,5.72,1.92l.58-1.91q-2.82-.89-5.63-1.9Z" transform="translate(3.73 -55.43)"/><path class="cls-2" d="M459.36,222.56c1,.28,2,.48,3,.72l.4-2c-1-.24-1.91-.42-2.86-.69Z" transform="translate(3.73 -55.43)"/><path class="cls-2" d="M464.85,223.7l1.55.15a9.94,9.94,0,0,0,1.55.08h1.56c.52,0,1-.1,1.57-.15l-.25-2c-.47,0-.93.11-1.41.14H468a11.53,11.53,0,0,1-1.43-.08l-1.44-.14Z" transform="translate(3.73 -55.43)"/><path class="cls-1" d="M473.67,230l2-.49a16.08,16.08,0,0,0,2-.71,16.32,16.32,0,0,0,2-.88q.93-.54,1.86-1.11a11.32,11.32,0,0,0,1.71-1.27c.54-.45,1.08-.91,1.61-1.38a24,24,0,0,0,2.64-3.08c1.46-2,2.45-3.85,3.31-5.24.43-.7.82-1.3,1.19-1.79.18-.24.35-.45.52-.65s.37-.37.55-.56l-10.47-10.75-1.4,1.46c-.44.51-.86,1-1.23,1.54-.76,1-1.39,2-1.94,2.89-1.1,1.8-1.92,3.27-2.67,4.28a8.12,8.12,0,0,1-1,1.18c-.18.14-.36.28-.53.43a1.72,1.72,0,0,1-.54.41,4.53,4.53,0,0,0-.55.34c-.17.14-.41.15-.6.25a2.57,2.57,0,0,1-.64.24l-.72.17Z" transform="translate(3.73 -55.43)"/><path class="cls-2" d="M473.7,223.27a8.43,8.43,0,0,0,1.51-.52,10,10,0,0,0,1.46-.65,14.09,14.09,0,0,0,2.64-1.79L478,218.77a11.87,11.87,0,0,1-2.29,1.56,7.2,7.2,0,0,1-1.27.56,6.79,6.79,0,0,1-1.31.46Z" transform="translate(3.73 -55.43)"/><path class="cls-2" d="M481.23,218.47a24.26,24.26,0,0,0,1.85-2.52l-1.68-1.09a21.11,21.11,0,0,1-1.69,2.31Z" transform="translate(3.73 -55.43)"/><path class="cls-2" d="M484.4,213.79a31.41,31.41,0,0,1,3.27-4.78l-1.5-1.32a32.12,32.12,0,0,0-3.49,5.08Z" transform="translate(3.73 -55.43)"/><path class="cls-1" d="M493,212.81a12.17,12.17,0,0,1,2.73-1.93,22.7,22.7,0,0,1,3.81-1.41,66.14,66.14,0,0,1,9.92-1.58L507.92,193a79.56,79.56,0,0,0-12.25,2,36.75,36.75,0,0,0-6.7,2.52,27.24,27.24,0,0,0-6.4,4.55Z" transform="translate(3.73 -55.43)"/><path class="cls-2" d="M489.38,207.36a18.79,18.79,0,0,1,4.85-2.93l-.78-1.84a21.3,21.3,0,0,0-5.36,3.24Z" transform="translate(3.73 -55.43)"/><path class="cls-2" d="M496.49,203.61c.91-.3,1.86-.53,2.8-.77l-.45-2c-1,.25-2,.49-3,.82Z" transform="translate(3.73 -55.43)"/><path class="cls-2" d="M501.69,202.36c1.93-.34,3.89-.58,5.86-.8l-.22-2c-2,.22-4,.46-6,.82Z" transform="translate(3.73 -55.43)"/><path class="cls-1" d="M509.5,207.89c1.82-.19,3.75-.37,5.73-.64s4-.52,6-1l3-.59c1-.21,2-.48,2.95-.72,2-.45,3.9-1.06,5.83-1.65L528.47,189c-1.65.5-3.3,1-5,1.41-.83.2-1.66.44-2.5.61l-2.54.5c-1.68.39-3.39.54-5.09.82s-3.53.4-5.44.6Z" transform="translate(3.73 -55.43)"/><path class="cls-2" d="M510.06,201.29c2-.2,4-.41,6-.73l-.29-2c-1.94.31-3.91.52-5.9.72Z" transform="translate(3.73 -55.43)"/><polygon class="cls-2" points="522.26 144.77 525.23 144.19 524.83 142.23 521.92 142.8 522.26 144.77"/><path class="cls-2" d="M524,199.08c1.95-.49,3.92-1,5.84-1.58l-.58-1.91c-1.88.61-3.8,1.06-5.72,1.54Z" transform="translate(3.73 -55.43)"/><path class="cls-1" d="M533,203.33a109.78,109.78,0,0,0,22-9.8l-7.51-13a95,95,0,0,1-19,8.48Z" transform="translate(3.73 -55.43)"/><path class="cls-2" d="M532.25,196.75c1.89-.7,3.82-1.29,5.67-2.1l-.75-1.85c-1.81.79-3.7,1.37-5.55,2Z" transform="translate(3.73 -55.43)"/><path class="cls-2" d="M540.25,193.7c.93-.39,1.83-.84,2.75-1.25l-.84-1.81c-.9.4-1.79.84-2.7,1.22Z" transform="translate(3.73 -55.43)"/><path class="cls-2" d="M545.27,191.37c1.79-.93,3.6-1.81,5.34-2.83l-1-1.75c-1.71,1-3.49,1.88-5.24,2.79Z" transform="translate(3.73 -55.43)"/><path class="cls-1" d="M555,193.53a139.25,139.25,0,0,0,19.4-13.64l-9.58-11.54a124.93,124.93,0,0,1-17.33,12.2Z" transform="translate(3.73 -55.43)"/><path class="cls-2" d="M552.82,187.28c1.7-1.08,3.45-2.07,5.11-3.22l-1.11-1.67c-1.62,1.13-3.35,2.11-5,3.17Z" transform="translate(3.73 -55.43)"/><path class="cls-2" d="M560,182.66c.84-.56,1.64-1.17,2.46-1.75l-1.17-1.62c-.81.57-1.59,1.18-2.42,1.72Z" transform="translate(3.73 -55.43)"/><path class="cls-2" d="M564.5,179.43c1.58-1.24,3.21-2.43,4.74-3.73L568,174.15c-1.51,1.29-3.11,2.45-4.67,3.68Z" transform="translate(3.73 -55.43)"/><path class="cls-1" d="M574.38,179.89a190,190,0,0,0,17-16l-10.91-10.31a170.69,170.69,0,0,1-15.67,14.81Z" transform="translate(3.73 -55.43)"/><path class="cls-2" d="M571.2,174.09c1.52-1.31,3-2.62,4.53-4l-1.34-1.48c-1.47,1.33-3,2.63-4.48,3.92Z" transform="translate(3.73 -55.43)"/><path class="cls-2" d="M577.57,168.42c.75-.68,1.47-1.37,2.19-2.07l-1.39-1.44c-.71.69-1.43,1.38-2.16,2Z" transform="translate(3.73 -55.43)"/><path class="cls-2" d="M581.55,164.6c1.43-1.41,2.83-2.85,4.22-4.29l-1.44-1.38q-2.07,2.15-4.18,4.25Z" transform="translate(3.73 -55.43)"/><path class="cls-1" d="M591.38,163.85c5.31-5.64,10.32-11.49,15.11-17.48L594.76,137c-4.57,5.72-9.32,11.26-14.29,16.52Z" transform="translate(3.73 -55.43)"/><path class="cls-2" d="M587.51,158.46c1.39-1.45,2.7-3,4-4.44l-1.49-1.33c-1.34,1.47-2.65,3-4,4.41Z" transform="translate(3.73 -55.43)"/><polygon class="cls-2" points="596.94 96.71 598.91 94.44 597.38 93.14 595.43 95.4 596.94 96.71"/><path class="cls-2" d="M596.79,148c1.3-1.53,2.55-3.09,3.81-4.64L599,142.06c-1.25,1.54-2.5,3.09-3.79,4.61Z" transform="translate(3.73 -55.43)"/><path class="cls-1" d="M606.49,146.37c4.77-6,9.33-12.11,13.74-18.29L608,119.37c-4.3,6-8.7,11.92-13.27,17.65Z" transform="translate(3.73 -55.43)"/><path class="cls-2" d="M602.18,141.33c1.24-1.57,2.48-3.14,3.69-4.74l-1.59-1.21c-1.2,1.58-2.43,3.15-3.67,4.71Z" transform="translate(3.73 -55.43)"/><polygon class="cls-2" points="611.11 79.18 612.91 76.78 611.3 75.58 609.52 77.97 611.11 79.18"/><polygon class="cls-2" points="614.4 74.77 617.92 69.91 616.3 68.75 612.79 73.58 614.4 74.77"/><path class="cls-1" d="M620.23,128.08c4.42-6.17,8.69-12.43,12.89-18.66L620.69,101c-4.18,6.2-8.36,12.32-12.66,18.34Z" transform="translate(3.73 -55.43)"/><polygon class="cls-2" points="619.4 67.86 622.85 62.95 621.2 61.81 617.77 66.7 619.4 67.86"/><polygon class="cls-2" points="624.27 60.9 625.97 58.43 624.32 57.3 622.62 59.76 624.27 60.9"/><polygon class="cls-2" points="627.38 56.37 630.74 51.41 629.08 50.29 625.73 55.24 627.38 56.37"/><rect class="cls-1" x="621.95" y="88.41" width="22.48" height="15" transform="translate(203.2 511.67) rotate(-55.98)"/><rect class="cls-2" x="626.28" y="100.7" width="5.99" height="2" transform="translate(196.67 510.98) rotate(-55.98)"/><rect class="cls-2" x="631.69" y="94.91" width="2.99" height="2" transform="translate(203.2 511.67) rotate(-55.98)"/><rect class="cls-2" x="634.1" y="89.12" width="5.99" height="2" transform="translate(209.71 512.35) rotate(-55.98)"/><path class="cls-1" d="M645.7,90.79,652,81.47l3.15-4.66,1.55-2.29c.48-.71.93-1.34,1.36-1.89l-11.81-9.24c-.73.93-1.36,1.82-1.94,2.66l-1.59,2.37-3.15,4.66-6.29,9.31Z" transform="translate(3.73 -55.43)"/><rect class="cls-2" x="638.86" y="82.07" width="5.99" height="2" transform="translate(217.66 513.19) rotate(-55.98)"/><rect class="cls-2" x="644.26" y="76.28" width="2.99" height="2" transform="translate(224.18 513.88) rotate(-55.98)"/><path class="cls-2" d="M648.82,74.53c1.12-1.64,2.22-3.34,3.36-4.92l-1.62-1.17c-1.2,1.66-2.27,3.32-3.4,5Z" transform="translate(3.73 -55.43)"/><path class="cls-1" d="M658,72.63a8.56,8.56,0,0,1,2-2,1.1,1.1,0,0,1,.86-.18,8.93,8.93,0,0,1,2.77.92c.61.3,1.28.66,2,1.07l2.25,1.34L675.73,61l-2.58-1.53c-.91-.52-1.89-1.06-3-1.58a23.31,23.31,0,0,0-7.92-2.34,16.27,16.27,0,0,0-5.11.32,16,16,0,0,0-4.81,1.93,22.9,22.9,0,0,0-6.12,5.64Z" transform="translate(3.73 -55.43)"/><path class="cls-2" d="M653.68,67.7A11.1,11.1,0,0,1,658,64.41l-.71-1.87a13.21,13.21,0,0,0-5.13,3.84Z" transform="translate(3.73 -55.43)"/><path class="cls-2" d="M660.15,63.94a9.46,9.46,0,0,1,2.69.23l.44-2a11.79,11.79,0,0,0-3.26-.28Z" transform="translate(3.73 -55.43)"/><path class="cls-2" d="M665.07,64.87a36.36,36.36,0,0,1,5.16,2.7l1-1.72A37.32,37.32,0,0,0,665.81,63Z" transform="translate(3.73 -55.43)"/><path class="cls-1" d="M667.93,73.77a108.4,108.4,0,0,1,16.78,12.61l10.13-11.07A124,124,0,0,0,675.73,61Z" transform="translate(3.73 -55.43)"/><path class="cls-2" d="M672.37,68.87c1.68,1,3.33,2.14,5,3.26l1.15-1.64c-1.66-1.14-3.33-2.26-5-3.32Z" transform="translate(3.73 -55.43)"/><polygon class="cls-2" points="683.06 18.14 685.43 19.93 686.65 18.35 684.24 16.53 683.06 18.14"/><path class="cls-2" d="M683.65,76.89c.77.61,1.53,1.25,2.28,1.89s1.51,1.29,2.24,2l1.33-1.49c-.74-.68-1.5-1.34-2.27-2s-1.54-1.3-2.33-1.93Z" transform="translate(3.73 -55.43)"/><path class="cls-1" d="M684.71,86.38a108.72,108.72,0,0,1,14,15.6l12.08-8.88a123.23,123.23,0,0,0-16-17.79Z" transform="translate(3.73 -55.43)"/><path class="cls-2" d="M690,82.43c1.45,1.34,2.85,2.74,4.23,4.16l1.44-1.39c-1.4-1.44-2.83-2.86-4.3-4.23Z" transform="translate(3.73 -55.43)"/><polygon class="cls-2" points="699.67 32.96 701.65 35.17 703.15 33.85 701.14 31.61 699.67 32.96"/><path class="cls-2" d="M699.53,92.48c.64.75,1.26,1.52,1.87,2.3s1.23,1.55,1.82,2.34l1.6-1.2c-.6-.81-1.22-1.61-1.85-2.39s-1.25-1.58-1.91-2.34Z" transform="translate(3.73 -55.43)"/><path class="cls-1" d="M698.74,102c2.06,2.82,4,5.77,5.89,8.83s3.7,6.24,5.55,9.49l13-7.42c-1.85-3.27-3.78-6.6-5.8-9.91s-4.22-6.65-6.59-9.87Z" transform="translate(3.73 -55.43)"/><path class="cls-2" d="M704.71,99.14c1.16,1.6,2.25,3.25,3.34,4.9l1.68-1.08c-1.11-1.68-2.22-3.36-3.4-5Z" transform="translate(3.73 -55.43)"/><path class="cls-2" d="M709.37,106.14c.54.84,1.06,1.68,1.56,2.54l1.72-1c-.51-.86-1-1.71-1.58-2.56Z" transform="translate(3.73 -55.43)"/><polygon class="cls-2" points="715.94 55.38 718.92 60.55 720.66 59.56 717.66 54.36 715.94 55.38"/><path class="cls-1" d="M710.18,120.3c3.7,6.48,7.43,13.22,12,19.79l12.31-8.57c-4-5.73-7.56-12.11-11.29-18.64Z" transform="translate(3.73 -55.43)"/><polygon class="cls-2" points="720.17 62.74 723.15 67.95 724.88 66.95 721.91 61.76 720.17 62.74"/><polygon class="cls-2" points="724.41 70.11 725.94 72.7 727.65 71.66 726.13 69.1 724.41 70.11"/><path class="cls-2" d="M723.52,130.26q1.59,2.56,3.28,5.06l1.65-1.13c-1.11-1.63-2.19-3.3-3.23-5Z" transform="translate(3.73 -55.43)"/><path class="cls-1" d="M722.19,140.09c1.11,1.65,2.37,3.26,3.58,4.88s2.55,3.18,4,4.7,2.89,3,4.38,4.46,3.14,2.82,4.85,4.09l9.1-11.93c-1.32-1-2.51-2.1-3.75-3.15s-2.39-2.29-3.49-3.57-2.19-2.56-3.28-3.86-2.09-2.72-3.07-4.19Z" transform="translate(3.73 -55.43)"/><path class="cls-2" d="M728.25,137.41c1.2,1.62,2.37,3.27,3.67,4.81l1.55-1.27c-1.27-1.5-2.42-3.11-3.59-4.7Z" transform="translate(3.73 -55.43)"/><polygon class="cls-2" points="737.27 88.73 739.31 90.98 740.76 89.6 738.78 87.42 737.27 88.73"/><path class="cls-2" d="M737.37,148.2c1.41,1.46,3,2.73,4.54,4.05l1.25-1.56c-1.49-1.28-3-2.51-4.39-3.92Z" transform="translate(3.73 -55.43)"/><path class="cls-1" d="M739,158.22A95.79,95.79,0,0,0,760.27,170l5.82-13.83a81.38,81.38,0,0,1-18-9.85Z" transform="translate(3.73 -55.43)"/><path class="cls-2" d="M744,153.81c1.63,1.21,3.34,2.29,5.07,3.35l1-1.72c-1.68-1-3.34-2.08-4.92-3.25Z" transform="translate(3.73 -55.43)"/><path class="cls-2" d="M751.2,158.42c.89.49,1.77,1,2.67,1.43l.92-1.78c-.88-.44-1.75-.91-2.61-1.39Z" transform="translate(3.73 -55.43)"/><path class="cls-2" d="M756.13,161c1.81.87,3.64,1.71,5.49,2.49l.79-1.84c-1.83-.77-3.63-1.6-5.41-2.45Z" transform="translate(3.73 -55.43)"/><path class="cls-1" d="M760.27,170c3.6,1.51,7.16,2.89,10.66,4.23s7.05,2.71,10.62,4l5.18-14.07q-5.19-1.92-10.4-3.94c-3.5-1.35-6.92-2.68-10.24-4.07Z" transform="translate(3.73 -55.43)"/><path class="cls-2" d="M764,164.46q2.77,1.14,5.57,2.23l.73-1.86c-1.86-.73-3.7-1.46-5.54-2.22Z" transform="translate(3.73 -55.43)"/><rect class="cls-2" x="772.62" y="165.7" width="2" height="2.99" transform="translate(343.47 773.74) rotate(-68.95)"/><polygon class="cls-2" points="780.72 114.14 786.33 116.25 787.02 114.38 781.43 112.27 780.72 114.14"/><path class="cls-1" d="M781.55,178.22c7.14,2.63,14.42,5.13,21.92,7.23l4-14.45c-6.94-1.94-13.85-4.3-20.77-6.85Z" transform="translate(3.73 -55.43)"/><path class="cls-2" d="M785,172.55c1.88.68,3.75,1.37,5.65,2l.66-1.89c-1.89-.63-3.76-1.32-5.63-2Z" transform="translate(3.73 -55.43)"/><path class="cls-2" d="M793,175.38c1,.34,1.91.63,2.86.94l.62-1.9c-1-.31-1.9-.6-2.83-.93Z" transform="translate(3.73 -55.43)"/><path class="cls-2" d="M798.23,177.1c1.91.61,3.84,1.15,5.76,1.73l.55-1.92c-1.9-.58-3.82-1.11-5.71-1.72Z" transform="translate(3.73 -55.43)"/><path class="cls-1" d="M803.47,185.45a149.51,149.51,0,0,0,23.17,4.69l1.71-14.9A136.47,136.47,0,0,1,807.5,171Z" transform="translate(3.73 -55.43)"/><path class="cls-2" d="M806.44,179.51c1.93.52,3.87,1.05,5.83,1.47l.46-1.94c-1.94-.42-3.85-.95-5.77-1.46Z" transform="translate(3.73 -55.43)"/><path class="cls-2" d="M814.72,181.55c1,.25,2,.4,2.95.6l.39-2c-1-.19-1.95-.34-2.92-.58Z" transform="translate(3.73 -55.43)"/><path class="cls-2" d="M820.14,182.62c2,.36,4,.61,6,.91l.25-2c-2-.3-3.93-.54-5.87-.9Z" transform="translate(3.73 -55.43)"/><path class="cls-1" d="M826.64,190.14a97.31,97.31,0,0,0,24.29-.11l-2-14.86a82.6,82.6,0,0,1-20.55.07Z" transform="translate(3.73 -55.43)"/><path class="cls-2" d="M828.64,183.8l3,.29c1,.08,2,.1,3,.15l.08-2c-1-.05-2-.07-3-.14l-3-.29Z" transform="translate(3.73 -55.43)"/><path class="cls-2" d="M837.19,184.35c1,0,2,0,3,0l0-2c-1,0-2,.05-3,0Z" transform="translate(3.73 -55.43)"/><path class="cls-2" d="M842.73,184.28c2-.15,4-.3,6-.5l-.23-2c-2,.2-3.93.35-5.9.49Z" transform="translate(3.73 -55.43)"/><path class="cls-1" d="M850.93,190c2-.33,4.08-.55,6.08-1.06l3-.69c1-.22,2-.51,2.86-.74a25.3,25.3,0,0,1,4.19-.91,5.45,5.45,0,0,1,1.22,0,3.16,3.16,0,0,1,.89.23l5.46-14a18.11,18.11,0,0,0-4.54-1.15,20.91,20.91,0,0,0-4.39-.05,39.89,39.89,0,0,0-6.8,1.38c-.94.26-1.77.5-2.58.67l-2.46.56c-1.62.43-3.32.59-5,.87Z" transform="translate(3.73 -55.43)"/><path class="cls-2" d="M851.3,183.4c1-.17,2-.28,3-.49l3-.67-.46-2-2.87.66c-1,.2-1.95.31-2.92.47Z" transform="translate(3.73 -55.43)"/><polygon class="cls-2" points="863.44 126.24 866.32 125.46 865.82 123.52 862.92 124.31 863.44 126.24"/><path class="cls-2" d="M865,180.36a12.73,12.73,0,0,1,5.5.07l.53-1.93a14.64,14.64,0,0,0-6.38-.11Z" transform="translate(3.73 -55.43)"/><path class="cls-1" d="M869.19,186.86a14.19,14.19,0,0,1,3.08,1.89l4.36,3.34,8.9,6.86,9.16-11.88-8.91-6.86-4.56-3.51a29,29,0,0,0-6.57-3.81Z" transform="translate(3.73 -55.43)"/><path class="cls-2" d="M872.62,181.27a30.82,30.82,0,0,1,4.81,3.22l1.22-1.58a31.71,31.71,0,0,0-5.14-3.43Z" transform="translate(3.73 -55.43)"/><rect class="cls-2" x="880.2" y="184.64" width="2" height="2.99" transform="translate(199.58 715.06) rotate(-52.38)"/><rect class="cls-2" x="885.73" y="187.41" width="2" height="5.99" transform="translate(198.37 721.11) rotate(-52.38)"/><path class="cls-1" d="M885.53,199l8.9,6.86,4.45,3.43,2.23,1.72.56.43c.16.13.49.35.73.52L904,213l8-12.69-.74-.51a4.77,4.77,0,0,1-.42-.29l-.55-.42L908,197.36l-4.45-3.43-8.9-6.86Z" transform="translate(3.73 -55.43)"/><rect class="cls-2" x="892.47" y="192.6" width="2" height="5.99" transform="translate(196.87 728.47) rotate(-52.38)"/><rect class="cls-2" x="898.01" y="198.36" width="2" height="2.99" transform="translate(195.66 734.53) rotate(-52.38)"/><path class="cls-2" d="M901.56,203.09c1.6,1.21,3.11,2.45,4.79,3.64l1.17-1.62c-1.58-1.12-3.16-2.41-4.74-3.6Z" transform="translate(3.73 -55.43)"/><path class="cls-1" d="M904,213a36.9,36.9,0,0,0,13.18,4.81,117.37,117.37,0,0,0,11.93,1.3l1.14-15a99.74,99.74,0,0,1-10.4-1.11A22,22,0,0,1,912,200.3Z" transform="translate(3.73 -55.43)"/><path class="cls-2" d="M908.58,208.14a27.15,27.15,0,0,0,5.74,2.34l.55-1.92a24.76,24.76,0,0,1-5.32-2.17Z" transform="translate(3.73 -55.43)"/><path class="cls-2" d="M916.8,211.1c1,.19,2,.41,3,.54l.3-2c-1-.12-1.93-.33-2.89-.52Z" transform="translate(3.73 -55.43)"/><path class="cls-2" d="M922.32,212c2,.25,4,.39,6,.55l.15-2c-2-.16-4-.31-5.92-.54Z" transform="translate(3.73 -55.43)"/><path class="cls-1" d="M929.09,219.1a85.53,85.53,0,0,1,10.25,1.18c1.31.24,3.44.85,5.76,1.23a22.61,22.61,0,0,0,8.3,0l-3-14.7a8.15,8.15,0,0,1-2.87-.09c-1.39-.22-2.87-.65-5.24-1.13a96.24,96.24,0,0,0-12.06-1.44Z" transform="translate(3.73 -55.43)"/><path class="cls-2" d="M930.83,212.71c2,.16,4,.32,5.91.58l.26-2c-2-.27-4-.42-6-.58Z" transform="translate(3.73 -55.43)"/><path class="cls-2" d="M939.17,213.64c1,.14,1.92.37,2.87.57l.46-2c-1-.2-2-.45-3-.59Z" transform="translate(3.73 -55.43)"/><path class="cls-2" d="M944.49,214.78a21.15,21.15,0,0,0,6.24.55l-.18-2a18.84,18.84,0,0,1-5.64-.51Z" transform="translate(3.73 -55.43)"/><path class="cls-1" d="M953.4,221.5a20.73,20.73,0,0,0,4.54-1.59,19.66,19.66,0,0,0,3.87-2.67,13.57,13.57,0,0,0,1.57-1.55c.46-.52,1-1.07,1.35-1.6a30.29,30.29,0,0,0,2-3.14c.64-1,1.06-2,1.57-3s.89-1.89,1.26-2.73c.79-1.78,1.48-3.33,2.2-4.74l-13.34-6.85c-1,1.93-1.82,3.81-2.55,5.45l-1.09,2.38c-.35.67-.7,1.44-1.05,2a15.47,15.47,0,0,1-1,1.57,7.23,7.23,0,0,1-.89,1c-.26.3-.52.34-.73.54-.28,0-.48.24-.75.26Z" transform="translate(3.73 -55.43)"/><path class="cls-2" d="M953.42,214.76a12.2,12.2,0,0,0,5.31-3.62l-1.5-1.33a10.1,10.1,0,0,1-4.44,3.05Z" transform="translate(3.73 -55.43)"/><path class="cls-2" d="M960.32,209a13.87,13.87,0,0,0,.81-1.33c.26-.44.52-.89.74-1.35l-1.77-.92c-.22.44-.46.86-.7,1.28a12.43,12.43,0,0,1-.75,1.22Z" transform="translate(3.73 -55.43)"/><path class="cls-2" d="M963,204.08c.85-1.83,1.62-3.67,2.48-5.43l-1.8-.87c-.89,1.82-1.66,3.67-2.49,5.46Z" transform="translate(3.73 -55.43)"/><path class="cls-1" d="M971.8,200.5a20.81,20.81,0,0,1,2.1-3.36,8.62,8.62,0,0,1,1-.95,3.7,3.7,0,0,1,.93-.64,6.05,6.05,0,0,1,2.4-.57,10.86,10.86,0,0,1,3.26.41l3.94-14.47a25.51,25.51,0,0,0-7.86-.92,20.72,20.72,0,0,0-8.42,2.13,21.76,21.76,0,0,0-6.76,5.41,34.27,34.27,0,0,0-3.92,6.11Z" transform="translate(3.73 -55.43)"/><path class="cls-2" d="M966.59,196.45a20,20,0,0,1,3.35-4.58l-1.39-1.43a21.91,21.91,0,0,0-3.71,5Z" transform="translate(3.73 -55.43)"/><path class="cls-2" d="M971.73,190.42a10.78,10.78,0,0,1,2.45-1.22l-.67-1.89a13.22,13.22,0,0,0-2.89,1.44Z" transform="translate(3.73 -55.43)"/><path class="cls-2" d="M976.41,188.63a16,16,0,0,1,5.6.2l.4-2a18,18,0,0,0-6.3-.22Z" transform="translate(3.73 -55.43)"/><path class="cls-1" d="M981.48,195.39a15.72,15.72,0,0,1,3.48,1.44,18.4,18.4,0,0,1,3.26,2.36,59.62,59.62,0,0,1,6.68,7.37l11.69-9.4a72.73,72.73,0,0,0-8.45-9.22,33.24,33.24,0,0,0-5.85-4.2,30.35,30.35,0,0,0-6.87-2.82Z" transform="translate(3.73 -55.43)"/><path class="cls-2" d="M984.33,189.46a23.06,23.06,0,0,1,5.14,2.5l1.09-1.67a24.62,24.62,0,0,0-5.6-2.73Z" transform="translate(3.73 -55.43)"/><path class="cls-2" d="M991.41,193.37c.75.6,1.48,1.24,2.18,1.92l1.38-1.45c-.74-.71-1.51-1.38-2.31-2Z" transform="translate(3.73 -55.43)"/><path class="cls-2" d="M995.31,197c1.34,1.43,2.61,2.94,3.86,4.48l1.55-1.26c-1.26-1.56-2.56-3.11-4-4.59Z" transform="translate(3.73 -55.43)"/><path class="cls-1" d="M994.9,206.56a103.77,103.77,0,0,0,7.9,9.17,38,38,0,0,0,11.46,8l5.91-13.79a23.1,23.1,0,0,1-6.85-4.86,48.6,48.6,0,0,1-3.28-3.63c-1.12-1.33-2.25-2.76-3.45-4.25Z" transform="translate(3.73 -55.43)"/><path class="cls-2" d="M1000.75,203.46c1.25,1.56,2.51,3.12,3.83,4.65l1.51-1.31c-1.29-1.49-2.53-3-3.78-4.59Z" transform="translate(3.73 -55.43)"/><path class="cls-2" d="M1006.28,210q1.05,1.13,2.19,2.16l1.34-1.48c-.72-.65-1.41-1.34-2.08-2Z" transform="translate(3.73 -55.43)"/><path class="cls-2" d="M1010.41,213.81a29.8,29.8,0,0,0,5.21,3.34l.89-1.79a27.25,27.25,0,0,1-4.85-3.12Z" transform="translate(3.73 -55.43)"/><path class="cls-1" d="M1014.26,223.69a26.41,26.41,0,0,0,7.6,2,17.83,17.83,0,0,0,2.07.11,16.22,16.22,0,0,0,2.09-.07,23.31,23.31,0,0,0,4-.66c2.41-.62,4.4-1.4,6-2a18.49,18.49,0,0,1,3.75-1.05l-1.68-14.9A32,32,0,0,0,1031,209c-1.91.69-3.43,1.26-4.64,1.57a9.22,9.22,0,0,1-1.54.25,4.18,4.18,0,0,1-.71,0,4.65,4.65,0,0,1-.74,0,11.2,11.2,0,0,1-3.21-.87Z" transform="translate(3.73 -55.43)"/><path class="cls-2" d="M1018,218.19a18.33,18.33,0,0,0,6.2,1.12v-2a16.36,16.36,0,0,1-5.52-1Z" transform="translate(3.73 -55.43)"/><path class="cls-2" d="M1026.88,219.1a21.43,21.43,0,0,0,3-.75l-.59-1.91a19,19,0,0,1-2.77.68Z" transform="translate(3.73 -55.43)"/><path class="cls-2" d="M1032.32,217.53a41.48,41.48,0,0,1,5.57-1.75l-.39-2a42.53,42.53,0,0,0-5.85,1.83Z" transform="translate(3.73 -55.43)"/><path class="cls-1" d="M1039.79,222.06a3.48,3.48,0,0,1,1.92.27,19.9,19.9,0,0,1,3.51,2c.75.5,1.57,1,2.5,1.64.47.29.93.57,1.51.9s1.22.65,1.85.94a23,23,0,0,0,4,1.37,21.53,21.53,0,0,0,2.23.4c.36,0,1,.11,1.38.11s.93,0,1.4,0l-1-15h0c-.15,0-.33,0-.53-.1a8.16,8.16,0,0,1-1.31-.45c-.22-.11-.44-.22-.65-.34s-.58-.33-.9-.54c-.66-.41-1.39-.9-2.21-1.44a33.68,33.68,0,0,0-6.28-3.46,18.55,18.55,0,0,0-4.46-1.18,19.51,19.51,0,0,0-4.64,0Z" transform="translate(3.73 -55.43)"/><path class="cls-2" d="M1040.21,215.53a10.88,10.88,0,0,1,5.27,1.37l.91-1.78a12.79,12.79,0,0,0-6.2-1.59Z" transform="translate(3.73 -55.43)"/><polygon class="cls-2" points="1051.29 162.68 1053.78 164.31 1054.88 162.64 1052.36 160.99 1051.29 162.68"/><path class="cls-2" d="M1052.21,221.09a15.56,15.56,0,0,0,6,2.06l.21-2a13.53,13.53,0,0,1-5.23-1.8Z" transform="translate(3.73 -55.43)"/><path class="cls-1" d="M1060.09,229.7a14,14,0,0,0,9.65-4.21,16.32,16.32,0,0,0,2.45-3.45l.66-1.19h.05a1.77,1.77,0,0,1,.36,0,7.81,7.81,0,0,1,2.1.58l5.69-13.89A23.33,23.33,0,0,0,1075,206a16.24,16.24,0,0,0-1.77-.12,18.7,18.7,0,0,0-2.08.08,15.57,15.57,0,0,0-4.1,1,13.79,13.79,0,0,0-6.44,5.27c-.89,1.37-1.19,2-1.46,2.5,0,0,0,0,0,0h0Z" transform="translate(3.73 -55.43)"/><path class="cls-2" d="M1061.08,223.07a7,7,0,0,0,4.09-2.22,10,10,0,0,0,1.16-1.65l-1.7-1.06a7.55,7.55,0,0,1-.88,1.27,5.26,5.26,0,0,1-3.13,1.7Z" transform="translate(3.73 -55.43)"/><path class="cls-2" d="M1067.53,217.08a6,6,0,0,1,1.81-1.83l-1.07-1.71a7.83,7.83,0,0,0-2.37,2.39Z" transform="translate(3.73 -55.43)"/><path class="cls-2" d="M1071.35,214.48a11.19,11.19,0,0,1,5.35.55l.63-1.9a13.1,13.1,0,0,0-6.44-.6Z" transform="translate(3.73 -55.43)"/><path class="cls-1" d="M1075.36,221.47a7.51,7.51,0,0,1,.77.34c.13.06.25.13.37.2l.43.24c.67.39,1.42.86,2.23,1.36a42.64,42.64,0,0,0,5.95,3.24,22,22,0,0,0,4.11,1.31,18.15,18.15,0,0,0,4.86.3,19.3,19.3,0,0,0,4.45-.91,34.33,34.33,0,0,0,3.34-1.28l-6-13.75c-.74.32-1.41.6-1.9.75a4.4,4.4,0,0,1-1,.23,3.16,3.16,0,0,1-.72,0,8.32,8.32,0,0,1-1.23-.41,30.29,30.29,0,0,1-3.9-2.18c-.78-.48-1.61-1-2.56-1.57-.21-.12-.5-.29-.8-.44s-.57-.32-.87-.46c-.58-.3-1.18-.57-1.79-.82Z" transform="translate(3.73 -55.43)"/><path class="cls-2" d="M1078.91,215.93c1.67.83,3.34,2,5.08,3l1-1.71c-1.71-1-3.33-2.14-5.23-3.09Z" transform="translate(3.73 -55.43)"/><path class="cls-2" d="M1086.22,220.2a19.81,19.81,0,0,0,2.91,1.22l.6-1.91a17.7,17.7,0,0,1-2.6-1.09Z" transform="translate(3.73 -55.43)"/><path class="cls-2" d="M1091.78,222a13.22,13.22,0,0,0,6.28-1.15l-.74-1.86a11.26,11.26,0,0,1-5.36,1Z" transform="translate(3.73 -55.43)"/><path class="cls-1" d="M1101.87,226.27l2.48-1.1a13.36,13.36,0,0,1,1.65-.59,3.67,3.67,0,0,1,.65-.11s0,0,.16,0a11.27,11.27,0,0,1,2.53,1.86c.66.56,1.41,1.23,2.31,2,.46.36,1,.76,1.49,1.13l1.66,1.06,7.76-12.84c-.24-.15-.47-.3-.72-.44s-.47-.35-.75-.57c-.55-.45-1.2-1-2-1.68a24,24,0,0,0-6.74-4.4,15.54,15.54,0,0,0-5.31-1.12,18.31,18.31,0,0,0-4.9.6,27.59,27.59,0,0,0-3.64,1.28l-2.67,1.17Z" transform="translate(3.73 -55.43)"/><path class="cls-2" d="M1100.42,219.8a18.16,18.16,0,0,1,5.36-1.78l-.21-2a20.22,20.22,0,0,0-6,1.94Z" transform="translate(3.73 -55.43)"/><path class="cls-2" d="M1108,218.09a8.36,8.36,0,0,1,2.47,1l1-1.73a10.09,10.09,0,0,0-3.08-1.2Z" transform="translate(3.73 -55.43)"/><path class="cls-2" d="M1112.35,220.41c1.51,1.19,2.94,2.63,4.68,3.83l1.15-1.64c-1.56-1.07-3-2.47-4.58-3.76Z" transform="translate(3.73 -55.43)"/><path class="cls-1" d="M1114.8,230.52a28,28,0,0,0,3.44,1.77c.58.27,1.16.44,1.74.66s1.18.44,1.74.57c1.14.3,2.3.64,3.39.81l1.66.31,1.6.21c4.25.55,8.07.63,11.48,1l1.36-14.94c-4-.36-7.74-.46-10.93-.89a19.07,19.07,0,0,1-7.72-2.29Z" transform="translate(3.73 -55.43)"/><path class="cls-2" d="M1119.31,225.6l1.41.68c.48.23,1,.36,1.46.55a26.62,26.62,0,0,0,3,.87l.45-1.95a25.7,25.7,0,0,1-2.76-.8c-.44-.18-.91-.3-1.34-.51l-1.28-.61Z" transform="translate(3.73 -55.43)"/><path class="cls-2" d="M1127.68,228.2c1,.13,2,.29,3,.38l.21-2c-1-.09-2-.25-2.92-.37Z" transform="translate(3.73 -55.43)"/><polygon class="cls-2" points="1136.94 173.37 1142.91 173.79 1143.06 171.79 1137.09 171.38 1136.94 173.37"/><path class="cls-1" d="M1163.32,224.57a57,57,0,0,1,7.42-6.74,108.45,108.45,0,0,0,9.26-8l-10.71-10.51a95.43,95.43,0,0,1-8,6.88,70.07,70.07,0,0,0-9.38,8.64Z" transform="translate(3.73 -55.43)"/><path class="cls-2" d="M1159.2,219.42l1-1.07c.35-.35.72-.68,1.08-1,.72-.69,1.49-1.33,2.24-2l-1.3-1.52c-.77.67-1.56,1.33-2.3,2.05-.37.35-.76.7-1.13,1.06l-1.07,1.13Z" transform="translate(3.73 -55.43)"/><polygon class="cls-2" points="1169.2 158.31 1171.55 156.4 1170.3 154.85 1167.93 156.76 1169.2 158.31"/><path class="cls-2" d="M1169.8,210.23c1.56-1.31,3.13-2.62,4.61-4.07l-1.39-1.44c-1.41,1.39-3,2.68-4.49,4Z" transform="translate(3.73 -55.43)"/><path class="cls-1" d="M1180,209.8c.78-.83,1.57-1.67,2.32-2.56s1.49-1.85,2.13-2.81a47.94,47.94,0,0,0,3.4-5.74c2-3.83,3.41-7.5,4.87-10.84l-13.74-6c-1.59,3.63-2.94,7-4.47,10a33.17,33.17,0,0,1-2.39,4.06c-.42.63-.87,1.18-1.32,1.74s-1,1.1-1.51,1.66Z" transform="translate(3.73 -55.43)"/><path class="cls-2" d="M1176.25,204.29a32.57,32.57,0,0,0,3.78-5l-1.7-1.07a29,29,0,0,1-3.56,4.69Z" transform="translate(3.73 -55.43)"/><path class="cls-2" d="M1181.34,197.09c.5-.9,1-1.82,1.41-2.75l-1.8-.87c-.43.9-.88,1.79-1.36,2.65Z" transform="translate(3.73 -55.43)"/><path class="cls-2" d="M1183.83,192c.84-1.86,1.62-3.73,2.42-5.59l-1.84-.79c-.8,1.87-1.58,3.73-2.4,5.56Z" transform="translate(3.73 -55.43)"/><path class="cls-1" d="M1192.72,187.85c.73-1.68,1.46-3.23,2.21-4.73.39-.72.77-1.45,1.17-2.12.2-.34.4-.69.61-1l.28-.42s0,0,0,0h0l7.14-13.83a12.81,12.81,0,0,0-10.18-2,15,15,0,0,0-8.62,6.31c-.28.38-.53.76-.78,1.15l-.5.77c-.32.48-.6,1-.88,1.44-.58,1-1.08,1.91-1.58,2.87-1,1.9-1.85,3.79-2.62,5.59Z" transform="translate(3.73 -55.43)"/><path class="cls-2" d="M1187.27,184.1c.82-1.83,1.68-3.64,2.64-5.38l-1.75-1c-1,1.81-1.88,3.67-2.72,5.53Z" transform="translate(3.73 -55.43)"/><path class="cls-2" d="M1191.17,176.6l.77-1.18c.25-.36.51-.71.79-1l-1.31-1.58c-.37.44-.71.9-1,1.37l-.9,1.37Z" transform="translate(3.73 -55.43)"/><path class="cls-2" d="M1194.31,172.86a4.37,4.37,0,0,1,2.46-.82,4.66,4.66,0,0,1,2.49.72l.67-2a6.24,6.24,0,0,0-3.23-.87,5.93,5.93,0,0,0-3.18,1Z" transform="translate(3.73 -55.43)"/><path class="cls-1" d="M1197,179.56h0l.1.14a1.73,1.73,0,0,1,.14.2l.56.87,2.87,4.87c2,3.32,4,6.62,6.09,9.88l12.67-8c-2-3.15-4-6.33-5.88-9.54l-2.93-4.95c-.3-.51-.63-1-1-1.52l-.27-.39-.31-.44c-.27-.37-.59-.74-.88-1.11a19.49,19.49,0,0,0-4.06-3.81Z" transform="translate(3.73 -55.43)"/><path class="cls-2" d="M1201,174.17a14.55,14.55,0,0,1,1.68,2.11c.55.8,1,1.64,1.55,2.53l1.72-1c-.5-.86-1-1.78-1.62-2.65a18.17,18.17,0,0,0-2.12-2.62Z" transform="translate(3.73 -55.43)"/><polygon class="cls-2" points="1209.21 125.57 1210.77 128.18 1212.48 127.15 1210.93 124.55 1209.21 125.57"/><path class="cls-2" d="M1208.36,185.78c1.06,1.73,2.13,3.46,3.21,5.17l1.69-1.07c-1.08-1.7-2.14-3.42-3.19-5.14Z" transform="translate(3.73 -55.43)"/><path class="cls-1" d="M1206.77,195.53q6.24,9.79,13,19.25l12.19-8.73q-6.53-9.11-12.52-18.56Z" transform="translate(3.73 -55.43)"/><polygon class="cls-2" points="1216.68 137.69 1219.99 142.8 1221.66 141.7 1218.36 136.62 1216.68 137.69"/><polygon class="cls-2" points="1221.4 144.91 1223.1 147.43 1224.76 146.31 1223.06 143.8 1221.4 144.91"/><polygon class="cls-2" points="1224.54 149.53 1228.03 154.51 1229.66 153.36 1226.18 148.39 1224.54 149.53"/><path class="cls-1" d="M1219.77,214.78q3.38,4.72,6.88,9.35c2.33,3.06,4.75,6.18,7.31,9.23l11.49-9.64c-2.33-2.77-4.57-5.66-6.84-8.66s-4.47-6-6.65-9Z" transform="translate(3.73 -55.43)"/><polygon class="cls-2" points="1229.52 156.6 1233.12 161.52 1234.72 160.32 1231.15 155.44 1229.52 156.6"/><polygon class="cls-2" points="1234.64 163.55 1236.48 165.97 1238.07 164.76 1236.24 162.35 1234.64 163.55"/><path class="cls-2" d="M1234.3,223.41c1.25,1.61,2.51,3.2,3.81,4.77l1.54-1.27c-1.28-1.55-2.53-3.13-3.77-4.72Z" transform="translate(3.73 -55.43)"/><path class="cls-1" d="M1234,233.36a101.4,101.4,0,0,0,17.73,17.07l8.77-12.17a87,87,0,0,1-15-14.54Z" transform="translate(3.73 -55.43)"/><path class="cls-2" d="M1239.77,230.16c.65.78,1.33,1.54,2,2.3s1.36,1.52,2.07,2.26l1.46-1.37c-.7-.72-1.37-1.47-2-2.22s-1.34-1.5-2-2.27Z" transform="translate(3.73 -55.43)"/><polygon class="cls-2" points="1249.34 181.14 1251.53 183.29 1252.91 181.84 1250.77 179.73 1249.34 181.14"/><path class="cls-2" d="M1249.69,240.45c1.54,1.35,3.1,2.68,4.76,3.91l1.2-1.6c-1.6-1.19-3.13-2.48-4.62-3.8Z" transform="translate(3.73 -55.43)"/><path class="cls-1" d="M1251.69,250.43a58.5,58.5,0,0,0,11.38,6.43,47,47,0,0,0,13.11,3.44l1.57-14.91a37.05,37.05,0,0,1-17.29-7.13Z" transform="translate(3.73 -55.43)"/><path class="cls-2" d="M1256.56,245.88a53.51,53.51,0,0,0,5.28,3.22l.94-1.77a50.66,50.66,0,0,1-5.08-3.1Z" transform="translate(3.73 -55.43)"/><polygon class="cls-2" points="1267.88 194.84 1270.74 196.04 1271.45 194.17 1268.71 193.02 1267.88 194.84"/><path class="cls-2" d="M1269.47,252.29c1,.36,2,.53,3,.8a26.68,26.68,0,0,0,3.07.55l.28-2a25.69,25.69,0,0,1-2.91-.53,28.64,28.64,0,0,1-2.86-.75Z" transform="translate(3.73 -55.43)"/><path class="cls-2" d="M366.41,238.8l1.15-1.64-.1-.06,0,0-.05,0-.18-.14-.36-.29-.36-.28-.34-.32-.34-.32-.17-.16-.16-.17-.65-.68-.08-.09-.07-.09-.15-.18-.31-.36-.3-.37-.28-.38-.57-.76-.54-.8-.13-.19-.13-.21-.26-.41-.25-.4-.25-.42-.48-.83-.47-.85-.23-.43-.22-.43-.44-.87-.88-1.77-.77,1.81-.09.23-.11.2-.21.41-.41.83-.21.41,0,.06h0l0,0-.06.1-.13.19-.53.76-.26.38-.13.19,0,.05,0,0,0,0-.07.08-.62.69-.62.69,0,0,0,0-.09.08-.17.15-.36.3-.7.61-.17.16,0,0h0l0,0-.1.06-.39.27-.77.52-.38.27,0,0h0l-.05,0-.11.05-.2.12-.83.44-.41.23-.21.11-.05,0,0,0-.11.05.86,1.81.17-.07.16-.09.33-.18.65-.35.65-.35.16-.09.09-.05.07-.05.31-.21,1.23-.84L354,235l.28-.24.57-.49.57-.49.28-.25,0,0,0,0,0,0,.06-.07.13-.14,1-1.12.25-.28.07-.07h0v0l0,0,.11-.16.43-.62.42-.62.21-.31.11-.16v0l0,0,0,0h0l.24,0h0l.18.32.18.31.36.64.19.31.19.31.39.63.19.31.21.3.41.61.21.3.22.3.44.59.23.3.23.28.48.57.12.15.06.07.06.07.26.27.51.54.07.07.06.07.14.13.28.25.55.52.6.47.3.23.15.12Z" transform="translate(3.73 -55.43)"/><path class="cls-2" d="M1155.49,220.79l1.62,1.18-.83,1.23-.11.15,0,0,0,0v0l0,.08-.17.33-.34.65-.34.66,0,.08v0l0,0-.06.17-.12.35-.49,1.37-.28,1.43-.07.35,0,.18v0h0v.13l0,.73,0,.73,0,.36v.38l.06,1.56-1.38-.71-.17-.09-.17-.08-.34-.15-.67-.31-.68-.3-.09,0,0,0,0,0-.18-.06-.35-.12-1.42-.48-.09,0-.09,0-.18,0-.37-.09-.73-.18-.73-.18-.74-.14-1.49-.27-1.52-.19.25-2,1.13.15.29,0,.14,0,.14,0,.57.1,1.14.21.28,0,.14,0,.14,0,.57.14,1.13.28.28.07.14,0h.07l.07,0,.55.18,1.11.38.56.19.26.12.14.06.07,0,0,0h0l.25-.17h0l0-.6V229h0l0-.08,0-.15,0-.29.24-1.19.12-.59.2-.57.41-1.13.1-.29,0-.14,0-.07,0-.07.28-.53.55-1.06.14-.26.07-.13.08-.13.33-.49Z" transform="translate(3.73 -55.43)"/></svg>