<?xml version="1.0" encoding="utf-8"?>
<!-- Generator: Adobe Illustrator 25.4.1, SVG Export Plug-In . SVG Version: 6.00 Build 0)  -->
<svg version="1.1" id="Calque_1" xmlns="http://www.w3.org/2000/svg" xmlns:xlink="http://www.w3.org/1999/xlink" x="0px" y="0px"
	 viewBox="0 0 378.5 133.9" style="enable-background:new 0 0 378.5 133.9;" xml:space="preserve">
<style type="text/css">
	.st0{fill:#F0F4FC;}
</style>
<path class="st0" d="M1.8,1.8h29c7.2-0.1,14.3,1,21.1,3.1c6.1,1.9,11.6,5.2,16.2,9.6c4.7,4.6,8.2,10.2,10.4,16.4
	c2.4,6.7,3.7,14.6,3.7,23.7S81,71.7,78.5,78.4c-2.2,6.3-5.7,12-10.3,16.8c-4.5,4.4-9.8,7.8-15.8,9.9c-6.5,2.3-13.3,3.4-20.2,3.3H1.8
	V1.8z M29.5,89c3.9,0,7.7-0.6,11.4-1.8c3.4-1.2,6.4-3.2,8.8-5.8c2.7-3.1,4.6-6.7,5.7-10.5c1.5-5.3,2.1-10.7,2-16.2
	c0.1-5.4-0.5-10.8-2-15.9c-1.1-3.8-3-7.4-5.7-10.3c-2.4-2.5-5.5-4.4-8.8-5.5c-3.7-1.1-7.5-1.7-11.4-1.6H26V89H29.5z"/>
<path class="st0" d="M90,1.8h24.5l3.4,56.8c0.1,4.6,0.2,9.1,0.3,13.6c0.1,4.5,0.2,9,0.3,13.6h0.5c0.9-4.6,1.8-9.1,2.9-13.6
	c1-4.5,2-9,2.9-13.6l7.4-29.6h14.6l7,29.6c0.9,4.4,1.8,8.8,2.8,13.4s1.9,9.2,2.8,13.8h0.6c0.2-4.6,0.4-9.1,0.4-13.7
	c0.1-4.5,0.2-9,0.4-13.5l3.1-56.8h22.9l-13.2,106.7h-25.2L141.7,75c-0.7-3.4-1.3-6.8-1.8-10.4c-0.6-3.5-0.9-6.9-1.1-10.1h-0.5
	c-0.3,3.2-0.7,6.5-1.2,10.1c-0.5,3.5-1.1,7-1.7,10.4l-6.4,33.5h-24.7L90,1.8z"/>
<path class="st0" d="M224.5,22.1h-31.9V1.8h88v20.3h-31.9v86.4h-24.2L224.5,22.1L224.5,22.1z"/>
<rect x="304.1" y="108.4" class="st0" width="72.7" height="24"/>
</svg>
