<svg xmlns="http://www.w3.org/2000/svg" viewBox="0 0 49.96 49.96"><defs><style>.cls-1{fill:#011f21;}.cls-2{fill:none;stroke:#78d1ff;stroke-linecap:round;stroke-linejoin:round;stroke-width:0.77px;}.cls-3{font-size:9px;fill:#f0f4fc;font-family:BaiJamjuree-Regular, Bai Jamjuree;}.cls-4{letter-spacing:-0.01em;}.cls-5{letter-spacing:-0.01em;}.cls-6{letter-spacing:-0.02em;}.cls-7{letter-spacing:-0.03em;}</style></defs><g id="Calque_4" data-name="Calque 4"><rect class="cls-1" width="50" height="50"/><path class="cls-2" d="M49.6,31.1V27.77a1.54,1.54,0,0,0-1.54-1.55h0a1.54,1.54,0,0,0-1.55,1.55v1.78A1.54,1.54,0,0,1,45,31.1h0a1.54,1.54,0,0,1-1.54-1.55V26.22"/><path class="cls-2" d="M6.6,30.64V27.31a1.54,1.54,0,0,0-1.54-1.55h0a1.54,1.54,0,0,0-1.55,1.55v1.78A1.54,1.54,0,0,1,2,30.64h0A1.54,1.54,0,0,1,.38,29.09V25.76"/><text class="cls-3" transform="translate(5.39 26.12)"><tspan class="cls-4">L</tspan><tspan class="cls-5" x="4.93" y="0">e</tspan><tspan x="9.85" y="0">t</tspan><tspan class="cls-6" x="13.28" y="0">’</tspan><tspan x="15.26" y="0">s bi</tspan><tspan class="cls-7" x="29.83" y="0">k</tspan><tspan x="34.19" y="0">e</tspan></text></g></svg>