<?xml version="1.0" encoding="utf-8"?>
<!-- Generator: Adobe Illustrator 25.4.1, SVG Export Plug-In . SVG Version: 6.00 Build 0)  -->
<svg version="1.1" id="Calque_1" xmlns="http://www.w3.org/2000/svg" xmlns:xlink="http://www.w3.org/1999/xlink" x="0px" y="0px"
	 viewBox="0 0 50 50" style="enable-background:new 0 0 50 50;" xml:space="preserve">
<style type="text/css">
	.st0{fill:#78D1FF;}
	.st1{fill:none;stroke:#78D1FF;stroke-width:0.3;stroke-miterlimit:10;}
	.st2{fill:none;stroke:#78D1FF;stroke-width:0.31;stroke-miterlimit:10;}
	.st3{fill:none;stroke:#78D1FF;stroke-width:0.2;stroke-miterlimit:10;}
	.st4{fill:none;stroke:#F0F4FC;stroke-linecap:round;stroke-linejoin:round;}
	.st5{fill:none;stroke:#F0F4FC;stroke-linecap:round;stroke-miterlimit:10;}
	.st6{fill:none;stroke:#F0F4FC;stroke-width:1.03;stroke-linecap:round;stroke-linejoin:round;}
</style>
<g id="Calque_3">
	<polygon class="st0" points="49.5,46.4 7.5,46.4 4.5,43.9 46.5,43.9 	"/>
	<path class="st1" d="M45.5,36.2c0,1.4-0.4,2.8-1.2,4"/>
	<path class="st2" d="M10.9,27.2c-1.1,0.2-2.1,0.8-2.7,1.6"/>
	<path class="st3" d="M10.2,26.9c-0.7,0.1-1.3,0.5-1.8,1.1"/>
</g>
<g id="Calque_2_00000098917279049708652650000013422954644961448588_">
	<path class="st4" d="M14.3,21.5c0.1,0.3,18.2,14,18.2,14l3-14H14.3z"/>
	<path class="st5" d="M11.5,19.5c-3-3,3-4.4,2.5-2.3v18.3"/>
	<polyline class="st4" points="14,17.5 20,10 35.5,16.6 35.5,37.5 33.6,37.5 	"/>
	<line class="st4" x1="16" y1="9" x2="20" y2="10"/>
	<polyline class="st6" points="35.5,16.6 28.6,23.7 36,32 34.5,32 	"/>
	<circle class="st4" cx="13" cy="9" r="3"/>
	<circle class="st4" cx="14" cy="36" r="8"/>
	<circle class="st4" cx="36" cy="36" r="8"/>
	<polyline class="st5" points="35.5,37.5 32.5,35.5 36,32 	"/>
</g>
</svg>
