<?xml version="1.0" encoding="utf-8"?>
<!-- Generator: Adobe Illustrator 25.4.1, SVG Export Plug-In . SVG Version: 6.00 Build 0)  -->
<svg version="1.1" id="Calque_1" xmlns="http://www.w3.org/2000/svg" xmlns:xlink="http://www.w3.org/1999/xlink" x="0px" y="0px"
	 viewBox="0 0 1280 819" style="enable-background:new 0 0 1280 819;" xml:space="preserve">
<style type="text/css">
	.st0{display:none;}
	.st1{fill:#BABABA;stroke:#F0F4FC;stroke-width:2;stroke-linecap:round;stroke-linejoin:round;stroke-miterlimit:10;}
	.st2{fill:#78D1FF;}
	.st3{fill:#011C1E;stroke:#011C1E;stroke-width:1.6015;stroke-linecap:round;stroke-linejoin:round;}
	.st4{fill:#BABABA;stroke:#BABABA;stroke-width:1.6015;stroke-linecap:round;stroke-linejoin:round;}
	.st5{opacity:0.8;}
	.st6{fill:#011C1E;}
</style>
<g id="Calque_1_00000052823244863097176070000005903925930168099756_" class="st0">
</g>
<g>
	<path class="st1" d="M502.7,546.3c17.9-7.6,30.3-6,37.3-20c0.8-1.5,17.8-9.8,19.6-9.8c12.6,0,24.4-4.7,35.8-9.6
		c2.5-9.6,4.9-19.1,7.4-28.7c0.4-1.5,0.7-3.3-0.2-4.6c-2.3-3-8.7,0.6-10.4-2.8c-0.7-1.4,0.1-3.1,0.8-4.5c3.6-6.5,7.2-13.1,10.7-19.6
		c4.8,0.2,9.8,0.4,13.9-2.1c4.1-2.5,6.1-8.7,2.8-12.1c9.7-8.9,19.4-17.8,29.1-26.7c5.1,5.8,13.5,8.4,21,6.4c0.1,4.1,3.8,7.7,7.8,7.7
		c-7.4,0.3-13.3,8.8-10.9,15.8c1.1,3.3,3.7,6.2,4.1,9.7c0.3,3.5-4,7.4-6.5,4.9c-1.5-2.1-3-4.2-4.5-6.3c-2-2.9-6.4,1.4-5.8,4.9
		c0.7,3.4,3.3,6.6,2.5,10.1c-1,4.5-6.7,5.7-11.3,6c0.3,6.3,5.6,12.1,11.9,12.9c0.6,3.1-2.9,5.1-5.2,7.3c-2.1,2-3.4,4.7-4.4,7.4
		c-0.4,1.1-1.2,2.5-0.9,3.7c0.3,1.4,1.5,2.5,1.7,4.1c0.2,1.7-0.1,3.5-0.3,5.2c-0.4,2.6-0.8,5.2-1.2,7.9c-0.1,0.9-0.3,1.7-0.8,2.4
		c-1,1.3-2.8,1.4-4.3,2.1c-3,1.5-4,4.8-4.9,7.7c-0.8,2.5-1.6,5.3-0.3,7.5c1.2,2.1,3.6,2.9,5.9,3.5c5.6,1.4,11.4,2.2,17.2,2.2
		c-2.8,6.4,7.7,9.8,11.9,15.3c5.2,6.9-0.3,16.5-5.5,23.4s-10.2,16.9-4.5,23.3c1.4,1.5,3.3,2.6,4.4,4.4c5.3,8.1-10.3,17.4-7.3,26.7
		c1.9,5.8,9.5,6.8,15.5,6.4c14.7-1,29.3-4.8,42.7-11c-4.4,5.5,3.4,12.4,9.9,15.1c5,2.1,10.1,4.2,15.1,6.3c7,2.9,14.1,5.9,19.5,11.3
		c5.3,5.3,8.4,13.6,5.6,20.6c4.2,3.7,11.2,3.6,15.4-0.1c1.2,4.6,2.5,9.2,3.7,13.8c14.3-0.7,28.7,1.3,42.2,5.8
		c8.6,2.9,18.3,9,17.7,18.1c-0.5,7.3-7.9,13.7-5.7,20.7c1.3,4.1,6.1,6.7,10.2,5.4c4.1-1.2,6.7-6.1,5.5-10.2
		c12.3-1.2,24.9,6.9,28.8,18.6c1.4,4.4,1.9,9.2,4.6,12.9c2,2.7,5,4.4,7.2,6.9s3.2,6.7,0.8,9c-3.3,3.3,6.5,7,5.7,11.6
		c-0.4,2.4-3.1,3.6-5.3,4.6s-4.6,3.1-3.8,5.5c1,2.9,5.8,2.5,7.3,5.2c0.5,0.9,0.5,1.9,0.8,2.8c1.1,3.7,6.1,5.6,9.3,3.5
		c-0.4-2.1-0.7-4.2-1.1-6.4c7.8,2.4,16.8,0.2,22.6-5.4c2-1.9,3.6-5.1,1.8-7.1c6.4-1.1,14.2-1.6,18.2,3.5c1.5,1.9,2.2,4.4,3.7,6.3
		c1.5,1.9,4.6,3,6.4,1.3c2.3-2.2-0.1-6-0.3-9.2c-0.2-4.4,3.9-7.6,7.6-10c2.3-1.5,4.7-3,7-4.5c1.2-0.7,2.4-1.5,3.7-1.8
		c3.1-0.7,6.1,1.3,8.9,2.9c3.7,2.1,8,3.8,12.1,2.6c1.3-0.4,2.6-1,3.9-0.9c2.2,0.2,3.7,2.4,5.7,3c2.9,0.8,5.9-1.8,6.7-4.8
		s-0.2-6.1-1.1-9c6.5-0.2,12,4.5,17.6,7.7c5.7,3.2,14,4.5,17.7-0.8c1.2-1.8,1.7-4,2.5-6c2.5-6.1,8.6-11,8.2-17.5
		c-3.7-1.1-9.1,2.2-10.9-1.2c-0.9-1.8,0.5-4,2.2-5s3.8-1.2,5.6-2c4.7-2,7.3-7.8,5.8-12.7c3.4-4.2,6.7-8.3,10.1-12.5
		c1.8-2.2,3.6-4.6,3.4-7.4c-0.2-2.9-2.6-5.2-5.2-6.4s-5.5-1.6-8.3-2.4c-6.1-1.8-12.1-7.8-9.8-13.7c1.5-3.8,5.6-5.6,8.8-8.1
		s5.5-7.6,2.5-10.3c-1.1-1-2.6-1.3-4-1.6c-4.5-0.8-9.1-1-13.7-0.6c-1.9,0.2-4,0.3-5.3-1.1c-1.9-2.3,0.7-5.5,1.3-8.5
		c1-5.3-4.1-7.7-7.1-10.8c-3.2-3.3-3.7-8.1-4.9-12.3c-1.1-4.2-3.3-9.2-7.6-9.4c-3.1-0.1-6.1,2.6-9,1.5c1.1-4.1-1.4-8.2-2.8-12.2
		c-2.4-6.8-1.7-14.2-1-21.3c0.6-5.7,1.7-12.3,6.7-15c0.9-0.5,1.9-0.8,2.9-0.7c2.2,0.2,4.9,2.1,6.2,0.3c0.9-1.2,0.1-2.9-0.8-4
		c-1.4-1.6-3-3-4.9-4c-3.6-1.9-7.8-2.5-11.1-4.8s-5.2-7.6-2.2-10.3c2.9-2.6,8.1-1.1,10.5-4.1c0.9-1.2,1.1-2.7,1.2-4.2
		c0.3-5.1-0.3-10.3,0.9-15.3c1.3-5,5.3-9.8,10.4-9.8c1.6,0,3.3,0.5,4.9,0.3c1.6-0.3,3.3-1.8,2.8-3.3c-0.3-0.9-1.1-1.7-0.7-2.5
		c0.3-0.6,1-0.8,1.6-0.9c2.5-0.5,5-1.4,7.2-2.6c1-0.5,2-1.2,2.2-2.4c0.3-2.3-2.9-2.9-4.8-4.1c-3.2-1.9-3.5-6.3-3.4-10.1
		c0-1.5,0.1-3.1,0.9-4.4c1.6-2.5,5.1-2.7,7.9-3.6c7.8-2.6,6.4-7.9,5.2-14.5c3.4-0.3,6.5-3.1,7.1-6.5c-3.2-0.9-7.1-2.9-6.8-6.2
		c0.2-1.7,1.5-3,2.8-4.1c2.4-1.9,5.2-3.4,8.2-4.3c1-0.3,2-0.5,2.7-1.2c2.2-1.8,1.4-5.2,1-7.9c-1.2-8.4,4.4-17.2,12.4-19.8
		c4.8-1.6,10.5-1.2,14.2-4.7c1-0.9,1.9-2.2,1.7-3.6c-0.2-1.3-1.1-2.3-1.6-3.4c-1.1-2.3-0.5-5.2,1.4-6.9c0.7-0.7,1.7-1.2,2.1-2.1
		c1.4-2.9-3.6-6.4-1.6-8.8c0.5-0.6,1.3-0.9,2.1-1.2c5.9-1.8,11.7-3.6,17.6-5.4c0.7-0.2,1.5-0.4,2.2-0.2c0.9,0.3,1.4,1.3,1.8,2.3
		c1.5,3.8,3.2,7.6,5.9,10.6s6.6,5.2,10.7,4.9c2.4-0.2,4.9-1.6,5.2-4c0.3-3-3-5.6-2.3-8.4c4.5-0.6,9.5-0.4,13.2,2.2s5.6,8.3,2.8,12
		c-1.4,1.9-4,3.3-3.8,5.6c0.1,2,2.1,3.2,3.9,4c1.6,0.8,3.3,1.6,5.1,1.6c2.8,0,5.2-2,7.4-3.9c2.2-1.9,4.5-4.8,3.3-7.4
		c-3.8,1.8-8.8,0.9-11.8-2.1c2.9,0.4,4.8-3,5.2-5.8s0.1-6.1,2-8.3c1.7,1.8,4.5,2,6.8,1.3s4.3-2.3,6.1-3.9c1.1-0.9,2.3-1.9,3-3.2
		c0.8-1.6,0.8-3.5,0.7-5.3c-0.2-4.2-1-9.3-4.9-10.7c-1.3-0.4-2.7-0.4-3.9-1s-2.2-2.1-1.4-3.2c2.8-1,4.7-4.2,4.3-7.1
		c-0.1-0.8-0.3-1.5-0.1-2.3c0.8-3.3,6.4-1.3,8.7-2.3c4.5-2,3.2-7.3,6.6-9.9c0.7-0.5,1.6-0.8,2.5-1.1c9.8-2.8,19.5-6,29-9.5
		c1.8-0.7,3.9-1.9,3.5-3.8c-0.3-1.5-2.1-2.2-2.9-3.5c-2.3-3.5,3.9-7.4,3.2-11.5c-0.3-1.6-1.6-3.1-0.9-4.6c3.2-1,4.8-5.4,2.9-8.2
		c4.6-1.1,9.7-2.1,13.7,0.4c1.8,1.1,3.1,2.8,4.4,4.5c1.3,1.6,2.5,3.3,3.8,4.9c0.3,0.3,0.5,0.7,0.9,0.9c0.9,0.4,1.9-0.3,2.4-1.1
		c0.5-0.9,0.5-1.9,0.9-2.8c1.3-3.5,5.5-4.6,9.1-5.4s7.8-2.5,8.4-6.2c0.4-2.7-1.4-5.1-3.2-7.1c-5.8-6.4-12.5-12-19.9-16.5
		c-2.6-1.6-5.6-3.5-5.7-6.5c-0.2-4,4.6-6,7.1-9.1c2-2.5,2.6-6,3-9.2c1-7.5,2.1-14.9,3.1-22.4c0.2-1.1,0.3-2.4-0.3-3.3
		c-0.5-0.7-1.2-1.1-2-1.4c-4.1-1.7-9.4-2.1-11.6-6c-1.7-3.1-0.4-6.9,1-10.1c1.3-3.2,2.7-6.3,4.1-9.4c-3,3.2-7.9-0.1-11.7-2.3
		c-10.3-6-23.4-6.8-34.4-2.1c-0.9,0.4-1.9,0.8-2.9,0.8c-3.9-0.3-3.2-6.3-5.1-9.8c-2-3.6-6.9-4-11-4c0.5-4.1,2.2-8,4.9-11
		c-3.9,1.2-8-2.6-8.3-6.6c-0.2-4.1,2.5-7.8,5.9-10c2-1.3,4.3-2.2,5.7-4.1c2.5-3.3,2-9.1,5.9-10.6c1.9-0.7,4,0,6,0.1s4.5-1.1,4.3-3.2
		c-0.2-2-3.1-3.3-2.8-5.3c0.2-1.1,1.2-1.7,2.1-2.4c6.5-4.4,10.9-11.8,11.7-19.6c-9.4,1.4-18.7,2.9-28.1,4.3
		c-5.4,0.8-11.3,1.9-14.6,6.2c-4.5-7,6.4-16.1,3.3-23.8c-1.3-3.4-4.9-5.3-7.9-7.4c-7.8-5.6-12.7-14.9-12.9-24.5c0-2,0-4.3-1.5-5.6
		c-1-0.9-2.4-1.1-3.7-1.2c-8.6-0.9-17.1-1.8-25.7-2.7c-1-0.1-2.1-0.2-3,0.3c-2.4,1.4-2.2,6.7-5,6.1c-1.5-3.4-1.2-7.4,0.6-10.6
		c0.9-1.5,2.1-2.9,2.5-4.6c1-3.7-2.1-7.5-5.7-8.7c-3.7-1.2-7.6-0.5-11.4,0.2c-1.7,0.3-3.4,0.6-5.1,0.1c-1.7-0.6-2.9-1.9-4.4-2.9
		c-4.5-2.9-10.4-1.7-15.4,0.2s-10.1,4.4-15.4,3.8c-0.5,4.3,5.6,6.1,7.5,9.9c1.5,3,0.2,6.8-2.3,9s-5.8,3.3-9,4.1
		c-8.1,2-16.4,3.1-24.7,3.2c-2.4-8.5-7.3-16.2-13.9-22c-2.3-2-5.3-3.8-8.1-2.7c-1.7,0.7-3.1,2.4-4.9,2c-1.3-0.2-2.1-1.5-3.1-2.3
		c-3.4-2.8-8.4-0.8-12.6,0.4c-4.1,1.3-8.7,0.8-11.1-3.1c-3-4.8,1.6-8.5,5-11.9c5.3-5.2,7.2-13.5,4.7-20.5c-1-2.9-3.1-5.7-6.1-6.3
		c-3.9-0.7-7.2,2.5-10,5.3c-13.4,13.5-30.5,23.2-49,27.7c-2.7,0.2-5.4,0.4-8.2,0.7c-0.2,5.8-1,12-5.1,16.1s-12.5,3.9-14.5-1.5
		c-0.3-2.1-3.8-1.5-4.7,0.4s-0.4,4.2-1,6.2c-1.5,5.2-9.1,5.6-13.6,2.7s-7.4-7.8-11.7-11.1c-11.3-8.6-30.8,0.1-31.9,14.3
		c-4.8-2.2-9.5-4.4-14.3-6.5c-0.3,5.2-6.5,8.1-11.7,7.6c-5.2-0.5-9.9-3.1-15.1-4c-5.6-0.9-11.3,0.3-16.9,1.4c1,5,2.1,10,3.1,15
		c-10-1.8-20.1-3.6-30.1-5.4c-9.4-1.7-20.8-5.1-22.8-14.5c-0.5-2.3-0.3-4.6-1-6.9c-0.9-2.9-3-5.3-5.1-7.5
		c-5.3-5.7-13.1-11.9-20.1-8.5c-5.1,2.5-7.2,9.2-12.4,11.5c-4.3,1.9-9.5-0.1-12.8-3.4c-3.3-3.4-5.1-7.9-6.8-12.3
		c-5.1,3.7-11.9,4.8-17.9,3.1c-15.7-4.6-25-27.1-41.1-24c-5.3,1-9.5,4.8-14.1,7.5s-10.8,4.4-15.1,1.2c-2-1.5-3.4-3.9-5.9-4.6
		c-4-1.1-7.5,3.7-7.1,7.9s3.1,7.6,5.1,11.2s3.2,8.4,0.7,11.7c-1.1,1.5-2.8,2.4-4.5,3c-8.4,3-19.6-4.8-16.8-13.2
		c-5.9-0.4-11,6.2-9.2,11.8c-5.3,1.4-10.9,2-16.4,2c0.1,4.8-5.6,8.6-9.9,6.7c-4.4-1.9-5.5-8.7-1.9-11.8c-6.3-5.1-15.7-1.8-22.5,2.7
		s-13.7,10.3-21.7,9.6c-1.1-0.1-3.1-0.3-4.2-0.1s-2.2,0.7-2.8,1.6c-0.5,0.6-0.7,1.5-0.8,2.3c-0.1,0.9,0.1,1.9-0.4,2.6
		c-0.5,1-1.7,1.3-2.8,1.5c-1.3,0.2-2.5,0.2-3.8,0.2c-0.1,0-0.3,0-0.4,0.2c0,0.1,0.3,0.1,0.2,0c-3.5-2.9-4.4-10.3-8.8-9.7
		c-1.9,0.3-2.9,2.7-2.4,4.6c0.5,1.9,2.1,3.3,3.5,4.5c-0.7,1-2.4,0.4-3.2-0.5c-0.8-0.9-1.4-2.2-2.6-2.5c-2.6-0.7-3.5,3.4-3,6
		c0.8,4.3,1.2,9.9-2.8,11.7c-5,2.3-11.1-4.9-15.8-2c-1.7,1-2.5,3-3.5,4.6c-1.1,1.6-3.1,3.1-4.9,2.4c-1.4-0.6-2-2.2-2.7-3.6
		c-2.7-5.6-9.1-9.1-15.3-8.3c-1.7,0.2-3.6,0.7-5-0.2c-1.1-0.7-1.6-2.1-2.1-3.3c-1.1-2.8-2.6-5.6-5-7.5c-2.4-1.8-5.9-2.5-8.5-1
		c-3.9,2.3-5.5,8.8-10,8.3c0.6-1.5-2.3-2.2-3.4-1c-1.1,1.2-1.5,3.1-2.8,4c-3.7,2.6-9.3-4.3-12.6-1.2c-1.2,1.1-1.1,3-1.4,4.6
		c-0.2,1.6-1.3,3.5-2.9,3.3c-1.1-2.4-4.4-2.9-6.8-1.8s-3.9,3.4-5.4,5.5c-2.8-5.4-12.1-5.1-14.6,0.4c-0.3,0.7-0.6,1.6-1.3,2
		c-0.5,0.3-1.1,0.4-1.7,0.4c-9.2,0.2-18.5-1.8-26.7-6c-5.8-2.9-11.6-7.9-11.2-14.3c0.2-3.3,2.1-6.3,3.9-9c0.6-0.8,1.1-1.8,1-2.8
		c-0.1-0.5-0.3-1-0.6-1.5c-2-3.5-5.1-6.9-9.2-7c-6.4-0.2-11.5,8-17.7,6.4c-2.6-0.6-4.5-2.9-7-3.6c-3.7-1.1-7.7,1.1-11.5,0.5
		c-4.6-0.7-7.6-5.4-8.7-10c-1.1-4.6-0.9-9.4-2.3-13.9c-1.4,4.3-5,7.9-9.4,9.2c-1.1,1.9-4,2.2-5.9,1.2c-1.8-2.4-2.5-5.6-2-8.5
		c-3.6,1.8-7.3,3.5-10.9,5.3c-1.7,0.8-3.7,1.9-4.1,3.8c-0.4,1.9,1,3.9,0.6,5.7c-0.5,2.2-3,3-5,4.1s-3.6,3.9-1.9,5.3
		c-3.2-0.7-5.5,3.1-6.3,6.4s-1.5,7.2-4.7,8.2c-1.1-4.3-5.5-7.6-10-7.5c-2.3,0.1-4.5,0.9-6.7,1.3c-6,1.1-12-0.9-17.8-2.9
		c-0.4-6.5-0.7-12.9-0.8-19.4c-4.9-1.7-9.2,4-14.3,5.2c-7.2,1.6-15-6.2-21.5-2.6c-3.5,1.9-4.9,6.5-8.6,8c-1.6,0.7-3.5,0.6-5.1,1.2
		c-6.3,2.2-7.2,12.7-13.8,13.7c-2.1,0.3-4.9-0.1-5.7,1.8c-0.5,1.1,0,2.3,0,3.5c-0.1,2.6-3.1,4.3-5.6,3.9s-4.6-2.3-6.3-4.2
		c-4-4.6-6.8-10.3-8.1-16.3c-0.6-3-1.8-6.9-4.8-6.9c-1.4,0-2.6,0.9-3.8,1.6c-7.9,4.3-17-2.2-25-6.2c-1.4-0.7-2.9-1.3-4.5-1.3
		c-1.4,0.1-2.6,0.6-3.8,1.2c-3.7,1.7-7.4,3.4-11.2,5.2c3.1,4.3,6.3,9.2,5.8,14.5C7,55.5,6.7,56.6,7,57.6c0.2,1.1,0.9,2,1.7,2.8
		c2.9,3.2,6.8,5.5,11,6.5c1.9,0.4,3.8,0.7,5.6,1.4c4.1,1.8,6.5,6.1,8.5,10.1c-2,0.3-3,2.8-2.5,4.8s2.1,3.4,3.6,4.8
		c-4,0.7-6.6,5-6.8,9c-0.2,4.1,1.3,8,2.8,11.8c-1.3-0.4-2.6,0.7-2.9,2c-0.2,1.3,0.3,2.6,0.8,3.9c2,5,4.1,9.9,6.1,14.9
		c2.8,6.8,5.7,13.9,5.9,21.3c0.4,10.2-3.8,22.1,2.9,29.8c2.3,2.7,5.5,4.3,8.7,5.9c8.6,4.3,17.2,8.6,25.9,12.8
		c1.4,0.7,2.8,1.4,4.4,1.4c1.4,0.1,2.7-0.4,4-0.9c6.1-2.1,12.2-4.3,18.4-6.4c1-0.3,2-0.7,2.8-1.3c2.5-2,2.4-5.8,3.9-8.6
		c3.1-5.7,11.1-5.5,17.5-4.6c3.3,0.5,7.7,2.3,7,5.6c-0.3,1.3-1.4,2.3-2.4,3.2c-5.5,5-9.8,13.7-5.2,19.6c7.2-3.2,14.6-6.1,22-8.8
		c1.3-0.4,2.6-0.9,3.9-0.5c1.8,0.6,2.6,2.7,3.9,4.2c2.9,3.2,8.9,2.7,11.1-1c3.7,2.1,7.4,4.3,10.1,7.5c2.7,3.2,4.3,7.8,2.9,11.7
		c5.6-1.3,11.8,3.7,11.7,9.4c-0.2,11.8,0.2,23.5,0.9,35.3c0.2,2.6,0.2,5.5-1.7,7.2c-1.2,1.1-2.9,1.5-4.2,2.3c-1.4,0.8-2.5,2.7-1.6,4
		c2.4-0.5,4.4,2.2,4.5,4.7s-0.9,4.8-1.1,7.3c-0.2,2.5,1,5.4,3.5,5.7c0.2,8.6,7.8,14.9,14.8,20c1.7,1.2,4.8,2,5.2-0.1
		c0.4-2.5-4.7-4.3-3-6.1c3.8-0.5,6,7.1,9.3,5.2c2.4-1.4,0.2-4.9-0.8-7.4c-1.5-3.8,0.2-8.1,1.9-11.8c0.4-1,0.9-2,1.6-2.8
		c1.5-1.6,3.8-2.1,5.9-2.4c7.3-1.1,14.7-1.2,22.1-1.3c-0.2,1.4-0.4,2.7-0.5,4.1c3.5,1.3,7.7-2,7.4-5.7c2.4,0.9,4.9,1.8,7.3,2.6
		c-1.1,0-1.6,1.5-1.2,2.4c0.5,1,1.5,1.5,2.5,1.9c4.6,1.9,9.8,2.5,14.7,1.7c-0.2,2.8-0.9,5.6-2.1,8.2c12,0.9,24.4-5.1,31.1-15.1
		c-0.6,1.8,0.8,3.8,2.6,4.5s3.8,0.4,5.7,0c6.5-1.4,12.7-4.5,17.8-8.8c2.7,2.6-0.2,7.7,2.2,10.6c1,1.2,2.5,1.6,3.9,2
		c3.3,1.1,6.4,2.6,9.2,4.6c2.2,1.6,4.3,3.6,5.2,6.2s0.3,5.9-2,7.4c2.7-0.3,5.3-1.2,7.6-2.7c2.4,2.3,4.8,4.5,7.2,6.8
		c1.6,1.5,3.2,3.1,4.2,5c2.2,4.2,0.9,9.9-2.9,12.7c2.5,0,5,0,7.4,0c1.2,3.2,2,6.5,2.4,9.9c4.4,0.7,9-0.7,12.3-3.6
		c-3.9-1.3-7.7-4.5-7.9-8.6s5.1-7.9,8.3-5.3c0.7,2.1,0.8,4.4,0.2,6.5c3.1,0.4,6.2,0.8,9.3,1.1c1.4,0.2,2.9,0.4,3.6,1.6
		c0.7,1.1,0.4,2.5,1,3.6c0.8,1.5,2.8,2,3.6,3.5c0.8,1.5,0.1,3.4-0.8,4.8c-3.8,5.6-11,8-15.2,13.4c-1.7,2.1-2.8,4.7-4.5,6.7
		s-4.4,3.8-7,3.2c0.6,0.8,1.3,1.5,1.9,2.3c3,3.6,2,6.6,1,11.2s-3.6,8.7-6.5,12.5c2.7,0.1,6.3,1.5,5.6,4.1c-0.2,0.8-0.9,1.4-1.5,1.9
		c-3.7,3.5-7,7.4-9.7,11.8c-0.5,0.8-1,1.7-1.1,2.6c-0.2,2.5,2.3,4.2,4.5,5.3c3.2,1.6,7.7,2.8,9.8-0.1c0.5-0.7,0.8-1.5,1.4-2.1
		c1-1,2.6-0.9,4-0.9c3.9,0.3,7.8,0.5,11.6,0.8c-0.9,1.4-1.8,2.9-1.8,4.6s1.5,3.4,3.2,3c0,2.3-3.1,3.4-3.8,5.7
		c-0.5,1.8,0.7,3.5,1.8,5c4.2,5.7,7.7,11.9,10.2,18.5c0.5,1.3,1,2.7,0.7,4.1c-0.3,1.6-1.6,2.8-2.8,3.9c-4.5,3.6-10.2,5.9-16,6.3
		c-3.8,0.3-8.1-0.1-11.1,2.3c-2.3,1.8-3.3,4.8-4.2,7.6c-1.3,4.1-2.5,8.2-3.8,12.3c-0.2,0.8-0.5,1.6-0.2,2.3c0.4,1.3,1.9,1.9,3.2,2.3
		c4.1,1.4,8.5,5.2,6.8,9.2c-1.1,2.6-4.7,4-4.9,6.9c-0.2,2.8,3,4.5,5.7,5.4c3.6,1.2,7.1,2.5,10.7,3.7c1.4,0.5,2.9,1,4,2.1
		c0.7,0.7,1.2,1.7,2,2.3c0.7,0.5,1.5,0.7,2.3,0.9c6,1.3,12.1,0,18.1-1.3c6.6-1.4,13.2-2.9,19.8-4.3c1-0.2,2-0.4,3.1-0.3
		c2.4,0.3,4.3,2.3,6.7,2.7c1,0.2,2.1,0,3,0.3c2.8,0.7,4,4.1,6.5,5.5c1.9,1.1,4.4,1,6.6,1.1c4,0.2,7.8,1.6,11.6,2.9
		C489.6,542.1,502.7,546.3,502.7,546.3z"/>
	<path class="st1" d="M374.6,64.4c-1.5,3.7-4,6.9-6,10.3s-3.7,7.3-3.3,11.2s3.2,7.9,7.2,8.3c-3.4,3.6-4.3,9.4-1.9,13.8
		c2.3,4.4,7.6,7,12.5,6.2c3.1-0.5,5.8-2.2,8.5-3.9c2.7-1.7,5.5-3.6,6.9-6.4c0.7-1.5,1-3.4,2.3-4.5c2.8-2.5,7.3,0.8,7.9,4.5
		s-0.9,7.3-0.8,11c0,1.9,0.5,3.8,2,5c1.7,1.3,4.1,1.1,6.2,1c3.8-0.2,7.7,0.3,11.4,1.4c0.8,0.2,1.6,0.5,2.1,1.2s0.4,1.7,0.3,2.6
		c-0.3,2.3-1,4.7-0.9,7s1.2,4.9,3.4,5.8c3.1,1.3,7.3-0.8,9.6,1.6c1.4,1.5,1.2,3.8,1.7,5.8c1.2,5,7.2,7.4,12.3,7.1
		c0.9-0.1,1.9-0.1,2.7,0.3c1.8,0.9,1.7,3.6,0.8,5.5c-0.9,1.8-2.4,3.6-2.2,5.7c0.2,2.9,3.7,4.6,6.5,4c2.8-0.5,5.1-2.6,7.3-4.5
		c2.9-2.6,6-5.3,9.7-6.6c9.3-3.2,19.2,3.2,29.1,2.8c2.2-0.1,4.8-0.3,6.2,1.4c1.7,2.2-0.3,5.3-2.3,7.2s-4.3,4.5-3.2,7.1
		c1.1,2.6,4.9,2.6,7.6,1.6c2.7-1,5.6-2.6,8.2-1.5c1.9,0.8,3.1,2.6,4.7,3.8c4.4,3.2,10.7,0.7,15.1-2.6s8.8-7.5,14.2-7.5"/>
	<path class="st1" d="M716.6,111.3c1-0.2,1.3-1.6,1-2.6s-0.9-1.9-1-2.9c-0.2-1.7,1.1-3.2,2.4-4.5c1.4-1.4,2.8-2.9,4.3-4.3
		c0.7-0.7,1.5-1.5,1.4-2.5c0-1-0.8-1.7-1.6-2.2s-1.8-0.8-2.5-1.4c-1.9-1.5-2.3-4.4-1.4-6.6c0.9-2.2,2.8-3.9,4.8-5.3
		c1.7-1.2,3.6-2.2,5-3.7s2.3-3.8,1.6-5.8c-0.5-1.4-1.7-2.4-2.8-3.2c-2.4-1.8-5-3.5-7.7-4.9c-0.9-0.5-2-1.2-1.9-2.3
		c0.1-0.5,0.4-0.9,0.8-1.3c2-2,4.7-3.4,7.5-3.7c1.1-0.1,2.4-0.3,2.9-1.2c0.3-0.5,0.3-1.1,0.3-1.6c-0.1-3.3-0.1-6.7-0.2-10"/>
	<path class="st1" d="M873.5,271.4c2.4-3.3,6.6-4.6,10-6.8s6.3-6.9,3.9-10.2c-1.5-2.1-4.6-2.7-6-4.9c-2-3.1,1-7.5,4.7-7.9
		c3.6-0.3,7,2.3,8.9,5.4c1.2,1.9,2,4.1,3.9,5.3c3.4,2.1,7.6-0.3,11-2.3s8.6-3.2,10.7,0.1c1.9,3,0.1,8,3.1,9.7c1.9,1.1,4.5,0,6.3,1.1
		c1.9,1.2,2,4,3.6,5.6c1.8,1.8,4.9,1.4,7.2,0.2c2.3-1.2,4.2-3,6.7-3.9c4.8-1.6,10,1.2,13.5,4.9s5.8,8.3,9.4,11.9
		c3.6,3.6,9.1,6,13.7,3.9c-2.2,1.5-0.9,5.3,1.6,6.2c2.5,0.9,5.2-0.2,7.6-1.4c2.4-1.2,4.9-2.5,7.5-2.2s5.1,3.3,3.7,5.6
		c-0.7,1.2-2.2,1.8-2.9,3.1c-1,1.9,0.4,4.5-0.8,6.3c-0.7,1-1.9,1.4-2.9,2c-2.4,1.7-3,5.1-2.2,7.9s2.8,5.1,4.8,7.3
		c0.8,0.9,1.7,1.8,2.8,1.9c1.9,0.1,3.2-1.9,5-2.3c2.5-0.5,4.5,2.6,4.1,5.2s-2.2,4.6-3.6,6.8c-3.3,5.2-4.4,11.7-2.9,17.7
		c4.4,0.2,8.5-2.1,12.6-3.7s9.3-2.3,12.5,0.7c1.6,1.5,2.9,4,5.1,4.1c1.5,0.1,2.8-1,4.2-1.7c4.3-2.5,9.7-2.1,14.7-2.9
		s10.5-3.9,10.6-9c-2.5-0.7-5.2,0.4-7.8,0.7c-2.6,0.3-6-1-5.9-3.6c0-0.9,0.5-1.8,1-2.6c2.5-4,6-7.5,7.4-12s-0.3-10.6-4.9-11.5
		c1-2.7,2.1-5.5,3.1-8.2c0.2-0.4,0.3-0.9,0.7-1.1c0.4-0.3,1-0.2,1.5-0.1c6.7,1.3,13.5,2.6,20.2,3.9c1.9,0.4,3.8,0.7,5.7,1.1
		c1.2,0.2,2.4,0.5,3.6,0.7c6.1,1.3,12.2,3.2,17.3,6.7c5.1,3.5,9.2,8.9,10,15.1c0.5,4.1-0.4,8.2-1.1,12.3
		c-1.9,10.4-2.6,21.1-2.2,31.7c0.2,5.4,1.9,12.2,7.3,13.1c1.1,0.2,2.3,0.1,3.2,0.8c2,1.5,0.3,4.6-1.5,6.4c-1.8,1.7-3.7,4.7-1.9,6.4"
		/>
</g>
<g id="Calque_2_00000091708855872826962220000011266783644592661402_">
</g>
<g>
	<circle class="st2" cx="94.5" cy="170.8" r="10.2"/>
	<g>
		<path class="st3" d="M107.4,142.9c0,10.6-12.9,26.4-12.9,26.4s-13-16-13-26.4c0.1-7.5,6.1-13.3,13.1-13.1
			C101.6,129.9,107.3,135.7,107.4,142.9z"/>
		<ellipse class="st4" cx="94.6" cy="144.9" rx="7.1" ry="7.5"/>
	</g>
</g>
<g>
	<circle class="st2" cx="912.9" cy="733.3" r="10.2"/>
	<g>
		<path class="st3" d="M925.8,705.4c0,10.6-12.9,26.4-12.9,26.4s-13-16-13-26.4c0.1-7.5,6.1-13.3,13.1-13.1
			C920.1,692.4,925.7,698.2,925.8,705.4z"/>
		<ellipse class="st4" cx="913" cy="707.4" rx="7.1" ry="7.5"/>
	</g>
</g>
<g>
	<circle class="st2" cx="940.2" cy="304.3" r="10.2"/>
	<g>
		<path class="st3" d="M953.1,276.4c0,10.6-12.9,26.4-12.9,26.4s-13-16-13-26.4c0.1-7.5,6.1-13.3,13.1-13.1
			C947.4,263.4,953,269.2,953.1,276.4z"/>
		<ellipse class="st4" cx="940.3" cy="278.4" rx="7.1" ry="7.5"/>
	</g>
</g>
<g>
	<circle class="st2" cx="1082" cy="190.1" r="10.2"/>
	<g>
		<path class="st3" d="M1094.9,162.3c0,10.6-12.9,26.4-12.9,26.4s-13-16-13-26.4c0.1-7.5,6.1-13.3,13.1-13.1
			C1089.2,149.3,1094.8,155.1,1094.9,162.3z"/>
		<ellipse class="st4" cx="1082.1" cy="164.3" rx="7.1" ry="7.5"/>
	</g>
</g>
<g class="st5">
	<path class="st6" d="M55.3,114.1c-1.3-0.8-2.3-1.9-3-3.3c-0.7-1.4-1.1-3-1.1-4.9v-7.2c0-1.8,0.4-3.5,1.1-4.9s1.7-2.5,3-3.3
		c1.3-0.8,2.8-1.2,4.6-1.2h3.8c1.6,0,3.1,0.4,4.3,1.1c1.3,0.7,2.2,1.7,2.9,3c0.7,1.3,1,2.7,1,4.4h-3.3c0-1.6-0.5-2.9-1.4-3.9
		s-2.1-1.5-3.6-1.5h-3.7c-1.6,0-2.8,0.6-3.8,1.7c-1,1.2-1.5,2.7-1.5,4.6v7.1c0,1.9,0.5,3.4,1.4,4.6s2.2,1.7,3.7,1.7h3.9
		c1.5,0,2.8-0.5,3.7-1.6c0.9-1.1,1.4-2.5,1.4-4.3H72c0,1.8-0.3,3.3-1,4.7c-0.7,1.4-1.7,2.4-3,3.2c-1.3,0.7-2.7,1.1-4.4,1.1h-3.9
		C58.1,115.3,56.6,114.9,55.3,114.1z"/>
	<path class="st6" d="M89.7,108.4H79.2l-2.4,6.6h-3.6L83,89.8h1.5c1,0,1.8,0.6,2.2,1.7l9,23.5h-3.5L89.7,108.4z M80.2,105.5h8.5
		l-4.2-11.4l0,0L80.2,105.5z"/>
	<path class="st6" d="M99,89.8h17.3v3h-13.9v8.4H115v3h-12.6V115H99C99,115,99,89.8,99,89.8z"/>
	<path class="st6" d="M120.8,114.3c-0.5-0.5-0.7-1.1-0.7-2V89.8h17.7v3h-14.3v7.8h13.2v3h-13.2v8.4h14.3v3h-14.9
		C121.9,115,121.3,114.8,120.8,114.3z M130.6,81.2h3.8l-3.8,5.8h-3.1L130.6,81.2z"/>
</g>
<g class="st5">
	<path class="st6" d="M895.8,250.5l-8.6-23.3h3.6l7.4,21h0.1l7.5-21h3.6l-9.5,25.2h-1.7C897,252.4,896.2,251.8,895.8,250.5z"/>
	<path class="st6" d="M912.8,227.2h3.4v25.2h-3.4V227.2z"/>
	<path class="st6" d="M923.1,250.6c-1.4-1.4-2.1-3.3-2.1-5.6h3.3c0,1.4,0.4,2.5,1.2,3.4c0.8,0.8,1.9,1.3,3.2,1.3h4
		c1.3,0,2.4-0.3,3.2-0.8c0.8-0.6,1.2-1.3,1.2-2.2v-1.9c0-0.7-0.3-1.4-0.8-1.9c-0.6-0.5-1.4-0.8-2.4-1l-6.6-1.1c-1.9-0.3-3.4-1-4.4-2
		s-1.6-2.3-1.6-3.8v-2c0-1.8,0.7-3.2,2.1-4.3s3.2-1.6,5.5-1.6h4.1c1.4,0,2.7,0.3,3.8,0.9c1.1,0.6,1.9,1.4,2.5,2.5s0.9,2.3,0.9,3.7
		h-3.4c0-1.2-0.3-2.2-1-2.9s-1.6-1.1-2.8-1.1h-4.1c-1.2,0-2.2,0.3-3,0.8s-1.1,1.3-1.1,2.2v1.6c0,0.8,0.3,1.4,0.8,1.9s1.3,0.9,2.3,1
		l6.5,1.1c2,0.3,3.5,1,4.6,2s1.6,2.2,1.6,3.7v2.3c0,1.8-0.7,3.3-2.1,4.4c-1.4,1.1-3.3,1.7-5.6,1.7h-4.1
		C926.4,252.7,924.5,252,923.1,250.6z"/>
	<path class="st6" d="M945.2,227.2h3.4v25.2h-3.4V227.2z"/>
	<path class="st6" d="M960.5,230.2h-8v-3h19.4v3h-8v22.2h-3.4V230.2z"/>
	<path class="st6" d="M976.2,251.7c-0.5-0.5-0.7-1.1-0.7-2v-22.5h17.7v3h-14.3v7.8h13.2v3h-13.2v8.4h14.3v3h-15
		C977.3,252.4,976.7,252.2,976.2,251.7z"/>
</g>
<g class="st5">
	<path class="st6" d="M792.7,676.7c-0.5-0.5-0.8-1.1-0.8-2v-22.5h11.3c2.2,0,3.9,0.5,5.3,1.6s2,2.4,2,4.2v1.9c0,0.9-0.2,1.7-0.6,2.4
		c-0.4,0.8-1,1.4-1.7,1.9l0,0c1.2,0.3,2.1,1,2.8,1.9s1.1,1.9,1.1,3.1v1.8c0,2-0.7,3.5-2,4.7s-3.1,1.8-5.3,1.8h-10.1
		C793.9,677.4,793.2,677.2,792.7,676.7z M803.7,663.3c1,0,1.8-0.3,2.4-1s0.9-1.5,0.9-2.5v-1.7c0-0.9-0.4-1.6-1.1-2.1
		s-1.7-0.8-2.8-0.8h-7.7v8L803.7,663.3L803.7,663.3z M804.4,674.4c1.3,0,2.3-0.3,3.1-1c0.8-0.6,1.1-1.5,1.1-2.6v-1.7
		c0-0.9-0.3-1.6-1-2.2c-0.6-0.6-1.5-0.8-2.6-0.8h-9.6v8.2L804.4,674.4L804.4,674.4z"/>
	<path class="st6" d="M819.6,676.6c-1.3-0.8-2.4-1.8-3.1-3.2c-0.7-1.4-1.1-3-1.1-4.9v-7.3c0-1.8,0.4-3.5,1.1-4.9
		c0.7-1.4,1.8-2.5,3.1-3.2c1.3-0.8,2.9-1.2,4.6-1.2h3.8c1.8,0,3.3,0.4,4.6,1.2s2.4,1.8,3.1,3.2c0.7,1.4,1.1,3,1.1,4.9v7.3
		c0,1.8-0.4,3.5-1.1,4.9c-0.7,1.4-1.8,2.5-3.1,3.2c-1.3,0.8-2.9,1.2-4.6,1.2h-3.9C822.4,677.7,820.9,677.3,819.6,676.6z M828,674.6
		c1.6,0,3-0.6,4-1.7c1-1.1,1.5-2.7,1.5-4.6v-7.1c0-1.9-0.5-3.4-1.5-4.6s-2.3-1.7-4-1.7h-3.7c-1.6,0-3,0.6-4,1.7s-1.5,2.7-1.5,4.6
		v7.1c0,1.9,0.5,3.4,1.5,4.6c1,1.1,2.3,1.7,3.9,1.7H828z"/>
	<path class="st6" d="M845.2,676.6c-1.2-0.7-2.2-1.7-2.9-3s-1-2.8-1-4.5v-17h3.4v17c0,1.6,0.4,3,1.3,4s2,1.5,3.4,1.5h3.9
		c1.4,0,2.6-0.5,3.4-1.5c0.9-1,1.3-2.3,1.3-4v-17h3.4v17c0,1.7-0.3,3.2-1,4.5s-1.6,2.3-2.9,3c-1.2,0.7-2.7,1.1-4.3,1.1h-3.9
		C847.9,677.7,846.4,677.3,845.2,676.6z"/>
	<path class="st6" d="M867.4,676.7c-0.5-0.5-0.7-1.1-0.7-1.9v-22.5h3.4v22.2h13.7v3h-14.4C868.6,677.4,867.9,677.2,867.4,676.7z"/>
	<path class="st6" d="M901.6,670.8h-10.5l-2.4,6.6h-3.6l9.8-25.2h1.5c1,0,1.8,0.6,2.2,1.7l9,23.5h-3.5L901.6,670.8z M892.1,667.9
		h8.5l-4.2-11.4l0,0L892.1,667.9z"/>
	<path class="st6" d="M910.9,652.2h3.2l13.3,19.7v-19.7h3.3v25.2h-3.1l-13.4-19.6v19.6h-3.3V652.2z"/>
	<path class="st6" d="M939.4,676.6c-1.3-0.8-2.3-1.9-3-3.3s-1.1-3-1.1-4.9v-7.2c0-1.8,0.4-3.5,1.1-4.9s1.8-2.5,3.1-3.3
		s2.8-1.2,4.6-1.2h3.9c1.7,0,3.1,0.3,4.4,1s2.3,1.7,3,2.9s1,2.7,1,4.3h-3.3c0-1.6-0.5-2.8-1.4-3.8s-2.1-1.4-3.7-1.4h-3.9
		c-1.6,0-2.9,0.6-3.9,1.7c-1,1.2-1.5,2.7-1.5,4.6v7.1c0,1.9,0.5,3.4,1.4,4.6s2.2,1.7,3.8,1.7h4c1.5,0,2.8-0.5,3.8-1.6
		s1.5-2.5,1.5-4.2V667h-7v-3h10.3v4.7c0,1.7-0.4,3.3-1.1,4.6s-1.7,2.4-3,3.1c-1.3,0.7-2.8,1.1-4.5,1.1h-4
		C942.2,677.7,940.7,677.3,939.4,676.6z"/>
	<path class="st6" d="M961.7,676.7c-0.5-0.5-0.7-1.1-0.7-2v-22.5h17.7v3h-14.3v7.8h13.2v3h-13.2v8.4h14.3v3h-14.9
		C962.9,677.4,962.2,677.2,961.7,676.7z"/>
	<path class="st6" d="M982.9,652.2h12.6c1.9,0,3.5,0.5,4.7,1.6s1.8,2.5,1.8,4.3v2.6c0,1.2-0.4,2.4-1.2,3.3c-0.8,1-1.8,1.7-3.2,2.1
		l0,0c1.4,0.8,2.5,2.4,3.2,4.6l2,6.6h-3.5l-1.9-6.5c-0.3-1.1-0.9-2-1.6-2.7c-0.7-0.6-1.6-1-2.5-1h-6.9v10.1H983L982.9,652.2
		L982.9,652.2z M994.6,664.3c1.2,0,2.2-0.3,2.9-1c0.7-0.6,1.1-1.5,1.1-2.6v-2.6c0-0.9-0.3-1.6-0.9-2.1s-1.3-0.8-2.3-0.8h-9.1v9
		L994.6,664.3L994.6,664.3z"/>
	<path class="st6" d="M1007,652.2h3.4v25.2h-3.4V652.2z"/>
	<path class="st6" d="M1016.8,676.7c-0.5-0.5-0.7-1.1-0.7-2v-22.5h17.7v3h-14.3v7.8h13.2v3h-13.2v8.4h14.3v3h-14.9
		C1018,677.4,1017.3,677.2,1016.8,676.7z"/>
</g>
<path class="st1" d="M717.6,626.2c-13.4,6.2-28,10-42.7,11c-6,0.4-13.6-0.6-15.5-6.4c-3-9.3,12.6-18.6,7.3-26.7
	c-1.1-1.8-3-2.9-4.4-4.4c-5.7-6.4-0.7-16.4,4.5-23.3s10.7-16.5,5.5-23.4c-4.2-5.5-14.7-8.9-11.9-15.3c-5.8,0-11.6-0.8-17.2-2.2
	c-2.3-0.6-4.7-1.4-5.9-3.5c-1.3-2.2-0.5-5,0.3-7.5c0.9-2.9,1.9-6.2,4.9-7.7c1.5-0.7,3.3-0.8,4.3-2.1c0.5-0.7,0.7-1.5,0.8-2.4
	c0.4-2.7,0.8-5.3,1.2-7.9c0.2-1.7,0.5-3.5,0.3-5.2c-0.2-1.6-1.4-2.7-1.7-4.1c-0.3-1.2,0.5-2.6,0.9-3.7c1-2.7,2.3-5.4,4.4-7.4
	c2.3-2.2,5.8-4.2,5.2-7.3c-6.3-0.8-11.6-6.6-11.9-12.9c4.6-0.3,10.3-1.5,11.3-6c0.8-3.5-1.8-6.7-2.5-10.1c-0.6-3.5,3.8-7.8,5.8-4.9
	c1.5,2.1,3,4.2,4.5,6.3c2.5,2.5,6.8-1.4,6.5-4.9c-0.4-3.5-3-6.4-4.1-9.7c-2.4-7,3.5-15.5,10.9-15.8c-4,0-7.7-3.6-7.8-7.7
	c-7.5,2-15.9-0.6-21-6.4c-9.7,8.9-19.4,17.8-29.1,26.7c3.3,3.4,1.3,9.6-2.8,12.1c-4.1,2.5-9.1,2.3-13.9,2.1
	c-3.5,6.5-7.1,13.1-10.7,19.6c-0.7,1.4-1.5,3.1-0.8,4.5c1.7,3.4,8.1-0.2,10.4,2.8c0.9,1.3,0.6,3.1,0.2,4.6
	c-2.5,9.6-4.9,19.1-7.4,28.7c-11.4,4.9-23.2,9.6-35.8,9.6c-1.8,0-18.8,8.3-19.6,9.8c-7,14-19.4,12.4-37.3,20c0,0,3.3-6.9,2.7-12.3
	s-4.1-9.8-6.3-14.7c-3.6-8.2-3.4-17.5-3.2-26.5c0.1-6.1-0.9-13.9-6.8-15.4c-1.3-0.3-2.8-0.3-3.8-1.3c-1.2-1.2-0.9-3.2-0.5-4.9
	c2.8-12.8,3.3-26,1.5-39c-5.6-1.2-6.7-10.5-1.6-13.1c-3.3-2-6.8-4.2-8.9-7.5s-2.3-8.2,0.7-10.8c2.9-2.6,7.8-2.3,9.9-5.5
	c2.7-4-1.4-9-2.6-13.6c-0.7-2.7-0.4-5.7,0.9-8.2c1-1.9,2.5-3.5,2.8-5.6c0.7-4.4-4.5-7.7-9-7.5s-8.5,2.5-12.9,3.5
	c-8.9,1.9-18.7-2.7-22.9-10.8c5.3-6.1,12.5-10.5,20.4-12.4c4.7-1.2,10.5-2.1,12.2-6.7c0.6-1.6,0.5-3.5,1.6-4.9
	c1.9-2.3,6.1-1.4,8.1-3.6c1.1-1.1,1.3-2.8,2.1-4.1c2-3.3,6.7-3.7,10.5-3.1c3.9,0.6,8,1.6,11.5-0.2c5.7-3,7.8-13,14.2-11.9
	c2,0.3,3.6,1.8,5.2,3c9.2,6.4,21.8,3.1,32.4-0.5c1.3-0.4,2.7-1,3.2-2.2c0.6-1.5-0.4-3.1-1.3-4.4c-5.8-9.2-4.3-22.4,3.5-30.1
	c-3.2-0.5-4.6-4.6-3.7-7.7c0.9-3.1,3.2-5.6,5-8.3c1.8-2.7,3-6.3,1.5-9.1c0.2-1.3,0.3-2.8,0.5-4.1c0-0.3,0-0.8-0.3-0.9
	c-0.2-0.1-0.3,0-0.5,0c-1.6,0.5-3,1.6-4.6,2.2c-2,0.7-4.3,0.5-6-0.6c0.7,0.4,1.4,0.8,2.1,1.2c-1.4-1-4.3-2.6-5.1-4.1
	s-0.9-3.6,0.3-4.9c1.4-1.5,4.6-2.1,4-4.1c-0.1-0.5-0.6-0.9-0.8-1.4c-0.7-1.4,0.1-3,0.9-4.3c4.7-8.9,5.1-20,1.2-29.3
	c-1.5,1.2-2.2,3.2-3.2,4.9s-2.9,3.2-4.8,2.7c-1.6-0.4-2.5-2.2-2.4-3.9c0.1-1.6,0.9-3.1,1.7-4.6c3.3-5.8,7.2-11.8,7.5-18.5
	c0.2-5.6-2.1-11.1-1.3-16.7c0.2-1.6,0.7-3.1,1.7-4.3c2.1-2.6,6-2.9,9.2-2.1c3.2,0.8,6.1,2.6,9.3,3.5c3.2,1,6.7,1.1,10,0.3
	c2.1-0.5,4.6-2.2,4-4.3c-0.3-0.8-1-1.5-1.6-2.1c-4.5-4.5-5.3-12.3-1.8-17.7c1.2-1.8,3.1-3.5,5.3-3.5c4.4-0.1,7,6.1,11.4,6
	c2.7-0.1,4.6-2.4,6.4-4.3c1.8-2,4.4-3.9,6.9-3c2.5,0.9,3.1,4,3.6,6.6s1.8,5.6,4.4,5.8c3.4,0.2,5.1-4.6,8.4-5.4
	c1.3,0.9,1.9,2.5,2.9,3.7s2.6,2.3,4,1.7c2.5-1,1.5-4.7,0.1-7c11.5-3.9,23-7.7,34.5-11.6c2.7-0.9,6.1-3.3,4.8-5.8
	c5.4-0.7,10.8-1.3,16.2-2c2.3-4.3,5.6-9.8,10.3-8.3c3.2,1,6,5.1,9.1,3.6c-1.4,2.9-2.9,5.9-3,9.1s1.3,6.8,4.2,8.1
	c1.2,0.6,2.8,0.8,3.5,2c0.6,1,0.2,2.3,0.4,3.5c0.6,3.4,5,4.3,7.8,6.2c6.1,4.1,5,13.4,8.5,19.8c1.1,2,2.7,3.8,3.5,5.9
	c1.3,3.5,0.2,7.4-1.9,10.5c-2.1,3-5,5.3-8,7.6c8.8,2,18.3,0.5,26.1-3.9c-0.1,4-0.2,8.5,2.4,11.6c4.4,5.2,12.6,3.1,18.9,0.7
	c0.1,2.5-2.7,3.9-4.8,5.2s-3.9,4.5-1.9,6c1.8,1.4,4.4-0.6,6.7-0.6c4,0.1,5,5.5,4.9,9.5s1.4,9.4,5.3,9c4.2-0.4,5.5-7.5,9.7-7.3
	c6,9.7,12.2,20.1,11.8,31.5c-0.1,4-0.9,8.4,1.6,11.6c2.5,3.1,6.9,3.3,10.9,3.6c3.9,0.3,8.5,1.6,9.7,5.3c1.2,3.8-1.7,8.6,0.8,11.7
	c0.7,0.8,1.6,1.4,2.7,1.7c9.3,3.1,17.4-10,27.2-9.1c-0.5,1.9,1.7,3.6,3.7,3.4s3.5-1.7,4.9-3.1c3,6.1,2.8,13.6-0.4,19.5
	c-0.7,1.3-1.6,2.7-1.4,4.2c0.3,1.9,2.5,3.1,3,5c-0.6,0.7-1.5,1.2-2.4,1.2c-7.1,0.1-12.3,8.3-16.7,13.8c2.1,2.4,6,1.6,8.9,0.3
	s6.2-3,9.1-1.7c4.1,1.9,3.6,7.7,2.6,12.1c-0.6,2.6-1.2,5.1-1.9,7.7c-0.3,1.3-0.6,2.6-1.5,3.6c-1.7,2.1-4.7,2.3-7.2,3.3
	c-2.9,1.3-5,3.8-7,6.3c-5.6,6.7-13.3,13.6-21.9,12.2c-2.1-0.3-4.1-1.1-6.2-1.4s-4.5,0.2-5.7,1.9c-1.7,2.3-0.7,5.7-2.5,7.9
	c-1.3,1.6-3.7,1.9-5.8,2.4c-5.2,1.3-9.7,4.9-12,9.7c3,1.6,8.1-1.4,9.5,1.7c0.8,1.8-0.9,3.9-0.3,5.8c0.4,1.5,2.1,2.3,3.3,3.3
	c3,2.6,3.4,7.1,5.2,10.6c2.1,4.1,6.3,6.8,9,10.6c2.7,3.8,3.2,10.1-1,12.2c-1.7,0.9-3.8,0.7-5.7,1.1c-1.9,0.3-4,1.5-4.1,3.5
	c-0.3,3.7,5.9,4.2,7.5,7.6c1.1,2.5-1.1,5.5-3.7,6.5c-2.6,1-5.5,0.9-8.2,1.4c-4.8,1-8.8,4.2-13.5,5.7c-4.5,1.5-9.5,1.3-13.9-0.4
	c-1.1-0.4-2.3-1-3.5-0.8c-2.3,0.5-3.2,3.7-5.4,4.4c-2.8,0.9-5.1-2.4-7.8-3.6c-3.3-1.5-7.1,0.3-10.4,1.9c-3.3,1.6-7.5,2.9-10.3,0.6
	c-3.8-3.1-1.5-9.1-2-14c-3.7,0.3-5.1,4.9-5.5,8.6c-0.3,2.8-0.7,5.7-1,8.5c-0.1,0.4,1,0.4,0.6,0.6c1.4,5.1,2.4,11.2-1,15.3
	c-1.4,1.7-3.5,2.8-5.4,4c-5.5,3.3-10.4,7.7-14.3,12.8c-1.5,2-3.4,4.3-5.9,4.2c-1.5-0.1-4-0.4-3.7,1.2c0.1,0.4,0.4,0.8,0.8,1.1
	c7.9,7,10,18.3,11.7,28.6c6.7,2.2,14.2,2,20.8-0.7c0.9-0.4,1.9-0.8,2.8-0.4c1.3,0.5,1.6,2.2,2.1,3.6c1.3,3.7,5.3,5.7,8.5,7.9
	c3.3,2.2,6.4,6.1,4.9,9.8c-0.4,0.9-1.1,1.7-1.4,2.7c-1,2.6,0.4,5.4,2,7.6c1.6,2.2,3.7,4.3,4.2,7c-2.8,2.9-7.5,2.3-11.6,2.8
	c-6.7,0.7-13,5-16,11.1c-0.3,0.5-0.5,1.1-0.5,1.7c0.1,1.7,2.2,2.4,2.9,3.9c1.1,2.2-1,4.7-3.2,5.6c-2.3,0.9-4.9,1.1-6.8,2.7
	c-2.8,2.4-3,7.3-6.3,8.9c-1.2,0.6-2.6,0.6-4,0.9c-3.7,0.8-6.8,3.5-8.5,6.9s-2.1,7.2-1.9,11c0.2,3.1,0.9,6.2,0.8,9.3
	C713.8,625,717.6,626.2,717.6,626.2z"/>
<g class="st5">
	<path class="st6" d="M987.9,136.7c-0.5-0.5-0.8-1.1-0.8-2v-22.5h11.3c2.2,0,3.9,0.5,5.3,1.6s2,2.4,2,4.2v1.9c0,0.9-0.2,1.7-0.6,2.4
		c-0.4,0.8-1,1.4-1.7,1.9l0,0c1.2,0.3,2.1,1,2.8,1.9c0.7,0.9,1.1,1.9,1.1,3.1v1.8c0,2-0.7,3.5-2,4.7s-3.1,1.8-5.3,1.8h-10.1
		C989.1,137.4,988.4,137.2,987.9,136.7z M998.9,123.3c1,0,1.8-0.3,2.4-1s0.9-1.5,0.9-2.5v-1.7c0-0.9-0.4-1.6-1.1-2.1
		s-1.7-0.8-2.8-0.8h-7.8v8L998.9,123.3L998.9,123.3z M999.7,134.4c1.3,0,2.3-0.3,3.1-1c0.8-0.6,1.1-1.5,1.1-2.6v-1.7
		c0-0.9-0.3-1.6-1-2.2c-0.6-0.6-1.5-0.8-2.6-0.8h-9.8v8.2h9.2L999.7,134.4L999.7,134.4z"/>
	<path class="st6" d="M1011.3,112.2h12.6c1.9,0,3.5,0.5,4.7,1.6s1.8,2.5,1.8,4.3v2.6c0,1.2-0.4,2.4-1.2,3.3c-0.8,1-1.8,1.7-3.2,2.1
		l0,0c1.4,0.8,2.5,2.4,3.2,4.6l2,6.6h-3.5l-1.9-6.5c-0.3-1.1-0.9-2-1.6-2.7c-0.7-0.6-1.6-1-2.5-1h-6.9v10.1h-3.4L1011.3,112.2
		L1011.3,112.2z M1023,124.3c1.2,0,2.2-0.3,2.9-1c0.7-0.6,1.1-1.5,1.1-2.6v-2.6c0-0.9-0.3-1.6-0.9-2.1s-1.3-0.8-2.3-0.8h-9.1v9
		L1023,124.3L1023,124.3z"/>
	<path class="st6" d="M1049.5,130.8H1039l-2.4,6.6h-3.6l9.8-25.2h1.5c1,0,1.8,0.6,2.2,1.7l9,23.5h-3.5L1049.5,130.8z M1040,127.9
		h8.5l-4.2-11.4l0,0L1040,127.9z"/>
	<path class="st6" d="M1059.3,135.6c-1.4-1.4-2.1-3.3-2.1-5.6h3.3c0,1.4,0.4,2.5,1.2,3.4c0.8,0.8,1.9,1.3,3.2,1.3h4
		c1.3,0,2.4-0.3,3.2-0.8c0.8-0.6,1.2-1.3,1.2-2.2v-1.9c0-0.7-0.3-1.4-0.8-1.9c-0.6-0.5-1.4-0.8-2.4-1l-6.6-1.1c-1.9-0.3-3.4-1-4.4-2
		s-1.6-2.3-1.6-3.8v-2c0-1.8,0.7-3.2,2.1-4.3c1.4-1.1,3.2-1.6,5.5-1.6h4.1c1.4,0,2.7,0.3,3.8,0.9c1.1,0.6,1.9,1.4,2.5,2.5
		s0.9,2.3,0.9,3.7h-3.4c0-1.2-0.3-2.2-1-2.9c-0.7-0.7-1.6-1.1-2.8-1.1h-4.1c-1.2,0-2.2,0.3-3,0.8s-1.1,1.3-1.1,2.2v1.6
		c0,0.8,0.3,1.4,0.8,1.9s1.3,0.9,2.3,1l6.5,1.1c2,0.3,3.5,1,4.6,2s1.6,2.2,1.6,3.7v2.3c0,1.8-0.7,3.3-2.1,4.4
		c-1.4,1.1-3.3,1.7-5.6,1.7h-4.1C1062.6,137.7,1060.7,137,1059.3,135.6z"/>
	<path class="st6" d="M1082.2,135.6c-1.4-1.4-2.1-3.3-2.1-5.6h3.3c0,1.4,0.4,2.5,1.2,3.4c0.8,0.8,1.9,1.3,3.2,1.3h4
		c1.3,0,2.4-0.3,3.2-0.8c0.8-0.6,1.2-1.3,1.2-2.2v-1.9c0-0.7-0.3-1.4-0.8-1.9c-0.6-0.5-1.4-0.8-2.4-1l-6.6-1.1c-1.9-0.3-3.4-1-4.4-2
		s-1.6-2.3-1.6-3.8v-2c0-1.8,0.7-3.2,2.1-4.3c1.4-1.1,3.2-1.6,5.5-1.6h4.1c1.4,0,2.7,0.3,3.8,0.9c1.1,0.6,1.9,1.4,2.5,2.5
		s0.9,2.3,0.9,3.7h-3.4c0-1.2-0.3-2.2-1-2.9c-0.7-0.7-1.6-1.1-2.8-1.1h-4.1c-1.2,0-2.2,0.3-3,0.8s-1.1,1.3-1.1,2.2v1.6
		c0,0.8,0.3,1.4,0.8,1.9s1.3,0.9,2.3,1l6.5,1.1c2,0.3,3.5,1,4.6,2s1.6,2.2,1.6,3.7v2.3c0,1.8-0.7,3.3-2.1,4.4
		c-1.4,1.1-3.3,1.7-5.6,1.7h-4.1C1085.5,137.7,1083.6,137,1082.2,135.6z"/>
	<path class="st6" d="M1104.7,136.7c-0.5-0.5-0.7-1.1-0.7-2v-22.5h17.7v3h-14.3v7.8h13.2v3h-13.2v8.4h14.3v3h-14.9
		C1105.8,137.4,1105.2,137.2,1104.7,136.7z"/>
	<path class="st6" d="M1125.9,112.2h12.6c1.9,0,3.5,0.5,4.7,1.6s1.8,2.5,1.8,4.3v2.6c0,1.2-0.4,2.4-1.2,3.3c-0.8,1-1.8,1.7-3.2,2.1
		l0,0c1.4,0.8,2.5,2.4,3.2,4.6l2,6.6h-3.5l-1.9-6.5c-0.3-1.1-0.9-2-1.6-2.7c-0.7-0.6-1.6-1-2.5-1h-6.9v10.1h-3.4L1125.9,112.2
		L1125.9,112.2z M1137.6,124.3c1.2,0,2.2-0.3,2.9-1c0.7-0.6,1.1-1.5,1.1-2.6v-2.6c0-0.9-0.3-1.6-0.9-2.1s-1.3-0.8-2.3-0.8h-9.1v9
		L1137.6,124.3L1137.6,124.3z"/>
	<path class="st6" d="M1150,112.2h3.4v25.2h-3.4V112.2z"/>
	<path class="st6" d="M1159.8,136.7c-0.5-0.5-0.7-1.1-0.7-2v-22.5h17.7v3h-14.3v7.8h13.2v3h-13.2v8.4h14.3v3h-14.9
		C1161,137.4,1160.3,137.2,1159.8,136.7z"/>
</g>
<g>
	<circle class="st2" cx="658.1" cy="295.9" r="10.2"/>
	<g>
		<path class="st3" d="M671,268c0,10.6-12.9,26.4-12.9,26.4s-13-16-13-26.4c0.1-7.5,6.1-13.3,13.1-13.1
			C665.3,255,670.9,260.8,671,268z"/>
		<ellipse class="st4" cx="658.2" cy="270" rx="7.1" ry="7.5"/>
	</g>
</g>
<circle class="st2" cx="717.8" cy="545" r="10.2"/>
<g>
	<path class="st3" d="M730.7,517.2c0,10.6-12.9,26.4-12.9,26.4s-13-16-13-26.4c0.1-7.5,6.1-13.3,13.1-13.1
		C725,504.2,730.6,510,730.7,517.2z"/>
	<ellipse class="st4" cx="717.9" cy="519.1" rx="7.1" ry="7.5"/>
</g>
<g>
	<path class="st6" d="M527.5,220.8h13.9c2.2,0,4,0.7,5.3,1.9s2,2.9,2,4.9v4c0,2.1-0.7,3.9-2.1,5.2s-3.3,2-5.6,2h-9.6v10h-3.8
		L527.5,220.8L527.5,220.8z M540.9,235.4c1.2,0,2.2-0.3,3-1.1s1.1-1.7,1.1-2.9v-3.8c0-1-0.3-1.9-1-2.5c-0.7-0.7-1.5-1-2.7-1h-10.1
		v11.3H540.9z"/>
	<path class="st6" d="M556.5,247.8c-1.4-0.9-2.7-2-3.4-3.5c-0.8-1.5-1.2-3.3-1.2-5.4v-8.1c0-2,0.4-3.9,1.2-5.4s2-2.8,3.4-3.5
		c1.4-0.9,3.2-1.3,5.1-1.3h4.2c2,0,3.7,0.4,5.1,1.3c1.4,0.9,2.7,2,3.4,3.5c0.8,1.5,1.2,3.3,1.2,5.4v8.1c0,2-0.4,3.9-1.2,5.4
		s-2,2.8-3.4,3.5c-1.4,0.9-3.2,1.3-5.1,1.3h-4.3C559.7,249,558,248.6,556.5,247.8z M565.9,245.6c1.8,0,3.3-0.7,4.4-1.9
		c1.1-1.2,1.7-3,1.7-5.1v-7.9c0-2.1-0.6-3.8-1.7-5.1c-1.1-1.2-2.5-1.9-4.4-1.9h-4.1c-1.8,0-3.3,0.7-4.4,1.9c-1.1,1.2-1.7,3-1.7,5.1
		v7.9c0,2.1,0.6,3.8,1.7,5.1c1.1,1.2,2.5,1.9,4.3,1.9H565.9z"/>
	<path class="st6" d="M581.2,220.8h3.8v27.9h-3.8V220.8z"/>
	<path class="st6" d="M591.2,220.8h3.5l14.7,21.8v-21.8h3.7v27.9h-3.4L594.9,227v21.7h-3.7V220.8z"/>
	<path class="st6" d="M626,224.1h-8.9v-3.3h21.5v3.3h-8.9v24.6h-3.8v-24.6H626z"/>
	<path class="st6" d="M654,247.9c-0.6-0.6-0.8-1.2-0.8-2.2v-24.9h12.2c2,0,3.8,0.3,5.3,1.1s2.7,1.9,3.5,3.3c0.9,1.4,1.2,3.1,1.2,4.9
		v8.4c0,3.3-0.9,5.9-2.5,7.5c-1.7,1.7-4.2,2.5-7.4,2.5h-9.3C655.3,248.7,654.5,248.5,654,247.9z M665.4,245.4c2.1,0,3.7-0.6,4.6-1.7
		c1.1-1.1,1.5-2.9,1.5-5.1v-8.3c0-1.8-0.6-3.2-1.8-4.3s-2.8-1.7-4.6-1.7h-8.3v21.1H665.4L665.4,245.4L665.4,245.4z"/>
	<path class="st6" d="M681.2,247.9c-0.6-0.6-0.8-1.2-0.8-2.2v-24.9H700v3.3h-15.8v8.6h14.6v3.3h-14.6v9.3H700v3.3h-16.5
		C682.5,248.7,681.7,248.5,681.2,247.9z"/>
	<path class="st6" d="M722.6,246.6l-9.5-25.8h4l8.2,23.2h0.1l8.3-23.2h4l-10.5,27.9h-2C724,248.7,723.1,248,722.6,246.6z"/>
	<path class="st6" d="M745.1,247.8c-1.3-0.8-2.4-1.9-3.2-3.3s-1.1-3.1-1.1-5v-18.8h3.8v18.8c0,1.8,0.4,3.3,1.4,4.4s2.2,1.7,3.8,1.7
		h4.3c1.5,0,2.9-0.6,3.8-1.7s1.4-2.5,1.4-4.4v-18.8h3.8v18.8c0,1.9-0.3,3.5-1.1,5s-1.8,2.5-3.2,3.3c-1.3,0.8-3,1.2-4.8,1.2h-4.3
		C748.1,249,746.6,248.6,745.1,247.8z"/>
	<path class="st6" d="M769.8,247.9c-0.6-0.6-0.8-1.2-0.8-2.2v-24.9h19.6v3.3h-15.8v8.6h14.6v3.3h-14.6v9.3h15.8v3.3h-16.5
		C771,248.7,770.3,248.5,769.8,247.9z"/>
</g>
<g class="st5">
	<path class="st6" d="M666.4,481.6c-1.3-0.8-2.3-1.9-3-3.3s-1.1-3-1.1-4.9v-7.2c0-1.8,0.4-3.5,1.1-4.9c0.7-1.4,1.8-2.5,3.1-3.3
		s2.8-1.2,4.6-1.2h3.9c1.7,0,3.1,0.3,4.4,1c1.3,0.7,2.3,1.7,3,2.9c0.7,1.3,1,2.7,1,4.3h-3.3c0-1.6-0.5-2.8-1.4-3.8s-2.1-1.4-3.7-1.4
		h-3.9c-1.6,0-2.9,0.6-3.9,1.7c-1,1.2-1.5,2.7-1.5,4.6v7.1c0,1.9,0.5,3.4,1.4,4.6s2.2,1.7,3.8,1.7h4c1.5,0,2.8-0.5,3.8-1.6
		s1.5-2.5,1.5-4.2V472h-7v-3h10.3v4.7c0,1.7-0.4,3.3-1.1,4.6c-0.7,1.3-1.7,2.4-3,3.1s-2.8,1.1-4.5,1.1h-4
		C669.2,482.7,667.7,482.3,666.4,481.6z"/>
	<path class="st6" d="M688.7,481.7c-0.5-0.5-0.7-1.1-0.7-1.9v-22.5h3.4v22.2h13.7v3h-14.4C689.9,482.4,689.2,482.2,688.7,481.7z"/>
	<path class="st6" d="M722.9,475.8h-10.5l-2.4,6.6h-3.6l9.8-25.2h1.5c1,0,1.8,0.6,2.2,1.7l9,23.5h-3.5L722.9,475.8z M713.4,472.9
		h8.5l-4.2-11.4l0,0L713.4,472.9z"/>
	<path class="st6" d="M734.7,481.6c-1.3-0.8-2.3-1.9-3-3.3s-1.1-3-1.1-4.9v-7.2c0-1.8,0.4-3.5,1.1-4.9c0.7-1.4,1.7-2.5,3-3.3
		s2.8-1.2,4.6-1.2h3.8c1.6,0,3.1,0.4,4.3,1.1c1.3,0.7,2.2,1.7,2.9,3s1,2.7,1,4.4H748c0-1.6-0.5-2.9-1.4-3.9s-2.1-1.5-3.6-1.5h-3.8
		c-1.6,0-2.8,0.6-3.8,1.7c-1,1.2-1.5,2.7-1.5,4.6v7.1c0,1.9,0.5,3.4,1.4,4.6s2.2,1.7,3.7,1.7h3.9c1.5,0,2.8-0.5,3.7-1.6
		s1.4-2.5,1.4-4.3h3.3c0,1.8-0.3,3.3-1,4.7c-0.7,1.4-1.7,2.4-3,3.2c-1.3,0.7-2.7,1.1-4.4,1.1H739C737.5,482.7,736,482.3,734.7,481.6
		z"/>
	<path class="st6" d="M756.2,481.7c-0.5-0.5-0.7-1.1-0.7-2v-22.5h17.6v3h-14.3v7.8H772v3h-13.2v8.4h14.3v3h-14.9
		C757.3,482.4,756.7,482.2,756.2,481.7z"/>
</g>
</svg>
