<svg id="Calque_3" data-name="Calque 3" xmlns="http://www.w3.org/2000/svg" viewBox="0 0 1279.84 180.65"><defs><style>.cls-1{fill:none}.cls-2{fill:#F0F4FC}</style></defs><path class="cls-1" d="M4.19 186.52c7.55-2.1 15.17-4.25 22.77-6.63L22.29 165C15 167.24 7.51 169.34 0 171.43Z" transform="translate(.01 -5.87)"/><path class="cls-2" d="m3.64 173.76 6.02-1.69-.57-2.01-6.01 1.69.56 2.01zM12.17 171.35l3-.86-.58-2.01-3 .87.58 2z"/><path class="cls-2" d="M17.67 175.62c2-.58 4-1.2 6-1.81l-.62-2c-2 .62-4 1.23-6 1.81Z" transform="translate(.01 -5.87)"/><path class="cls-1" d="M27 179.89c7.61-2.38 15.22-5 22.74-8l-5.91-14.5c-7 2.84-14.17 5.32-21.5 7.61Z" transform="translate(.01 -5.87)"/><path class="cls-2" d="m26.2 167.16 5.96-1.94-.67-1.98-5.92 1.93.63 1.99zM34.63 164.37l2.96-1.03-.7-1.97-2.94 1.02.68 1.98z"/><path class="cls-2" d="M40 168.3c2-.73 3.93-1.44 5.86-2.24l-.77-1.94c-1.92.8-3.87 1.49-5.81 2.23Z" transform="translate(.01 -5.87)"/><path class="cls-1" d="M49.7 171.84a168.18 168.18 0 0 0 22.1-10.79l-8-13.48a153.05 153.05 0 0 1-20.05 9.77Z" transform="translate(.01 -5.87)"/><path class="cls-2" d="M48.36 165.06c2-.76 3.84-1.67 5.76-2.5l-.86-1.9c-1.9.82-3.77 1.72-5.7 2.47Z" transform="translate(.01 -5.87)"/><path class="cls-2" d="m56.51 155.59 2.83-1.37-.93-1.87-2.8 1.36.9 1.88z"/><path class="cls-2" d="M61.67 158.91c1.84-1 3.73-1.93 5.53-3l-1-1.81c-1.76 1.07-3.63 2-5.44 3Z" transform="translate(.01 -5.87)"/><path class="cls-1" d="M71.8 161.05a113.68 113.68 0 0 0 20.2-15l-10.72-11.38a98.65 98.65 0 0 1-17.44 12.9Z" transform="translate(.01 -5.87)"/><path class="cls-2" d="M69.48 154.53c1.83-1 3.56-2.24 5.31-3.39l-1.17-1.73c-1.73 1.13-3.42 2.32-5.22 3.34Z" transform="translate(.01 -5.87)"/><path class="cls-2" d="m76.96 143.78 2.54-1.88-1.27-1.67-2.48 1.85 1.21 1.7z"/><path class="cls-2" d="M81.58 146.17c1.59-1.38 3.26-2.67 4.8-4.11L85 140.52c-1.5 1.41-3.13 2.67-4.7 4Z" transform="translate(.01 -5.87)"/><path class="cls-1" d="M92 146.08a119.39 119.39 0 0 0 8.61-9c2.63-2.95 5.12-5.78 7.65-8.31l-11.09-11.01c-6 6-10.68 12.19-15.89 16.91Z" transform="translate(.01 -5.87)"/><path class="cls-2" d="M88.31 140.22c1.54-1.44 3-2.95 4.42-4.5l-1.54-1.41c-1.39 1.53-2.83 3-4.33 4.41Z" transform="translate(.01 -5.87)"/><path class="cls-2" d="m94.5 127.92 2.08-2.34-1.56-1.39-2.08 2.33 1.56 1.4z"/><path class="cls-2" d="M98.31 129.51q2.07-2.32 4.22-4.56L101 123.5c-1.46 1.52-2.88 3.06-4.28 4.62Z" transform="translate(.01 -5.87)"/><path class="cls-1" d="M108.26 128.82a46.51 46.51 0 0 1 7.69-6.44 26 26 0 0 1 8.22-3.5l-3.42-15.29a31.09 31.09 0 0 0-3.5 1c-.59.19-1.17.37-1.75.58l-1.68.7a42 42 0 0 0-6.34 3.36 62 62 0 0 0-10.31 8.55Z" transform="translate(.01 -5.87)"/><path class="cls-2" d="M104.37 123.11a58.82 58.82 0 0 1 4.6-4.06l-1.29-1.64a61.71 61.71 0 0 0-4.77 4.2ZM111 117.53a30 30 0 0 1 2.56-1.64l-1.06-1.81c-.92.55-1.83 1.11-2.69 1.74ZM115.79 114.69c.89-.49 1.85-.8 2.77-1.21s1.91-.64 2.88-.93l-.54-2c-1 .3-2.06.63-3.07 1s-2 .78-3 1.29Z" transform="translate(.01 -5.87)"/><path class="cls-1" d="M124.17 118.88c3-.71 7-1 11.62-2a34.91 34.91 0 0 0 7.12-2.45 41.28 41.28 0 0 0 6.24-3.71L140 98a24.26 24.26 0 0 1-3.83 2.28 18.66 18.66 0 0 1-4 1.36c-3 .72-6.89 1-11.5 2Z" transform="translate(.01 -5.87)"/><path class="cls-2" d="M123.94 112c2-.38 4.06-.65 6.13-1l-.31-2.06c-2 .31-4.12.58-6.21 1ZM132.68 110.58c1-.21 2.09-.43 3.13-.73l-.57-2c-1 .28-2 .49-3 .69ZM138.37 109a30.88 30.88 0 0 0 5.71-3l-1.16-1.74a28.9 28.9 0 0 1-5.32 2.74Z" transform="translate(.01 -5.87)"/><path class="cls-1" d="M149.15 110.7a92.58 92.58 0 0 0 9.69-8.36c1.42-1.35 2.75-2.58 4.11-3.8s2.77-2.39 4.21-3.53l-9.79-12.22c-1.63 1.3-3.22 2.65-4.78 4s-3.1 2.81-4.51 4.16a81.53 81.53 0 0 1-8 7Z" transform="translate(.01 -5.87)"/><path class="cls-2" d="M146.27 104.38c1.7-1.29 3.3-2.68 4.84-4.1l-1.41-1.54a73.92 73.92 0 0 1-4.69 4Z" transform="translate(.01 -5.87)"/><path class="cls-2" transform="rotate(-43.37 146.085 93.724)" d="M151.88 95.61h3.13v2.09h-3.13z"/><path class="cls-2" d="M157.2 94.59c1.52-1.4 3.1-2.73 4.69-4l-1.33-1.62c-1.61 1.35-3.22 2.7-4.77 4.13Z" transform="translate(.01 -5.87)"/><path class="cls-1" d="M167.16 95a119.34 119.34 0 0 1 18.36-12.1l-7.38-13.8a134.77 134.77 0 0 0-20.77 13.69Z" transform="translate(.01 -5.87)"/><path class="cls-2" d="M163.93 88.9c1.63-1.26 3.28-2.51 5-3.69l-1.21-1.71c-1.72 1.2-3.39 2.48-5.05 3.76ZM171 83.74c.85-.59 1.73-1.14 2.59-1.71l-1.13-1.76c-.87.58-1.76 1.14-2.63 1.74ZM175.8 80.66c1.77-1.07 3.55-2.12 5.37-3.11l-1-1.83c-1.84 1-3.65 2.07-5.45 3.16Z" transform="translate(.01 -5.87)"/><path class="cls-1" d="M185.52 82.91c1.63-.86 3.26-1.69 4.92-2.48s3.28-1.53 4.7-2.06a15.6 15.6 0 0 1 3.74-.93 6.11 6.11 0 0 1 2.63.27l4.83-14.89a21.64 21.64 0 0 0-8.94-1 30.8 30.8 0 0 0-7.64 1.82c-2.25.83-4.22 1.75-6.06 2.63s-3.72 1.83-5.56 2.8Z" transform="translate(.01 -5.87)"/><path class="cls-2" d="M183.47 76.32c1.83-1 3.69-1.86 5.56-2.74l-.87-1.89c-1.9.89-3.8 1.8-5.65 2.78ZM191.38 72.55c.94-.38 1.89-.74 2.85-1l-.62-2c-1 .32-2 .7-3 1.1ZM196.64 70.91a13.9 13.9 0 0 1 5.78 0l.46-2a15.93 15.93 0 0 0-6.63 0Z" transform="translate(.01 -5.87)"/><path class="cls-1" d="M201.51 77.71a10.51 10.51 0 0 1 3 1.62 47.22 47.22 0 0 1 3.83 3.23c1.41 1.28 3 2.73 4.81 4.2a37 37 0 0 0 6.29 4l7-14a20.8 20.8 0 0 1-3.57-2.28c-1.22-1-2.54-2.18-4-3.53a62.62 62.62 0 0 0-5.16-4.32 26 26 0 0 0-7.35-3.83Z" transform="translate(.01 -5.87)"/><path class="cls-2" d="M204.75 71.68a20.85 20.85 0 0 1 5 3.15l1.31-1.62a22.68 22.68 0 0 0-5.53-3.45Z" transform="translate(.01 -5.87)"/><path class="cls-2" d="m211.73 70.62 2.31 2.09 1.4-1.54-2.32-2.11-1.39 1.56z"/><path class="cls-2" d="M216 80.33c.81.68 1.63 1.37 2.51 2a30.14 30.14 0 0 0 2.74 1.74l1-1.82a29.08 29.08 0 0 1-2.53-1.6c-.82-.59-1.6-1.24-2.38-1.9Z" transform="translate(.01 -5.87)"/><path class="cls-1" d="M219.42 90.78a40.21 40.21 0 0 0 14 3.9 66.88 66.88 0 0 0 13.3-.13L245.1 79c-7.07.74-13.72.33-18.66-2.19Z" transform="translate(.01 -5.87)"/><path class="cls-2" d="M223.7 85.28a31.58 31.58 0 0 0 6.13 2l.44-2a29.07 29.07 0 0 1-5.73-1.86ZM232.47 87.73c1.05.2 2.12.21 3.18.33l.14-2.08c-1-.12-2-.12-3-.32ZM238.31 88.16a60.87 60.87 0 0 0 6.34-.25l-.17-2.08a57.39 57.39 0 0 1-6.14.24Z" transform="translate(.01 -5.87)"/><path class="cls-1" d="M246.68 94.55c8.48-.86 16.33-2.77 23.75-4.14L267.57 75c-4 .73-7.81 1.56-11.55 2.27s-7.39 1.35-10.92 1.73Z" transform="translate(.01 -5.87)"/><path class="cls-2" d="M247.31 87.64c1.05-.11 2.09-.25 3.13-.41s2.07-.31 3.11-.49l-.35-2.06c-1 .18-2 .35-3.06.49s-2 .29-3.07.4Z" transform="translate(.01 -5.87)"/><path class="cls-2" d="m256.13 80.42 3.08-.59-.4-2.05-3.06.59.38 2.05zM261.77 79.33l6.12-1.22-.39-2.05-6.14 1.22.41 2.05z"/><path class="cls-1" d="M270.43 90.41a188 188 0 0 1 22.34-2.76l-1-15.63a203.57 203.57 0 0 0-24.22 3Z" transform="translate(.01 -5.87)"/><path class="cls-2" d="M270.47 83.5c2-.36 4.08-.7 6.13-1l-.3-2.07q-3.1.45-6.2 1Z" transform="translate(.01 -5.87)"/><path class="cls-2" d="m279.18 76.28 3.08-.37-.24-2.08-3.12.38.28 2.07z"/><path class="cls-2" d="M284.83 81.5c2.06-.22 4.13-.39 6.19-.53l-.14-2.09c-2.09.15-4.18.32-6.26.54Z" transform="translate(.01 -5.87)"/><path class="cls-1" d="M292.77 87.65a187.84 187.84 0 0 1 22.51-.05l.91-15.6a204.77 204.77 0 0 0-24.4 0Z" transform="translate(.01 -5.87)"/><path class="cls-2" d="M293.64 80.81c2.07-.13 4.14-.19 6.21-.26l-.05-2.09c-2.09.07-4.18.13-6.27.26ZM302.44 80.51h3.11v-2.09h-3.14ZM308.14 80.53c2.07.06 4.15.1 6.22.22l.1-2.08c-2.09-.13-4.18-.16-6.28-.23Z" transform="translate(.01 -5.87)"/><path class="cls-1" d="M315.28 87.6c3.75.23 7.5.53 11.22 1a101.9 101.9 0 0 1 10.62 1.68l3.76-15.2a111.28 111.28 0 0 0-12.54-2c-4-.5-8.09-.83-12.15-1.07Z" transform="translate(.01 -5.87)"/><path class="cls-2" d="M317 80.9c2.07.15 4.14.29 6.2.5l.2-2.07c-2.08-.22-4.17-.36-6.26-.52Z" transform="translate(.01 -5.87)"/><path class="cls-2" d="m325.75 75.8 3.09.36.26-2.07-3.12-.37-.23 2.08z"/><path class="cls-2" d="M331.4 82.38c2.06.28 4.1.59 6.09 1l.44-2c-2.09-.44-4.17-.75-6.24-1Z" transform="translate(.01 -5.87)"/><path class="cls-1" d="M337.12 90.27a18.07 18.07 0 0 1 3.88 1.35 19.47 19.47 0 0 1 3.41 2.38c1.3 1.06 2.77 2.39 4.55 3.82a30.49 30.49 0 0 0 6.48 4.14l6.67-14.17a15.55 15.55 0 0 1-3.36-2.18c-1.28-1-2.7-2.32-4.43-3.73a30.94 30.94 0 0 0-13.44-6.8Z" transform="translate(.01 -5.87)"/><path class="cls-2" d="M340 84a21.28 21.28 0 0 1 5.46 2.36l1.1-1.78a23.58 23.58 0 0 0-6-2.58ZM347.5 87.78c.81.61 1.6 1.26 2.38 1.93l1.35-1.59a49.99 49.99 0 0 0-2.47-2ZM351.86 91.41a33.91 33.91 0 0 0 5.22 3.77l1-1.82a31 31 0 0 1-4.89-3.55Z" transform="translate(.01 -5.87)"/><path class="cls-1" d="m355.44 102 1.89.82c.64.25 1.3.43 1.95.64a29.11 29.11 0 0 0 4 .89 32.48 32.48 0 0 0 7.74.13 45.64 45.64 0 0 0 13.62-3.74l-6.25-14.36a30.06 30.06 0 0 1-8.91 2.52 17.27 17.27 0 0 1-3.95 0 13.17 13.17 0 0 1-1.75-.41c-.28-.09-.57-.15-.84-.26s-.53-.24-.8-.36Z" transform="translate(.01 -5.87)"/><path class="cls-2" d="M359.59 96.36a22 22 0 0 0 6.39 1.4l.14-2.09a19.59 19.59 0 0 1-5.77-1.25ZM368.7 97.8c.54 0 1.08-.09 1.61-.13a12.21 12.21 0 0 0 1.61-.2l-.32-2.06a14.8 14.8 0 0 1-1.49.19c-.5 0-1 .1-1.5.12ZM374.55 97a40.15 40.15 0 0 0 6.1-2l-.78-1.93a38.75 38.75 0 0 1-5.8 1.86Z" transform="translate(.01 -5.87)"/><path class="cls-1" d="M384.61 100.69a72.33 72.33 0 0 0 11.48-6.38c3.39-2.29 6.49-4.49 9.57-6.46l-8.42-13.2c-3.51 2.24-6.79 4.58-9.89 6.67a56.84 56.84 0 0 1-9 5Z" transform="translate(.01 -5.87)"/><path class="cls-2" d="M383.11 93.92c1.94-.88 3.79-1.92 5.62-3l-1.07-1.8a61.12 61.12 0 0 1-5.43 2.88ZM391 89.55c.89-.57 1.77-1.15 2.63-1.75l-1.18-1.72c-.86.59-1.72 1.16-2.58 1.72ZM395.74 86.33c1.72-1.18 3.43-2.36 5.16-3.49l-1.14-1.75c-1.76 1.15-3.48 2.34-5.2 3.52Z" transform="translate(.01 -5.87)"/><path class="cls-1" d="M405.66 87.85c6.12-3.92 12.07-6.66 17.49-6.5l.19-15.65a35 35 0 0 0-7.49.71 42.88 42.88 0 0 0-6.9 2.08 68 68 0 0 0-11.71 6.16Z" transform="translate(.01 -5.87)"/><path class="cls-2" d="M403.11 81.44c1.74-1.09 3.53-2.12 5.35-3l-.93-1.86c-1.9.94-3.74 2-5.52 3.11ZM410.77 77.33c.93-.43 1.89-.76 2.83-1.12l-.68-2c-1 .38-2 .73-3 1.18ZM416 75.48a30 30 0 0 1 5.94-.92l-.08-2.08a31.84 31.84 0 0 0-6.39 1Z" transform="translate(.01 -5.87)"/><path class="cls-1" d="M423.15 81.35a16.46 16.46 0 0 1 4.08.5 19.55 19.55 0 0 1 4 1.41 34.74 34.74 0 0 1 7.77 5.45L449.39 77A50.47 50.47 0 0 0 438 69.13a34.38 34.38 0 0 0-14.62-3.43Z" transform="translate(.01 -5.87)"/><path class="cls-2" d="M424.49 74.59a25.59 25.59 0 0 1 5.89 1.08l.61-2a27 27 0 0 0-6.37-1.17Z" transform="translate(.01 -5.87)"/><path class="cls-2" d="m432.74 70.65 1.38.61 1.34.69 1-1.84-1.44-.73-1.48-.66-.8 1.93z"/><path class="cls-2" d="M437.63 79.11a44.15 44.15 0 0 1 4.89 3.66l1.35-1.59a46.93 46.93 0 0 0-5.11-3.83Z" transform="translate(.01 -5.87)"/><path class="cls-1" d="M439 88.71c5.22 4.6 10.22 10.69 16.51 16.49l10.58-11.54c-5.26-4.79-10.22-10.87-16.7-16.67Z" transform="translate(.01 -5.87)"/><path class="cls-2" d="M444.46 84.49c1.52 1.39 3 2.84 4.43 4.33l1.49-1.46c-1.46-1.5-2.95-3-4.51-4.41Z" transform="translate(.01 -5.87)"/><path class="cls-2" transform="rotate(-43.64 445.195 88.16)" d="M451.48 89.53h2.09v3.13h-2.09z"/><path class="cls-2" d="M454.65 94.83c1.45 1.51 2.93 3 4.47 4.45l1.43-1.52c-1.5-1.42-3-2.88-4.4-4.38Z" transform="translate(.01 -5.87)"/><path class="cls-1" d="M455.51 105.2a59.63 59.63 0 0 0 10.78 8.06 51.18 51.18 0 0 0 13 5l3.52-15.26a35.21 35.21 0 0 1-8.81-3.35 44.3 44.3 0 0 1-8-6Z" transform="translate(.01 -5.87)"/><path class="cls-2" d="M461.08 101.08a58 58 0 0 0 5 4l1.2-1.7a56.44 56.44 0 0 1-4.78-3.83ZM468.26 106.53c.45.3.92.55 1.38.82a12.83 12.83 0 0 0 1.42.75l1-1.85a11.44 11.44 0 0 1-1.34-.71c-.44-.26-.89-.49-1.31-.78ZM473.47 109.26a42 42 0 0 0 6.06 2.06l.53-2a41.52 41.52 0 0 1-5.76-2Z" transform="translate(.01 -5.87)"/><path class="cls-1" d="M479.34 118.3a63.64 63.64 0 0 0 13.41 1.39 87.25 87.25 0 0 0 12.86-1.08l-2.41-15.48a71.46 71.46 0 0 1-10.5.9 48.43 48.43 0 0 1-9.89-1Z" transform="translate(.01 -5.87)"/><path class="cls-2" d="M482.16 111.92c1 .17 2.09.44 3.15.53l3.17.33.14-2.09-3-.31c-1-.09-2-.34-3-.5ZM491.13 112.87c1.06.07 2.12 0 3.18 0l-.06-2.09c-1 0-2.05.08-3.07 0Z" transform="translate(.01 -5.87)"/><path class="cls-2" d="m496.95 106.88 3.16-.25 3.14-.4-.3-2.07-3.06.39-3.07.25.13 2.08z"/><path class="cls-1" d="M505.61 118.61a169.86 169.86 0 0 0 23.89-5.89l-4.65-15a153.31 153.31 0 0 1-21.65 5.36Z" transform="translate(.01 -5.87)"/><path class="cls-2" d="M505.87 111.68c2.08-.32 4.13-.78 6.19-1.22l-.46-2c-2 .42-4 .88-6.08 1.19ZM514.61 109.86c1-.23 2-.52 3-.78l-.53-2c-1 .26-2 .55-3 .77ZM520.19 108.4q3-.84 6-1.77l-.61-2c-2 .6-4 1.19-6 1.75Z" transform="translate(.01 -5.87)"/><path class="cls-1" d="M529.5 112.72c1.91-.6 3.75-1.15 5.83-1.87a42.49 42.49 0 0 0 6.61-2.86 26.34 26.34 0 0 0 3.54-2.34 20.24 20.24 0 0 0 3.35-3.38 17.43 17.43 0 0 0 1.37-2c.38-.62.69-1.21.94-1.7.52-1 .86-1.68 1.08-2L539 88.21c-.84 1.32-1.34 2.41-1.73 3.14a7.06 7.06 0 0 1-.77 1.29 6.8 6.8 0 0 1-2.13 1.66 27.88 27.88 0 0 1-4.16 1.75c-1.61.57-3.52 1.15-5.34 1.72Z" transform="translate(.01 -5.87)"/><path class="cls-2" d="M528.73 105.85c2-.63 4-1.24 6-2l-.75-2c-1.89.73-3.88 1.34-5.86 2ZM537.19 102.8a21.22 21.22 0 0 0 2.86-1.6l-1.16-1.74a18.13 18.13 0 0 1-2.59 1.45ZM542.23 99.47a12.29 12.29 0 0 0 2.12-2.64c.58-1 1-1.92 1.5-2.8L544 93c-.51.95-.94 1.88-1.45 2.71a10.28 10.28 0 0 1-1.77 2.29Z" transform="translate(.01 -5.87)"/><path class="cls-1" d="m552.22 96.57.06-.11h.12a11.08 11.08 0 0 1 1.66-.31l2.74-.32 11.66-1.29-1.72-15.56-11.66 1.29-3.09.36a25.46 25.46 0 0 0-4.09.84c-.4.11-.76.24-1.27.43s-.91.36-1.35.58a16.25 16.25 0 0 0-2.49 1.52 15 15 0 0 0-2.14 2c-.32.36-.63.75-.92 1.14l-.42.6-.33.51Z" transform="translate(.01 -5.87)"/><path class="cls-2" d="M547.14 92a6.13 6.13 0 0 1 2.13-1.65 11.13 11.13 0 0 1 2.71-.8l-.37-2a9.57 9.57 0 0 0-6 3.13Z" transform="translate(.01 -5.87)"/><path class="cls-2" transform="rotate(-6.32 502.66 84.982)" d="M554.37 86.97h3.13v2.09h-3.13z"/><path class="cls-2" transform="rotate(-6.32 509.88 84.2)" d="M560.05 86.16h6.25v2.09h-6.25z"/><path class="cls-1" transform="rotate(-6.32 525.875 82.448)" d="M567.53 77.6H591v15.66h-23.47z"/><path class="cls-2" transform="rotate(-6.32 518.655 83.23)" d="M568.88 85.19h6.25v2.09h-6.25z"/><path class="cls-2" transform="rotate(-6.32 525.875 82.448)" d="M577.69 84.38h3.13v2.09h-3.13z"/><path class="cls-2" transform="rotate(-6.32 533.185 81.67)" d="M583.38 83.58h6.25v2.09h-6.25z"/><path class="cls-1" transform="rotate(-6.32 549.274 79.833)" d="M590.86 75.02h23.47v15.66h-23.47z"/><path class="cls-2" transform="rotate(-6.32 541.964 80.61)" d="M592.21 82.6h6.25v2.09h-6.25z"/><path class="cls-2" transform="rotate(-6.32 549.184 79.828)" d="M601.02 81.8h3.13v2.09h-3.13z"/><path class="cls-2" transform="rotate(-6.32 556.494 79.051)" d="M606.71 81h6.25v2.09h-6.25z"/><path class="cls-1" d="m615.12 89.34 11.67-1.29c1.9-.21 4-.46 5.65-.61a17.52 17.52 0 0 1 4 0L638.79 72a31.94 31.94 0 0 0-7.71-.11c-2.24.21-4 .43-6 .64l-11.68 1.24Z" transform="translate(.01 -5.87)"/><path class="cls-2" transform="rotate(-6.32 565.268 78.082)" d="M615.54 80.02h6.25v2.09h-6.25z"/><path class="cls-2" transform="rotate(-6.32 572.579 77.305)" d="M624.35 79.22h3.13v2.09h-3.13z"/><path class="cls-2" d="M630.17 80.84a34.37 34.37 0 0 1 6.05-.26l.15-2.08a36 36 0 0 0-6.43.27Z" transform="translate(.01 -5.87)"/><path class="cls-1" d="M636.43 87.43a4.35 4.35 0 0 1 2.09.84 20.9 20.9 0 0 1 3.06 2.88c.63.68 1.32 1.44 2.12 2.26s1.63 1.63 2.49 2.39a53.11 53.11 0 0 0 5.38 4.25l8.94-12.85a39.14 39.14 0 0 1-3.83-3c-.61-.54-1.15-1.12-1.74-1.67s-1.19-1.27-1.9-2a35.16 35.16 0 0 0-5.55-5.06 20.9 20.9 0 0 0-4.14-2.25 20.26 20.26 0 0 0-4.56-1.22Z" transform="translate(.01 -5.87)"/><path class="cls-2" d="M638.64 81a12.13 12.13 0 0 1 5 2.73l1.36-1.64a14.25 14.25 0 0 0-5.87-3.16ZM645.49 85.4c.71.73 1.4 1.5 2.12 2.27l1.52-1.43c-.7-.75-1.41-1.53-2.15-2.29ZM649.47 89.56a45.62 45.62 0 0 0 4.87 4.13l1.24-1.69a41.81 41.81 0 0 1-4.65-4Z" transform="translate(.01 -5.87)"/><path class="cls-1" d="M651.57 100.05a59.9 59.9 0 0 0 24.9 9.88l2.4-15.47a44.57 44.57 0 0 1-18.36-7.26Z" transform="translate(.01 -5.87)"/><path class="cls-2" d="M656.55 95.23c.88.6 1.81 1.11 2.72 1.67s1.87 1 2.81 1.49l.92-1.87c-.91-.47-1.81-.94-2.7-1.43s-1.77-1-2.61-1.61ZM664.5 99.5c1 .39 2 .81 3 1.16l.7-2c-1-.34-1.9-.75-2.85-1.12ZM670 101.5a54.83 54.83 0 0 0 6.2 1.49l.37-2a55 55 0 0 1-6-1.43Z" transform="translate(.01 -5.87)"/><path class="cls-1" d="M676.47 109.93a59.62 59.62 0 0 0 13.49.56c4.45-.36 8.16-1 11.08-1V93.83c-4.92 0-8.94.81-12.29 1a43.35 43.35 0 0 1-9.91-.41Z" transform="translate(.01 -5.87)"/><path class="cls-2" d="M678.83 103.41c1.06.11 2.11.27 3.17.31s2.12.14 3.19.12v-2.09c-1 0-2 0-3.05-.11s-2-.19-3-.3ZM687.84 103.8c1.07 0 2.13-.1 3.18-.22l-.21-2.08c-1 .12-2 .17-3.06.21ZM693.62 103.29c2.07-.24 4.12-.48 6.15-.56l-.08-2.08c-2.14.08-4.24.33-6.31.57Z" transform="translate(.01 -5.87)"/><path class="cls-1" d="M701 109.5a13 13 0 0 1 3.71.45 13.53 13.53 0 0 1 3.35 1.52c2.4 1.44 5 3.89 8.31 6.61l10-12.06c-2.77-2.26-5.82-5.24-10.11-7.9a27.81 27.81 0 0 0-15.22-4.28Z" transform="translate(.01 -5.87)"/><path class="cls-2" d="M702.31 102.74a18.25 18.25 0 0 1 5.78 1.17l.74-2a12.41 12.41 0 0 0-1.56-.52c-.53-.17-1.07-.28-1.6-.4a25.66 25.66 0 0 0-3.26-.39ZM710.34 104.93a27.16 27.16 0 0 1 2.57 1.57l1.18-1.72a27.65 27.65 0 0 0-2.77-1.69ZM715 108c1.61 1.25 3.16 2.63 4.76 4l1.35-1.59c-1.58-1.34-3.15-2.73-4.82-4Z" transform="translate(.01 -5.87)"/><path class="cls-1" d="M716.41 118.08c.81.68 1.67 1.37 2.6 2.06s2 1.38 3 2a42.09 42.09 0 0 0 6.48 3.23 45.19 45.19 0 0 0 6.8 2.1 49.85 49.85 0 0 0 6.93 1l1.13-15.62a32.75 32.75 0 0 1-4.68-.66 29.05 29.05 0 0 1-4.39-1.36 26.84 26.84 0 0 1-4-2c-.61-.44-1.2-.77-1.85-1.28s-1.3-1-2-1.58Z" transform="translate(.01 -5.87)"/><path class="cls-2" d="M721.77 113.69a30.45 30.45 0 0 0 2.57 1.9c.45.3.89.61 1.34.9l1.4.79 1-1.83-1.31-.74-1.26-.84a30.31 30.31 0 0 1-2.45-1.81ZM729.48 118.49c1 .44 2 .83 3 1.19l.69-2c-.95-.34-1.9-.71-2.82-1.12ZM735 120.46a41.32 41.32 0 0 0 6.3 1.17l.22-2.08a38.74 38.74 0 0 1-6-1.1Z" transform="translate(.01 -5.87)"/><path class="cls-1" d="M742.2 128.51a52.58 52.58 0 0 0 13.69-.81 54.62 54.62 0 0 0 13-4.14l-6.57-14.22a39.18 39.18 0 0 1-9.31 3 36.68 36.68 0 0 1-9.67.58Z" transform="translate(.01 -5.87)"/><path class="cls-2" d="M744 121.83a46.81 46.81 0 0 0 6.38-.2l-.2-2.08a44.32 44.32 0 0 1-6.1.19ZM753.06 121.3c1.05-.15 2.09-.37 3.13-.58l-.45-2c-1 .2-2 .41-3 .56ZM758.77 120.07a48.82 48.82 0 0 0 6-2.12L764 116a48.56 48.56 0 0 1-5.76 2Z" transform="translate(.01 -5.87)"/><path class="cls-1" d="M768.88 123.56a49.62 49.62 0 0 0 11.69-7.46 43.9 43.9 0 0 0 5-5.08 39.66 39.66 0 0 0 4.14-6l-13.69-7.59a25.76 25.76 0 0 1-2.47 3.62 29 29 0 0 1-3.23 3.23 33.43 33.43 0 0 1-8 5.11Z" transform="translate(.01 -5.87)"/><path class="cls-2" d="M767.24 116.82a43.52 43.52 0 0 0 5.51-3.25l-1.19-1.72a40.65 40.65 0 0 1-5.25 3.1ZM774.9 112c.85-.64 1.63-1.37 2.43-2.08l-1.42-1.53c-.76.67-1.5 1.37-2.31 2ZM779.22 108a34.76 34.76 0 0 0 3.9-5.12l-1.78-1.09a32 32 0 0 1-3.66 4.8Z" transform="translate(.01 -5.87)"/><path class="cls-1" d="M793.5 102.55a41.25 41.25 0 0 0 13.7-3.41 55.64 55.64 0 0 0 11.5-6.73l-9.34-12.57a39.58 39.58 0 0 1-8.36 4.91 25.62 25.62 0 0 1-8.53 2.17Z" transform="translate(.01 -5.87)"/><path class="cls-2" d="m794.38 95.63 1.58-.17c.52-.07 1-.22 1.55-.32a24.06 24.06 0 0 0 3.06-.78l-.61-2a21.72 21.72 0 0 1-2.88.74c-.48.09-1 .24-1.45.29l-1.47.16Z" transform="translate(.01 -5.87)"/><path class="cls-2" d="m803.07 87.66 2.89-1.25-.89-1.89-2.75 1.19.75 1.95z"/><path class="cls-2" d="M808.28 91.07a30.25 30.25 0 0 0 2.69-1.6l1.33-.83c.43-.29.85-.6 1.27-.9L812.36 86c-.41.29-.81.6-1.23.88l-1.27.8a28.09 28.09 0 0 1-2.58 1.52Z" transform="translate(.01 -5.87)"/><path class="cls-1" d="M818.7 92.41A104.81 104.81 0 0 0 836.46 75l-12.08-10c-2.32 2.81-4.73 5.5-7.22 8a72.56 72.56 0 0 1-7.8 6.81Z" transform="translate(.01 -5.87)"/><path class="cls-2" d="m815.7 80.31 2.42-1.96 2.33-2.06-1.41-1.54-2.27 2.01-2.35 1.9 1.28 1.65z"/><path class="cls-2" d="M822.32 80.38c.74-.72 1.49-1.44 2.19-2.19L823 76.73c-.69.75-1.42 1.45-2.14 2.15ZM826.3 76.32c1.38-1.53 2.76-3.07 4.08-4.65l-1.6-1.34c-1.3 1.56-2.65 3.07-4 4.57Z" transform="translate(.01 -5.87)"/><path class="cls-1" d="m836.46 75 3.66-4.54c1.18-1.43 2.35-2.87 3.55-4.24A100 100 0 0 1 851 58.4L840.26 47a119.6 119.6 0 0 0-8.45 9c-1.33 1.52-2.59 3.07-3.85 4.61L824.38 65Z" transform="translate(.01 -5.87)"/><path class="cls-2" d="m832.04 63.79 3.86-4.76-1.61-1.33-3.87 4.77 1.62 1.32zM837.53 57.07l1.99-2.31-1.56-1.38-2.03 2.34 1.6 1.35z"/><path class="cls-2" d="M841.22 58.74c1.35-1.51 2.77-3 4.21-4.37l-1.43-1.5c-1.47 1.46-2.92 2.93-4.29 4.47Z" transform="translate(.01 -5.87)"/><path class="cls-1" d="M851 58.4c5.05-4.85 10.59-8.73 16.28-10.66l-4.93-14.86A52.2 52.2 0 0 0 850.23 39a74.61 74.61 0 0 0-10 8.08Z" transform="translate(.01 -5.87)"/><path class="cls-2" d="M847.28 52.6c1.51-1.35 3-2.69 4.62-3.91L850.62 47c-1.66 1.26-3.21 2.64-4.75 4ZM853.92 47.19c.83-.55 1.62-1.19 2.5-1.67l-1.11-1.77c-.92.51-1.73 1.16-2.6 1.74ZM858.56 44.23c.88-.47 1.78-.9 2.67-1.35s1.84-.76 2.76-1.15l-.73-1.95c-1 .4-2 .73-2.91 1.2s-1.88.93-2.8 1.42Z" transform="translate(.01 -5.87)"/><path class="cls-1" d="M867.32 47.74a23.68 23.68 0 0 1 8.57-1.22h1.77l1.25.07a22.56 22.56 0 0 0 4.48-.4 29.28 29.28 0 0 0 7.49-2.57l-7-14a13.55 13.55 0 0 1-3.38 1.18 6.5 6.5 0 0 1-1.24.13l-2.74-.14a39.41 39.41 0 0 0-14.11 2Z" transform="translate(.01 -5.87)"/><path class="cls-2" d="m866.38 41 1.43-.41c.47-.13 1-.19 1.45-.28a21.05 21.05 0 0 1 2.94-.43l-.2-2.08a22.08 22.08 0 0 0-3.13.46c-.52.1-1 .16-1.55.3l-1.52.44Z" transform="translate(.01 -5.87)"/><path class="cls-2" d="m874.67 33.8 2.96.14.19-2.08-3.17-.15.02 2.09z"/><path class="cls-2" d="M880.35 39.84a20.1 20.1 0 0 0 6.25-1.64l-.83-1.91a18 18 0 0 1-5.58 1.47Z" transform="translate(.01 -5.87)"/><path class="cls-1" d="M890.88 43.7a29.14 29.14 0 0 0 6.56-4.49 28.19 28.19 0 0 0 4.87-6.21c1.13-1.87 2-3.38 2.73-4.41a11.51 11.51 0 0 1 1.12-1.34 13.1 13.1 0 0 1 1.34-1.2l-9.66-12.33a29.19 29.19 0 0 0-2.94 2.65 26.55 26.55 0 0 0-2.57 3.08c-1.5 2.09-2.5 4-3.37 5.37a13.35 13.35 0 0 1-2.17 2.89 13.45 13.45 0 0 1-2.93 2Z" transform="translate(.01 -5.87)"/><path class="cls-2" d="M889 37a19.17 19.17 0 0 0 5-4l-1.59-1.36a17 17 0 0 1-4.41 3.54ZM895.67 30.81c.59-.88 1.12-1.78 1.64-2.66l-1.79-1.06c-.52.87-1 1.74-1.59 2.56ZM898.62 26a20.39 20.39 0 0 1 3.73-4.47L901 20a22.13 22.13 0 0 0-4.11 4.92Z" transform="translate(.01 -5.87)"/><path class="cls-1" d="M907.5 26.07a21 21 0 0 1 7.5-3.54c.72-.19 1.45-.36 2.2-.48l2.31-.35 2.33-.16h2.37l.41-15.65h-3.4l-3.41.25-3.4.5c-1.14.19-2.29.45-3.42.75a36.43 36.43 0 0 0-13.15 6.35Z" transform="translate(.01 -5.87)"/><path class="cls-2" d="M904.3 20a26.09 26.09 0 0 1 5.19-2.77l-.78-1.94a28.3 28.3 0 0 0-5.61 3ZM911.82 16.38c.94-.3 1.91-.54 2.88-.76l-.45-2c-1 .23-2 .49-3 .81ZM917.15 15.19l1.48-.21c.49-.07 1-.08 1.49-.12a27.08 27.08 0 0 1 3-.12v-2.09a27.48 27.48 0 0 0-3.14.13c-.52 0-1.05.06-1.57.12l-1.55.23Z" transform="translate(.01 -5.87)"/><path class="cls-1" d="M924.21 21.53a48.87 48.87 0 0 1 19.07 4.91l6.63-14.19a64.27 64.27 0 0 0-25.29-6.37Z" transform="translate(.01 -5.87)"/><path class="cls-2" d="M925.64 14.8a48.19 48.19 0 0 1 6 .71l.37-2a51.76 51.76 0 0 0-6.22-.75Z" transform="translate(.01 -5.87)"/><path class="cls-2" d="m934.06 10.14 2.91.77.59-2-3.03-.8-.47 2.03z"/><path class="cls-2" d="M939.36 17.55c1.9.65 3.78 1.38 5.62 2.2l.85-1.9c-1.89-.85-3.83-1.61-5.8-2.28Z" transform="translate(.01 -5.87)"/><path class="cls-1" d="M943.28 26.44a72.22 72.22 0 0 1 9.1 5.08 101.57 101.57 0 0 1 8.6 6.35l9.88-12.15a115.35 115.35 0 0 0-9.94-7.32 88 88 0 0 0-11-6.15Z" transform="translate(.01 -5.87)"/><path class="cls-2" d="M947.29 20.84c.92.42 1.81.89 2.7 1.38s1.77 1 2.64 1.48l1.06-1.8c-.89-.53-1.79-1-2.71-1.52s-1.83-1-2.77-1.42ZM954.79 25c.85.55 1.72 1.07 2.55 1.66l1.16-1.74c-.84-.59-1.73-1.12-2.6-1.69Z" transform="translate(.01 -5.87)"/><path class="cls-2" d="m959.42 22.24 2.44 1.8 2.4 1.87 1.31-1.63-2.44-1.9-2.5-1.84-1.21 1.7z"/><path class="cls-1" d="M961 37.87c5.68 4.61 11.2 9.8 17.09 15l10.36-11.75c-5.64-5-11.31-10.32-17.57-15.4Z" transform="translate(.01 -5.87)"/><path class="cls-2" d="M966.26 33.41c1.56 1.29 3.11 2.62 4.65 4l1.37-1.57c-1.55-1.35-3.11-2.69-4.69-4Z" transform="translate(.01 -5.87)"/><path class="cls-2" d="m972.82 33.19 2.29 2.04 1.39-1.56-2.29-2.04-1.39 1.56zM977.01 36.94l4.58 4.1 1.39-1.56-4.57-4.1-1.4 1.56z"/><path class="cls-1" d="M978.07 52.87a141.54 141.54 0 0 0 19.33 14.78l8.25-13.31a125 125 0 0 1-17.22-13.22Z" transform="translate(.01 -5.87)"/><path class="cls-2" d="M983.53 48.62c1.55 1.35 3.11 2.69 4.7 4l1.33-1.62c-1.57-1.29-3.12-2.62-4.65-4ZM990.23 54.24c.81.64 1.6 1.3 2.43 1.91l1.27-1.66c-.82-.6-1.6-1.25-2.4-1.88Z" transform="translate(.01 -5.87)"/><path class="cls-2" d="m994.73 51.83 2.53 1.79 2.59 1.71 1.13-1.76-2.54-1.68-2.48-1.75-1.23 1.69z"/><path class="cls-1" d="M997.4 67.65a139.54 139.54 0 0 0 21.91 10.74l5.78-14.56a124.24 124.24 0 0 1-19.44-9.49Z" transform="translate(.01 -5.87)"/><path class="cls-2" d="M1002.09 62.55c1.75 1.1 3.58 2.06 5.4 3l1-1.85c-1.79-1-3.58-1.9-5.3-3Z" transform="translate(.01 -5.87)"/><path class="cls-2" d="m1009.79 60.89 2.79 1.35.88-1.89-2.74-1.33-.93 1.87zM1014.92 63.3l2.83 1.25 2.86 1.17.78-1.94-2.82-1.15-2.8-1.23-.85 1.9z"/><path class="cls-1" d="M1019.31 78.39c7.41 2.94 14.81 5.41 22 7.91l5.11-14.8c-7.3-2.52-14.49-4.93-21.36-7.67Z" transform="translate(.01 -5.87)"/><path class="cls-2" d="M1023 72.56c1.92.71 3.83 1.47 5.77 2.16l.71-2c-1.92-.69-3.81-1.44-5.72-2.15Z" transform="translate(.01 -5.87)"/><path class="cls-2" d="m1031.2 69.72 2.9 1.03.7-1.97-2.89-1.03-.71 1.97z"/><path class="cls-2" transform="rotate(-70.97 1035.653 74.528)" d="M1038.72 74.4h2.09v6.14h-2.09z"/><path class="cls-1" d="M1041.34 86.3c7.21 2.5 14.27 5 21 7.94l6.27-14.34c-7.38-3.23-14.82-5.87-22.13-8.4Z" transform="translate(.01 -5.87)"/><path class="cls-2" d="m1044.77 74.44 5.78 2.03.71-1.96-5.8-2.04-.69 1.97zM1052.95 77.34l2.87 1.07.74-1.95-2.89-1.08-.72 1.96z"/><path class="cls-2" d="M1058.19 85.19c1.89.76 3.79 1.49 5.65 2.32l.82-1.92c-1.88-.84-3.8-1.58-5.71-2.34Z" transform="translate(.01 -5.87)"/><path class="cls-1" d="M1062.31 94.24c1.7.7 3.3 1.52 5 2.28s3.18 1.64 4.78 2.45c3.13 1.71 6.25 3.65 9.48 5.68l8.35-13.25c-3.28-2.06-6.68-4.19-10.3-6.16s-7.29-3.75-11-5.34Z" transform="translate(.01 -5.87)"/><path class="cls-2" d="M1066.2 88.52c1.84.86 3.69 1.71 5.5 2.62l.94-1.87c-1.84-.92-3.72-1.78-5.59-2.65ZM1074 92.31c.9.47 1.8.93 2.68 1.44l1-1.82c-.9-.51-1.82-1-2.73-1.46ZM1078.83 95c1.75 1 3.48 2.11 5.21 3.19l1.11-1.77c-1.74-1.09-3.49-2.17-5.26-3.22Z" transform="translate(.01 -5.87)"/><path class="cls-1" d="M1081.52 104.65c3.22 2 6.52 4.15 10 6.2a105.24 105.24 0 0 0 11 5.64l6.29-14.34a86.08 86.08 0 0 1-9.46-4.84c-3.13-1.81-6.29-3.84-9.57-5.91Z" transform="translate(.01 -5.87)"/><path class="cls-2" d="m1086.23 93.72 5.21 3.27 1.1-1.78-5.19-3.25-1.12 1.76z"/><path class="cls-2" d="M1093.64 104.19q1.32.8 2.67 1.56l1-1.82c-.89-.5-1.76-1-2.63-1.53ZM1098.57 107c1.83 1 3.69 1.89 5.57 2.75l.86-1.9a91.53 91.53 0 0 1-5.44-2.69Z" transform="translate(.01 -5.87)"/><path class="cls-1" d="M1102.61 116.49c7.54 3.3 15.05 5.71 22.18 8.21l5.17-14.78c-7.37-2.58-14.51-4.89-21.06-7.77Z" transform="translate(.01 -5.87)"/><path class="cls-2" d="M1106.53 110.79q2.85 1.21 5.74 2.29l.74-2c-1.91-.72-3.79-1.47-5.66-2.26Z" transform="translate(.01 -5.87)"/><path class="cls-2" d="m1114.68 108.11 2.91 1.04.69-1.97-2.88-1.03-.72 1.96zM1120 109.99l5.81 2.01.68-1.97-5.8-2.01-.69 1.97z"/><path class="cls-1" d="m1124.79 124.7 10.61 3.89c3.52 1.4 7 2.73 10.56 4.18l5.9-14.5c-3.59-1.49-7.25-2.87-10.87-4.31l-11-4Z" transform="translate(.01 -5.87)"/><path class="cls-2" d="m1128.24 112.85 5.75 2.11.73-1.95-5.78-2.12-.7 1.96z"/><path class="cls-2" d="M1136.38 121.71c1 .34 1.91.72 2.86 1.1l.75-2c-1-.38-1.9-.76-2.87-1.1Z" transform="translate(.01 -5.87)"/><path class="cls-2" d="m1141.62 117.87 5.7 2.25.79-1.94-5.73-2.25-.76 1.94z"/><path class="cls-1" d="M1146 132.77q10.55 4.3 21 8.92l6.25-14.36q-10.59-4.64-21.4-9.06Z" transform="translate(.01 -5.87)"/><path class="cls-2" d="m1149.71 121.1 5.67 2.34.81-1.92-5.69-2.35-.79 1.93z"/><path class="cls-2" transform="rotate(-66.88 1155.137 126.993)" d="M1158.5 128.41h2.09v3.07h-2.09z"/><path class="cls-2" d="m1162.9 126.64 5.63 2.44.84-1.92-5.64-2.44-.83 1.92z"/><path class="cls-1" d="m1167.02 135.82 21.11 9.25 6.25-14.36-21.11-9.24-6.25 14.35z"/><path class="cls-2" transform="rotate(-66.38 1169.654 133.308)" d="M1173.09 133.18h2.09v6.14h-2.09z"/><path class="cls-2" transform="rotate(-66.28 1176.133 136.221)" d="M1179.64 137.59h2.09v3.07h-2.09z"/><path class="cls-2" d="m1184.02 135.86 5.63 2.46.83-1.91-5.62-2.46-.84 1.91z"/><path class="cls-1" d="m1188.13 145.07 10.66 4.59 10.76 4.47 5.88-14.51-10.53-4.37-10.52-4.54-6.25 14.36z"/><path class="cls-2" d="m1192.02 139.36 5.64 2.43.83-1.92-5.64-2.43-.83 1.92z"/><path class="cls-2" transform="rotate(-66.95 1197.329 145.402)" d="M1200.79 146.77h2.09v3.07h-2.09z"/><path class="cls-2" d="m1205.21 144.99 5.68 2.36.78-1.94-5.65-2.35-.81 1.93z"/><path class="cls-1" d="M1209.54 160c7.23 2.89 14.51 5.74 21.94 8.28l5.13-14.8c-7.11-2.43-14.15-5.18-21.18-8Z" transform="translate(.01 -5.87)"/><path class="cls-2" d="m1213.29 148.31 5.72 2.27.76-1.94-5.7-2.26-.78 1.93zM1221.4 151.51l2.88 1.08.74-1.96-2.87-1.07-.75 1.95z"/><path class="cls-2" d="M1226.68 159.35c1.92.72 3.84 1.44 5.79 2.09l.69-2c-1.94-.65-3.85-1.36-5.76-2.08Z" transform="translate(.01 -5.87)"/><path class="cls-1" d="m1231.48 168.28 5.57 1.91 5.65 1.76c1.89.57 3.75 1.21 5.66 1.71l5.73 1.55 4-15.14-5.4-1.47c-1.8-.46-3.58-1.08-5.37-1.61l-5.36-1.67-5.33-1.84Z" transform="translate(.01 -5.87)"/><path class="cls-2" d="M1234.93 162.28c1.94.65 3.86 1.38 5.83 2l.64-2c-2-.59-3.86-1.31-5.8-1.95Z" transform="translate(.01 -5.87)"/><path class="cls-2" d="m1243.22 159.14 2.94.91.6-2-2.92-.91-.62 2z"/><path class="cls-2" d="M1248.61 166.67c2 .57 4 1.09 5.94 1.63l.54-2c-2-.54-3.94-1.06-5.9-1.62Z" transform="translate(.01 -5.87)"/><path class="cls-1" d="m1254.09 169.34 2.87.78 2.9.67 5.8 1.33 1.45.33 1.47.27 2.94.53 5.87 1.07 2.45-15.46-5.46-1-2.74-.5-1.36-.25-1.36-.31-5.43-1.24-2.72-.63-2.7-.73-3.98 15.14z"/><path class="cls-2" d="M1257.06 169c2 .58 4 1 6 1.44l.47-2c-2-.48-4-.86-5.94-1.43Z" transform="translate(.01 -5.87)"/><path class="cls-2" d="m1265.56 165.13 3.01.68.42-2.04-2.98-.68-.45 2.04zM1271.1 166.28l6.06 1.1.34-2.06-6.01-1.09-.39 2.05z"/><path class="cls-2" d="M791.79 95.8v-2.09h-2.59l-.86-.11-1.72-.22h-.86l-.88-.17-.21.87-.24.83-.24.82-.19.27v.2l-.08.2-.65 1.6-.73 1.55 1.88.94.57-1.21.14-.31V98.82l.06-.16.24-.62.47-1.26.19-.64.09-.32v-.24l.1-.08 2.66.33Z" transform="translate(.01 -5.87)"/></svg>