<?xml version="1.0" encoding="utf-8"?>
<!-- Generator: Adobe Illustrator 25.4.1, SVG Export Plug-In . SVG Version: 6.00 Build 0)  -->
<svg version="1.1" id="Calque_1" xmlns="http://www.w3.org/2000/svg" xmlns:xlink="http://www.w3.org/1999/xlink" x="0px" y="0px"
	 viewBox="0 0 90.3 31.2" style="enable-background:new 0 0 90.3 31.2;" xml:space="preserve">
<style type="text/css">
	.st0{fill:#78D1FF;}
	.st1{fill:none;}
	.st2{enable-background:new    ;}
	.st3{fill:#F0F4FC;}
</style>
<g>
	<g>
		<path class="st0" d="M41.9,20.7c-1.5-0.3-2.8-1.2-3.8-2.7l2.2-1.4c0.6,0.9,1.4,1.5,2.2,1.7s1.8,0,2.6-0.6l2.6-1.7
			c0.9-0.6,1.4-1.2,1.7-1.9c0.3-0.7,0.2-1.4-0.2-2l-0.8-1.3C48.1,10.3,47.6,10,47,10c-0.6-0.1-1.2,0-2,0.4l-4.7,2.1
			c-1.4,0.6-2.6,0.8-3.7,0.6c-1.1-0.2-2-0.8-2.6-1.8L33.1,10c-0.8-1.2-1-2.4-0.5-3.7C33,5,33.9,3.9,35.4,2.9L38,1.1
			c0.9-0.6,1.9-1,2.8-1.1c0.9-0.1,1.9,0.1,2.7,0.5s1.6,1.1,2.2,2L43.5,4c-0.5-0.8-1.2-1.3-1.9-1.4c-0.8-0.2-1.5,0-2.3,0.5l-2.6,1.8
			c-0.8,0.5-1.3,1.1-1.6,1.8c-0.3,0.7-0.2,1.3,0.2,1.9l0.7,1c0.3,0.5,0.8,0.8,1.3,0.9c0.6,0.1,1.2,0,2-0.3L44,8.1
			c1.4-0.6,2.7-0.9,3.8-0.7s2,0.7,2.6,1.7l1,1.5c0.8,1.2,1,2.4,0.5,3.8c-0.4,1.3-1.4,2.5-2.9,3.5l-2.7,1.8
			C44.9,20.6,43.4,21,41.9,20.7z"/>
	</g>
</g>
<rect x="-1.2" y="2.7" class="st1" width="35" height="17.9"/>
<g class="st2">
	<path class="st3" d="M0.8,16.4c-0.2-0.2-0.3-0.5-0.3-1V2.7h1.5v12.7h7.6v1.3H1.7C1.3,16.7,1,16.6,0.8,16.4z"/>
	<path class="st3" d="M11.9,15.9c-0.7-0.7-1-1.5-1-2.6v-2.9c0-1.1,0.3-2.1,1-2.8c0.7-0.7,1.6-1,2.7-1h1.6c1.1,0,1.9,0.3,2.6,1
		c0.7,0.7,1,1.6,1,2.7v1.8h-7.5v1.2c0,0.7,0.2,1.3,0.6,1.7c0.4,0.4,1,0.6,1.6,0.6h1.5c0.7,0,1.2-0.2,1.6-0.5
		c0.4-0.4,0.6-0.9,0.6-1.5h1.4c0,1-0.3,1.8-1,2.4c-0.7,0.6-1.5,0.9-2.6,0.9h-1.5C13.5,16.9,12.6,16.6,11.9,15.9z M18.4,10.8v-0.5
		c0-0.7-0.2-1.3-0.6-1.8c-0.4-0.4-0.9-0.7-1.5-0.7h-1.6c-0.7,0-1.2,0.2-1.6,0.7s-0.6,1.1-0.6,1.8v0.4H18.4z"/>
	<path class="st3" d="M23.9,16.1c-0.5-0.5-0.7-1.2-0.7-2.2V8h-1.8V6.8h1.8v-3h1.4v3h2.6V8h-2.6v5.8c0,0.6,0.1,1,0.4,1.3
		c0.2,0.3,0.6,0.4,1.2,0.4h1.1v1.3h-1.1C25.1,16.7,24.4,16.5,23.9,16.1z"/>
	<path class="st3" d="M29.2,6.1l0.3-0.2c0.4-0.3,0.7-0.6,0.9-0.9s0.3-0.8,0.3-1.2v-1h1.4v1c0,0.7-0.1,1.4-0.4,1.9
		c-0.3,0.5-0.7,1-1.3,1.3l-0.4,0.2L29.2,6.1z"/>
</g>
<rect x="52.6" y="3.2" class="st1" width="37.7" height="16.9"/>
<g class="st2">
	<path class="st3" d="M56.2,17c-0.5-0.3-0.9-0.6-1.1-1v1.3h-1.4v-14h1.4v5.2c0.3-0.4,0.7-0.7,1.1-1c0.5-0.2,0.9-0.4,1.4-0.4h1.4
		c0.7,0,1.3,0.2,1.8,0.5s0.9,0.8,1.2,1.3c0.3,0.6,0.5,1.2,0.5,1.9v2.6c0,0.8-0.2,1.5-0.5,2.1c-0.3,0.6-0.7,1.1-1.3,1.4
		s-1.2,0.5-1.9,0.5h-1.4C57.2,17.4,56.7,17.3,56.2,17z M59,16.1c0.6,0,1.2-0.2,1.6-0.7c0.4-0.5,0.6-1.1,0.6-2v-2.6
		c0-0.7-0.2-1.3-0.6-1.8s-0.9-0.7-1.5-0.7h-1.3c-0.7,0-1.3,0.3-1.8,0.8s-0.8,1.2-0.8,2v2.4c0,0.5,0.2,0.9,0.4,1.3s0.5,0.7,0.9,0.9
		c0.4,0.2,0.8,0.3,1.2,0.3H59z"/>
	<path class="st3" d="M65.6,5.5c-0.2-0.2-0.3-0.5-0.3-0.8c0-0.3,0.1-0.6,0.3-0.8c0.2-0.2,0.5-0.3,0.8-0.3c0.3,0,0.6,0.1,0.8,0.3
		c0.2,0.2,0.3,0.5,0.3,0.8c0,0.3-0.1,0.6-0.3,0.8c-0.2,0.2-0.5,0.3-0.8,0.3C66,5.8,65.8,5.7,65.6,5.5z M65.6,7.3h1.4v10h-1.4V7.3z"
		/>
	<path class="st3" d="M77.2,17.3l-3.9-4.7l-1.4,1.4v3.3h-1.4v-14h1.4v8.9l4.9-4.9h1.8l-4.3,4.3l4.6,5.7H77.2z"/>
	<path class="st3" d="M80.8,16.4c-0.7-0.7-1-1.5-1-2.6v-2.9c0-1.1,0.3-2.1,1-2.8s1.6-1,2.7-1h1.6c1.1,0,1.9,0.3,2.6,1s1,1.6,1,2.7
		v1.8h-7.5v1.2c0,0.7,0.2,1.3,0.6,1.7c0.4,0.4,1,0.6,1.7,0.6H85c0.7,0,1.2-0.2,1.6-0.5c0.4-0.4,0.6-0.9,0.6-1.5h1.4
		c0,1-0.3,1.8-1,2.4c-0.7,0.6-1.5,0.9-2.6,0.9h-1.5C82.4,17.4,81.5,17.1,80.8,16.4z M87.2,11.4v-0.5c0-0.7-0.2-1.3-0.6-1.8
		c-0.4-0.4-0.9-0.7-1.5-0.7h-1.6c-0.7,0-1.2,0.2-1.7,0.7s-0.6,1.1-0.6,1.8v0.4H87.2z"/>
</g>
<rect x="15.4" y="25.8" class="st1" width="73.5" height="4.9"/>
<g class="st2">
	<path class="st3" d="M24.7,25.8h2.8l-0.1,0.4h-2.3l-0.3,1.5h2.1l-0.1,0.4h-2.1L24.4,30h-0.4L24.7,25.8z"/>
	<path class="st3" d="M27.4,29.9c-0.2-0.1-0.2-0.3-0.2-0.5c0,0,0-0.1,0-0.1l0-0.2c0-0.3,0.2-0.5,0.4-0.6c0.2-0.1,0.4-0.2,0.7-0.2
		h0.4c0.1,0,0.3,0,0.4,0.1c0.2,0,0.3,0.1,0.4,0.2l0.1-0.5c0-0.1,0-0.1,0-0.1c0-0.1,0-0.2-0.1-0.3s-0.2-0.1-0.4-0.1h-0.5
		c-0.2,0-0.3,0-0.4,0.1c-0.1,0.1-0.2,0.2-0.2,0.3h-0.4c0-0.2,0.2-0.4,0.4-0.6c0.2-0.1,0.4-0.2,0.7-0.2h0.5c0.3,0,0.5,0.1,0.7,0.2
		s0.2,0.3,0.2,0.6c0,0.1,0,0.1,0,0.2L29.6,30h-0.4l0.1-0.4c-0.1,0.1-0.3,0.3-0.4,0.3s-0.3,0.1-0.4,0.1h-0.4
		C27.8,30.1,27.6,30,27.4,29.9z M28.4,29.7c0.2,0,0.4-0.1,0.5-0.2s0.3-0.3,0.4-0.5l0-0.2c-0.1-0.1-0.2-0.1-0.3-0.2
		c-0.1,0-0.3-0.1-0.4-0.1h-0.4c-0.2,0-0.3,0-0.4,0.1c-0.1,0.1-0.2,0.2-0.2,0.3l0,0.2c0,0,0,0.1,0,0.1c0,0.1,0,0.2,0.1,0.3
		c0.1,0.1,0.2,0.1,0.3,0.1H28.4z"/>
	<path class="st3" d="M31.1,27.1h0.4L31,30h-0.4L31.1,27.1z M31.2,26.5c0,0-0.1-0.1-0.1-0.2c0-0.1,0-0.2,0.1-0.3
		c0.1-0.1,0.2-0.1,0.3-0.1c0.1,0,0.2,0,0.2,0.1c0,0,0.1,0.1,0.1,0.2c0,0.1,0,0.2-0.1,0.3c-0.1,0.1-0.2,0.1-0.3,0.1
		C31.3,26.6,31.3,26.6,31.2,26.5z"/>
	<path class="st3" d="M32.6,29.9c-0.1-0.1-0.2-0.2-0.2-0.5c0-0.1,0-0.2,0-0.3l0.3-1.7h-0.5l0.1-0.4h0.5l0.2-0.9h0.4l-0.2,0.9h0.8
		L34,27.4h-0.8l-0.3,1.7c0,0,0,0.1,0,0.2c0,0.1,0,0.2,0.1,0.3s0.2,0.1,0.3,0.1h0.3L33.5,30h-0.3C32.9,30,32.8,30,32.6,29.9z"/>
	<path class="st3" d="M34.5,29.9c-0.2-0.2-0.3-0.4-0.3-0.6c0-0.1,0-0.1,0-0.2l0.2-0.9c0.1-0.4,0.2-0.6,0.4-0.8
		c0.2-0.2,0.5-0.3,0.8-0.3h0.5c0.3,0,0.5,0.1,0.7,0.2c0.2,0.2,0.3,0.4,0.3,0.7c0,0.1,0,0.1,0,0.2L37,28.6h-2.2L34.7,29
		c0,0,0,0.1,0,0.2c0,0.2,0,0.3,0.1,0.4c0.1,0.1,0.2,0.1,0.4,0.1h0.5c0.2,0,0.4-0.1,0.5-0.2c0.1-0.1,0.2-0.3,0.3-0.4h0.4
		c-0.1,0.3-0.2,0.6-0.4,0.7s-0.5,0.3-0.8,0.3h-0.5C35,30.1,34.7,30,34.5,29.9z M36.7,28.3l0-0.2c0-0.1,0-0.1,0-0.2
		c0-0.2,0-0.3-0.1-0.4c-0.1-0.1-0.2-0.2-0.4-0.2h-0.5c-0.2,0-0.4,0.1-0.5,0.2s-0.2,0.3-0.3,0.6l0,0.1H36.7z"/>
	<path class="st3" d="M37.8,29.9c-0.2-0.1-0.2-0.3-0.2-0.5c0-0.1,0-0.1,0-0.2H38c0,0.1,0,0.1,0,0.1c0,0.1,0,0.2,0.1,0.3
		s0.2,0.1,0.4,0.1H39c0.2,0,0.3,0,0.4-0.1c0.1-0.1,0.2-0.2,0.2-0.3l0-0.2c0,0,0,0,0,0c0-0.1,0-0.1-0.1-0.2c-0.1,0-0.1-0.1-0.2-0.1
		l-1-0.2c-0.2,0-0.3-0.1-0.4-0.2c-0.1-0.1-0.2-0.2-0.2-0.4c0,0,0-0.1,0-0.1l0-0.2c0-0.2,0.2-0.4,0.3-0.6s0.4-0.2,0.7-0.2h0.5
		c0.3,0,0.5,0.1,0.6,0.2c0.2,0.1,0.2,0.3,0.2,0.5c0,0.1,0,0.1,0,0.2h-0.4c0,0,0-0.1,0-0.1c0-0.1,0-0.2-0.1-0.3
		c-0.1-0.1-0.2-0.1-0.3-0.1h-0.5c-0.2,0-0.3,0-0.4,0.1c-0.1,0.1-0.2,0.2-0.2,0.3l0,0.2c0,0.1,0,0.1,0.1,0.2c0.1,0.1,0.1,0.1,0.2,0.1
		l1,0.2c0.2,0,0.3,0.1,0.4,0.2c0.1,0.1,0.1,0.2,0.1,0.4c0,0,0,0.1,0,0.1l0,0.2c0,0.2-0.2,0.4-0.3,0.5c-0.2,0.1-0.4,0.2-0.7,0.2h-0.5
		C38.2,30.1,37.9,30,37.8,29.9z"/>
	<path class="st3" d="M42.5,29.9c-0.2-0.2-0.2-0.4-0.2-0.6c0-0.1,0-0.2,0-0.3l0.1-0.7c0.1-0.4,0.2-0.7,0.4-0.9
		c0.2-0.2,0.5-0.3,0.8-0.3h0.4c0.2,0,0.3,0,0.4,0.1c0.1,0.1,0.2,0.2,0.3,0.3l0.3-1.5h0.4L44.8,30h-0.4l0.1-0.4
		c-0.1,0.1-0.2,0.3-0.4,0.4c-0.1,0.1-0.3,0.1-0.4,0.1h-0.4C42.9,30.1,42.7,30,42.5,29.9z M43.6,29.7c0.1,0,0.3,0,0.4-0.1
		c0.1-0.1,0.2-0.2,0.3-0.3c0.1-0.1,0.2-0.3,0.2-0.4l0.1-0.8c0-0.2,0-0.4-0.1-0.5c-0.1-0.1-0.3-0.2-0.4-0.2h-0.4
		c-0.2,0-0.4,0.1-0.5,0.2c-0.2,0.2-0.3,0.4-0.3,0.6l-0.1,0.7c0,0.1,0,0.1,0,0.2c0,0.2,0,0.3,0.1,0.4c0.1,0.1,0.2,0.1,0.4,0.1H43.6z"
		/>
	<path class="st3" d="M46,29.9c-0.1-0.1-0.2-0.3-0.2-0.6c0-0.1,0-0.1,0-0.2l0.4-2h0.4l-0.4,2c0,0.1,0,0.1,0,0.2c0,0.1,0,0.2,0.1,0.3
		s0.2,0.1,0.3,0.1H47c0.2,0,0.4-0.1,0.5-0.2c0.2-0.1,0.3-0.3,0.4-0.6l0.3-1.9h0.4l-0.5,3h-0.4l0.1-0.5c-0.1,0.2-0.3,0.3-0.4,0.4
		c-0.2,0.1-0.3,0.1-0.4,0.1h-0.4C46.4,30.1,46.2,30,46,29.9z"/>
	<path class="st3" d="M51.4,29.7l-0.6-2.7h0.4l0.5,2.5h0l1.4-2.5h0.5l-1.7,3h-0.2C51.5,30,51.4,29.9,51.4,29.7z"/>
	<path class="st3" d="M53.9,29.9c-0.2-0.2-0.3-0.4-0.3-0.6c0-0.1,0-0.1,0-0.2l0.2-0.9c0.1-0.4,0.2-0.6,0.4-0.8
		c0.2-0.2,0.5-0.3,0.8-0.3h0.5c0.3,0,0.5,0.1,0.7,0.2s0.3,0.4,0.3,0.7c0,0.1,0,0.1,0,0.2l-0.1,0.5h-2.2L54.1,29c0,0,0,0.1,0,0.2
		c0,0.2,0,0.3,0.2,0.4c0.1,0.1,0.2,0.1,0.4,0.1h0.5c0.2,0,0.4-0.1,0.5-0.2s0.2-0.3,0.3-0.4h0.4c-0.1,0.3-0.2,0.6-0.4,0.7
		s-0.5,0.3-0.8,0.3h-0.5C54.3,30.1,54,30,53.9,29.9z M56,28.3l0-0.2c0-0.1,0-0.1,0-0.2c0-0.2,0-0.3-0.1-0.4
		c-0.1-0.1-0.2-0.2-0.4-0.2H55c-0.2,0-0.4,0.1-0.5,0.2c-0.1,0.1-0.2,0.3-0.3,0.6l0,0.1H56z M55.8,25.7h0.5l-0.8,0.9h-0.4L55.8,25.7z
		"/>
	<path class="st3" d="M57.2,29.9C57,29.8,57,29.7,57,29.5c0-0.1,0-0.2,0-0.3l0.6-3.4H58l-0.6,3.4c0,0.1,0,0.1,0,0.2
		c0,0.1,0,0.2,0.1,0.2c0.1,0,0.1,0.1,0.3,0.1H58L57.9,30h-0.2C57.5,30,57.3,30,57.2,29.9z"/>
	<path class="st3" d="M58.8,29.9c-0.2-0.2-0.3-0.4-0.3-0.7c0-0.1,0-0.1,0-0.2l0.1-0.8c0.1-0.4,0.2-0.6,0.4-0.8S59.6,27,60,27h0.5
		c0.3,0,0.6,0.1,0.7,0.2c0.2,0.2,0.3,0.4,0.3,0.7c0,0.1,0,0.1,0,0.2L61.3,29c-0.1,0.4-0.2,0.6-0.4,0.8c-0.2,0.2-0.5,0.3-0.8,0.3
		h-0.5C59.2,30.1,59,30,58.8,29.9z M60,29.7c0.2,0,0.4-0.1,0.5-0.2c0.2-0.1,0.3-0.3,0.3-0.5l0.1-0.8c0-0.1,0-0.1,0-0.2
		c0-0.2-0.1-0.3-0.2-0.4c-0.1-0.1-0.2-0.2-0.4-0.2H60c-0.2,0-0.4,0.1-0.5,0.2c-0.1,0.1-0.2,0.3-0.3,0.6L59,29c0,0.1,0,0.1,0,0.2
		c0,0.2,0.1,0.3,0.2,0.4c0.1,0.1,0.2,0.2,0.4,0.2H60z"/>
	<path class="st3" d="M63.8,29.9c-0.1-0.1-0.2-0.3-0.2-0.6c0-0.1,0-0.1,0-0.2l0.4-2h0.4l-0.4,2c0,0.1,0,0.1,0,0.2
		c0,0.1,0,0.2,0.1,0.3s0.2,0.1,0.3,0.1h0.4c0.2,0,0.4-0.1,0.5-0.2c0.2-0.1,0.3-0.3,0.4-0.6l0.3-1.9h0.4L66,30h-0.4l0.1-0.5
		c-0.1,0.2-0.3,0.3-0.4,0.4c-0.2,0.1-0.3,0.1-0.4,0.1h-0.4C64.2,30.1,63.9,30,63.8,29.9z"/>
	<path class="st3" d="M67.4,27.1h0.4l-0.1,0.4c0.1-0.2,0.3-0.3,0.4-0.4c0.2-0.1,0.3-0.1,0.4-0.1H69c0.3,0,0.5,0.1,0.6,0.2
		c0.1,0.1,0.2,0.3,0.2,0.6c0,0.1,0,0.1,0,0.2l-0.4,2H69l0.4-2c0,0,0-0.1,0-0.2c0-0.1,0-0.3-0.1-0.3c-0.1-0.1-0.2-0.1-0.3-0.1h-0.4
		c-0.2,0-0.4,0.1-0.6,0.2c-0.2,0.1-0.3,0.3-0.4,0.6L67.3,30h-0.4L67.4,27.1z"/>
	<path class="st3" d="M72.4,27.1h0.4l-0.1,0.4c0.1-0.1,0.2-0.3,0.4-0.3c0.1-0.1,0.3-0.1,0.4-0.1h0.4c0.3,0,0.5,0.1,0.7,0.2
		c0.2,0.2,0.3,0.4,0.3,0.6c0,0,0,0.1,0,0.2l-0.1,0.7c-0.1,0.4-0.2,0.7-0.4,0.9c-0.2,0.2-0.5,0.3-0.8,0.3h-0.4c-0.2,0-0.3,0-0.4-0.1
		c-0.1-0.1-0.2-0.2-0.3-0.3l-0.3,1.5h-0.4L72.4,27.1z M73.5,29.7c0.2,0,0.4-0.1,0.5-0.2c0.1-0.2,0.2-0.4,0.3-0.6l0.1-0.7
		c0-0.1,0-0.1,0-0.2c0-0.2,0-0.3-0.1-0.4c-0.1-0.1-0.2-0.2-0.4-0.2h-0.4c-0.2,0-0.3,0.1-0.5,0.2s-0.3,0.3-0.4,0.5L72.5,29
		c0,0.2,0,0.4,0.2,0.5c0.1,0.1,0.3,0.2,0.5,0.2H73.5z"/>
	<path class="st3" d="M75.6,29.9c-0.1-0.1-0.2-0.2-0.2-0.4c0-0.1,0-0.2,0-0.3l0.6-3.4h0.4l-0.6,3.4c0,0.1,0,0.1,0,0.2
		c0,0.1,0,0.2,0.1,0.2s0.1,0.1,0.3,0.1h0.2L76.4,30h-0.2C75.9,30,75.7,30,75.6,29.9z"/>
	<path class="st3" d="M77.2,29.9c-0.2-0.1-0.2-0.3-0.2-0.5c0,0,0-0.1,0-0.1l0-0.2c0-0.3,0.2-0.5,0.4-0.6c0.2-0.1,0.4-0.2,0.7-0.2
		h0.4c0.1,0,0.3,0,0.4,0.1c0.2,0,0.3,0.1,0.4,0.2l0.1-0.5c0-0.1,0-0.1,0-0.1c0-0.1,0-0.2-0.1-0.3c-0.1-0.1-0.2-0.1-0.4-0.1h-0.5
		c-0.2,0-0.3,0-0.4,0.1s-0.2,0.2-0.2,0.3h-0.4c0-0.2,0.2-0.4,0.4-0.6c0.2-0.1,0.4-0.2,0.7-0.2h0.5c0.3,0,0.5,0.1,0.7,0.2
		s0.2,0.3,0.2,0.6c0,0.1,0,0.1,0,0.2L79.4,30H79l0.1-0.4c-0.1,0.1-0.3,0.3-0.4,0.3c-0.1,0.1-0.3,0.1-0.5,0.1h-0.4
		C77.6,30.1,77.4,30,77.2,29.9z M78.2,29.7c0.2,0,0.4-0.1,0.5-0.2c0.2-0.1,0.3-0.3,0.4-0.5l0-0.2c-0.1-0.1-0.2-0.1-0.3-0.2
		c-0.1,0-0.3-0.1-0.4-0.1h-0.4c-0.2,0-0.3,0-0.4,0.1c-0.1,0.1-0.2,0.2-0.2,0.3l0,0.2c0,0,0,0.1,0,0.1c0,0.1,0,0.2,0.1,0.3
		c0.1,0.1,0.2,0.1,0.3,0.1H78.2z"/>
	<path class="st3" d="M80.9,27.1h0.4l-0.5,3h-0.4L80.9,27.1z M81,26.5c0,0-0.1-0.1-0.1-0.2c0-0.1,0-0.2,0.1-0.3
		c0.1-0.1,0.2-0.1,0.3-0.1c0.1,0,0.2,0,0.2,0.1c0.1,0,0.1,0.1,0.1,0.2c0,0.1,0,0.2-0.1,0.3c-0.1,0.1-0.2,0.1-0.3,0.1
		C81.1,26.6,81.1,26.6,81,26.5z"/>
	<path class="st3" d="M82.1,29.9c-0.2-0.1-0.2-0.3-0.2-0.5c0-0.1,0-0.1,0-0.2h0.4c0,0.1,0,0.1,0,0.1c0,0.1,0,0.2,0.1,0.3
		c0.1,0.1,0.2,0.1,0.4,0.1h0.5c0.2,0,0.3,0,0.4-0.1c0.1-0.1,0.2-0.2,0.2-0.3l0-0.2c0,0,0,0,0,0c0-0.1,0-0.1-0.1-0.2
		s-0.1-0.1-0.2-0.1l-1-0.2c-0.2,0-0.3-0.1-0.4-0.2c-0.1-0.1-0.2-0.2-0.2-0.4c0,0,0-0.1,0-0.1l0-0.2c0-0.2,0.2-0.4,0.3-0.6
		s0.4-0.2,0.7-0.2h0.5c0.3,0,0.5,0.1,0.6,0.2s0.2,0.3,0.2,0.5c0,0.1,0,0.1,0,0.2h-0.4c0,0,0-0.1,0-0.1c0-0.1,0-0.2-0.1-0.3
		c-0.1-0.1-0.2-0.1-0.3-0.1h-0.5c-0.2,0-0.3,0-0.4,0.1c-0.1,0.1-0.2,0.2-0.2,0.3l0,0.2c0,0.1,0,0.1,0.1,0.2c0.1,0.1,0.1,0.1,0.2,0.1
		l1,0.2c0.2,0,0.3,0.1,0.4,0.2c0.1,0.1,0.2,0.2,0.2,0.4c0,0,0,0.1,0,0.1l0,0.2c0,0.2-0.2,0.4-0.3,0.5c-0.2,0.1-0.4,0.2-0.7,0.2h-0.5
		C82.5,30.1,82.2,30,82.1,29.9z"/>
	<path class="st3" d="M85.6,27.1H86l-0.5,3h-0.4L85.6,27.1z M85.7,26.5c0,0-0.1-0.1-0.1-0.2c0-0.1,0-0.2,0.1-0.3
		C85.8,26,85.9,26,86,26c0.1,0,0.2,0,0.2,0.1c0.1,0,0.1,0.1,0.1,0.2c0,0.1,0,0.2-0.1,0.3c-0.1,0.1-0.2,0.1-0.3,0.1
		C85.8,26.6,85.7,26.6,85.7,26.5z"/>
	<path class="st3" d="M87,27.1h0.4l-0.1,0.5c0.1-0.1,0.2-0.3,0.4-0.3s0.3-0.1,0.5-0.1h0.3l-0.1,0.4h-0.3c-0.3,0-0.5,0.1-0.7,0.2
		c-0.2,0.2-0.3,0.4-0.4,0.6L87,30h-0.4L87,27.1z"/>
</g>
</svg>
