<?xml version="1.0" encoding="utf-8"?>
<!-- Generator: Adobe Illustrator 25.4.1, SVG Export Plug-In . SVG Version: 6.00 Build 0)  -->
<svg version="1.1" id="Calque_1" xmlns="http://www.w3.org/2000/svg" xmlns:xlink="http://www.w3.org/1999/xlink" x="0px" y="0px"
	 viewBox="0 0 90.3 31.2" style="enable-background:new 0 0 90.3 31.2;" xml:space="preserve">
<style type="text/css">
	.st0{fill:#F0F4FC;}
	.st1{fill:#78D1FF;}
</style>
<g>
	<path class="st0" d="M1.9,16c-0.2-0.2-0.3-0.5-0.3-1V2.3h1.5V15h7.6v1.3H2.9C2.5,16.3,2.2,16.2,1.9,16z"/>
	<path class="st0" d="M13.1,15.5c-0.7-0.7-1-1.5-1-2.6V10c0-1.1,0.3-2.1,1-2.8c0.7-0.7,1.6-1,2.7-1h1.6c1.1,0,1.9,0.3,2.6,1
		c0.7,0.7,1,1.6,1,2.7v1.8h-7.5v1.2c0,0.7,0.2,1.3,0.6,1.7c0.4,0.4,1,0.6,1.6,0.6h1.5c0.7,0,1.2-0.2,1.6-0.5
		c0.4-0.4,0.6-0.9,0.6-1.5H21c0,1-0.3,1.8-1,2.4c-0.7,0.6-1.5,0.9-2.6,0.9h-1.5C14.7,16.5,13.8,16.2,13.1,15.5z M19.6,10.4V9.9
		c0-0.7-0.2-1.3-0.6-1.8c-0.4-0.4-0.9-0.7-1.5-0.7h-1.6c-0.7,0-1.2,0.2-1.6,0.7c-0.4,0.5-0.6,1.1-0.6,1.8v0.4H19.6z"/>
	<path class="st0" d="M25,15.6c-0.5-0.5-0.7-1.2-0.7-2.2V7.6h-1.8V6.3h1.8v-3h1.4v3h2.6v1.3h-2.6v5.8c0,0.6,0.1,1,0.4,1.3
		c0.2,0.3,0.6,0.4,1.2,0.4h1.1v1.3h-1.1C26.3,16.3,25.5,16.1,25,15.6z"/>
	<path class="st0" d="M30.4,5.7l0.3-0.2c0.4-0.3,0.7-0.6,0.9-0.9s0.3-0.8,0.3-1.2v-1h1.4v1c0,0.7-0.1,1.4-0.4,1.9
		c-0.3,0.5-0.7,1-1.3,1.3l-0.4,0.2L30.4,5.7z"/>
</g>
<g>
	<path class="st0" d="M56.2,16.5c-0.5-0.3-0.9-0.6-1.1-1v1.3h-1.4v-14h1.4v5.2c0.3-0.4,0.7-0.7,1.1-1c0.5-0.2,0.9-0.4,1.4-0.4H59
		c0.7,0,1.3,0.2,1.8,0.5c0.5,0.3,0.9,0.8,1.2,1.3c0.3,0.6,0.4,1.2,0.4,1.9v2.6c0,0.8-0.2,1.5-0.4,2.1c-0.3,0.6-0.7,1.1-1.3,1.4
		s-1.2,0.5-1.9,0.5h-1.4C57.1,16.9,56.6,16.8,56.2,16.5z M58.9,15.6c0.6,0,1.2-0.2,1.6-0.8c0.4-0.5,0.6-1.1,0.6-2v-2.6
		c0-0.7-0.2-1.3-0.6-1.8c-0.4-0.5-0.9-0.7-1.5-0.7h-1.3c-0.7,0-1.3,0.3-1.8,0.8s-0.8,1.2-0.8,2v2.4c0,0.5,0.2,0.9,0.4,1.3
		s0.5,0.7,0.9,0.9s0.8,0.3,1.2,0.3H58.9z"/>
	<path class="st0" d="M65.5,5c-0.2-0.2-0.3-0.5-0.3-0.8c0-0.3,0.1-0.6,0.3-0.8c0.2-0.2,0.5-0.3,0.8-0.3c0.3,0,0.6,0.1,0.8,0.3
		c0.2,0.2,0.3,0.5,0.3,0.8c0,0.3-0.1,0.6-0.3,0.8c-0.2,0.2-0.5,0.3-0.8,0.3C65.9,5.3,65.7,5.2,65.5,5z M65.5,6.8H67v10h-1.4V6.8z"/>
	<path class="st0" d="M77.1,16.7L73.2,12l-1.4,1.4v3.3h-1.4v-14h1.4v8.9l4.9-4.9h1.8L74.2,11l4.6,5.7H77.1z"/>
	<path class="st0" d="M80.7,15.9c-0.7-0.7-1-1.5-1-2.6v-2.9c0-1.1,0.3-2.1,1-2.8c0.7-0.7,1.6-1,2.7-1H85c1.1,0,1.9,0.3,2.6,1
		c0.7,0.7,1,1.6,1,2.7v1.8h-7.5v1.2c0,0.7,0.2,1.3,0.6,1.7c0.4,0.4,1,0.6,1.7,0.6h1.5c0.7,0,1.2-0.2,1.6-0.5
		c0.4-0.4,0.6-0.9,0.6-1.5h1.4c0,1-0.3,1.8-1,2.4c-0.7,0.6-1.5,0.9-2.6,0.9h-1.5C82.3,16.9,81.4,16.6,80.7,15.9z M87.2,10.8v-0.5
		c0-0.7-0.2-1.3-0.6-1.8c-0.4-0.4-0.9-0.7-1.5-0.7h-1.6c-0.7,0-1.2,0.2-1.7,0.7s-0.6,1.1-0.6,1.8v0.4H87.2z"/>
</g>
<g>
	<path class="st1" d="M42.2,20.7c-1.5-0.3-2.7-1.3-3.7-2.8l2.2-1.4c0.6,0.9,1.3,1.5,2.2,1.7c0.9,0.2,1.8,0,2.6-0.5l2.6-1.7
		c0.9-0.5,1.4-1.2,1.7-1.9c0.3-0.7,0.2-1.4-0.2-2l-0.8-1.3c-0.3-0.5-0.8-0.8-1.3-0.9c-0.6-0.1-1.2,0-2,0.3l-4.8,2
		c-1.4,0.6-2.6,0.8-3.7,0.6s-2-0.8-2.6-1.8l-0.8-1.3c-0.8-1.2-0.9-2.4-0.5-3.7c0.5-1.3,1.4-2.4,2.9-3.3L38.8,1
		c0.9-0.6,1.9-0.9,2.8-1c1-0.1,1.9,0.1,2.7,0.6s1.5,1.1,2.1,2l-2.2,1.4c-0.5-0.8-1.1-1.3-1.9-1.5c-0.8-0.2-1.5,0-2.3,0.4l-2.7,1.7
		c-0.8,0.5-1.3,1.1-1.6,1.8S35.6,7.8,36,8.4l0.7,1.1c0.3,0.5,0.8,0.8,1.3,0.9c0.6,0.1,1.2,0,2-0.3l4.7-2c1.4-0.6,2.7-0.8,3.8-0.6
		c1.1,0.2,2,0.8,2.6,1.7l1,1.5c0.8,1.2,0.9,2.5,0.4,3.8C52,15.9,51,17,49.5,18l-2.7,1.7C45.2,20.7,43.7,21,42.2,20.7z"/>
</g>
<g>
	<path class="st0" d="M23.5,25.8h2.8l-0.1,0.4h-2.3l-0.3,1.5h2.1l-0.1,0.4h-2.1L23.2,30h-0.4L23.5,25.8z"/>
	<path class="st0" d="M26.2,29.9c-0.2-0.1-0.2-0.3-0.2-0.5c0,0,0-0.1,0-0.1l0-0.2c0-0.3,0.2-0.5,0.4-0.6c0.2-0.1,0.4-0.2,0.7-0.2
		h0.4c0.1,0,0.3,0,0.4,0.1c0.2,0,0.3,0.1,0.4,0.2l0.1-0.5c0-0.1,0-0.1,0-0.1c0-0.1,0-0.2-0.1-0.3s-0.2-0.1-0.4-0.1h-0.5
		c-0.2,0-0.3,0-0.4,0.1c-0.1,0.1-0.2,0.2-0.2,0.3h-0.4c0-0.2,0.2-0.4,0.4-0.6c0.2-0.1,0.4-0.2,0.7-0.2h0.5c0.3,0,0.5,0.1,0.7,0.2
		s0.2,0.3,0.2,0.6c0,0.1,0,0.1,0,0.2L28.4,30H28l0.1-0.4c-0.1,0.1-0.3,0.3-0.4,0.3s-0.3,0.1-0.4,0.1h-0.4
		C26.6,30.1,26.4,30,26.2,29.9z M27.2,29.7c0.2,0,0.4-0.1,0.5-0.2s0.3-0.3,0.4-0.5l0-0.2c-0.1-0.1-0.2-0.1-0.3-0.2
		c-0.1,0-0.3-0.1-0.4-0.1h-0.4c-0.2,0-0.3,0-0.4,0.1c-0.1,0.1-0.2,0.2-0.2,0.3l0,0.2c0,0,0,0.1,0,0.1c0,0.1,0,0.2,0.1,0.3
		c0.1,0.1,0.2,0.1,0.3,0.1H27.2z"/>
	<path class="st0" d="M29.9,27h0.4l-0.5,3h-0.4L29.9,27z M30,26.5c0,0-0.1-0.1-0.1-0.2c0-0.1,0-0.2,0.1-0.3c0.1-0.1,0.2-0.1,0.3-0.1
		c0.1,0,0.2,0,0.2,0.1c0,0,0.1,0.1,0.1,0.2c0,0.1,0,0.2-0.1,0.3c-0.1,0.1-0.2,0.1-0.3,0.1C30.1,26.6,30.1,26.5,30,26.5z"/>
	<path class="st0" d="M31.4,29.9c-0.1-0.1-0.2-0.2-0.2-0.5c0-0.1,0-0.2,0-0.3l0.3-1.7h-0.5l0.1-0.4h0.5l0.2-0.9h0.4L32.1,27h0.8
		l-0.1,0.4H32l-0.3,1.7c0,0,0,0.1,0,0.2c0,0.1,0,0.2,0.1,0.3s0.2,0.1,0.3,0.1h0.3L32.3,30H32C31.8,30,31.6,30,31.4,29.9z"/>
	<path class="st0" d="M33.4,29.8c-0.2-0.2-0.3-0.4-0.3-0.6c0-0.1,0-0.1,0-0.2l0.2-0.9c0.1-0.4,0.2-0.6,0.4-0.8
		c0.2-0.2,0.5-0.3,0.8-0.3H35c0.3,0,0.5,0.1,0.7,0.2c0.2,0.2,0.3,0.4,0.3,0.7c0,0.1,0,0.1,0,0.2l-0.1,0.5h-2.2L33.5,29
		c0,0,0,0.1,0,0.2c0,0.2,0,0.3,0.1,0.4c0.1,0.1,0.2,0.1,0.4,0.1h0.5c0.2,0,0.4-0.1,0.5-0.2c0.1-0.1,0.2-0.3,0.3-0.4h0.4
		c-0.1,0.3-0.2,0.6-0.4,0.7s-0.5,0.3-0.8,0.3h-0.5C33.8,30.1,33.5,30,33.4,29.8z M35.5,28.2l0-0.2c0-0.1,0-0.1,0-0.2
		c0-0.2,0-0.3-0.1-0.4c-0.1-0.1-0.2-0.2-0.4-0.2h-0.5c-0.2,0-0.4,0.1-0.5,0.2s-0.2,0.3-0.3,0.6l0,0.1H35.5z"/>
	<path class="st0" d="M36.6,29.9c-0.2-0.1-0.2-0.3-0.2-0.5c0-0.1,0-0.1,0-0.2h0.4c0,0.1,0,0.1,0,0.1c0,0.1,0,0.2,0.1,0.3
		s0.2,0.1,0.4,0.1h0.5c0.2,0,0.3,0,0.4-0.1c0.1-0.1,0.2-0.2,0.2-0.3l0-0.2c0,0,0,0,0,0c0-0.1,0-0.1-0.1-0.2c-0.1,0-0.1-0.1-0.2-0.1
		l-1-0.2c-0.2,0-0.3-0.1-0.4-0.2c-0.1-0.1-0.2-0.2-0.2-0.4c0,0,0-0.1,0-0.1l0-0.2c0-0.2,0.2-0.4,0.3-0.6s0.4-0.2,0.7-0.2h0.5
		c0.3,0,0.5,0.1,0.6,0.2c0.2,0.1,0.2,0.3,0.2,0.5c0,0.1,0,0.1,0,0.2h-0.4c0,0,0-0.1,0-0.1c0-0.1,0-0.2-0.1-0.3
		c-0.1-0.1-0.2-0.1-0.3-0.1h-0.5c-0.2,0-0.3,0-0.4,0.1c-0.1,0.1-0.2,0.2-0.2,0.3l0,0.2c0,0.1,0,0.1,0.1,0.2c0.1,0.1,0.1,0.1,0.2,0.1
		l1,0.2c0.2,0,0.3,0.1,0.4,0.2c0.1,0.1,0.1,0.2,0.1,0.4c0,0,0,0.1,0,0.1l0,0.2c0,0.2-0.2,0.4-0.3,0.5c-0.2,0.1-0.4,0.2-0.7,0.2h-0.5
		C37,30.1,36.7,30,36.6,29.9z"/>
	<path class="st0" d="M41.3,29.8c-0.2-0.2-0.2-0.4-0.2-0.6c0-0.1,0-0.2,0-0.3l0.1-0.7c0.1-0.4,0.2-0.7,0.4-0.9
		c0.2-0.2,0.5-0.3,0.8-0.3h0.4c0.2,0,0.3,0,0.4,0.1c0.1,0.1,0.2,0.2,0.3,0.3l0.3-1.5h0.4L43.6,30h-0.4l0.1-0.4
		c-0.1,0.1-0.2,0.3-0.4,0.4c-0.1,0.1-0.3,0.1-0.4,0.1H42C41.7,30.1,41.5,30,41.3,29.8z M42.4,29.7c0.1,0,0.3,0,0.4-0.1
		c0.1-0.1,0.2-0.2,0.3-0.3c0.1-0.1,0.2-0.3,0.2-0.4l0.1-0.8c0-0.2,0-0.4-0.1-0.5c-0.1-0.1-0.3-0.2-0.4-0.2h-0.4
		c-0.2,0-0.4,0.1-0.5,0.2c-0.2,0.2-0.3,0.4-0.3,0.6l-0.1,0.7c0,0.1,0,0.1,0,0.2c0,0.2,0,0.3,0.1,0.4c0.1,0.1,0.2,0.1,0.4,0.1H42.4z"
		/>
	<path class="st0" d="M44.8,29.8c-0.1-0.1-0.2-0.3-0.2-0.6c0-0.1,0-0.1,0-0.2l0.4-2h0.4l-0.4,2c0,0.1,0,0.1,0,0.2
		c0,0.1,0,0.2,0.1,0.3s0.2,0.1,0.3,0.1h0.4c0.2,0,0.4-0.1,0.5-0.2c0.2-0.1,0.3-0.3,0.4-0.6l0.3-1.9h0.4L47,30h-0.4l0.1-0.5
		c-0.1,0.2-0.3,0.3-0.4,0.4c-0.2,0.1-0.3,0.1-0.4,0.1h-0.4C45.2,30.1,45,30,44.8,29.8z"/>
	<path class="st0" d="M50.2,29.7L49.7,27h0.4l0.5,2.5h0l1.4-2.5h0.5l-1.7,3h-0.2C50.4,30,50.3,29.9,50.2,29.7z"/>
	<path class="st0" d="M52.7,29.8c-0.2-0.2-0.3-0.4-0.3-0.6c0-0.1,0-0.1,0-0.2l0.2-0.9c0.1-0.4,0.2-0.6,0.4-0.8s0.5-0.3,0.8-0.3h0.5
		c0.3,0,0.5,0.1,0.7,0.2s0.3,0.4,0.3,0.7c0,0.1,0,0.1,0,0.2l-0.1,0.5h-2.2L52.9,29c0,0,0,0.1,0,0.2c0,0.2,0,0.3,0.2,0.4
		c0.1,0.1,0.2,0.1,0.4,0.1h0.5c0.2,0,0.4-0.1,0.5-0.2c0.1-0.1,0.2-0.3,0.3-0.4h0.4c-0.1,0.3-0.2,0.6-0.4,0.7s-0.5,0.3-0.8,0.3h-0.5
		C53.1,30.1,52.9,30,52.7,29.8z M54.8,28.2l0-0.2c0-0.1,0-0.1,0-0.2c0-0.2,0-0.3-0.1-0.4c-0.1-0.1-0.2-0.2-0.4-0.2h-0.5
		c-0.2,0-0.4,0.1-0.5,0.2c-0.1,0.1-0.2,0.3-0.3,0.6l0,0.1H54.8z M54.6,25.6h0.5l-0.8,0.9H54L54.6,25.6z"/>
	<path class="st0" d="M56,29.9c-0.1-0.1-0.2-0.2-0.2-0.4c0-0.1,0-0.2,0-0.3l0.6-3.4h0.4l-0.6,3.4c0,0.1,0,0.1,0,0.2
		c0,0.1,0,0.2,0.1,0.2s0.1,0.1,0.3,0.1h0.2L56.7,30h-0.2C56.3,30,56.1,30,56,29.9z"/>
	<path class="st0" d="M57.6,29.8c-0.2-0.2-0.3-0.4-0.3-0.7c0-0.1,0-0.1,0-0.2l0.1-0.8c0.1-0.4,0.2-0.6,0.4-0.8s0.5-0.3,0.8-0.3h0.5
		c0.3,0,0.6,0.1,0.7,0.2c0.2,0.2,0.3,0.4,0.3,0.7c0,0.1,0,0.1,0,0.2l-0.1,0.8c-0.1,0.4-0.2,0.6-0.4,0.8c-0.2,0.2-0.5,0.3-0.8,0.3
		h-0.5C58,30.1,57.8,30,57.6,29.8z M58.8,29.7c0.2,0,0.4-0.1,0.5-0.2s0.3-0.3,0.3-0.5l0.1-0.8c0-0.1,0-0.1,0-0.2
		c0-0.2-0.1-0.3-0.2-0.4c-0.1-0.1-0.2-0.2-0.4-0.2h-0.5c-0.2,0-0.4,0.1-0.5,0.2c-0.1,0.1-0.2,0.3-0.3,0.6l-0.1,0.8
		c0,0.1,0,0.1,0,0.2c0,0.2,0.1,0.3,0.2,0.4c0.1,0.1,0.2,0.2,0.4,0.2H58.8z"/>
	<path class="st0" d="M62.6,29.8c-0.1-0.1-0.2-0.3-0.2-0.6c0-0.1,0-0.1,0-0.2l0.4-2h0.4l-0.4,2c0,0.1,0,0.1,0,0.2
		c0,0.1,0,0.2,0.1,0.3c0.1,0.1,0.2,0.1,0.3,0.1h0.4c0.2,0,0.4-0.1,0.5-0.2c0.2-0.1,0.3-0.3,0.4-0.6l0.3-1.9h0.4l-0.5,3h-0.4l0.1-0.5
		c-0.1,0.2-0.3,0.3-0.4,0.4c-0.2,0.1-0.3,0.1-0.4,0.1h-0.4C63,30.1,62.8,30,62.6,29.8z"/>
	<path class="st0" d="M66.2,27h0.4l-0.1,0.4c0.1-0.2,0.3-0.3,0.4-0.4c0.2-0.1,0.3-0.1,0.4-0.1h0.4c0.3,0,0.5,0.1,0.6,0.2
		c0.1,0.1,0.2,0.3,0.2,0.6c0,0.1,0,0.1,0,0.2l-0.4,2h-0.4l0.4-2c0,0,0-0.1,0-0.2c0-0.1,0-0.3-0.1-0.3s-0.2-0.1-0.3-0.1h-0.4
		c-0.2,0-0.4,0.1-0.6,0.2c-0.2,0.1-0.3,0.3-0.4,0.6L66.1,30h-0.4L66.2,27z"/>
	<path class="st0" d="M71.2,27h0.4l-0.1,0.4c0.1-0.1,0.2-0.3,0.4-0.3c0.1-0.1,0.3-0.1,0.4-0.1h0.4c0.3,0,0.5,0.1,0.7,0.2
		c0.2,0.2,0.3,0.4,0.3,0.6c0,0,0,0.1,0,0.2l-0.1,0.7c-0.1,0.4-0.2,0.7-0.4,0.9c-0.2,0.2-0.5,0.3-0.8,0.3h-0.4c-0.2,0-0.3,0-0.4-0.1
		c-0.1-0.1-0.2-0.2-0.3-0.3l-0.3,1.5h-0.4L71.2,27z M72.3,29.7c0.2,0,0.4-0.1,0.5-0.2c0.1-0.2,0.2-0.4,0.3-0.6l0.1-0.7
		c0-0.1,0-0.1,0-0.2c0-0.2,0-0.3-0.1-0.4c-0.1-0.1-0.2-0.2-0.4-0.2h-0.4c-0.2,0-0.3,0.1-0.5,0.2s-0.3,0.3-0.4,0.5L71.3,29
		c0,0.2,0,0.4,0.2,0.5s0.3,0.2,0.5,0.2H72.3z"/>
	<path class="st0" d="M74.4,29.9c-0.1-0.1-0.2-0.2-0.2-0.4c0-0.1,0-0.2,0-0.3l0.6-3.4h0.4l-0.6,3.4c0,0.1,0,0.1,0,0.2
		c0,0.1,0,0.2,0.1,0.2s0.1,0.1,0.3,0.1h0.2L75.2,30H75C74.7,30,74.6,30,74.4,29.9z"/>
	<path class="st0" d="M76,29.9c-0.2-0.1-0.2-0.3-0.2-0.5c0,0,0-0.1,0-0.1l0-0.2c0-0.3,0.2-0.5,0.4-0.6c0.2-0.1,0.4-0.2,0.7-0.2h0.4
		c0.1,0,0.3,0,0.4,0.1c0.2,0,0.3,0.1,0.4,0.2l0.1-0.5c0-0.1,0-0.1,0-0.1c0-0.1,0-0.2-0.1-0.3c-0.1-0.1-0.2-0.1-0.4-0.1h-0.5
		c-0.2,0-0.3,0-0.4,0.1s-0.2,0.2-0.2,0.3h-0.4c0-0.2,0.2-0.4,0.4-0.6c0.2-0.1,0.4-0.2,0.7-0.2h0.5c0.3,0,0.5,0.1,0.7,0.2
		s0.2,0.3,0.2,0.6c0,0.1,0,0.1,0,0.2L78.2,30h-0.4l0.1-0.4c-0.1,0.1-0.3,0.3-0.4,0.3c-0.1,0.1-0.3,0.1-0.5,0.1h-0.4
		C76.4,30.1,76.2,30,76,29.9z M77,29.7c0.2,0,0.4-0.1,0.5-0.2c0.2-0.1,0.3-0.3,0.4-0.5l0-0.2c-0.1-0.1-0.2-0.1-0.3-0.2
		c-0.1,0-0.3-0.1-0.4-0.1h-0.4c-0.2,0-0.3,0-0.4,0.1c-0.1,0.1-0.2,0.2-0.2,0.3l0,0.2c0,0,0,0.1,0,0.1c0,0.1,0,0.2,0.1,0.3
		c0.1,0.1,0.2,0.1,0.3,0.1H77z"/>
	<path class="st0" d="M79.7,27h0.4l-0.5,3h-0.4L79.7,27z M79.8,26.5c0,0-0.1-0.1-0.1-0.2c0-0.1,0-0.2,0.1-0.3
		c0.1-0.1,0.2-0.1,0.3-0.1c0.1,0,0.2,0,0.2,0.1c0.1,0,0.1,0.1,0.1,0.2c0,0.1,0,0.2-0.1,0.3c-0.1,0.1-0.2,0.1-0.3,0.1
		C79.9,26.6,79.9,26.5,79.8,26.5z"/>
	<path class="st0" d="M80.9,29.9c-0.2-0.1-0.2-0.3-0.2-0.5c0-0.1,0-0.1,0-0.2h0.4c0,0.1,0,0.1,0,0.1c0,0.1,0,0.2,0.1,0.3
		c0.1,0.1,0.2,0.1,0.4,0.1h0.5c0.2,0,0.3,0,0.4-0.1c0.1-0.1,0.2-0.2,0.2-0.3l0-0.2c0,0,0,0,0,0c0-0.1,0-0.1-0.1-0.2
		s-0.1-0.1-0.2-0.1l-1-0.2c-0.2,0-0.3-0.1-0.4-0.2c-0.1-0.1-0.2-0.2-0.2-0.4c0,0,0-0.1,0-0.1l0-0.2c0-0.2,0.2-0.4,0.3-0.6
		S81.7,27,82,27h0.5c0.3,0,0.5,0.1,0.6,0.2s0.2,0.3,0.2,0.5c0,0.1,0,0.1,0,0.2h-0.4c0,0,0-0.1,0-0.1c0-0.1,0-0.2-0.1-0.3
		c-0.1-0.1-0.2-0.1-0.3-0.1H82c-0.2,0-0.3,0-0.4,0.1c-0.1,0.1-0.2,0.2-0.2,0.3l0,0.2c0,0.1,0,0.1,0.1,0.2c0.1,0.1,0.1,0.1,0.2,0.1
		l1,0.2c0.2,0,0.3,0.1,0.4,0.2c0.1,0.1,0.2,0.2,0.2,0.4c0,0,0,0.1,0,0.1l0,0.2c0,0.2-0.2,0.4-0.3,0.5c-0.2,0.1-0.4,0.2-0.7,0.2h-0.5
		C81.3,30.1,81,30,80.9,29.9z"/>
	<path class="st0" d="M84.4,27h0.4l-0.5,3h-0.4L84.4,27z M84.5,26.5c0,0-0.1-0.1-0.1-0.2c0-0.1,0-0.2,0.1-0.3
		c0.1-0.1,0.2-0.1,0.3-0.1c0.1,0,0.2,0,0.2,0.1c0.1,0,0.1,0.1,0.1,0.2c0,0.1,0,0.2-0.1,0.3c-0.1,0.1-0.2,0.1-0.3,0.1
		C84.6,26.6,84.6,26.5,84.5,26.5z"/>
	<path class="st0" d="M85.9,27h0.4l-0.1,0.5c0.1-0.1,0.2-0.3,0.4-0.3s0.3-0.1,0.5-0.1h0.3l-0.1,0.4h-0.3c-0.3,0-0.5,0.1-0.7,0.2
		c-0.2,0.2-0.3,0.4-0.4,0.6L85.8,30h-0.4L85.9,27z"/>
</g>
</svg>
