<?xml version="1.0" encoding="utf-8"?>
<!-- Generator: Adobe Illustrator 25.4.1, SVG Export Plug-In . SVG Version: 6.00 Build 0)  -->
<svg version="1.1" id="Calque_1" xmlns="http://www.w3.org/2000/svg" xmlns:xlink="http://www.w3.org/1999/xlink" x="0px" y="0px"
	 viewBox="0 0 50 11" style="enable-background:new 0 0 50 11;" xml:space="preserve">
<style type="text/css">
	.st0{enable-background:new    ;}
	.st1{fill:#F0F4FC;}
	.st2{fill:#78D1FF;}
</style>
<g id="Calque_4">
	<g class="st0">
		<path class="st1" d="M3.1,8.6C3,8.5,2.9,8.3,2.9,8.1V1.7h0.7v6.3h3.8v0.7H3.6C3.3,8.7,3.2,8.7,3.1,8.6z"/>
	</g>
	<g class="st0">
		<path class="st1" d="M8.6,8.3C8.3,8,8.1,7.6,8.1,7V5.6c0-0.6,0.2-1,0.5-1.4C9,3.8,9.4,3.7,10,3.7h0.8c0.5,0,1,0.2,1.3,0.5
			c0.3,0.3,0.5,0.8,0.5,1.3v0.9H8.9V7c0,0.3,0.1,0.6,0.3,0.8C9.4,8.1,9.7,8.2,10,8.2h0.8c0.3,0,0.6-0.1,0.8-0.3
			c0.2-0.2,0.3-0.4,0.3-0.7h0.7c0,0.5-0.2,0.9-0.5,1.2s-0.8,0.5-1.3,0.5H10C9.4,8.8,9,8.7,8.6,8.3z M11.9,5.8V5.5
			c0-0.4-0.1-0.7-0.3-0.9s-0.4-0.3-0.8-0.3H10c-0.3,0-0.6,0.1-0.8,0.3C9,4.9,8.9,5.2,8.9,5.6v0.2H11.9z"/>
	</g>
	<g class="st0">
		<path class="st1" d="M14.6,8.4c-0.2-0.2-0.3-0.6-0.3-1.1V4.4h-0.9V3.8h0.9V2.2H15v1.5h1.3v0.6H15v2.9c0,0.3,0.1,0.5,0.2,0.6
			s0.3,0.2,0.6,0.2h0.5v0.6h-0.5C15.2,8.7,14.9,8.6,14.6,8.4z"/>
		<path class="st1" d="M17.3,3.4l0.1-0.1c0.2-0.1,0.3-0.3,0.4-0.5C18,2.7,18,2.5,18,2.2V1.7h0.7v0.5c0,0.4-0.1,0.7-0.2,1
			c-0.1,0.3-0.4,0.5-0.6,0.7L17.7,4L17.3,3.4z"/>
	</g>
	<g class="st0">
		<path class="st1" d="M31.1,8.6c-0.2-0.1-0.4-0.3-0.6-0.5v0.6h-0.7v-7h0.7v2.6c0.1-0.2,0.3-0.4,0.6-0.5c0.2-0.1,0.5-0.2,0.7-0.2
			h0.7c0.3,0,0.6,0.1,0.9,0.2s0.5,0.4,0.6,0.7c0.1,0.3,0.2,0.6,0.2,1v1.3c0,0.4-0.1,0.7-0.2,1c-0.2,0.3-0.4,0.5-0.6,0.7
			s-0.6,0.2-0.9,0.2h-0.7C31.6,8.8,31.4,8.8,31.1,8.6z M32.5,8.2c0.3,0,0.6-0.1,0.8-0.4s0.3-0.6,0.3-1V5.5c0-0.4-0.1-0.7-0.3-0.9
			c-0.2-0.2-0.4-0.3-0.8-0.3h-0.7c-0.3,0-0.6,0.1-0.9,0.4c-0.2,0.3-0.4,0.6-0.4,1v1.2c0,0.2,0.1,0.4,0.2,0.6
			c0.1,0.2,0.3,0.3,0.5,0.5c0.2,0.1,0.4,0.2,0.6,0.2H32.5z"/>
		<path class="st1" d="M35.8,2.9c-0.1-0.1-0.2-0.2-0.2-0.4s0-0.3,0.2-0.4C35.9,2,36,1.9,36.2,1.9s0.3,0.1,0.4,0.2
			c0.1,0.1,0.1,0.2,0.1,0.4s0,0.3-0.1,0.4C36.5,3,36.3,3,36.2,3S35.9,3,35.8,2.9z M35.8,3.8h0.7v5h-0.7V3.8z"/>
	</g>
	<g class="st0">
		<path class="st1" d="M41.6,8.7l-2-2.4L39,7.1v1.7h-0.7v-7H39v4.5l2.5-2.4h0.9l-2.2,2.1l2.3,2.8H41.6z"/>
	</g>
	<g class="st0">
		<path class="st1" d="M43.4,8.3C43.1,8,42.9,7.6,42.9,7V5.6c0-0.6,0.2-1,0.5-1.4c0.3-0.3,0.8-0.5,1.4-0.5h0.8c0.5,0,1,0.2,1.3,0.5
			c0.3,0.3,0.5,0.8,0.5,1.3v0.9h-3.7V7c0,0.3,0.1,0.6,0.3,0.8s0.5,0.3,0.8,0.3h0.8c0.3,0,0.6-0.1,0.8-0.3c0.2-0.2,0.3-0.4,0.3-0.7
			h0.7c0,0.5-0.2,0.9-0.5,1.2c-0.3,0.3-0.8,0.5-1.3,0.5h-0.8C44.2,8.8,43.7,8.7,43.4,8.3z M46.6,5.8V5.5c0-0.4-0.1-0.7-0.3-0.9
			s-0.5-0.3-0.8-0.3h-0.8c-0.3,0-0.6,0.1-0.8,0.3s-0.3,0.5-0.3,0.9v0.2H46.6z"/>
	</g>
	<g class="st0">
		<path class="st2" d="M23.6,10.5c-0.8-0.1-1.4-0.5-1.9-1.2l1.1-0.7c0.3,0.4,0.7,0.7,1.1,0.8c0.5,0.1,0.9,0,1.3-0.3L26.5,8
			c0.4-0.3,0.7-0.6,0.9-1s0.1-0.7-0.1-1L27,5.6c-0.1-0.2-0.3-0.3-0.6-0.4c-0.2,0-0.5,0-0.8,0.1l-2.9,1.3C22.1,6.9,21.6,7,21,6.9
			c-0.5-0.1-0.9-0.3-1.2-0.8l-0.3-0.5c-0.4-0.6-0.5-1.2-0.3-1.9c0.2-0.7,0.7-1.2,1.4-1.7l1.3-0.9c0.7-0.5,1.4-0.7,2.1-0.6
			c0.7,0.1,1.3,0.5,1.7,1.1l-1.1,0.7c-0.3-0.4-0.6-0.6-1-0.6c-0.4-0.1-0.8,0-1.2,0.3L21.2,3c-0.4,0.3-0.7,0.6-0.8,0.9
			c-0.1,0.4-0.1,0.7,0.1,1l0.3,0.4c0.1,0.2,0.3,0.3,0.6,0.3c0.3,0,0.5,0,0.8-0.1l2.9-1.3C25.8,4,26.3,3.9,26.9,4
			c0.5,0.1,0.9,0.4,1.2,0.8l0.4,0.6c0.4,0.6,0.4,1.2,0.2,1.8c-0.2,0.7-0.7,1.3-1.5,1.8l-1.3,0.9C25.1,10.4,24.3,10.6,23.6,10.5z"/>
	</g>
</g>
</svg>
