<?xml version="1.0" encoding="utf-8"?>
<!-- Generator: Adobe Illustrator 25.4.1, SVG Export Plug-In . SVG Version: 6.00 Build 0)  -->
<svg version="1.1" id="Calque_1" xmlns="http://www.w3.org/2000/svg" xmlns:xlink="http://www.w3.org/1999/xlink" x="0px" y="0px"
	 viewBox="0 0 90 30.3" style="enable-background:new 0 0 90 30.3;" xml:space="preserve">
<style type="text/css">
	.st0{fill:#F0F4FC;}
	.st1{fill:#78D1FF;}
</style>
<g>
	<path class="st0" d="M0.4,16.9c-0.2-0.2-0.3-0.5-0.3-1V3.2h1.5v12.7h7.6v1.3H1.4C1,17.2,0.7,17.1,0.4,16.9z"/>
	<path class="st0" d="M11.6,16.4c-0.7-0.7-1-1.5-1-2.6v-2.9c0-1.1,0.3-2.1,1-2.8c0.7-0.7,1.6-1,2.7-1h1.6c1.1,0,1.9,0.3,2.6,1
		c0.7,0.7,1,1.6,1,2.7v1.8H12v1.2c0,0.7,0.2,1.3,0.6,1.7c0.4,0.4,1,0.6,1.6,0.6h1.5c0.7,0,1.2-0.2,1.6-0.5c0.4-0.4,0.6-0.9,0.6-1.5
		h1.4c0,1-0.3,1.8-1,2.4c-0.7,0.6-1.5,0.9-2.6,0.9h-1.5C13.2,17.4,12.3,17.1,11.6,16.4z M18,11.3v-0.5c0-0.7-0.2-1.3-0.6-1.8
		c-0.4-0.4-0.9-0.7-1.5-0.7h-1.6c-0.7,0-1.2,0.2-1.6,0.7S12,10.1,12,10.9v0.4H18z"/>
	<path class="st0" d="M23.5,16.5c-0.5-0.5-0.7-1.2-0.7-2.2V8.5h-1.8V7.2h1.8v-3h1.4v3h2.6v1.3h-2.6v5.8c0,0.6,0.1,1,0.4,1.3
		c0.2,0.3,0.6,0.4,1.2,0.4h1.1v1.3h-1.1C24.8,17.2,24,17,23.5,16.5z"/>
	<path class="st0" d="M28.9,6.6l0.3-0.2c0.4-0.3,0.7-0.6,0.9-0.9s0.3-0.8,0.3-1.2v-1h1.4v1c0,0.7-0.1,1.4-0.4,1.9
		c-0.3,0.5-0.7,1-1.3,1.3l-0.4,0.2L28.9,6.6z"/>
	<path class="st0" d="M57.6,17c-0.5-0.3-0.9-0.6-1.1-1v1.3H55v-14h1.4v5.2c0.3-0.4,0.7-0.7,1.1-1c0.5-0.2,0.9-0.4,1.4-0.4h1.4
		c0.7,0,1.3,0.2,1.8,0.5c0.5,0.3,0.9,0.8,1.2,1.3c0.3,0.6,0.4,1.2,0.4,1.9v2.6c0,0.8-0.1,1.5-0.4,2.1c-0.3,0.6-0.7,1.1-1.3,1.4
		s-1.2,0.5-1.9,0.5H59C58.5,17.4,58.1,17.2,57.6,17z M60.3,16.1c0.6,0,1.2-0.2,1.6-0.8c0.4-0.5,0.6-1.1,0.6-2v-2.6
		c0-0.7-0.2-1.3-0.6-1.8c-0.4-0.5-0.9-0.7-1.5-0.7h-1.3c-0.7,0-1.3,0.3-1.8,0.8s-0.8,1.2-0.8,2v2.4c0,0.5,0.2,0.9,0.4,1.3
		c0.2,0.4,0.5,0.7,0.9,0.9c0.4,0.2,0.8,0.3,1.2,0.3H60.3z"/>
	<path class="st0" d="M66.9,5.4c-0.2-0.2-0.3-0.5-0.3-0.8c0-0.3,0.1-0.6,0.3-0.8c0.2-0.2,0.5-0.3,0.8-0.3c0.3,0,0.6,0.1,0.8,0.3
		c0.2,0.2,0.3,0.5,0.3,0.8c0,0.3-0.1,0.6-0.3,0.8c-0.2,0.2-0.5,0.3-0.8,0.3C67.4,5.7,67.1,5.6,66.9,5.4z M67,7.2h1.4v10H67V7.2z"/>
	<path class="st0" d="M78.5,17.2l-3.9-4.7l-1.4,1.4v3.3h-1.4v-14h1.4v8.9l4.9-4.9h1.8l-4.3,4.3l4.6,5.7H78.5z"/>
	<path class="st0" d="M82.1,16.4c-0.7-0.7-1-1.5-1-2.6v-2.9c0-1.1,0.3-2.1,1-2.8c0.7-0.7,1.6-1,2.7-1h1.6c1.1,0,1.9,0.3,2.6,1
		s1,1.6,1,2.7v1.8h-7.5v1.2c0,0.7,0.2,1.3,0.6,1.7c0.4,0.4,1,0.6,1.6,0.6h1.5c0.7,0,1.2-0.2,1.6-0.5c0.4-0.4,0.6-0.9,0.6-1.5H90
		c0,1-0.3,1.8-1,2.4s-1.5,0.9-2.6,0.9h-1.5C83.7,17.4,82.8,17.1,82.1,16.4z M88.6,11.3v-0.5c0-0.7-0.2-1.3-0.6-1.8
		c-0.4-0.4-0.9-0.7-1.5-0.7h-1.6c-0.7,0-1.2,0.2-1.6,0.7c-0.4,0.5-0.6,1.1-0.6,1.8v0.4H88.6z"/>
</g>
<g>
	<g>
		<path class="st1" d="M41.9,20.8c-1.5-0.3-2.8-1.2-3.8-2.7l2.2-1.4c0.6,0.9,1.4,1.5,2.2,1.7s1.8,0,2.6-0.6l2.6-1.7
			c0.9-0.6,1.4-1.2,1.7-1.9c0.3-0.7,0.2-1.4-0.2-2l-0.8-1.3c-0.3-0.5-0.8-0.8-1.4-0.8c-0.6-0.1-1.2,0-2,0.4l-4.7,2.1
			c-1.4,0.6-2.6,0.8-3.7,0.6s-2-0.8-2.6-1.8l-0.9-1.3c-0.8-1.2-1-2.4-0.5-3.7C33,5.1,33.9,4,35.4,3L38,1.2c0.9-0.6,1.9-1,2.8-1.1
			s1.9,0.1,2.7,0.5c0.8,0.4,1.6,1.1,2.2,2l-2.2,1.5c-0.5-0.8-1.2-1.3-1.9-1.4c-0.8-0.2-1.5,0-2.3,0.5L36.7,5
			c-0.8,0.5-1.3,1.1-1.6,1.8c-0.3,0.7-0.2,1.3,0.2,1.9l0.7,1c0.3,0.5,0.8,0.8,1.3,0.9c0.6,0.1,1.2,0,2-0.3L44,8.2
			c1.4-0.6,2.7-0.9,3.8-0.7c1.1,0.2,2,0.7,2.6,1.7l1,1.5c0.8,1.2,1,2.4,0.5,3.8c-0.4,1.3-1.4,2.5-2.9,3.5l-2.7,1.8
			C44.9,20.7,43.4,21.1,41.9,20.8z"/>
	</g>
</g>
<g>
	<path class="st0" d="M26,25.1h2.8l-0.1,0.4h-2.3l-0.3,1.5h2.1l-0.1,0.4H26l-0.3,1.9h-0.4L26,25.1z"/>
	<path class="st0" d="M28.7,29.2c-0.2-0.1-0.2-0.3-0.2-0.5c0,0,0-0.1,0-0.1l0-0.2c0-0.3,0.2-0.5,0.4-0.6c0.2-0.1,0.4-0.2,0.7-0.2
		h0.4c0.1,0,0.3,0,0.4,0.1c0.2,0,0.3,0.1,0.4,0.2l0.1-0.5c0-0.1,0-0.1,0-0.1c0-0.1,0-0.2-0.1-0.3s-0.2-0.1-0.4-0.1h-0.5
		c-0.2,0-0.3,0-0.4,0.1c-0.1,0.1-0.2,0.2-0.2,0.3h-0.4c0-0.2,0.2-0.4,0.4-0.6c0.2-0.1,0.4-0.2,0.7-0.2h0.5c0.3,0,0.5,0.1,0.7,0.2
		s0.2,0.3,0.2,0.6c0,0.1,0,0.1,0,0.2l-0.4,2.1h-0.4l0.1-0.4c-0.1,0.1-0.3,0.3-0.4,0.3s-0.3,0.1-0.4,0.1h-0.4
		C29.1,29.4,28.9,29.3,28.7,29.2z M29.7,29c0.2,0,0.4-0.1,0.5-0.2s0.3-0.3,0.4-0.5l0-0.2c-0.1-0.1-0.2-0.1-0.3-0.2
		c-0.1,0-0.3-0.1-0.4-0.1h-0.4c-0.2,0-0.3,0-0.4,0.1c-0.1,0.1-0.2,0.2-0.2,0.3l0,0.2c0,0,0,0.1,0,0.1c0,0.1,0,0.2,0.1,0.3
		c0.1,0.1,0.2,0.1,0.3,0.1H29.7z"/>
	<path class="st0" d="M32.4,26.4h0.4l-0.5,3h-0.4L32.4,26.4z M32.5,25.8c0,0-0.1-0.1-0.1-0.2c0-0.1,0-0.2,0.1-0.3
		c0.1-0.1,0.2-0.1,0.3-0.1c0.1,0,0.2,0,0.2,0.1c0,0,0.1,0.1,0.1,0.2c0,0.1,0,0.2-0.1,0.3c-0.1,0.1-0.2,0.1-0.3,0.1
		C32.6,25.9,32.5,25.9,32.5,25.8z"/>
	<path class="st0" d="M33.9,29.2c-0.1-0.1-0.2-0.2-0.2-0.5c0-0.1,0-0.2,0-0.3l0.3-1.7h-0.5l0.1-0.4h0.5l0.2-0.9h0.4l-0.2,0.9h0.8
		l-0.1,0.4h-0.8l-0.3,1.7c0,0,0,0.1,0,0.2c0,0.1,0,0.2,0.1,0.3s0.2,0.1,0.3,0.1h0.3l-0.1,0.4h-0.3C34.2,29.3,34,29.3,33.9,29.2z"/>
	<path class="st0" d="M35.8,29.2c-0.2-0.2-0.3-0.4-0.3-0.6c0-0.1,0-0.1,0-0.2l0.2-0.9c0.1-0.4,0.2-0.6,0.4-0.8
		c0.2-0.2,0.5-0.3,0.8-0.3h0.5c0.3,0,0.5,0.1,0.7,0.2c0.2,0.2,0.3,0.4,0.3,0.7c0,0.1,0,0.1,0,0.2L38.3,28h-2.2L36,28.3
		c0,0,0,0.1,0,0.2c0,0.2,0,0.3,0.1,0.4c0.1,0.1,0.2,0.1,0.4,0.1H37c0.2,0,0.4-0.1,0.5-0.2c0.1-0.1,0.2-0.3,0.3-0.4h0.4
		c-0.1,0.3-0.2,0.6-0.4,0.7s-0.5,0.3-0.8,0.3h-0.5C36.3,29.4,36,29.3,35.8,29.2z M37.9,27.6l0-0.2c0-0.1,0-0.1,0-0.2
		c0-0.2,0-0.3-0.1-0.4c-0.1-0.1-0.2-0.2-0.4-0.2H37c-0.2,0-0.4,0.1-0.5,0.2s-0.2,0.3-0.3,0.6l0,0.1H37.9z"/>
	<path class="st0" d="M39.1,29.2c-0.2-0.1-0.2-0.3-0.2-0.5c0-0.1,0-0.1,0-0.2h0.4c0,0.1,0,0.1,0,0.1c0,0.1,0,0.2,0.1,0.3
		s0.2,0.1,0.4,0.1h0.5c0.2,0,0.3,0,0.4-0.1c0.1-0.1,0.2-0.2,0.2-0.3l0-0.2c0,0,0,0,0,0c0-0.1,0-0.1-0.1-0.2c-0.1,0-0.1-0.1-0.2-0.1
		l-1-0.2c-0.2,0-0.3-0.1-0.4-0.2c-0.1-0.1-0.2-0.2-0.2-0.4c0,0,0-0.1,0-0.1l0-0.2c0-0.2,0.2-0.4,0.3-0.6s0.4-0.2,0.7-0.2h0.5
		c0.3,0,0.5,0.1,0.6,0.2c0.2,0.1,0.2,0.3,0.2,0.5c0,0.1,0,0.1,0,0.2h-0.4c0,0,0-0.1,0-0.1c0-0.1,0-0.2-0.1-0.3
		c-0.1-0.1-0.2-0.1-0.3-0.1h-0.5c-0.2,0-0.3,0-0.4,0.1c-0.1,0.1-0.2,0.2-0.2,0.3l0,0.2c0,0.1,0,0.1,0.1,0.2c0.1,0.1,0.1,0.1,0.2,0.1
		l1,0.2c0.2,0,0.3,0.1,0.4,0.2c0.1,0.1,0.1,0.2,0.1,0.4c0,0,0,0.1,0,0.1l0,0.2c0,0.2-0.2,0.4-0.3,0.5c-0.2,0.1-0.4,0.2-0.7,0.2h-0.5
		C39.4,29.4,39.2,29.3,39.1,29.2z"/>
	<path class="st0" d="M43.8,29.2c-0.2-0.2-0.2-0.4-0.2-0.6c0-0.1,0-0.2,0-0.3l0.1-0.7c0.1-0.4,0.2-0.7,0.4-0.9
		c0.2-0.2,0.5-0.3,0.8-0.3h0.4c0.2,0,0.3,0,0.4,0.1c0.1,0.1,0.2,0.2,0.3,0.3l0.3-1.5h0.4l-0.7,4.2h-0.4l0.1-0.4
		c-0.1,0.1-0.2,0.3-0.4,0.4c-0.1,0.1-0.3,0.1-0.4,0.1h-0.4C44.2,29.4,44,29.3,43.8,29.2z M44.9,29c0.1,0,0.3,0,0.4-0.1
		c0.1-0.1,0.2-0.2,0.3-0.3c0.1-0.1,0.2-0.3,0.2-0.4l0.1-0.8c0-0.2,0-0.4-0.1-0.5c-0.1-0.1-0.3-0.2-0.4-0.2H45
		c-0.2,0-0.4,0.1-0.5,0.2c-0.2,0.2-0.3,0.4-0.3,0.6L44,28.3c0,0.1,0,0.1,0,0.2c0,0.2,0,0.3,0.1,0.4c0.1,0.1,0.2,0.1,0.4,0.1H44.9z"
		/>
	<path class="st0" d="M47.3,29.2c-0.1-0.1-0.2-0.3-0.2-0.6c0-0.1,0-0.1,0-0.2l0.4-2h0.4l-0.4,2c0,0.1,0,0.1,0,0.2
		c0,0.1,0,0.2,0.1,0.3c0.1,0.1,0.2,0.1,0.3,0.1h0.4c0.2,0,0.4-0.1,0.5-0.2c0.2-0.1,0.3-0.3,0.4-0.6l0.3-1.9H50l-0.5,3h-0.4l0.1-0.5
		c-0.1,0.2-0.3,0.3-0.4,0.4c-0.2,0.1-0.3,0.1-0.4,0.1h-0.4C47.7,29.4,47.5,29.3,47.3,29.2z"/>
	<path class="st0" d="M52.7,29l-0.6-2.7h0.4l0.5,2.5h0l1.4-2.5h0.5l-1.7,3H53C52.8,29.3,52.7,29.2,52.7,29z"/>
	<path class="st0" d="M55.2,29.2c-0.2-0.2-0.3-0.4-0.3-0.6c0-0.1,0-0.1,0-0.2l0.2-0.9c0.1-0.4,0.2-0.6,0.4-0.8
		c0.2-0.2,0.5-0.3,0.8-0.3h0.5c0.3,0,0.5,0.1,0.7,0.2c0.2,0.2,0.3,0.4,0.3,0.7c0,0.1,0,0.1,0,0.2L57.6,28h-2.2l-0.1,0.4
		c0,0,0,0.1,0,0.2c0,0.2,0,0.3,0.1,0.4c0.1,0.1,0.2,0.1,0.4,0.1h0.5c0.2,0,0.4-0.1,0.5-0.2c0.1-0.1,0.2-0.3,0.3-0.4h0.4
		c-0.1,0.3-0.2,0.6-0.4,0.7s-0.5,0.3-0.8,0.3h-0.5C55.6,29.4,55.3,29.3,55.2,29.2z M57.3,27.6l0-0.2c0-0.1,0-0.1,0-0.2
		c0-0.2,0-0.3-0.1-0.4c-0.1-0.1-0.2-0.2-0.4-0.2h-0.5c-0.2,0-0.4,0.1-0.5,0.2s-0.2,0.3-0.3,0.6l0,0.1H57.3z M57.1,25h0.5l-0.8,0.9
		h-0.4L57.1,25z"/>
	<path class="st0" d="M58.4,29.2c-0.1-0.1-0.2-0.2-0.2-0.4c0-0.1,0-0.2,0-0.3l0.6-3.4h0.4l-0.6,3.4c0,0.1,0,0.1,0,0.2
		c0,0.1,0,0.2,0.1,0.2c0.1,0,0.1,0.1,0.3,0.1h0.2l-0.1,0.4H59C58.7,29.3,58.6,29.3,58.4,29.2z"/>
	<path class="st0" d="M60.1,29.2c-0.2-0.2-0.3-0.4-0.3-0.7c0-0.1,0-0.1,0-0.2l0.1-0.8c0.1-0.4,0.2-0.6,0.4-0.8
		c0.2-0.2,0.5-0.3,0.8-0.3h0.5c0.3,0,0.6,0.1,0.7,0.2c0.2,0.2,0.3,0.4,0.3,0.7c0,0.1,0,0.1,0,0.2l-0.1,0.8c-0.1,0.4-0.2,0.6-0.4,0.8
		s-0.5,0.3-0.8,0.3h-0.5C60.5,29.4,60.3,29.3,60.1,29.2z M61.3,29c0.2,0,0.4-0.1,0.5-0.2c0.2-0.1,0.3-0.3,0.3-0.5l0.1-0.8
		c0-0.1,0-0.1,0-0.2c0-0.2-0.1-0.3-0.2-0.4c-0.1-0.1-0.2-0.2-0.4-0.2h-0.5c-0.2,0-0.4,0.1-0.5,0.2s-0.2,0.3-0.3,0.6l-0.1,0.8
		c0,0.1,0,0.1,0,0.2c0,0.2,0.1,0.3,0.2,0.4c0.1,0.1,0.2,0.2,0.4,0.2H61.3z"/>
	<path class="st0" d="M65.1,29.2c-0.1-0.1-0.2-0.3-0.2-0.6c0-0.1,0-0.1,0-0.2l0.4-2h0.4l-0.4,2c0,0.1,0,0.1,0,0.2
		c0,0.1,0,0.2,0.1,0.3c0.1,0.1,0.2,0.1,0.3,0.1h0.4c0.2,0,0.4-0.1,0.5-0.2c0.2-0.1,0.3-0.3,0.4-0.6l0.3-1.9h0.4l-0.5,3h-0.4l0.1-0.5
		c-0.1,0.2-0.3,0.3-0.4,0.4c-0.2,0.1-0.3,0.1-0.4,0.1h-0.4C65.4,29.4,65.2,29.3,65.1,29.2z"/>
	<path class="st0" d="M68.7,26.4h0.4L69,26.8c0.1-0.2,0.3-0.3,0.4-0.4s0.3-0.1,0.4-0.1h0.4c0.3,0,0.5,0.1,0.6,0.2
		c0.1,0.1,0.2,0.3,0.2,0.6c0,0.1,0,0.1,0,0.2l-0.4,2h-0.4l0.4-2c0,0,0-0.1,0-0.2c0-0.1,0-0.3-0.1-0.3s-0.2-0.1-0.3-0.1h-0.4
		c-0.2,0-0.4,0.1-0.6,0.2c-0.2,0.1-0.3,0.3-0.4,0.6l-0.3,1.9h-0.4L68.7,26.4z"/>
	<path class="st0" d="M73.7,26.4h0.4L74,26.8c0.1-0.1,0.2-0.3,0.4-0.3c0.1-0.1,0.3-0.1,0.4-0.1h0.4c0.3,0,0.5,0.1,0.7,0.2
		c0.2,0.2,0.3,0.4,0.3,0.6c0,0,0,0.1,0,0.2L76,28.2c-0.1,0.4-0.2,0.7-0.4,0.9c-0.2,0.2-0.5,0.3-0.8,0.3h-0.4c-0.2,0-0.3,0-0.4-0.1
		c-0.1-0.1-0.2-0.2-0.3-0.3l-0.3,1.5h-0.4L73.7,26.4z M74.8,29c0.2,0,0.4-0.1,0.5-0.2c0.1-0.2,0.2-0.4,0.3-0.6l0.1-0.7
		c0-0.1,0-0.1,0-0.2c0-0.2,0-0.3-0.1-0.4c-0.1-0.1-0.2-0.2-0.4-0.2h-0.4c-0.2,0-0.3,0.1-0.5,0.2s-0.3,0.3-0.4,0.5l-0.2,0.9
		c0,0.2,0,0.4,0.2,0.5s0.3,0.2,0.5,0.2H74.8z"/>
	<path class="st0" d="M76.9,29.2c-0.1-0.1-0.2-0.2-0.2-0.4c0-0.1,0-0.2,0-0.3l0.6-3.4h0.4l-0.6,3.4c0,0.1,0,0.1,0,0.2
		c0,0.1,0,0.2,0.1,0.2s0.1,0.1,0.3,0.1h0.2l-0.1,0.4h-0.2C77.2,29.3,77,29.3,76.9,29.2z"/>
	<path class="st0" d="M78.5,29.2c-0.2-0.1-0.2-0.3-0.2-0.5c0,0,0-0.1,0-0.1l0-0.2c0-0.3,0.2-0.5,0.4-0.6c0.2-0.1,0.4-0.2,0.7-0.2
		h0.4c0.1,0,0.3,0,0.4,0.1c0.2,0,0.3,0.1,0.4,0.2l0.1-0.5c0-0.1,0-0.1,0-0.1c0-0.1,0-0.2-0.1-0.3c-0.1-0.1-0.2-0.1-0.4-0.1h-0.5
		c-0.2,0-0.3,0-0.4,0.1S79.1,27,79,27.1h-0.4c0-0.2,0.2-0.4,0.4-0.6c0.2-0.1,0.4-0.2,0.7-0.2h0.5c0.3,0,0.5,0.1,0.7,0.2
		s0.2,0.3,0.2,0.6c0,0.1,0,0.1,0,0.2l-0.4,2.1h-0.4l0.1-0.4c-0.1,0.1-0.3,0.3-0.4,0.3c-0.1,0.1-0.3,0.1-0.5,0.1h-0.4
		C78.9,29.4,78.7,29.3,78.5,29.2z M79.5,29c0.2,0,0.4-0.1,0.5-0.2c0.2-0.1,0.3-0.3,0.4-0.5l0-0.2c-0.1-0.1-0.2-0.1-0.3-0.2
		c-0.1,0-0.3-0.1-0.4-0.1h-0.4c-0.2,0-0.3,0-0.4,0.1c-0.1,0.1-0.2,0.2-0.2,0.3l0,0.2c0,0,0,0.1,0,0.1c0,0.1,0,0.2,0.1,0.3
		C78.9,29,79,29,79.1,29H79.5z"/>
	<path class="st0" d="M82.2,26.4h0.4l-0.5,3h-0.4L82.2,26.4z M82.3,25.8c0,0-0.1-0.1-0.1-0.2c0-0.1,0-0.2,0.1-0.3
		c0.1-0.1,0.2-0.1,0.3-0.1c0.1,0,0.2,0,0.2,0.1c0.1,0,0.1,0.1,0.1,0.2c0,0.1,0,0.2-0.1,0.3c-0.1,0.1-0.2,0.1-0.3,0.1
		C82.4,25.9,82.3,25.9,82.3,25.8z"/>
	<path class="st0" d="M83.4,29.2c-0.2-0.1-0.2-0.3-0.2-0.5c0-0.1,0-0.1,0-0.2h0.4c0,0.1,0,0.1,0,0.1c0,0.1,0,0.2,0.1,0.3
		C83.8,29,83.9,29,84,29h0.5c0.2,0,0.3,0,0.4-0.1c0.1-0.1,0.2-0.2,0.2-0.3l0-0.2c0,0,0,0,0,0c0-0.1,0-0.1-0.1-0.2s-0.1-0.1-0.2-0.1
		l-1-0.2c-0.2,0-0.3-0.1-0.4-0.2c-0.1-0.1-0.2-0.2-0.2-0.4c0,0,0-0.1,0-0.1l0-0.2c0-0.2,0.2-0.4,0.3-0.6s0.4-0.2,0.7-0.2H85
		c0.3,0,0.5,0.1,0.6,0.2s0.2,0.3,0.2,0.5c0,0.1,0,0.1,0,0.2h-0.4c0,0,0-0.1,0-0.1c0-0.1,0-0.2-0.1-0.3c-0.1-0.1-0.2-0.1-0.3-0.1
		h-0.5c-0.2,0-0.3,0-0.4,0.1c-0.1,0.1-0.2,0.2-0.2,0.3l0,0.2c0,0.1,0,0.1,0.1,0.2c0.1,0.1,0.1,0.1,0.2,0.1l1,0.2
		c0.2,0,0.3,0.1,0.4,0.2c0.1,0.1,0.2,0.2,0.2,0.4c0,0,0,0.1,0,0.1l0,0.2c0,0.2-0.2,0.4-0.3,0.5c-0.2,0.1-0.4,0.2-0.7,0.2H84
		C83.7,29.4,83.5,29.3,83.4,29.2z"/>
	<path class="st0" d="M86.9,26.4h0.4l-0.5,3h-0.4L86.9,26.4z M87,25.8c0,0-0.1-0.1-0.1-0.2c0-0.1,0-0.2,0.1-0.3
		c0.1-0.1,0.2-0.1,0.3-0.1c0.1,0,0.2,0,0.2,0.1c0.1,0,0.1,0.1,0.1,0.2c0,0.1,0,0.2-0.1,0.3c-0.1,0.1-0.2,0.1-0.3,0.1
		C87.1,25.9,87,25.9,87,25.8z"/>
	<path class="st0" d="M88.3,26.4h0.4l-0.1,0.5c0.1-0.1,0.2-0.3,0.4-0.3s0.3-0.1,0.5-0.1h0.3l-0.1,0.4h-0.3c-0.3,0-0.5,0.1-0.7,0.2
		c-0.2,0.2-0.3,0.4-0.4,0.6l-0.3,1.7h-0.4L88.3,26.4z"/>
</g>
</svg>
