<svg id="Calque_1" data-name="Calque 1" xmlns="http://www.w3.org/2000/svg" viewBox="0 0 254 77"><defs><style>.cls-1{fill:#f0f4fc;}.cls-2{fill:#78d1ff;}</style></defs><path class="cls-1" d="M6.29,43.92a3.89,3.89,0,0,1-1-2.88V2.94H9.71V41h22.8v4H9.17A3.89,3.89,0,0,1,6.29,43.92Z"/><path class="cls-1" d="M39.77,42.45a10.49,10.49,0,0,1-3.06-7.89V26a11.42,11.42,0,0,1,3.06-8.31,10.78,10.78,0,0,1,8.1-3.15h4.92a10.24,10.24,0,0,1,7.74,3.06,11.2,11.2,0,0,1,2.94,8.1V31H41v3.6a7,7,0,0,0,1.89,5.07,6.58,6.58,0,0,0,4.95,1.95h4.56a7.05,7.05,0,0,0,4.86-1.65,5.6,5.6,0,0,0,1.86-4.41h4.2a9.23,9.23,0,0,1-3,7.17,11.31,11.31,0,0,1-7.92,2.73H47.87A11.14,11.14,0,0,1,39.77,42.45ZM59.15,27.24V25.68a7.83,7.83,0,0,0-1.74-5.31,5.81,5.81,0,0,0-4.62-2H47.87a6.34,6.34,0,0,0-4.95,2.1A7.94,7.94,0,0,0,41,26v1.26Z"/><path class="cls-1" d="M75.62,42.9q-2.07-2-2.07-6.72V18.84H68.27V15h5.28V5.94h4.32V15h7.8v3.84h-7.8V36.18a5.51,5.51,0,0,0,1,3.78,4.6,4.6,0,0,0,3.51,1.14h3.24v3.84H82.43Q77.69,44.94,75.62,42.9Z"/><path class="cls-1" d="M91.67,13l.9-.6a8,8,0,0,0,2.67-2.79,7.57,7.57,0,0,0,.87-3.69V2.94h4.32V5.88a11.88,11.88,0,0,1-1.26,5.7,11,11,0,0,1-3.9,4l-1.14.72Z"/><path class="cls-2" d="M114.3,46.38A11.77,11.77,0,0,1,107,40l5-2.51a7.17,7.17,0,0,0,4.37,3.88,7.83,7.83,0,0,0,6-.7l6.22-3.13a10.14,10.14,0,0,0,4.37-3.77,4.19,4.19,0,0,0,.29-4.22L132,27.08a3.65,3.65,0,0,0-2.28-1.85,6.18,6.18,0,0,0-3.49,0l-13.44,4.08a12.33,12.33,0,0,1-7.39.18,7.68,7.68,0,0,1-4.82-4l-1.19-2.36a9.15,9.15,0,0,1-.22-8.26,14.26,14.26,0,0,1,7-6.71l6.14-3.1a12.84,12.84,0,0,1,9.5-1.24,10.82,10.82,0,0,1,6.83,5.91l-5,2.52a6.51,6.51,0,0,0-3.89-3.36,6.8,6.8,0,0,0-5.2.6l-6.15,3.1a8.23,8.23,0,0,0-3.91,3.62,4.7,4.7,0,0,0,0,4.33l1,2.07a3.62,3.62,0,0,0,2.4,1.84,6.37,6.37,0,0,0,3.72-.17l13.37-4.05a11.93,11.93,0,0,1,7.16-.11,7.77,7.77,0,0,1,4.77,4l1.44,2.86a8.42,8.42,0,0,1-.12,8q-2.1,4.11-7.53,6.84l-6.22,3.13Q119.13,47.81,114.3,46.38Z"/><path class="cls-1" d="M156.69,45.33a9.36,9.36,0,0,1-3.42-3.09v3.84h-4.2v-42h4.32v15.6a9.45,9.45,0,0,1,3.39-2.94,9.16,9.16,0,0,1,4.29-1.08h4.26a10.42,10.42,0,0,1,5.43,1.41,9.87,9.87,0,0,1,3.72,4,12.31,12.31,0,0,1,1.35,5.85v7.74a13.78,13.78,0,0,1-1.35,6.24,10.14,10.14,0,0,1-3.78,4.2,10.46,10.46,0,0,1-5.61,1.5h-4.2A8.71,8.71,0,0,1,156.69,45.33ZM165,42.72a5.8,5.8,0,0,0,4.71-2.25,9,9,0,0,0,1.83-5.85V26.88a7.86,7.86,0,0,0-1.77-5.34,5.73,5.73,0,0,0-4.53-2h-4a7.19,7.19,0,0,0-5.34,2.28,9.12,9.12,0,0,0-2.46,6V35.1a8,8,0,0,0,1.2,3.84,8.28,8.28,0,0,0,2.76,2.76,6.72,6.72,0,0,0,3.54,1Z"/><path class="cls-1" d="M184.65,10.74a3.17,3.17,0,0,1-.9-2.34,3.24,3.24,0,1,1,6.48,0,3.31,3.31,0,0,1-5.58,2.34Zm.18,5.4h4.32V46.08h-4.32Z"/><path class="cls-1" d="M219.57,46.08,207.81,31.92l-4.14,4.14v10h-4.32v-42h4.32v26.7l14.82-14.64h5.28L210.81,29l13.92,17.1Z"/><path class="cls-1" d="M230.31,43.59a10.49,10.49,0,0,1-3.06-7.89V27.12a11.42,11.42,0,0,1,3.06-8.31,10.78,10.78,0,0,1,8.1-3.15h4.92a10.24,10.24,0,0,1,7.74,3.06,11.2,11.2,0,0,1,2.94,8.1V32.1H231.57v3.6a7,7,0,0,0,1.89,5.07,6.58,6.58,0,0,0,4.95,1.95H243a7.05,7.05,0,0,0,4.86-1.65,5.6,5.6,0,0,0,1.86-4.41h4.2a9.23,9.23,0,0,1-3,7.17A11.31,11.31,0,0,1,243,46.56h-4.56A11.14,11.14,0,0,1,230.31,43.59Zm19.38-15.21V26.82A7.83,7.83,0,0,0,248,21.51a5.81,5.81,0,0,0-4.62-2h-4.92a6.34,6.34,0,0,0-4.95,2.1,7.94,7.94,0,0,0-1.89,5.52v1.26Z"/><path class="cls-1" d="M62.61,60.88h8.28l-.19,1.19h-7l-.81,4.6h6.28L69,67.86H62.72l-1,5.62H60.4Z"/><path class="cls-1" d="M70.8,73.05a1.8,1.8,0,0,1-.73-1.52c0-.09,0-.24,0-.43l.11-.59a2.85,2.85,0,0,1,1.05-1.84A3.41,3.41,0,0,1,73.4,68h1.15a5.37,5.37,0,0,1,1.3.19,3.19,3.19,0,0,1,1.09.48l.25-1.49a2.23,2.23,0,0,0,0-.36,1.28,1.28,0,0,0-.39-1,1.49,1.49,0,0,0-1-.36H74.35a2.29,2.29,0,0,0-1.31.36,1.41,1.41,0,0,0-.63,1h-1.3A2.74,2.74,0,0,1,72.2,65a3.45,3.45,0,0,1,2.15-.68h1.44a3.05,3.05,0,0,1,2,.61,2.1,2.1,0,0,1,.73,1.68,3,3,0,0,1-.06.56l-1.09,6.28H76.13l.22-1.26a4.22,4.22,0,0,1-1.19,1,2.64,2.64,0,0,1-1.35.37H72.73A3.1,3.1,0,0,1,70.8,73.05Zm3-.56A2.88,2.88,0,0,0,75.46,72a3.17,3.17,0,0,0,1.14-1.39l.13-.67a2.28,2.28,0,0,0-.91-.55,4.16,4.16,0,0,0-1.27-.2H73.4a2.1,2.1,0,0,0-1.27.36,1.53,1.53,0,0,0-.62,1l-.11.57a1.66,1.66,0,0,0,0,.29,1,1,0,0,0,.37.8,1.55,1.55,0,0,0,1,.3Z"/><path class="cls-1" d="M81.89,64.5h1.3l-1.59,9H80.31Zm.3-1.57a.74.74,0,0,1-.23-.56,1.14,1.14,0,0,1,.32-.84,1.08,1.08,0,0,1,.82-.33.84.84,0,0,1,.6.21.75.75,0,0,1,.23.57,1.15,1.15,0,0,1-.32.84,1.11,1.11,0,0,1-.84.33A.82.82,0,0,1,82.19,62.93Z"/><path class="cls-1" d="M86.45,73.05a1.6,1.6,0,0,1-.54-1.35,5,5,0,0,1,.09-.85l.91-5.2H85.33l.2-1.15h1.58l.49-2.72h1.29l-.48,2.72h2.34l-.2,1.15H88.21l-.92,5.2a3.25,3.25,0,0,0,0,.5.92.92,0,0,0,.26.76,1.43,1.43,0,0,0,.89.22h1l-.21,1.15h-1A2.82,2.82,0,0,1,86.45,73.05Z"/><path class="cls-1" d="M92.2,72.91a2.39,2.39,0,0,1-.8-1.9,3.63,3.63,0,0,1,0-.65l.45-2.57a4.35,4.35,0,0,1,1.28-2.53,3.48,3.48,0,0,1,2.46-.91h1.48a2.93,2.93,0,0,1,2.07.74,2.55,2.55,0,0,1,.79,2,4.74,4.74,0,0,1,0,.65l-.27,1.58H92.93l-.18,1.08a2,2,0,0,0,0,.47,1.61,1.61,0,0,0,.45,1.2,1.71,1.71,0,0,0,1.24.44h1.37A2.42,2.42,0,0,0,97.34,72a2,2,0,0,0,.77-1.33h1.26a3.44,3.44,0,0,1-1.19,2.19,3.69,3.69,0,0,1-2.41.78H94.4A3.21,3.21,0,0,1,92.2,72.91Zm6.34-4.74.09-.47a2.48,2.48,0,0,0,.06-.54,1.73,1.73,0,0,0-.43-1.2,1.49,1.49,0,0,0-1.14-.46H95.64a2.24,2.24,0,0,0-1.6.61,2.93,2.93,0,0,0-.84,1.68l-.08.38Z"/><path class="cls-1" d="M101.87,73a2,2,0,0,1-.74-1.64,2.81,2.81,0,0,1,.06-.56h1.26a2.23,2.23,0,0,0,0,.36,1.25,1.25,0,0,0,.4,1,1.56,1.56,0,0,0,1.09.36h1.57a2.58,2.58,0,0,0,1.32-.3,1.24,1.24,0,0,0,.63-.84l.12-.61a.52.52,0,0,0,0-.14.72.72,0,0,0-.23-.53,1.12,1.12,0,0,0-.6-.28l-3-.54a2.37,2.37,0,0,1-1.28-.61,1.48,1.48,0,0,1-.47-1.09,1.53,1.53,0,0,1,0-.3l.1-.6a2.69,2.69,0,0,1,1-1.71,3.39,3.39,0,0,1,2.07-.61h1.55a2.86,2.86,0,0,1,1.9.58,1.91,1.91,0,0,1,.69,1.55,2.61,2.61,0,0,1,0,.46H108a2,2,0,0,0,0-.28,1.12,1.12,0,0,0-.35-.87,1.37,1.37,0,0,0-1-.32h-1.55a2.11,2.11,0,0,0-1.19.32,1.41,1.41,0,0,0-.59.88l-.11.53a.63.63,0,0,0,.18.6,1.36,1.36,0,0,0,.72.35l3,.54a2.3,2.3,0,0,1,1.22.59,1.47,1.47,0,0,1,.45,1.08,2.63,2.63,0,0,1,0,.33l-.13.72a2.48,2.48,0,0,1-1,1.63,3.81,3.81,0,0,1-2.2.58H103.9A3.07,3.07,0,0,1,101.87,73Z"/><path class="cls-1" d="M116.11,72.94a2.52,2.52,0,0,1-.74-1.93,5.35,5.35,0,0,1,.07-.83l.38-2.16a4.75,4.75,0,0,1,1.3-2.67,3.34,3.34,0,0,1,2.46-1h1.34a2.65,2.65,0,0,1,1.25.3,2.15,2.15,0,0,1,.85.78l.79-4.55h1.3l-2.21,12.6h-1.27l.24-1.33a4.49,4.49,0,0,1-1.2,1.07,2.47,2.47,0,0,1-1.27.4h-1.2A3,3,0,0,1,116.11,72.94Zm3.29-.47a2.15,2.15,0,0,0,1.17-.37,4,4,0,0,0,1.05-1,3.54,3.54,0,0,0,.61-1.23l.4-2.26a2.26,2.26,0,0,0-.45-1.55,1.56,1.56,0,0,0-1.3-.6h-1.26a2.18,2.18,0,0,0-1.61.7,3.3,3.3,0,0,0-.89,1.82l-.38,2.16a3.62,3.62,0,0,0,0,.63,1.78,1.78,0,0,0,.39,1.23,1.47,1.47,0,0,0,1.15.43Z"/><path class="cls-1" d="M126.66,73a2.29,2.29,0,0,1-.67-1.74,5.16,5.16,0,0,1,.05-.67l1.07-6.06h1.29l-1.06,6.1a2.35,2.35,0,0,0,0,.52,1.41,1.41,0,0,0,.32,1,1.13,1.13,0,0,0,.88.36h1.12a2.59,2.59,0,0,0,1.65-.64,4,4,0,0,0,1.19-1.7l1-5.63h1.3l-1.59,9h-1.26l.26-1.37a5,5,0,0,1-1.26,1.1,2.64,2.64,0,0,1-1.28.41h-1.12A2.47,2.47,0,0,1,126.66,73Z"/><path class="cls-1" d="M142.75,72.56l-1.68-8.06h1.3l1.44,7.56h0l4.1-7.56h1.44l-5.07,9h-.62C143.19,73.48,142.88,73.17,142.75,72.56Z"/><path class="cls-1" d="M150.17,72.91a2.43,2.43,0,0,1-.8-1.9,3.66,3.66,0,0,1,.06-.65l.45-2.57a4.34,4.34,0,0,1,1.27-2.53,3.51,3.51,0,0,1,2.47-.91h1.48a2.93,2.93,0,0,1,2.07.74,2.58,2.58,0,0,1,.79,2,3.57,3.57,0,0,1-.06.65l-.27,1.58H150.9l-.18,1.08a2.83,2.83,0,0,0,0,.47,1.61,1.61,0,0,0,.45,1.2,1.71,1.71,0,0,0,1.24.44h1.37a2.43,2.43,0,0,0,1.57-.49,2,2,0,0,0,.77-1.33h1.26a3.48,3.48,0,0,1-1.19,2.19,3.69,3.69,0,0,1-2.41.78h-1.37A3.24,3.24,0,0,1,150.17,72.91Zm6.35-4.74.09-.47a3.29,3.29,0,0,0,0-.54,1.72,1.72,0,0,0-.42-1.2,1.49,1.49,0,0,0-1.14-.46h-1.48a2.22,2.22,0,0,0-1.6.61,2.93,2.93,0,0,0-.85,1.68l-.07.38Zm-.47-7.87h1.51L155.29,63h-1.22Z"/><path class="cls-1" d="M160,73.1a1.47,1.47,0,0,1-.52-1.28,4.07,4.07,0,0,1,.08-.79l1.78-10.15h1.29L160.89,71a3,3,0,0,0,0,.49.77.77,0,0,0,.23.63,1.32,1.32,0,0,0,.78.18h.61l-.2,1.15h-.61A2.75,2.75,0,0,1,160,73.1Z"/><path class="cls-1" d="M164.94,72.89a2.51,2.51,0,0,1-.81-2,6.7,6.7,0,0,1,.07-.7l.44-2.47a4.29,4.29,0,0,1,1.28-2.5,3.6,3.6,0,0,1,2.5-.9h1.47a3.21,3.21,0,0,1,2.24.73,2.49,2.49,0,0,1,.82,2,4.62,4.62,0,0,1-.07.7l-.43,2.47a4.23,4.23,0,0,1-1.3,2.5,3.64,3.64,0,0,1-2.52.9h-1.47A3.18,3.18,0,0,1,164.94,72.89Zm3.69-.42a2.4,2.4,0,0,0,1.65-.62,2.8,2.8,0,0,0,.87-1.63l.43-2.47a2.27,2.27,0,0,0,.06-.5,1.75,1.75,0,0,0-.47-1.27,1.7,1.7,0,0,0-1.28-.48h-1.47a2.36,2.36,0,0,0-1.65.6,2.76,2.76,0,0,0-.84,1.65l-.43,2.47a2.35,2.35,0,0,0-.05.52,1.7,1.7,0,0,0,.46,1.26,1.67,1.67,0,0,0,1.25.47Z"/><path class="cls-1" d="M180,73a2.32,2.32,0,0,1-.66-1.74,5.16,5.16,0,0,1,.05-.67l1.06-6.06h1.3l-1.06,6.1a2.37,2.37,0,0,0-.06.52,1.41,1.41,0,0,0,.33,1,1.12,1.12,0,0,0,.88.36h1.12a2.54,2.54,0,0,0,1.64-.64,4.1,4.1,0,0,0,1.2-1.7l1-5.63H188l-1.59,9h-1.26l.25-1.37a4.67,4.67,0,0,1-1.26,1.1,2.58,2.58,0,0,1-1.27.41h-1.12A2.51,2.51,0,0,1,180,73Z"/><path class="cls-1" d="M190.77,64.5H192l-.23,1.33A4.32,4.32,0,0,1,193,64.74a2.67,2.67,0,0,1,1.34-.39h1.15a2.42,2.42,0,0,1,1.79.64,2.32,2.32,0,0,1,.66,1.74,5.59,5.59,0,0,1-.05.68l-1.06,6.07h-1.3l1.08-6.1a2.72,2.72,0,0,0,0-.49,1.49,1.49,0,0,0-.33-1,1.14,1.14,0,0,0-.9-.37H194.3a2.64,2.64,0,0,0-1.66.67,3.7,3.7,0,0,0-1.17,1.71l-1,5.6h-1.29Z"/><path class="cls-1" d="M205.75,64.5H207l-.22,1.22a4,4,0,0,1,1.11-1,2.28,2.28,0,0,1,1.18-.37h1.29a3.1,3.1,0,0,1,2.14.71,2.49,2.49,0,0,1,.78,1.92,5.49,5.49,0,0,1-.07.72l-.4,2.21a4.87,4.87,0,0,1-1.3,2.73,3.4,3.4,0,0,1-2.46,1h-1.3a2.65,2.65,0,0,1-1.27-.31,2,2,0,0,1-.85-.82l-.81,4.57h-1.3Zm3.27,8a2.19,2.19,0,0,0,1.63-.68,3.52,3.52,0,0,0,.88-1.88l.39-2.21a2.37,2.37,0,0,0,.06-.52,1.7,1.7,0,0,0-.44-1.23,1.58,1.58,0,0,0-1.2-.45h-1.26a2.33,2.33,0,0,0-1.47.58,3.91,3.91,0,0,0-1.11,1.51l-.48,2.7a2.25,2.25,0,0,0,.46,1.59,1.69,1.69,0,0,0,1.36.59Z"/><path class="cls-1" d="M215.44,73.1a1.49,1.49,0,0,1-.51-1.28A4.07,4.07,0,0,1,215,71l1.78-10.15h1.3L216.3,71a2.25,2.25,0,0,0-.06.49.74.74,0,0,0,.24.63,1.26,1.26,0,0,0,.77.18h.61l-.2,1.15h-.61A2.75,2.75,0,0,1,215.44,73.1Z"/><path class="cls-1" d="M220.22,73.05a1.81,1.81,0,0,1-.74-1.52,2.93,2.93,0,0,1,0-.43l.11-.59a2.85,2.85,0,0,1,1.05-1.84,3.4,3.4,0,0,1,2.13-.65H224a5.45,5.45,0,0,1,1.31.19,3.38,3.38,0,0,1,1.09.48l.25-1.49c0-.17,0-.29,0-.36a1.28,1.28,0,0,0-.39-1,1.49,1.49,0,0,0-1-.36h-1.44a2.27,2.27,0,0,0-1.31.36,1.42,1.42,0,0,0-.64,1h-1.3A2.82,2.82,0,0,1,221.61,65a3.48,3.48,0,0,1,2.16-.68h1.44a3,3,0,0,1,2,.61,2.07,2.07,0,0,1,.73,1.68,4,4,0,0,1,0,.56l-1.1,6.28h-1.22l.21-1.26a4.09,4.09,0,0,1-1.19,1,2.63,2.63,0,0,1-1.34.37h-1.08A3.06,3.06,0,0,1,220.22,73.05Zm3-.56a2.88,2.88,0,0,0,1.61-.52A3.26,3.26,0,0,0,226,70.58l.12-.67a2.21,2.21,0,0,0-.91-.55,4.07,4.07,0,0,0-1.27-.2h-1.15a2.1,2.1,0,0,0-1.27.36,1.53,1.53,0,0,0-.62,1l-.11.57a2.75,2.75,0,0,0,0,.29,1,1,0,0,0,.37.8,1.51,1.51,0,0,0,1,.3Z"/><path class="cls-1" d="M231.31,64.5h1.29l-1.58,9h-1.3Zm.29-1.57a.73.73,0,0,1-.22-.56,1.13,1.13,0,0,1,.31-.84,1.09,1.09,0,0,1,.82-.33.87.87,0,0,1,.61.21.74.74,0,0,1,.22.57,1.15,1.15,0,0,1-.31.84,1.11,1.11,0,0,1-.84.33A.84.84,0,0,1,231.6,62.93Z"/><path class="cls-1" d="M234.76,73a2,2,0,0,1-.74-1.64,2.81,2.81,0,0,1,.06-.56h1.26a2.23,2.23,0,0,0,0,.36,1.28,1.28,0,0,0,.4,1,1.57,1.57,0,0,0,1.1.36h1.56a2.64,2.64,0,0,0,1.33-.3,1.25,1.25,0,0,0,.62-.84l.12-.61a.52.52,0,0,0,0-.14.71.71,0,0,0-.22-.53,1.12,1.12,0,0,0-.61-.28l-3-.54a2.37,2.37,0,0,1-1.28-.61,1.48,1.48,0,0,1-.47-1.09,1.53,1.53,0,0,1,0-.3l.11-.6A2.63,2.63,0,0,1,236,65a3.39,3.39,0,0,1,2.07-.61h1.55a2.84,2.84,0,0,1,1.9.58,1.91,1.91,0,0,1,.69,1.55,2.61,2.61,0,0,1,0,.46h-1.26a1.7,1.7,0,0,0,0-.28,1.15,1.15,0,0,0-.35-.87,1.42,1.42,0,0,0-1-.32h-1.55a2.05,2.05,0,0,0-1.18.32,1.43,1.43,0,0,0-.6.88l-.1.53a.65.65,0,0,0,.17.6,1.36,1.36,0,0,0,.72.35l3,.54a2.26,2.26,0,0,1,1.22.59,1.48,1.48,0,0,1,.46,1.08,3.14,3.14,0,0,1,0,.33l-.13.72a2.48,2.48,0,0,1-1,1.63,3.81,3.81,0,0,1-2.2.58H236.8A3.09,3.09,0,0,1,234.76,73Z"/><path class="cls-1" d="M245.35,64.5h1.29l-1.58,9h-1.3Zm.29-1.57a.73.73,0,0,1-.22-.56,1.13,1.13,0,0,1,.31-.84,1.09,1.09,0,0,1,.82-.33.89.89,0,0,1,.61.21.74.74,0,0,1,.22.57,1.19,1.19,0,0,1-.31.84,1.12,1.12,0,0,1-.84.33A.84.84,0,0,1,245.64,62.93Z"/><path class="cls-1" d="M249.7,64.5H251l-.25,1.38a3.68,3.68,0,0,1,1.22-1,3.09,3.09,0,0,1,1.46-.38h1l-.19,1.17h-.78a2.9,2.9,0,0,0-2,.73,3.24,3.24,0,0,0-1.06,1.93l-.92,5.19h-1.29Z"/></svg>