<?xml version="1.0" encoding="utf-8"?>
<!-- Generator: Adobe Illustrator 25.4.1, SVG Export Plug-In . SVG Version: 6.00 Build 0)  -->
<svg version="1.1" id="artwork" xmlns="http://www.w3.org/2000/svg" xmlns:xlink="http://www.w3.org/1999/xlink" x="0px" y="0px"
	 viewBox="0 0 948.9 280.6" style="enable-background:new 0 0 948.9 280.6;" xml:space="preserve">
<style type="text/css">
	.st0{fill:#FFFFFF;fill-opacity:0;}
	.st1{fill:#A6A6A6;}
	.st2{fill:#FFFFFF;}
	.st3{fill:url(#SVGID_1_);}
	.st4{fill:url(#SVGID_00000007399874259329634900000007113357319504041098_);}
	.st5{fill:url(#SVGID_00000043447100156286849940000004425226588238237578_);}
	.st6{fill:url(#SVGID_00000034078490350156693600000002249476224857470880_);}
	.st7{opacity:0.2;enable-background:new    ;}
	.st8{opacity:0.12;enable-background:new    ;}
	.st9{opacity:0.25;fill:#FFFFFF;enable-background:new    ;}
	.st10{fill:#FFFFFF;stroke:#FFFFFF;stroke-width:0.2;stroke-miterlimit:10;}
</style>
<g>
	<g>
		<rect x="-70.1" y="-70.1" class="st0" width="1087.2" height="420.9"/>
		<g>
			<path d="M911.9,280.6H35.1C15.8,280.6,0,264.8,0,245.5V35.1C0,15.8,15.8,0,35.1,0h876.8C931.2,0,947,15.8,947,35.1v210.4
				C947,264.8,931.2,280.6,911.9,280.6z"/>
		</g>
		<g>
			<g>
				<path class="st1" d="M911.9,5.6c16.2,0,29.5,13.2,29.5,29.5v210.4c0,16.2-13.2,29.5-29.5,29.5H35.1c-16.2,0-29.5-13.2-29.5-29.5
					V35.1c0-16.2,13.2-29.5,29.5-29.5H911.9 M911.9,0H35.1C15.8,0,0,15.8,0,35.1v210.4c0,19.3,15.8,35.1,35.1,35.1h876.8
					c19.3,0,35.1-15.8,35.1-35.1V35.1C947,15.8,931.2,0,911.9,0L911.9,0z"/>
			</g>
		</g>
		<path class="st2" d="M478,152.6c-16.5,0-29.9,12.5-29.9,29.8c0,17.2,13.4,29.8,29.9,29.8s29.9-12.7,29.9-29.8
			C507.9,165.1,494.5,152.6,478,152.6z M478,200.5c-9,0-16.8-7.5-16.8-18.1c0-10.7,7.8-18.1,16.8-18.1s16.8,7.3,16.8,18.1
			C494.8,193,487,200.5,478,200.5z M412.6,152.6c-16.5,0-29.9,12.5-29.9,29.8c0,17.2,13.4,29.8,29.9,29.8s29.9-12.7,29.9-29.8
			C442.6,165.1,429.1,152.6,412.6,152.6z M412.6,200.5c-9,0-16.8-7.5-16.8-18.1c0-10.7,7.8-18.1,16.8-18.1s16.8,7.3,16.8,18.1
			C429.5,193,421.7,200.5,412.6,200.5z M334.9,161.7v12.7h30.3c-0.9,7.1-3.3,12.3-6.9,15.9c-4.4,4.4-11.3,9.3-23.4,9.3
			c-18.6,0-33.2-15-33.2-33.7s14.6-33.7,33.2-33.7c10.1,0,17.4,4,22.8,9l8.9-8.9c-7.6-7.2-17.6-12.8-31.8-12.8
			c-25.5,0-47,20.8-47,46.3s21.5,46.3,47,46.3c13.8,0,24.2-4.5,32.3-13c8.4-8.4,11-20.1,11-29.6c0-2.9-0.2-5.6-0.7-7.9h-42.5V161.7z
			 M652.7,171.6c-2.5-6.7-10.1-19-25.5-19s-28.1,12.1-28.1,29.8c0,16.7,12.7,29.8,29.6,29.8c13.7,0,21.6-8.4,24.9-13.2l-10.2-6.8
			c-3.4,5-8,8.2-14.7,8.2s-11.4-3.1-14.5-9l39.9-16.5L652.7,171.6z M612,181.5c-0.3-11.5,8.9-17.4,15.6-17.4c5.2,0,9.6,2.6,11.1,6.3
			L612,181.5z M579.6,210.4h13.1v-87.7h-13.1V210.4z M558.1,159.3h-0.5c-2.9-3.5-8.6-6.7-15.7-6.7c-14.9,0-28.6,13.1-28.6,29.9
			c0,16.7,13.7,29.7,28.6,29.7c7.1,0,12.8-3.2,15.7-6.8h0.5v4.3c0,11.4-6.1,17.5-15.9,17.5c-8,0-13-5.8-15-10.6l-11.4,4.7
			c3.3,7.9,12,17.6,26.4,17.6c15.4,0,28.4-9,28.4-31.1v-53.6h-12.4L558.1,159.3L558.1,159.3z M543.1,200.5c-9,0-16.6-7.6-16.6-18
			c0-10.5,7.6-18.2,16.6-18.2c8.9,0,15.9,7.7,15.9,18.2C559,192.9,552,200.5,543.1,200.5z M714.1,122.8h-31.4v87.7h13.1v-33.2h18.3
			c14.5,0,28.8-10.5,28.8-27.2C742.9,133.3,728.6,122.8,714.1,122.8z M714.5,165h-18.6v-30.1h18.6c9.8,0,15.3,8.1,15.3,15
			C729.8,156.8,724.3,165,714.5,165z M795.4,152.4c-9.5,0-19.3,4.2-23.4,13.4l11.6,4.9c2.5-4.9,7.1-6.4,12-6.4
			c6.8,0,13.7,4.1,13.8,11.3v0.9c-2.4-1.4-7.4-3.4-13.7-3.4c-12.5,0-25.3,6.9-25.3,19.7c0,11.7,10.3,19.3,21.8,19.3
			c8.8,0,13.7-3.9,16.7-8.6h0.5v6.8H822v-33.6C822,161.1,810.4,152.4,795.4,152.4z M793.8,200.5c-4.3,0-10.3-2.1-10.3-7.4
			c0-6.8,7.4-9.4,13.9-9.4c5.8,0,8.5,1.2,12,2.9C808.3,194.7,801.3,200.5,793.8,200.5z M868,154.3l-15,38h-0.5l-15.6-38h-14.1
			l23.4,53.1L832.9,237h13.6l36-82.7L868,154.3L868,154.3z M750.1,210.4h13.1v-87.7h-13.1V210.4z"/>
		<g>
			
				<linearGradient id="SVGID_1_" gradientUnits="userSpaceOnUse" x1="152.9455" y1="-2080.8955" x2="35.2301" y2="-1963.1802" gradientTransform="matrix(1 0 0 1 0 2142)">
				<stop  offset="0" style="stop-color:#00A0FF"/>
				<stop  offset="6.574450e-03" style="stop-color:#00A1FF"/>
				<stop  offset="0.2601" style="stop-color:#00BEFF"/>
				<stop  offset="0.5122" style="stop-color:#00D2FF"/>
				<stop  offset="0.7604" style="stop-color:#00DFFF"/>
				<stop  offset="1" style="stop-color:#00E3FF"/>
			</linearGradient>
			<path class="st3" d="M73.2,52.9c-2,2.2-3.2,5.5-3.2,9.9v155.1c0,4.3,1.2,7.7,3.2,9.9l0.5,0.5l86.9-86.9v-1v-1L73.7,52.5
				L73.2,52.9z"/>
			
				<linearGradient id="SVGID_00000023264180667663367440000017445193996905201046_" gradientUnits="userSpaceOnUse" x1="237.3621" y1="-2001.7" x2="67.6398" y2="-2001.7" gradientTransform="matrix(1 0 0 1 0 2142)">
				<stop  offset="0" style="stop-color:#FFE000"/>
				<stop  offset="0.4087" style="stop-color:#FFBD00"/>
				<stop  offset="0.7754" style="stop-color:#FFA500"/>
				<stop  offset="1" style="stop-color:#FF9C00"/>
			</linearGradient>
			<path style="fill:url(#SVGID_00000023264180667663367440000017445193996905201046_);" d="M189.6,170.3l-29-29v-1v-1l29-29
				l0.7,0.4l34.3,19.5c9.8,5.6,9.8,14.7,0,20.3L190.3,170L189.6,170.3z"/>
			
				<linearGradient id="SVGID_00000058566944820354012830000003319524853097648813_" gradientUnits="userSpaceOnUse" x1="174.1884" y1="-1985.5884" x2="14.5569" y2="-1825.9569" gradientTransform="matrix(1 0 0 1 0 2142)">
				<stop  offset="0" style="stop-color:#FF3A44"/>
				<stop  offset="1" style="stop-color:#C31162"/>
			</linearGradient>
			<path style="fill:url(#SVGID_00000058566944820354012830000003319524853097648813_);" d="M190.3,169.9l-29.6-29.6l-87.4,87.4
				c3.2,3.4,8.6,3.8,14.6,0.4L190.3,169.9"/>
			
				<linearGradient id="SVGID_00000130624319994621144760000002232950578988870810_" gradientUnits="userSpaceOnUse" x1="51.2135" y1="-2140.7366" x2="122.4956" y2="-2069.4543" gradientTransform="matrix(1 0 0 1 0 2142)">
				<stop  offset="0" style="stop-color:#32A071"/>
				<stop  offset="6.850000e-02" style="stop-color:#2DA771"/>
				<stop  offset="0.4762" style="stop-color:#15CF74"/>
				<stop  offset="0.8009" style="stop-color:#06E775"/>
				<stop  offset="1" style="stop-color:#00F076"/>
			</linearGradient>
			<path style="fill:url(#SVGID_00000130624319994621144760000002232950578988870810_);" d="M190.3,110.7L87.8,52.5
				c-6-3.4-11.3-3-14.6,0.4l87.4,87.4L190.3,110.7z"/>
			<g>
				<path class="st7" d="M189.6,169.3L87.8,227.1c-5.7,3.2-10.8,3-14.1,0.1l0,0l-0.5,0.5l0,0l0.5,0.5l0,0c3.3,2.9,8.4,3.2,14.1-0.1
					l102.5-58.2L189.6,169.3z"/>
				<path class="st8" d="M73.2,226.7c-2-2.2-3.2-5.5-3.2-9.9v1c0,4.3,1.2,7.7,3.2,9.9l0.5-0.5L73.2,226.7z"/>
			</g>
			<path class="st8" d="M224.6,149.4l-35,19.9l0.7,0.7l34.3-19.5c4.9-2.8,7.4-6.5,7.4-10.1l0,0C231.5,143.6,229,146.9,224.6,149.4z"
				/>
			<path class="st9" d="M87.8,53.5l136.8,77.7c4.4,2.5,6.9,5.8,7.4,9.1l0,0c0-3.7-2.5-7.3-7.4-10.1L87.8,52.5
				C78,46.9,70,51.6,70,62.8v1C70,52.5,78,47.9,87.8,53.5z"/>
		</g>
	</g>
	<g>
		<path class="st10" d="M289.5,91.2V49.1h12.9c6.5,0,11.6,1.9,15.5,5.8s5.8,9,5.8,15.2s-1.9,11.3-5.8,15.2
			c-3.9,3.9-9.1,5.8-15.5,5.8h-12.9V91.2z M294.9,86h7.5c4.9,0,8.7-1.4,11.5-4.2c2.8-2.8,4.3-6.7,4.3-11.7s-1.4-8.9-4.3-11.7
			c-2.8-2.8-6.7-4.2-11.5-4.2h-7.5V86z"/>
		<path class="st10" d="M331.3,91.2V49.1h5.4v42.1H331.3z"/>
		<path class="st10" d="M358.2,92.1c-3.1,0-6-1-9-3c-2.9-2-4.8-4.8-5.7-8.4l4.9-2c0.6,2.3,1.8,4.3,3.6,5.8c1.8,1.6,3.9,2.4,6.1,2.4
			c2.3,0,4.4-0.6,6-1.8c1.7-1.2,2.5-2.9,2.5-5c0-2.3-0.8-4.2-2.5-5.4c-1.7-1.3-4.3-2.5-7.9-3.6c-3.7-1.2-6.5-2.7-8.5-4.6
			c-1.9-1.9-2.9-4.2-2.9-7.1c0-3,1.2-5.6,3.6-7.9c2.4-2.2,5.5-3.4,9.3-3.4c3.6,0,6.5,0.9,8.7,2.7c2.2,1.8,3.7,3.7,4.4,5.8l-4.9,2.1
			c-0.4-1.3-1.2-2.6-2.6-3.7s-3.2-1.7-5.4-1.7c-2.1,0-3.8,0.6-5.3,1.7c-1.5,1.2-2.2,2.6-2.2,4.3c0,1.6,0.7,2.9,2,4
			c1.4,1.1,3.3,2,6,2.9c2.1,0.7,3.8,1.3,5.2,1.9c1.4,0.6,2.8,1.5,4.2,2.5c1.4,1,2.5,2.3,3.2,3.9c0.7,1.5,1.1,3.3,1.1,5.4
			s-0.4,3.9-1.3,5.5c-0.8,1.6-2,2.9-3.4,3.8s-2.9,1.7-4.5,2.1S359.9,92.1,358.2,92.1z"/>
		<path class="st10" d="M385.4,91.2H380V49.1h14.3c3.6,0,6.7,1.2,9.3,3.6c2.6,2.4,3.9,5.4,3.9,9s-1.3,6.6-3.9,9s-5.7,3.6-9.3,3.6
			h-8.9V91.2z M385.4,69h9.1c2.3,0,4.1-0.8,5.5-2.3s2.1-3.2,2.1-5.1c0-1.8-0.7-3.5-2.1-5.1c-1.4-1.5-3.2-2.3-5.5-2.3h-9.1V69z"/>
		<path class="st10" d="M448.8,85.8c-4.1,4.3-9.3,6.4-15.4,6.4c-6.2,0-11.3-2.1-15.4-6.4c-4.1-4.2-6.2-9.5-6.2-15.6
			s2.1-11.4,6.2-15.6c4.1-4.3,9.3-6.4,15.4-6.4s11.2,2.1,15.4,6.4c4.2,4.3,6.2,9.5,6.2,15.6S452.9,81.5,448.8,85.8z M421.9,82.2
			c3.1,3.2,6.9,4.7,11.4,4.7s8.3-1.6,11.4-4.7c3.1-3.2,4.7-7.2,4.7-12.1s-1.6-8.9-4.7-12.1c-3.1-3.2-6.9-4.7-11.4-4.7
			s-8.3,1.6-11.4,4.7c-3.1,3.2-4.7,7.2-4.7,12.1S418.8,79.1,421.9,82.2z"/>
		<path class="st10" d="M462.5,91.2V49.1h6.6l20.5,32.7h0.2l-0.2-8.1V49.1h5.4v42.1h-5.6L468,56.9h-0.2L468,65v26.2L462.5,91.2
			L462.5,91.2z"/>
		<path class="st10" d="M504.6,91.2V49.1h5.4v42.1H504.6z"/>
		<path class="st10" d="M519.7,91.2V49.1h15.2c3.3,0,6.1,1.1,8.6,3.3c2.4,2.2,3.6,4.9,3.6,8.2c0,2-0.5,3.8-1.6,5.3
			c-1,1.5-2.4,2.7-4.1,3.5v0.2c2.1,0.7,3.8,1.9,5.1,3.6s2,3.7,2,6c0,3.4-1.3,6.3-3.8,8.6c-2.5,2.3-5.5,3.4-9,3.4H519.7z M525.1,67.2
			h9.8c2,0,3.7-0.7,4.9-2s1.8-2.8,1.8-4.4s-0.6-3.1-1.8-4.4s-2.8-2-4.7-2H525L525.1,67.2L525.1,67.2z M525.1,86H536
			c2.1,0,3.8-0.7,5.1-2.2c1.3-1.4,1.9-3,1.9-4.8c0-1.7-0.7-3.3-2-4.7c-1.3-1.4-3.1-2.1-5.2-2.1h-10.6V86H525.1z"/>
		<path class="st10" d="M555.8,91.2V49.1h5.4v42.1H555.8z"/>
		<path class="st10" d="M570.8,91.2V49.1h5.4V86h18.2v5.2H570.8z"/>
		<path class="st10" d="M625.8,54.3h-19.2v13.3h17.3v5.1h-17.3V86h19.2v5.2h-24.6V49.1h24.6V54.3z"/>
		<path class="st10" d="M658.5,92.1c-3.1,0-6-1-9-3c-2.9-2-4.8-4.8-5.7-8.4l4.9-2c0.6,2.3,1.8,4.3,3.6,5.8c1.8,1.6,3.9,2.4,6.1,2.4
			c2.3,0,4.4-0.6,6-1.8c1.7-1.2,2.5-2.9,2.5-5c0-2.3-0.8-4.2-2.5-5.4c-1.7-1.3-4.3-2.5-7.9-3.6c-3.7-1.2-6.5-2.7-8.5-4.6
			c-1.9-1.9-2.9-4.2-2.9-7.1c0-3,1.2-5.6,3.6-7.9c2.4-2.2,5.5-3.4,9.3-3.4c3.6,0,6.5,0.9,8.7,2.7c2.2,1.8,3.7,3.7,4.4,5.8l-4.9,2.1
			c-0.4-1.3-1.2-2.6-2.6-3.7c-1.4-1.1-3.2-1.7-5.4-1.7c-2.1,0-3.8,0.6-5.3,1.7c-1.5,1.2-2.2,2.6-2.2,4.3c0,1.6,0.7,2.9,2,4
			c1.4,1.1,3.3,2,6,2.9c2.1,0.7,3.8,1.3,5.2,1.9s2.8,1.5,4.2,2.5s2.5,2.3,3.2,3.9c0.7,1.5,1.1,3.3,1.1,5.4s-0.4,3.9-1.3,5.5
			c-0.8,1.6-2,2.9-3.4,3.8s-2.9,1.7-4.5,2.1C661.8,91.9,660.2,92.1,658.5,92.1z"/>
		<path class="st10" d="M694.9,92.1c-4.6,0-8.4-1.5-11.3-4.6c-2.9-3.1-4.3-7.1-4.3-12V49h5.4v26.7c0,3.3,0.9,6,2.6,8.1
			c1.7,2.1,4.3,3.1,7.6,3.1s5.8-1,7.5-3.1s2.6-4.8,2.6-8.1V49h5.4v26.5c0,5-1.4,9-4.2,12C703.5,90.6,699.7,92.1,694.9,92.1z"/>
	</g>
</g>
</svg>
