<?xml version="1.0" encoding="utf-8"?>
<!-- Generator: Adobe Illustrator 25.4.1, SVG Export Plug-In . SVG Version: 6.00 Build 0)  -->
<svg version="1.1" xmlns="http://www.w3.org/2000/svg" xmlns:xlink="http://www.w3.org/1999/xlink" x="0px" y="0px"
	 viewBox="0 0 100 100" style="enable-background:new 0 0 100 100;" xml:space="preserve">
<style type="text/css">
	.st0{display:none;}
	.st1{fill:none;stroke:#BABABA;stroke-width:0.5;stroke-miterlimit:10;}
</style>
<g id="Calque_1" class="st0">
	
		<image style="display:inline;overflow:visible;" width="565" height="561" xlink:href="B5FF2E48.jpg"  transform="matrix(0.177 0 0 0.177 0 0)">
	</image>
</g>
<g id="Calque_2">
	<path class="st1" d="M2.5,0.3C4.4,0.9,6.8,3.2,4.9,5C4,5.9,0.2,5.2,0.1,5.1"/>
	<path class="st1" d="M4.7-0.2c2.4,1.9,4,6.1,0.1,7.3C4.1,7.4,3.2,7.3,2.4,7C1.4,6.7,0.5,6.2-0.4,6.4"/>
	<path class="st1" d="M-0.2,7.4c2.1-0.2,3.8,1,5.4,2.1c4.9,2,2.8-7.2,1.8-9.4"/>
	<path class="st1" d="M0.4,8.6c2.7,0.6,4.6,3,6.8,4.5c3.8,3.1,9.1,6.9,9.1,12.2c-0.3,1.8-2.2,2.8-3.8,3.5c-1.1,0.7-1,2.3-0.9,3.5
		c0.2,2.1,0.4,4.1,0.7,6.2c0.2,1.4,0.3,2.9,1.1,4c1,1.4,2.6,2.1,4.2,2.6c2.5,1,5.2,0.9,7.8,0.2c2.5-0.6,5-1.1,7.6-1.7
		c1.6-0.2,2.1-1.1,1.9-2.6c-0.5-5.9,0.4-10.6-6.4-12.8c-2.5-0.8-5.5-1.1-7.2-3.3c-1.6-2-1.3-5.1,0.1-7.2c0.2-0.3,0.5-0.7,0.4-1
		c-0.1-0.4-0.6-0.6-1-0.6c-0.8-0.1-1.7,0-2.5-0.1c-1.4-0.3-2.5-1.3-3.3-2.5s-1.3-2.5-2-3.8C12,8.2,10.4,7.3,9.6,5.9
		C8.5,4.3,8,2.3,8,0.3"/>
	<path class="st1" d="M11,10.9c1.7-0.5,3.2,1.9,2.3,3.3c-0.8,0.8-2.3,0.2-3-0.6C10,13.1,9.8,12.5,10,12S11,10.9,11,10.9z"/>
	<path class="st1" d="M19.1,38.3c1.1-0.2,1.4,1.1,0.5,1.6c-0.5,0.3-1.1,0.3-1.6,0.2c-0.8-0.2-0.7-1.2,0-1.5
		C18,38.6,18.8,38.3,19.1,38.3z"/>
	<path class="st1" d="M23.3,34.2c1.1-1.5,3.5-3,5.1-1.5c1.2,1.4,0.6,3.7,0.3,5.4c-0.2,1.7-1.2,2-2.8,1.8c-1.1,0-2.2,0.2-3.2,0.6
		c-1.6,0.7-3.4,2.1-5.1,1.1c-0.8-0.5-1.1-1.3-1.4-2.2c-0.2-0.5-0.3-1.2-0.1-1.7c0.3-0.5,0.8-0.7,1.4-0.9c1.2-0.4,2.4-0.6,3.6-0.7
		C21.2,36.2,22.6,35,23.3,34.2z"/>
	<path class="st1" d="M20.4,35c1.1-0.9,1.7-2.2,2.7-3.2c1.7-1.6,4.6-1.6,6.3,0.1c1.1,1,1.6,2.5,1.8,4c1,4.5-3.6,5.9-7.2,5.7
		l-0.3,0.2c-1.4,0.7-2.9,1.4-4.5,1.1c-1.9-0.3-4.2-2-4.1-4.2c0.1-2.2,2.1-3,4-3.4L20.4,35z"/>
	<path class="st1" d="M31.9,31.8c1.6,2.6,2,6.8,0.3,9.4c-0.8,1-2,1.5-3.2,1.9c-2.9,1.1-6,2.2-9,1.6c-3.8-0.6-8.4-5.5-6.1-9.3
		c0.8-1.1,2.3-1.4,3.5-2c2.4-1.1,4.1-3.3,6.5-4.3c1.2-0.5,2.6-0.6,3.8-0.1C29.3,29.9,31.9,31.8,31.9,31.8z"/>
	<path class="st1" d="M0.1,10.9c1.9,0.9,0.1,3.1,0,4.5c-0.1,1.4,1.2,2.6,2.6,2.5c1-0.1,2.2-1,3.2-0.3C6.9,18.4,6,20.3,7,21.3
		c1.2,1.1,2.9-0.2,4.3,0.3c0.9,0.3,1.4,1.4,1.4,2.4c-0.2,2.9-4.4,4.6-3.5,7.8c0.6,1.9,1.5,3.7,1.7,5.6c0.2,2.1-0.2,4.3-0.6,6.4
		c-0.1,0.8-0.6,1.6-1.5,1.3c-2.1-0.9-4.2-2.3-5.5-4.2c-0.7-1.4-1.6-2.9-3.2-3.3"/>
	<path class="st1" d="M-0.2,35.3C1.9,37,4,38.7,6.1,40.4C6.5,40.7,7,41,7.5,41c0.7,0,1.2-0.7,1.5-1.4c0.4-0.9,0.6-1.8,0.5-2.7
		c-0.1-1.4-1-2.7-1.4-4c-0.5-1.5-0.3-3.1,0.3-4.5c0.6-1.1,1.6-3.2-0.2-3.7c-0.3,0.1-0.7-0.1-1-0.3c-0.8-0.7-1.3-1.7-2-2.6
		c-1.2-1.8-3.5-2.5-5.4-3.3"/>
	<path class="st1" d="M-0.1,34.5c1.1,1.1,8.9,5.8,7.5,1.5c-0.7-2.1-0.9-4.3-0.6-6.4c0.1-0.8,0.3-1.7,0.2-2.5c-0.3-1.8-1.9-3-3-4.3
		c-1-1.3-2.3-2.6-4.1-2.5"/>
	<path class="st1" d="M0,21.1c1.3,0.6,2.9,1.3,3.4,2.8c0.3,0.7,0.2,1.6,0.3,2.3c0.2,1.3,0.7,2.5,1.2,3.7c2.1,4.8-1.3,8.3-4.8,3.4"/>
	<path class="st1" d="M0,22.1c2,0.9,2,3.8,0,4.6"/>
	<path class="st1" d="M1.6,29.8c2.7-0.3,3.6,3.1,0.9,3.7c-1.6,0.2-2.6-1.8-1.6-3C1.4,30,1.6,29.8,1.6,29.8z"/>
	<path class="st1" d="M25.1,5c-0.4,2.7-3.5,0.4-3.4-1.3c-0.2-1,0.5-2.2,1.6-1.9C23.2,1.8,25.2,3.7,25.1,5z"/>
	<path class="st1" d="M21.5,0c-2,2.2-1.4,5.9,1.1,7.4c1.2,0.8,2.7,0.9,4.1,0.5c0.3-0.1,0.6-0.2,0.7-0.5c0.1-0.3,0-0.6-0.1-0.9
		C26.4,4.2,25.5,1.9,24,0"/>
	<path class="st1" d="M19,0c0.3,1.5,0,3.1,0.4,4.6c0.6,1.8,1.3,4,3.4,4.4c2.9,0.4,6.2,0.6,8.7-1.2c-3.1-1.4-4.6-4.7-5.8-7.7"/>
	<path class="st1" d="M26.6,0.1C28,3.3,29.7,5.5,33.5,5c2.5,0.4,2.8,3.7,1,5.1c-1.6,1.5-4,1.5-6,1.2C26.3,11,24,11,22,10.3
		c-1-0.4-1.9-1-2.4-1.9C18.7,7,19,5.1,18.4,3.6c-0.3-0.8-1-1.5-1.8-1.6c-1-0.2-1.9,0.4-2.9,0.5c-1.3,0-2.5-1.1-2.6-2.4"/>
	<path class="st1" d="M10,0.2c0.1,1.6,1.3,3.1,2.9,3.7c0.9,0.3,2,0.3,2.7,0.9c1.1,0.9,1.1,2.6,1.7,3.8c0.9,1.9,3.1,2.8,5.1,3.1
		c4,0.3,8.3,0.1,11.4,3.2c1.2,1.1,2.2,2.6,3.7,3.2c1.3,0.7,3.4,0.2,3.6-1.5c0.1-1.2-0.9-2.1-1.7-2.9c-1.5-1.7-2.3-4.1-2.2-6.4
		c0.1-0.9,0.2-1.8-0.3-2.5c-0.7-0.9-2.1-0.8-3.3-0.8c-2.6,0-5.2-1.6-6.4-4"/>
	<path class="st1" d="M9.1,0.1c0.2,3.1,2.5,5.1,4.7,7c1.5,1.7,2.2,4.1,4.1,5.3c1,0.7,2.3,0.9,3.6,1.1c2.4,0.4,4.8,0.8,7.1,1.3
		c0.8,0.1,1.7,0.3,2.4,0.8c1.7,1.2,1,3.3-1.1,3.5c-3.3,0.1-4.3-0.3-5.2,3.3c-0.7,4.1,5.2,2.6,7.4,4.2c1.7,1.3,2.8,3.4,3.9,5.2
		c1.5,2.5,1.1,5.5,0,8c0.6,2.6,2.1,5.6,5.2,5.4c1.5-0.1,3.2-0.3,4.4-1.2c0.6-0.6,0.7-1.5,0.7-2.3c0-1.4-0.4-2.9-1-4.1
		c-1.3-2-2.2-3.8-0.4-5.9c0.6-0.7,1.3-1.4,1.9-2.1c2-2.3,0.5-4-1.8-4.5c-1.6-0.5-2.3-2.6-1.3-4c0.4-0.6,1-1,1.3-1.6
		c0.5-0.9,0.4-2-0.1-2.8c-0.9-1.8-2.9-2.6-4.2-4.1c-1.2-1.3-1.8-3-1.8-4.7c0.6-4.5-1.8-4.9-5.6-5.4c-1.6-0.4-3.1-1.3-4.1-2.5"/>
	<path class="st1" d="M30.7,20.6c1,0.8,2.2,2.4,1.2,3.6c-1.2,1-3,0.3-4.4,0c-1.6-0.4-2.4-1.9-0.8-3C27.8,20.4,30.7,20.6,30.7,20.6z"
		/>
	<path class="st1" d="M34.6,21.2c-2.1,3.2,1.2,5.1,4,3.5c0.5-0.2,1-0.6,1.2-1.1c0.5-2-2.3-2.7-3.8-2.9
		C35.5,20.8,34.6,21.2,34.6,21.2z"/>
	<path class="st1" d="M39.3,28.1c3-0.9,3.8,2.9,0.5,3.1c-1.4,0.4-2.7-0.7-2.1-2.1C38.1,28.4,39.3,28.1,39.3,28.1z"/>
	<path class="st1" d="M40.6,38c1.6-0.2,2.4,1.9,1.6,3.1c-0.9,0.9-2.4,0.1-2.6-1.1C39.6,39.4,40.6,38,40.6,38z"/>
	<path class="st1" d="M40.2,36.3c1.2,0.5,2.6,1.1,3.2,2.4c0.6,1.3,0,3-1.2,3.6c-2.6,1.3-4.8-1.5-3.4-3.9
		C39.1,37.8,39.8,36.8,40.2,36.3z"/>
	<path class="st1" d="M43,36.5c1.6,1.8,3.3,4.9,1.2,6.9c-1.3,1-3.2,1.2-4.7,0.6c-2.9-1.3-2.9-5.2-1.5-7.7c1.1-1.7,1.3-3-0.4-4.4
		c-1.7-1.2-3.9-3.4-1.2-4.9c2.1-1.2,8.9-3.1,8.3,1.2c-0.3,1.6-1.7,2.7-2.3,4.2C41.9,33.9,43,36.5,43,36.5z"/>
	<path class="st1" d="M4.2,47.4c1.2,0.7-0.2,1.7-1.1,1.4c-1.1-0.3-0.8-2,0.3-1.5C3.4,47.4,3.8,47.2,4.2,47.4z"/>
	<path class="st1" d="M0,46.8c1.7-0.3,3.3-1.8,5.2-1.3c0.9,0.2,1.6,1,1.8,1.9c0.5,3.8-4.9,3.1-6.4,3"/>
	<path class="st1" d="M-0.1,45.9c2.3-1.5,6.7-2.7,8,0.5c0.5,1.2,0.4,2.7-0.4,3.8c-1.2,1.5-7,1.9-7.1,2"/>
	<path class="st1" d="M13.6,47.7c1.3,0.7-0.2,2-1.2,1.5c-0.3-0.2-0.5-0.6-0.4-0.9c0.2-0.3,0.6-0.7,1-0.6
		C13,47.6,13.3,47.5,13.6,47.7z"/>
	<path class="st1" d="M11.8,44.1c-0.1-0.2-0.2-0.4-0.2-0.6c-0.1-0.6,0.5-0.8,0.8-0.3c0.3,0.9,0.7,1.6,1.6,2.1
		c1.7,0.7,3.5,1.6,4.4,3.4c0.7,1.1,0.4,2.5-1.1,2.8c-0.5,0.1-1.1,0-1.6-0.1C13.9,51,11.9,50.7,10,50c-1.8-1.3,1-2.9,1.8-3.9
		C11.9,46.1,12.1,44.8,11.8,44.1z"/>
	<path class="st1" d="M25.7,47c1.4-0.5,2.1,0.6,1.9,1.9c-0.1,1.3-0.6,3.1-2.1,3.3c-3.2,0-3.4-2.5-1.1-4.3
		C24.5,47.9,25.2,47.2,25.7,47z"/>
	<path class="st1" d="M0,53.1c0.6,0.6,1.5,0.8,2.4,0.8c1.6,0,3.6-0.5,4.8,0.8c1.3,2.2,2,5.5,3.1,8c1.4,3.4,1.7,7.4-0.4,10.5
		c-0.6,1-1.3,2.1-2.4,2.4c-0.9,0.3-1.9,0.2-2.8,0.3c-1.8,0.1-3.5,0.7-4.9,1.7"/>
	<path class="st1" d="M0,67.5c1.9,0.3,1.2,3.1,0,4"/>
	<path class="st1" d="M0.1,65.7c0.8-0.3,1.6,0.2,2.1,0.9c1.1,2.2-0.2,5-2,6.5"/>
	<path class="st1" d="M0.1,64.1C2,64.4,3.7,61.3,5.5,63c0.8,1.2,0,2.8-0.4,4.1c-0.5,1.4-1.1,2.9-1.9,4.2S0.1,74,0.2,74"/>
	<path class="st1" d="M0,62.5c1.7-1.7,2.3-4,3.7-5.6c0.6-0.5,1.6-0.7,2.2-0.2c0.8,0.7,0.5,1.9,0.5,2.9c0,2.2,1.5,4.1,1.7,6.2
		c0.5,4.9-4.4,8-8.3,9.8"/>
	<path class="st1" d="M-0.1,59.7c1.3-1.1,1.6-3.2,3-4.1c1.4-1,3.7-0.4,4.3,1.2c0.3,0.7,0.3,1.5,0.4,2.2c0.3,2.1,1.4,4,1.8,6.1
		c1.1,7-3.3,10.3-9.8,11.1"/>
	<path class="st1" d="M0,98c1.3,0.7,3.8,1.9,3.8,1.9"/>
	<path class="st1" d="M0.2,94.1c1.3,0.6,1.8,2,2.5,3.2c0.8,1.2,1.9,2.1,3.1,2.6"/>
	<path class="st1" d="M0.1,92.8c1.4,0.5,2.5,1.7,3.5,2.8c1.3,1.5,3.9,4.3,3.9,4.2"/>
	<path class="st1" d="M8.6,100.2c0.2-3.4-3.3-5.3-5.5-7.4c-2-1.9-3.4-4.5-3.9-7.2c-0.6-2.4,0.4-4.2,2.6-5.2c7-3.8,13.7,0.1,18.1,5.8
		c0.5,0.6,0.9,1.1,1.2,1.8c0.3,0.8,0.2,1.7,0.4,2.5c0.9,4.1,6.9,5.2,7.5,9.5"/>
	<path class="st1" d="M9.2,100c0.6-6.3-9.2-8.5-7.9-15c1.8-5.4,9.5-5.2,13.6-2.5c2.3,1.5,4.1,3.8,5,6.5c0.3,0.9,0.4,1.8,0.8,2.6
		c1.7,3.3,5.1,5.4,7.6,8.1"/>
	<path class="st1" d="M10.2,99.9c0.3-5.7-7.7-9.7-5-15.6c3.1-5.2,10.3-1.9,12.2,2.7c0.6,1.3,1,2.7,1.6,3.9c1.8,3.6,5.7,5.7,7.8,9.1"
		/>
	<path class="st1" d="M10.9,100c0.4-2.5,0.7-5.2-0.7-7.4c-0.5-0.7-1.1-1.3-1.6-2.1c-1.1-1.6-1.3-3.9-0.5-5.7
		c0.7-1.8,2.2-2.1,3.9-1.3c1.5,0.6,3.1,1.3,3.9,2.6c0.6,1.1,0.7,2.4,1,3.6c0.6,2.4,2.1,4.6,4.1,6c0.9,0.6,1.9,1.1,2.8,1.7
		c0.9,0.7,1.8,2.5,1.8,2.4"/>
	<path class="st1" d="M17.4,100.4c0.6-1.8-0.9-3.9-2.8-4c2,0.1,4.6-0.5,6.1,1.3c0.5,0.7,0.7,1.7,1.3,2.3"/>
	<path class="st1" d="M12.3,86.6c1.3,0.4,1.2,2.2-0.3,2c-0.7,0.1-1.4-0.3-1.3-1.1c0.1-0.4,0.4-0.9,0.9-1L12.3,86.6z"/>
	<path class="st1" d="M14.6,91.3c1.1-1.4,1.2-3.3-0.2-4.6c-0.5-0.6-1.2-1-1.9-1.4c-0.7-0.4-1.5-0.9-2.3-0.6
		c-2.5,1.2-0.3,5.2,1.3,6.3C12.4,91.6,14.6,91.3,14.6,91.3z"/>
	<path class="st1" d="M17.6,76.8c0.7-1.6-1.1-3-2.6-3.2c-0.4-0.1-0.8-0.1-1.1,0.2c-0.7,0.8,0.3,1.6,1,1.9
		C15.7,76.1,16.6,76.9,17.6,76.8z"/>
	<path class="st1" d="M14.7,77.3c-1.7-1.5-3.9-5.7,0.3-4.6c1.1,0.3,2.3,0.7,3,1.5c0.6,0.7,0.9,1.7,0.8,2.7
		C18.9,77.9,15.8,78.3,14.7,77.3z"/>
	<path class="st1" d="M24.2,82.7c1,1.1,1.1,4.1-0.9,3.9c-1.4-0.4-1.7-3.3-0.9-4.3C22.4,82.3,23.7,82.2,24.2,82.7z"/>
	<path class="st1" d="M28.9,90.9c0.2,1-0.8,1.7-1.6,0.9c-0.8-0.7-0.9-3.2,0.6-2.6C27.9,89.2,28.8,90.2,28.9,90.9z"/>
	<path class="st1" d="M11,75.8c-0.7-3.6,1.2-5.3,4.7-4c1.2,0.4,2.5,0.8,3.3,1.9c1.4,2-0.1,5.5,2.2,7c0.6,0.3,1.2,0.4,1.8,0.6
		c1.5,0.5,2.5,1.8,3.3,3.1c1.3,2.4,3.2,4.6,4.2,7.1c0.4,1.6-1.1,2.6-2.5,1.8c-0.6-0.4-1-0.9-1.3-1.5s-0.6-1.2-1.1-1.7
		c-1.3-1.5-4-2.1-4.5-4.2c-0.2-0.8,0-1.6-0.3-2.4c-0.5-1-1.7-1.2-2.7-1.8c-0.9-0.6-1.6-1.5-2.3-2.4C14.4,77.9,11,75.8,11,75.8z"/>
	<path class="st1" d="M35.9,93.5c0.3-0.1,0.6,0.1,0.4,0.4c-0.3,0.3-0.9,0.5-1.4,0.5c-0.5,0-0.5-0.8,0-0.7L35.9,93.5z"/>
	<g>
		<path class="st1" d="M33,96.2c-0.8,0.6-2.2,0.4-1.6-0.9c0.5-0.7,1.3-1,2-1.6c0.7-0.5,1.4-1,2.3-1.2c0.8-0.1,2.4,0.2,2.5,1.2
			c0,0.4-0.4,0.5-0.8,0.6c-0.7,0.2-1.3,0.5-2,0.7C35.4,95.1,33.9,95.7,33,96.2z"/>
	</g>
	<path class="st1" d="M32.3,98.9c-0.4,0.2-1,0.2-1.3-0.1c-0.2-0.2-0.3-0.6-0.4-0.9c-1.1-2.3-4.9-1.6-5.7-4.3
		c2.6,0.6,6.8,3.1,7.4-1.1c0.1-0.7,0.3-1.5,0.7-2.1c1.3,0.2,10,2.2,6.1,4.1c-2.1,0.9-4,2.2-5.7,3.7C33.4,98.1,32.7,98.7,32.3,98.9z"
		/>
	<path class="st1" d="M39.2,100c-1.7-2.3,2-4.7,4.2-3.9c2.4,0.7,1.8,3,1.7,4.1"/>
	<path class="st1" d="M47.9,100c-1.1-1.5,0.4-2.9,2.1-2.7c1.7,0,4,0.7,4,2.7"/>
	<path class="st1" d="M37.7,100.1c-0.5-1.7,0.5-3.5,1.9-4.5c1.4-1,3.2-1.3,5-1.4c0.6,0,1.2-0.1,1.5-0.6c0.6-1.6-1.6-2.3-2.8-2.6
		c-1.9-0.5-3.8-1-5.6-1.4c-9.2-2.6-7.2,1-11.5-8.5c-2.1-0.4-4-2.1-4.9-4c-0.9-1.9-1-4.3-2.3-6c-0.8-1-2-1.7-3-2.5
		c-2-1.6-3.5-4-4.1-6.5c-0.6-2.1-1.6-4.4-0.3-6.5c2.6-3.5,8.7-3.2,12.5-2c2.8,0.9,5.3,2.5,7.4,4.6c0.9,0.9,1.8,1.9,2.2,3.1
		c0.4,1.2,0.3,2.6,0.5,3.9c0.2,1.3,0.8,2.7,2,3.1c2.8,1,4.7,4,6.3,6.5c1.6,3.1,3.4,2.3,6.3,2.5c1.3,0.2,2.6,1,3.3,2.1
		c1.8,2.6,0.7,6.8,3.4,8.9c1.1,0.8,2,2.1,3,3.1c0.6,0.5,1.1,1.1,1.4,1.8c0.3,0.8,0.1,1.7-0.3,2.5c-0.7,1.5-2.2,2.9-2.2,4.7"/>
	<path class="st1" d="M53.9,96.1c2.3,1,4.3-0.3,3.4-2.8c-0.4-0.9-1.2-1.5-1.9-2.2c-2.3-2.2-3.8-5.3-4.1-8.5c0.1-3.4-2-4.3-5.1-4
		c-1,0-2-0.1-2.8-0.7c-0.7-0.5-1.1-1.2-1.5-2c-1.7-2.8-3.9-5.3-6.6-7.3c-0.9-0.7-1.9-1.3-2.5-2.2c-0.8-1.2-0.9-3-0.1-4.2
		c0.3-0.5-0.3-1.1-0.7-1.6c-0.4-0.5-0.9-0.8-1.3-1.2c-2.1-1.4-3.9-3.2-6.2-4.2c-2.2-0.9-4.8-0.4-7.1,0.2c-1.3,0.3-2.7,0.7-3.7,1.6
		c-2.6,2.8-0.6,7,2,9.1c2.4,2.3,5.7,4.6,5.9,8.3c0.1,1.8,1.8,3.1,3.2,4.3c1.4,1.2,2.9,2.3,3.9,3.8c0.9,1.3,1.4,3,2.7,3.9
		c1.4,1,3.4,0.8,5.1,0.8c4.3,0.1,8.5,2.2,11.3,5.5c0.8,1,1.6,2.2,2.9,2.5C50.7,95.4,53,95.8,53.9,96.1z"/>
	<path class="st1" d="M23.1,60.7c1.1,0.1,2.1,1.6,0.9,2.3c-0.9,0.4-2-0.9-1.9-1.7c0.2-0.5,0.8-0.5,1.3-0.5L23.1,60.7z"/>
	<path class="st1" d="M26,65.9c1.7-1.7,1.9-4.5-0.5-5.7c-1.4-0.8-3.3-2.8-4.9-1.3c-1.5,1.7,0.5,3.8,1.5,5.3c0.6,0.7,1.3,1.3,2.2,1.5
		C24.9,66,26,65.9,26,65.9z"/>
	<path class="st1" d="M35.3,76.6c0.8-0.1,1.4,0.7,1.6,1.4c0.3,1,0.9,2.3,0.4,3.3c-0.4,0.5-1.2,0.4-1.7,0
		C34,80.3,33.7,77.6,35.3,76.6z"/>
	<path class="st1" d="M38,77c0.8,1.5,1.3,3.2,1.9,4.9c0.1,0.3,0.2,0.6,0.2,1c-0.5,1.8-3.3,1.2-4.6,0.5c-0.7-0.4-1.3-1-1.9-1.7
		c-0.6-0.6-1.2-1.3-1.2-2.2c0.2-1.4,0.9-2.8,1.5-4.1c0.3-0.5,0.8-1.2,1.5-1C35.3,74.4,37.3,75.9,38,77z"/>
	<path class="st1" d="M39.9,76.7c0.8,3.1,4.8,2.9,7.2,4.3c3,1.8,3.7,5.5,4.2,8.7c0.2,1.3-0.6,1.8-1.6,0.8c-2.2-2.2-5.3-3.5-8.4-3.5
		c-2.2,0-4.7,0.5-6.6-0.7c-1.7-1-2.5-3.1-3.3-4.9c-2.8-6.9-5.9-2.5-8.7-6.8c-0.6-1.1-0.8-2.5-0.4-3.7c1.3-3.7-3-4.9-4.7-7.3
		c-2.8-5,3.1-9.5,7.7-6.7c4.6,2.9,4.1,9.6,7.8,13.2c1.2,1.1,2.6,1.8,4,2.8C38.3,73.8,39.9,76.7,39.9,76.7z"/>
	<path class="st1" d="M30,71c2.1,1.6,4.9,2,7,3.5c3,2.2,3.4,6.6,6.3,8.9c0.5,0.4,1.2,0.9,1,1.7c-0.2,0.7-1,0.8-1.6,0.8
		c-3.3,0.1-7.3-0.1-9.5-2.9c-1.3-1.9-2.2-4.1-2.6-6.3c-0.1-1.8,0.1-3.7-0.9-5.3L30,71z"/>
	<path class="st1" d="M42.5,59.8c0.9-0.1,1.9,0,2.6,0.6c0.3,0.3,0.5,0.8,0.7,1.3c0.3,0.6,0.5,1.5-0.1,2c-1.6,1.1-4.1-1.8-3.5-3.4
		L42.5,59.8z"/>
	<path class="st1" d="M45.5,59.5c0.9,0.8,1.9,1.7,2.1,2.9c0.4,2.4-2.3,3.8-4.3,2.7c-2.8-1.2-3.9-7.3,0.1-7.4
		C43.4,57.7,44.7,58.8,45.5,59.5z"/>
	<path class="st1" d="M44.3,66.9c-2.7-0.5-4.4-3-4.6-5.7c-0.3-2.2-0.3-4.7,1-6.6c1.2-1.8,2.8-1.3,3.7,0.4c1.4,2.3,3.1,4.4,4.3,6.8
		c0.4,1.1,0.8,2.3,0.4,3.5c-0.3,0.9-1.2,1.4-2.1,1.6C46.1,67.2,44.3,66.9,44.3,66.9z"/>
	<path class="st1" d="M47.4,68.5c2.1,0,2.7-2.5,2.8-4.2c0.2-1.7,0.3-3.5-0.6-4.9c-0.4-0.6-1.1-1.1-1.6-1.7c-1.3-1.5-1.6-3.8-3-5.2
		c-3.2-2.9-7.8,0-7.2,4.1c0.3,2.3,1.1,4.5,1.6,6.8c0.5,2.6,2.1,4.6,4.8,5L47.4,68.5z"/>
	<path class="st1" d="M43.5,70c-4.8-2.8-8.3-8.4-7.7-14.1c0.6-4.4,4.5-8.1,8.9-8.5c2.8-0.3,2.9,1.7,2.6,4c-0.2,2.1,0.7,4.4,2.3,5.8
		c1.4,1.2,3.3,2.1,3.8,3.9c0.3,1.2-0.1,2.4-0.3,3.6c-0.3,2.7,2.2,4.3,3.7,1.7c1.2-3.2-0.2-5.6,4.2-6.7c4.6-1.4,9.2-2.8,13.8-4.2
		c0.9-0.3,1.1-1.5,1.3-2.4c0.6-2.5-1.6-4.6-3.4-6c0-2.1-0.9-4.6-3.2-5.1c-1.1-0.3-2.3,0.1-2.9,1c-0.3,0.4-0.4,1-0.8,1.4
		c-0.5,0.5-1.3,0.6-2,1c-1.4,0.7-2.1,2.3-2.7,3.7c-0.8,1.9-1.5,3.7-2.3,5.6c-0.4,1-0.9,2.1-1.7,2.8c-2.5,2.1-6.2,0-7.2-2.8
		c-1.1-2.2-0.7-4.8-1.3-7.1c-0.8-2.7-3.2-2.7-5.5-1.6c-0.9,1.6-3,0.9-4.5,0.6c-2.1-0.4-4.3,0.4-6.3,1.3c-2.3,0.7-3.8,3.1-1,4.3
		c1.3,0.5,3.3,0.5,3.9,2c0.4,1.1-0.4,2.2-0.8,3.4c-0.5,2,0.5,3.9,1.5,5.6c1.6,2.9,3.4,5.9,6.5,7.4c1.9,0.9,4.2,0.4,6.1,1.1
		c2,0.7,3.8,1.9,4.7,3.8c1.2,2.6,0.5,6,2.3,8.2c0.8,1,2.1,1.6,3.1,2.4c2.2,1.7,3.6,4.4,3.6,7.2c2,0,3.8,1.3,5.4,2.4
		c3,2.1,6.3,2.3,8-1.3c0.6-1.1,1-2.3,1.6-3.3c1.2-1.9,3.1-3.3,4.5-5.1c2.6-3.1,3.8-7.2,4.9-11.1c0.5-1.8,0.3-3.5,0-5.4
		c-0.5-2.6-0.5-5.4-1.3-7.9c-0.7-1.4-2.7-1.7-3.9-2.7c-1.4-1.1-2-3.4-3.9-4c-1.5-0.4-2.8,0.6-2.4,2.2c0.5,2.6,0.3,5.5,1.4,8
		c0.4,0.7,1,1.3,1.3,2.1c0.2,0.7,0.2,1.4,0.2,2c0,3.3-1.4,4.7-4.6,5.2c-2.1,0.5-4.2,1-6.3,1.5c-2,0.3-4.7,1.5-4.2,3.9
		c-0.8,0.6-0.7,1.7-0.3,2.5c0.8,2.2,1.5,4.4,2.3,6.5c0.2,0.6,0.4,1.2,0.3,1.8c-0.2,1.3-1.7,1.8-2.4,0.6c-0.6-1.1-0.7-2.5-1-3.7
		c-0.1-1.1-0.8-1.8-1.7-2.3c-1.5-0.9-2.8-2.1-4-3.3c-2.4-2.4,1.2-3.4,0.8-5.8c-0.3-1-1.3-1.4-2.2-1.7c-1.3-0.5-2.5-1.4-3.4-2.6
		c-0.3-0.4-0.6-0.9-1.1-1.2c-0.5-0.3-1.1-0.4-1.7-0.4C47.1,70.5,43.5,70,43.5,70z"/>
	<path class="st1" d="M55.2,64.4c0.3,0.6,0.3,1.7-0.6,1.6c-0.5-0.1-0.6-0.9-0.3-1.3L55.2,64.4z"/>
	<path class="st1" d="M66.9,64.9c2.5,0.5,2.1,2.7,0.2,3.8c-0.9,0.7-1.9,1.3-2.8,2c-0.8,0.7-2,0.8-2.6-0.3c-0.6-1,0-2.2,0.6-3.1
		c0.5-0.8,1.1-1.7,2-2.1C64.4,65.2,66.1,64.8,66.9,64.9z"/>
	<path class="st1" d="M64,64.1c1.3-1.1,3-1.4,4.6-0.9c1.6,0.3,2.8,1.6,2,3.2c-1.3,2-3.2,3.5-4.8,5.3c-0.6,0.6-1.2,1.2-2,1.4
		c-1.6,0.3-2.8-1.2-3-2.6c-0.3-1.6,0.3-3.2,0.9-4.7C61.7,65.7,63.1,64.7,64,64.1z"/>
	<path class="st1" d="M69.2,61.6c1.8-0.4,3.6,0.3,3.6,2.4c0,1.3-0.8,2.5-1.6,3.5c-2.1,2.4-4.1,5.4-7.2,6.6c-6,1.6-5.3-6.8-2.5-9.7
		c0.4-0.5,0.9-1,1.6-1C63,63.4,66.9,61.9,69.2,61.6z"/>
	<path class="st1" d="M65.8,60.6c1.8-0.8,3.7-1.6,5.5-2.3c0.9-0.4,2.1-0.8,2.8,0.2c1.1,4.5,0.5,9.8-2.7,13.3
		c-2.5,2.7-6.4,4.9-10.2,4.2c-2.7-0.6-3.6-2.9-3.2-5.4c0.1-1.7,0.3-3.4,1.3-4.8c0.2-0.3,0.5-0.6,0.7-0.9S63.8,61.5,65.8,60.6z"/>
	<path class="st1" d="M72.8,81.6c0.6-0.2,1.4-0.4,2,0c0.7,0.5,0.5,1.5-0.3,1.7c-0.4,0.1-0.8,0.2-1.2,0.2c-2,0.2-2.3-1.8-0.2-2"/>
	<path class="st1" d="M70.8,80.8c2.5-0.5,4.9-1.4,7.5-1.7c0.4,0,0.9,0.2,1.2,0.6c1.1,1.9-2.5,4.4-4,5.1c-2.1,1.2-6,0.6-5.8-2.4
		c0.1-0.8,0.8-1.6,1.6-1.7L70.8,80.8z"/>
	<path class="st1" d="M69.8,85.8c-1.8-1.4-2.3-4.6-0.1-5.9c2.6-1,5.5-1.4,8.2-2.2c0.5-0.1,1-0.3,1.5-0.1c1.7,0.4,1.8,2.6,1.2,4
		c-1.1,3.2-4.3,5.5-7.7,5.6C73,87.2,70.7,86.6,69.8,85.8z"/>
	<path class="st1" d="M78.6,76.3c1.2-0.3,2.7-0.4,3.5,0.7c0.4,0.6,0.3,1.4,0.2,2.1c-0.3,2.2-1,4.4-2.5,5.9c-2.2,1.9-4.8,3.5-7.1,5.2
		c-2,1.5-2.6-0.1-3-1.8c-0.4-1-1.3-1.8-1.8-2.7c-1.6-2.6-0.2-6.4,2.8-7.2C70.6,78.6,75.8,76.9,78.6,76.3z"/>
	<path class="st1" d="M69.1,77.8c2.3-0.7,4.7-1.4,7-2.1c2.6-0.7,5.9-2,6.2-5.1c0-0.7-0.1-1.9,0.8-2.1c1-0.1,1.3,1.1,1.2,1.9
		c0,2.7,0,5.4-0.5,8c-0.5,2.6-1.4,5.2-3,7.4c-2.1,2.6-5,4.5-7.6,6.7c-1,1.1-2.6,0.9-3.6-0.2c-1.3-1.6-1.7-3.8-2.7-5.6
		C64.5,82.9,66.7,80.2,69.1,77.8z"/>
	<path class="st1" d="M67.4,77.4c3-0.6,6-1.6,8.9-2.8c4.7-1.6,5-6,2.5-9.7c-0.9-1.6-2.1-3.1-2.2-5c0.1-2,2.2-2,3.2-0.5
		c0.5,0.8,0.7,1.7,1.3,2.4c0.8,1,2.1,1.4,3,2.2c1.3,1.2,1.7,3.1,1.9,4.9c0.5,5.4-0.7,11-3.4,15.7c-1.5,2.6-4.6,4.1-6.3,6.7
		c-0.7,1-1.2,2.1-2.1,3c-2.2,2.5-5.4,1.7-6.6-1.3c-0.5-1.3-0.6-2.7-1.2-3.9C63.1,84.2,64.6,81.2,67.4,77.4z"/>
	<path class="st1" d="M66.4,100c1.3-0.9,3.3-1.8,4.9-1c0.4,0.3,0.6,0.8,1,1c0.3,0.2,0.8,0.1,1.1,0c3.1-2.3,7.3-2.7,10.3,0"/>
	<path class="st1" d="M95.4,99.9c1,0.2,2.5,0.1,2.5-1.2c0-0.5-0.5-0.9-0.6-1.5c-0.2-1.3,1.6-1.8,2.1-0.6c0.2,0.6,0,1.5,0.7,1.7"/>
	<path class="st1" d="M64,51.2c0.7-0.3,1.7-0.6,2.2,0c0.2,0.3,0.1,0.8-0.1,1c-0.5,0.4-1.3,0.7-1.9,0.6c-0.5-0.1-0.7-0.7-0.5-1.2
		L64,51.2z"/>
	<path class="st1" d="M62.7,53.9c-1-3.2,2.7-5.2,5.5-5.3c0.8-0.1,1.8-0.1,2.3,0.6c0.8,1.1-0.1,2.5-1.1,3.2c-1.9,1.5-6.6,1.7-6.5,1.6
		L62.7,53.9z"/>
	<path class="st1" d="M61.6,55.2c-0.5-0.7-0.6-1.7-0.4-2.6c0.5-3.2,3.4-5.1,6.3-6.2c0.7-0.3,1.4-0.6,2.1-0.3c1,0.6,1.7,1.6,2.5,2.4
		c0.4,0.4,0.9,0.9,1.1,1.5c0.7,1.7-0.3,3.6-1.8,4.6c-1.3,0.9-5.7,1.4-6.5,1.5C64.8,56,62.2,56.1,61.6,55.2z"/>
	<path class="st1" d="M90.1,87.1c1.1-0.9,2.6,0.4,1.8,1.6c-0.7,1-2.3,0.3-2.1-0.9c0.1-0.5,0.6-1,1.1-1"/>
	<path class="st1" d="M91.3,92.6c-0.6,0.9-1.6,1.5-2.5,0.6c-1.3-1.7-1.5-4.1-1-6.1c1.2-4.2,4.7-1.8,6,0.9
		C93.9,88,92.4,91.1,91.3,92.6z"/>
	<path class="st1" d="M90.3,96.4c-3.7-1.2-6.7-3.6-4.7-7.8c0.8-1.8,1.2-3.9,2.4-5.5c1.2-1.5,3.1-1.4,4.2,0.2
		c0.9,1.4,1.8,2.2,2.8,3.4c1.6,2.8-1.2,5.6-1.1,8.4c0.2,1.5-0.3,2.7-2,2.5C91,97.5,90.3,96.4,90.3,96.4z"/>
	<path class="st1" d="M100.3,88.3c-2.2,0.7-1-5.4-0.5-6.3"/>
	<path class="st1" d="M100.1,91.9c-2.1,0.5-1.7-5.7-2.7-7c-0.8-1.4-2.5-2.9-1.5-4.6c0.8-1.3,3.2-1,4-2.3"/>
	<path class="st1" d="M99.9,93.1c-0.8,0.5-1.6-0.3-1.8-1c-1-1.7-0.9-3.7-1.3-5.6c-0.4-1.4-1.7-2.4-2.7-3.5c-0.4-0.5-0.8-1.1-0.7-1.8
		c0.1-0.5,0.5-0.8,0.8-1.1c1.8-1.6,3.7-3.1,5.6-4.5"/>
	<path class="st1" d="M93.6,70.9c0.8-1.2,3.3-2.6,4.4-1.2c0.5,1.4-1.1,3-2.3,3.6c-2.2,1.1-3.1-1-1.9-2.7L93.6,70.9z"/>
	<path class="st1" d="M90.6,100.2c-2-2.9-6.5-2-9.2-4c-4.2-3.2-0.9-6.6,1.9-9.2c3-3.2,4.2-7.5,5.4-11.6c0.5-1.7-0.7-3.3-0.5-5.2
		s1-3.6,2.5-4.6c1.3-0.9,3-1,4.5-1.6c2.2-0.8,4-2.6,4.9-4.8"/>
	<path class="st1" d="M92.5,100.1c-0.5-2.3-3.3-2.4-5.1-3.1c-2.5-1-4.3-3.7-4.1-6.4c0.2-2.4,1.7-4.5,3.2-6.4
		c3.6-4.1,4.7-7.1,3.2-12.5c-0.5-2.3,1.2-4.7,3.3-5.8c2.4-1.2,5.7-1.3,6.9-4.1"/>
	<path class="st1" d="M100.1,71.5c-1.4,1.5-3.1,2.9-4.9,4c-0.6,0.3-1.2,0.7-1.8,0.6c-2.5-0.5-2.3-4.7-1.1-6.4
		c1.2-1.7,3.3-2.1,5.2-2.5c0.8-0.2,1.9-0.3,2.5,0.3"/>
	<path class="st1" d="M99.9,65.1c-2.5,0.6-4.9,1.6-7.1,2.9c-1.5,0.8-2.6,2.3-2.4,4.1c0.1,1.4,0.3,3,1.1,4.2c1.4,1.5,3.9,1,5.4-0.2
		c1.1-0.9,1.9-2.2,3.2-2.6"/>
	<path class="st1" d="M54.2,47.4c1.6-0.8,2.7,1.2,2.1,2.5c-0.6,1.6-3.4,3.9-3.5,0.8C52.8,49.5,53.1,48.1,54.2,47.4L54.2,47.4z"/>
	<path class="st1" d="M52,44.5c0.6-2.6,1.6-5.2,0.4-7.7c-0.6-1.9-0.8-4.4-2.7-5.5c-2.2-1.2-3.8,1-3.6,3c0.1,3.5,2.3,6.5,3.8,9.6
		c0.3,0.7,1,1.2,1.8,0.9L52,44.5z"/>
	<path class="st1" d="M51.8,42.8c0,0.4-0.6,0.6-0.9,0.4c-0.4-0.2-0.6-0.5-0.8-0.9c-1-2-2.1-3.9-2.5-6.1c-0.4-1.3,0.1-3.5,1.8-3.2
		c0.7,0.2,1.1,1,1.4,1.7c0.6,1.9,1,3.9,1.3,5.8C52.2,41.4,52.2,42.2,51.8,42.8"/>
	<path class="st1" d="M49.9,38c0.3-0.1,0.5,0.2,0.7,0.4c0.4,0.5,0.4,1.1-0.4,1.1c-0.6,0-1.2-0.6-0.8-1.2c0.2-0.2,0.5-0.3,0.8-0.1"/>
	<path class="st1" d="M86.8,49.4c1.7-0.1,2.1,1.1,0.9,2.2c-1.3,0.8-2.2-1.3-1.2-2.1L86.8,49.4z"/>
	<path class="st1" d="M85.4,49.1c0.4-1.6,1.9-2.4,3.3-1.3c0.6,0.5,1,1.1,1.4,1.8c0.6,1,1.2,2,1.1,3.1c-0.2,1.2-1,2.2-1.5,3.3
		c-0.5,1.1-1.7,2.6-3,1.8c-0.5-0.3-0.7-0.9-0.8-1.5c-0.3-1-0.6-2-0.8-3.1C85,53.2,84.9,50.4,85.4,49.1z"/>
	<path class="st1" d="M85.3,45.2c-1.8,1.6-2.8,4.1-3.6,6.4c-0.4,1.3-0.8,2.8-0.2,4c0.4,0.9,1.3,1.5,2.1,2.1c2,1.2,4,2.9,6.3,3.6
		c0.5,0.1,1.1-0.1,1.3-0.6c0.3-0.6,0-1.3,0.1-2c0-0.7,0.5-1.3,0.9-2c1.2-2,2.5-5,1.5-7.4c-0.3-0.4-0.7-0.8-1.1-1.1
		c-1.6-1.2-4.6-3.6-4.5-3.6C88.1,44.7,86,44.6,85.3,45.2z"/>
	<path class="st1" d="M99.9,52.1c-2.2,1.3-5.1,0.8-4.2-2.3c0.6-2.1,2.5-3.8,4.7-4.2"/>
	<path class="st1" d="M99.9,46.7c-1.3-0.2-2.3,1.5-2,2.7c0.4,0.7,1.4,0.6,2,0.4"/>
	<path class="st1" d="M99.9,36.8c-1.7-0.8-2.1-3-3.1-4.4c-0.7-1-1.7-1.7-2.8-2.2c-1.1-0.5-2.3-0.8-3.4-1.2c-1.3-0.4-2.9-0.7-4,0.2
		c-1.3,1-1.2,3.1-2.4,4.1c-1.2,1.1-3.4,0.5-3.8-1.1c-0.3-1.1,0.2-2.2,0.7-3.3c1.3-2.6,2.3-5.4,4-7.8c0.9-1.3,1-3,0.1-4.3
		c-1.5-2-5.2-3.1-7.4-1.9c-0.9,0.5-1.4,1.5-2,2.3c-2.1,3-5.6,4.8-9.3,5c-1.8,0.1-3.1-0.8-2.8-2.7c0.1-0.7,0.3-1.4,0.2-2.1
		c-0.2-2.1-2.2-3.3-3.2-5.1c-2.3-4.3,3.9-5.3,6.9-5.4c1.2,0,2.5,0.1,3.7-0.4c2-0.7,3.4-3.1,2.8-5.2c-0.3-1.1,1.2-1.8,2.2-2.2
		c1.1-0.4,2.2-0.5,3.4-0.5c1,0,2.1,0,2.9,0.7c0.6,0.5,0.9,1.4,1.5,2c0.6,0.6,1.5,0.9,2.3,1.2c2,0.7,3.9,1.8,5.8,2.9
		c2.8,1.6,7.8,5.2,7.8,5.1"/>
	<path class="st1" d="M100,21.7c-2-0.2-4.3,1.7-3.8,3.7c0.8,1.1,2.6,0.9,3.8,0.7"/>
	<path class="st1" d="M91.4,12.9c-1-0.3-2-1.1-2.2-2.1c0.2-2.3,3.2,0.2,3.9,1c0.9,0.9,0.6,2.1-0.8,1.9
		C91.9,13.6,91.4,12.9,91.4,12.9z"/>
	<path class="st1" d="M78.2,4.2c-0.7,0-0.8,1.1-0.1,1.2c0.7,0.1,0.9-1,0.2-1.2L78.2,4.2z"/>
	<path class="st1" d="M68.6,13.7c0.8-0.3,1.5,1,1.4,1.6c-0.3,1-1.8,0.7-2.1-0.1c-0.2-0.6,0-1.3,0.5-1.6L68.6,13.7z"/>
	<path class="st1" d="M99.6,35.1c-2.4-6.2-10.3-8.8-16.3-6.4c2-5.1,7.9-13.7-1.2-15.1c-6.3-1.7-7,4.1-10.9,7c-1.5,1-3.7,1.1-4.9-0.2
		c-1.3-2-1.7-4.5-2.6-6.7c-2.6-6.6,5.9-5.4,9.9-6c0.8-2.2,1.1-4.5,2.4-6.5C77.7-1,79.9-0.1,81.1,2c0.7,1,1.3,2.2,2.4,2.7
		c1,0.5,2.2,0.2,3.4,0.2c2.5,0,4.9,1.2,7.1,2.4c1.1,0.6,2.3,1.2,3.2,2.1c0.9,0.9,1.7,2.1,1.7,3.3c0,2-1.9,5.3,0.9,6.2"/>
	<path class="st1" d="M93.5,16.9c2.2-1.4,3.2-3.7,1-5.7c-1.4-1.4-3.2-2.3-5.1-2.7c-0.5-0.1-1.1-0.2-1.6,0.1c-1.6,1-0.4,3.1,0.7,4
		c1.4,1.3,2.5,3,4.1,4L93.5,16.9z"/>
	<path class="st1" d="M100.1,31.1c-2.6-1.5-5.4-3.1-6.5-5.9c-0.5-1.2-0.6-2.4-1-3.6c-1.5-4.7-7.1-8.9-11.8-10.2
		c-4.8-0.9-6.4,1.7-8.5,5.4c-1.6,2.5-4.9,3.3-6.3,0.2c-0.7-1.9-1.1-5.1,0.6-6.5c1.8-1.3,4.5,0.4,6.5-0.5c2.2-1.2,1.9-4.2,2.8-6.2
		c1.4-2.8,4.1-2.4,5.4,0.2c0.6,1.1,1.1,2.3,2.1,3c1.2,0.8,2.8,0.7,4.3,0.6c2.1-0.1,4.3,0.1,6.2,1c1.9,0.9,3.5,2.7,3.7,4.8
		c0.1,1.4-0.3,2.7-0.2,4.1c0.1,1.4,1,2.9,2.3,2.9"/>
	<path class="st1" d="M94.8,46.4c3.8,0.6,5.9-3.4,4.4-6.6c-1.3-2.7-3.3-5.4-5.9-7.1c-1.4-0.7-3.2-0.9-4.5,0c-2,1.4-1.9,4.7-4,6
		c-3,1.5-5.7-1.5-6.7-4.1c-1.7-3.2-2.8-8,0.6-10.5c0.5-1.6,0.9-3.1,1.3-4.7c-2.8,1.5-5.8,2.7-8.9,3.5c-4.4,1.2-9,1.6-13,3.9
		c-2.9,1.6-5.5,4.6-5.4,7.9c0.4,4.1,3.1,7.6,4.6,11.4c0.5-1,1.1-2,2.2-2.4c0.6-0.2,1.2-0.2,1.7-0.3c3.8-0.9,4.4-6.5,8.2-7.3
		c3.3-0.5,5.9,2.8,7.2,5.5c0.5,1.1,0.9,2.2,1.6,3.2c0.7,0.9,1.9,1.6,3.1,1.4c1.9-0.5,2.6-3.2,4.5-3.6c1-0.2,2,0.3,2.9,0.8
		C90.9,44.3,92.9,45.4,94.8,46.4L94.8,46.4z"/>
	<path class="st1" d="M80.3,41.9c0.8-0.4,2.2,0.1,2.1,1.1c-0.3,0.9-1.9,1.2-2.5,0.4C79.5,42.8,79.8,42,80.3,41.9z"/>
	<path class="st1" d="M66.9,28.2c0.8-0.3,2.4-0.8,2.6,0.3c0,1.1-2.5,1.2-2.9,0.3c-0.1-0.3,0.2-0.7,0.5-0.8L66.9,28.2z"/>
	<path class="st1" d="M92.3,36.2c2.4,0,4.5,3.4,2.6,5.2c-1.9,1.1-3.2-1.3-3.3-3c-0.1-0.7-0.2-1.5,0.4-2L92.3,36.2z"/>
	<path class="st1" d="M94.4,44.2c-3.5,0-4.6-3.4-4.7-6.4c-0.1-0.6-0.1-1.3,0.2-1.9c0.8-1.7,3-1.6,4.4-0.7c2.6,1.4,4.1,4.6,3.4,7.5
		C97.6,42.7,95.7,44.2,94.4,44.2z"/>
	<path class="st1" d="M70.9,29.9c-1.6,1-3.7,1-5.5,1.2c-0.4,0-0.9,0-1.2-0.2c-1.3-1.1-0.1-3,1.1-3.6c1.4-0.6,3.2-1.2,4.7-0.9
		c1.3,0.3,1.9,1.9,1.3,3L70.9,29.9z"/>
	<path class="st1" d="M71.3,25.3c3.5,0.5,2.7,4.5,0.4,6.1c-3.2,2.3-8.1,2.4-10,6.3c-0.5,1.2-1.4,1.8-2.4,0.7
		c-1.2-1.1-1.9-2.9-1.2-4.4c0.5-1,1.4-1.6,2.1-2.5c0.7-0.9,1.1-2.1,1.8-3.1c1.4-2.1,4-2.9,6.4-3.3C68.3,25.2,70.1,25.1,71.3,25.3z"
		/>
	<path class="st1" d="M58.4,28.8c4.1-2.9,9-4.5,13.9-4.8c0.7,0,1.4,0,2,0.4c1.1,0.8,0.9,2.4,0.7,3.6c-0.2,2.1,0.3,4.3,1.3,6.2
		c0.2,0.5,0.5,1.1,0.2,1.5c-0.3,0.3-0.7,0.3-1.1,0.2c-2-0.4-3.9-1.7-5.9-1.3c-3.1,0.7-4.1,4.7-6.6,6.4c-2,1.5-4.5,1.1-5.9-0.9
		c-1.4-1.7-2.2-3.9-2-6C55.1,31.8,58.4,28.8,58.4,28.8z"/>
	<path class="st1" d="M98.6,0.2c-0.2,1.2-1.6,1.6-2.2,2.5c-0.3,0.5-0.3,1.2,0.1,1.5c1.2,0.5,2.6,0.4,3.9,0.6"/>
	<path class="st1" d="M92,0.2c0.9,0.6,1.1,1.8,1.6,2.7c1.3,2.2,4,2.8,6.3,3.3c0,0,0-0.1,0.1-0.1"/>
	<path class="st1" d="M90,0.4c0.8,0.2,1.1,1.1,1.4,1.7c0.6,1.2,1.9,2,3,2.8c1.9,1.2,3.9,2.5,5.8,3.7"/>
	<path class="st1" d="M71.6,0.3C72.2,1.8,72,3.8,70.1,4c-1.8,0.1-2.3-1.9-1.7-3.3c0.1-0.2,0.3-0.5,0.5-0.5"/>
	<path class="st1" d="M43.9,8.4c1,1.2-0.9,1.5-1.5,0.7c-0.4-0.4-0.7-1.4,0-1.6C42.4,7.6,43.5,7.9,43.9,8.4z"/>
	<path class="st1" d="M41.3,9.4c-3-2.3,0.1-4.6,2.5-2.5c2.3,1.6,3.6,4.3,4.3,7c0.8,2.7,1.2,5.5,2,8.1c0.2,0.6,0.4,1.2,0.9,1.6
		c1.2,1.1,3,0.5,4.4,0.8c1.4,0.4,1.6,1.8,0,2.1c-3.3,0.9-6.1-1.6-8.8-3.1c-1.1-0.5-1.4-1.6-1-2.7c0.2-0.7,0.6-1.4,0.9-2.1
		c0.6-1.8-0.1-3.9-1.3-5.4s-4-3.7-3.8-3.7L41.3,9.4z"/>
	<path class="st1" d="M37.8,0.1c0.3,2.9,4,2.6,6.1,3.2c2.8,0.9,4.4,3.6,5.7,6.1c0.6,1.2,1.3,2.5,1.3,3.8c0,1.5-0.8,2.9-0.9,4.3
		c-0.2,1.9,0.8,3.9,2.4,5c3.6,2.7,10.6,1.1,8.5-4.5C60,15.6,57.4,13,58.5,10c0.5-1.2,1.5-2,2.3-2.9c3-3.6-0.9-4.8-3.3-6.8"/>
	<path class="st1" d="M39.4,0.3c1.4,2.3,5.1,2,6-0.5"/>
	<path class="st1" d="M47.7,0.1c0,1.1-0.1,2.6,0.8,3.5c0.5,0.3,1.1,0.2,1.7,0c1.7-0.5,3.8-1.4,4.1-3.3"/>
	<path class="st1" d="M57.5,3.6c3.3,0.5,1,3.9-0.1,5.4c-0.6,0.9-1.1,2-0.9,3.1c0.1,0.8,0.6,1.6,1,2.3c1,1.7,1.8,3.4,2.3,5.3
		c0.2,0.6,0.3,1.4,0,1.9c-0.4,0.7-1.3,0.9-2.1,1c-2.4,0.4-5.7-0.1-6.4-2.9c-0.3-2.9,1.4-5.7,1-8.5c-0.3-1.5-1.5-2.6-2.5-3.7
		c-0.5-0.5-1.1-1.4-0.5-2.1C49.3,5.4,54.6,3,57.5,3.6z"/>
	<path class="st1" d="M56.7,14.4c0.7,1,0.9,2.2,1.4,3.3c0.2,0.6,0.4,1.2,0.3,1.9c-0.3,1.9-3.3,2.7-4.8,1.8c-1.2-1.3-0.9-3.5-0.7-5.1
		c0.1-1.2,0.8-2.6,2.2-2.5C55.1,13.8,56.1,13.8,56.7,14.4z"/>
	<path class="st1" d="M54.9,16.3c1.4,0.1,2.8,1.7,1.9,3.1c-0.9,1.3-2.6,0.6-2.5-1c0.1-0.6,0.2-1.5,0.7-2L54.9,16.3z"/>
	<path class="st1" d="M54.1,5.3c1.3-0.1,2.9,0.6,3,2c-0.2,2.2-3.5,2.4-4.9,1.2c-1.3-1.6,0.6-3.6,2.4-3.2L54.1,5.3z"/>
</g>
</svg>
